<?xml version="1.0" encoding="utf-8"?>
<!-- Generator: Adobe Illustrator 22.0.0, SVG Export Plug-In . SVG Version: 6.00 Build 0)  -->
<svg version="1.1" id="WPS" xmlns="http://www.w3.org/2000/svg" xmlns:xlink="http://www.w3.org/1999/xlink" x="0px" y="0px"
	 width="1900px" height="1045px" viewBox="0 0 1900 1045" style="enable-background:new 0 0 1900 1045;" xml:space="preserve">
<style type="text/css">
	.st0{fill:#3737F1;}
</style>
<circle class="st0" cx="1056.3" cy="586" r="7.6"/>
<circle class="st0" cx="931.6" cy="640.7" r="7.6"/>
<circle class="st0" cx="995" cy="686.5" r="7.6"/>
<circle class="st0" cx="1130.8" cy="634.8" r="7.6"/>
<circle class="st0" cx="1060.3" cy="652.7" r="7.6"/>
<circle class="st0" cx="1002.5" cy="609" r="7.6"/>
<circle class="st0" cx="1242.5" cy="521.7" r="7.6"/>
<circle class="st0" cx="1346" cy="481.1" r="7.6"/>
<circle class="st0" cx="1378.7" cy="398.7" r="7.6"/>
<circle class="st0" cx="1317.7" cy="477.1" r="7.6"/>
<circle class="st0" cx="1296.4" cy="436.4" r="7.6"/>
<circle class="st0" cx="1454.6" cy="515.6" r="7.6"/>
<circle class="st0" cx="1511.1" cy="550.4" r="7.6"/>
<circle class="st0" cx="1491.1" cy="650.7" r="7.6"/>
<circle class="st0" cx="1480.2" cy="719.6" r="7.6"/>
<circle class="st0" cx="1472.5" cy="552.6" r="7.6"/>
<circle class="st0" cx="1530.3" cy="693.3" r="7.6"/>
<circle class="st0" cx="1530" cy="660.6" r="7.6"/>
<circle class="st0" cx="1281" cy="534.6" r="7.6"/>
<circle class="st0" cx="1479.3" cy="341.8" r="7.6"/>
<circle class="st0" cx="1406.7" cy="271.9" r="7.6"/>
<circle class="st0" cx="1476.2" cy="428.8" r="7.6"/>
<circle class="st0" cx="1377.5" cy="211.1" r="7.6"/>
<circle class="st0" cx="1463.8" cy="283.1" r="7.6"/>
<circle class="st0" cx="1412.3" cy="344.8" r="7.6"/>
<circle class="st0" cx="1498.7" cy="824.6" r="7.6"/>
<circle class="st0" cx="1400.2" cy="795.4" r="7.6"/>
<circle class="st0" cx="1548.7" cy="762.4" r="7.6"/>
<circle class="st0" cx="1537" cy="896.9" r="7.6"/>
<circle class="st0" cx="1468.2" cy="912.3" r="7.6"/>
<circle class="st0" cx="1560.9" cy="976.5" r="7.6"/>
<circle class="st0" cx="1520" cy="957.6" r="7.6"/>
<circle class="st0" cx="1563" cy="829.3" r="7.6"/>
<circle class="st0" cx="1215.5" cy="483.5" r="7.6"/>
<circle class="st0" cx="1147" cy="513.6" r="7.6"/>
<circle class="st0" cx="1109.2" cy="543.9" r="7.6"/>
<circle class="st0" cx="1229.1" cy="593.6" r="7.6"/>
<circle class="st0" cx="857.5" cy="698.3" r="7.6"/>
<circle class="st0" cx="916.1" cy="711.4" r="7.6"/>
<circle class="st0" cx="758.1" cy="804.5" r="7.6"/>
<circle class="st0" cx="790.3" cy="809.3" r="7.6"/>
<circle class="st0" cx="550.5" cy="913.8" r="7.6"/>
<circle class="st0" cx="641.4" cy="873.1" r="7.6"/>
<circle class="st0" cx="633.8" cy="814.5" r="7.6"/>
<circle class="st0" cx="524.5" cy="895.9" r="7.6"/>
<circle class="st0" cx="712.5" cy="861.1" r="7.6"/>
<circle class="st0" cx="809.3" cy="705.9" r="7.6"/>
<circle class="st0" cx="209" cy="89.4" r="5.6"/>
</svg>
