<?xml version="1.0" encoding="utf-8"?>
<!-- Generator: Adobe Illustrator 22.0.0, SVG Export Plug-In . SVG Version: 6.00 Build 0)  -->
<svg version="1.1" id="Layer_1" xmlns="http://www.w3.org/2000/svg" xmlns:xlink="http://www.w3.org/1999/xlink" x="0px" y="0px"
	 width="5760px" height="3240px" viewBox="0 0 5760 3240" style="enable-background:new 0 0 5760 3240;" xml:space="preserve">
<style type="text/css">
	.st0{fill:#939392;}
</style>
<rect x="3190.9" y="1672.3" class="st0" width="25.8" height="25.8"/>
<rect x="3492.9" y="1615" transform="matrix(0.866 -0.5 0.5 0.866 -343.4871 1969.6921)" class="st0" width="21.5" height="21.5"/>
<rect x="3499.9" y="1656.4" transform="matrix(0.866 -0.5 0.5 0.866 -363.2331 1978.7306)" class="st0" width="21.5" height="21.5"/>
<rect x="3384.2" y="1695.8" transform="matrix(0.866 -0.5 0.5 0.866 -398.4563 1926.1663)" class="st0" width="21.5" height="21.5"/>
<rect x="3370.7" y="1733" transform="matrix(0.866 -0.5 0.5 0.866 -418.8463 1924.3658)" class="st0" width="21.5" height="21.5"/>
<rect x="3294.6" y="1761.4" transform="matrix(0.866 -0.5 0.5 0.866 -443.2174 1890.1548)" class="st0" width="21.5" height="21.5"/>
<rect x="3309.8" y="1720.7" transform="matrix(0.866 -0.5 0.5 0.866 -420.8672 1892.2817)" class="st0" width="21.5" height="21.5"/>
<rect x="3256.8" y="1795.7" transform="matrix(0.866 -0.5 0.5 0.866 -465.4435 1875.854)" class="st0" width="21.5" height="21.5"/>
<rect x="3183.5" y="1846.4" transform="matrix(0.866 -0.5 0.5 0.866 -500.6259 1845.9708)" class="st0" width="21.5" height="21.5"/>
<rect x="3125" y="1819.6" transform="matrix(0.866 -0.5 0.5 0.866 -495.0887 1813.1213)" class="st0" width="21.5" height="21.5"/>
<rect x="3049" y="1916.9" transform="matrix(0.866 -0.5 0.5 0.866 -553.9183 1788.1718)" class="st0" width="21.5" height="21.5"/>
<rect x="2955.5" y="1929.2" transform="matrix(0.866 -0.5 0.5 0.866 -572.5838 1743.0818)" class="st0" width="21.5" height="21.5"/>
<rect x="2987.2" y="1952.6" transform="matrix(0.866 -0.5 0.5 0.866 -580.0317 1762.041)" class="st0" width="21.5" height="21.5"/>
<rect x="2863.2" y="1994.8" transform="matrix(0.866 -0.5 0.5 0.866 -617.7429 1705.7184)" class="st0" width="21.5" height="21.5"/>
<rect x="2806.2" y="2029.7" transform="matrix(0.866 -0.5 0.5 0.866 -642.8297 1681.9131)" class="st0" width="21.5" height="21.5"/>
<rect x="2845.3" y="2028.6" transform="matrix(0.866 -0.5 0.5 0.866 -637.0279 1701.3082)" class="st0" width="21.5" height="21.5"/>
<rect x="2901.7" y="2064.9" transform="matrix(0.866 -0.5 0.5 0.866 -647.6195 1734.3734)" class="st0" width="21.5" height="21.5"/>
<rect x="2950.9" y="2053.9" transform="matrix(0.866 -0.5 0.5 0.866 -635.5455 1757.4597)" class="st0" width="21.5" height="21.5"/>
<rect x="3015.2" y="1999.4" transform="matrix(0.866 -0.5 0.5 0.866 -599.6542 1782.3324)" class="st0" width="21.5" height="21.5"/>
<rect x="3032.9" y="2034" transform="matrix(0.866 -0.5 0.5 0.866 -614.5865 1795.8226)" class="st0" width="21.5" height="21.5"/>
<rect x="3064.6" y="1980.1" transform="matrix(0.866 -0.5 0.5 0.866 -583.4135 1804.4644)" class="st0" width="21.5" height="21.5"/>
<rect x="3106.7" y="1955.8" transform="matrix(0.866 -0.5 0.5 0.866 -565.6172 1822.2274)" class="st0" width="21.5" height="21.5"/>
<rect x="3167.2" y="1931.6" transform="matrix(0.866 -0.5 0.5 0.866 -545.4263 1849.2275)" class="st0" width="21.5" height="21.5"/>
<rect x="3200.2" y="1902.3" transform="matrix(0.866 -0.5 0.5 0.866 -526.3615 1861.8246)" class="st0" width="21.5" height="21.5"/>
<rect x="3213.4" y="1939.9" transform="matrix(0.866 -0.5 0.5 0.866 -543.3571 1873.4714)" class="st0" width="21.5" height="21.5"/>
<rect x="3262.4" y="1864.5" transform="matrix(0.866 -0.5 0.5 0.866 -499.0849 1887.8627)" class="st0" width="21.5" height="21.5"/>
<rect x="3345.9" y="1880.3" transform="matrix(0.866 -0.5 0.5 0.866 -495.8275 1931.7347)" class="st0" width="21.5" height="21.5"/>
<rect x="3320.6" y="1834.3" transform="matrix(0.866 -0.5 0.5 0.866 -476.1894 1912.9338)" class="st0" width="21.5" height="21.5"/>
<rect x="3386.7" y="1802.3" transform="matrix(0.866 -0.5 0.5 0.866 -451.3331 1941.6924)" class="st0" width="21.5" height="21.5"/>
<rect x="3411.3" y="1776" transform="matrix(0.866 -0.5 0.5 0.866 -434.927 1950.4407)" class="st0" width="21.5" height="21.5"/>
<rect x="3447.5" y="1776.1" transform="matrix(0.866 -0.5 0.5 0.866 -430.091 1968.537)" class="st0" width="21.5" height="21.5"/>
<rect x="3497.6" y="1721.9" transform="matrix(0.866 -0.5 0.5 0.866 -396.2994 1986.3784)" class="st0" width="21.5" height="21.5"/>
<rect x="3522.8" y="1765.5" transform="matrix(0.866 -0.5 0.5 0.866 -414.7408 2004.8025)" class="st0" width="21.5" height="21.5"/>
<rect x="3608.4" y="1739.8" transform="matrix(0.866 -0.5 0.5 0.866 -390.3695 2044.1667)" class="st0" width="21.5" height="21.5"/>
<rect x="3630.6" y="1776" transform="matrix(0.866 -0.5 0.5 0.866 -405.5508 2060.0901)" class="st0" width="21.5" height="21.5"/>
<rect x="3555.3" y="1812.7" transform="matrix(0.866 -0.5 0.5 0.866 -433.9782 2027.4021)" class="st0" width="21.5" height="21.5"/>
<rect x="3563.3" y="1767.4" transform="matrix(0.866 -0.5 0.5 0.866 -410.2619 2025.3154)" class="st0" width="21.5" height="21.5"/>
<rect x="3579.2" y="1851.5" transform="matrix(0.866 -0.5 0.5 0.866 -450.1522 2044.5431)" class="st0" width="21.5" height="21.5"/>
<rect x="3657.9" y="1812.8" transform="matrix(0.866 -0.5 0.5 0.866 -420.246 2078.6987)" class="st0" width="21.5" height="21.5"/>
<rect x="3606.6" y="1822.1" transform="matrix(0.866 -0.5 0.5 0.866 -431.8079 2054.2939)" class="st0" width="21.5" height="21.5"/>
<rect x="3627" y="1937" transform="matrix(0.866 -0.5 0.5 0.866 -486.4958 2079.8928)" class="st0" width="21.5" height="21.5"/>
<rect x="3703.5" y="1885.1" transform="matrix(0.866 -0.5 0.5 0.866 -450.2905 2111.1829)" class="st0" width="21.5" height="21.5"/>
<rect x="3676.6" y="1994" transform="matrix(0.866 -0.5 0.5 0.866 -508.3626 2112.3215)" class="st0" width="21.5" height="21.5"/>
<rect x="3693.7" y="1941.3" transform="matrix(0.866 -0.5 0.5 0.866 -479.7084 2113.8162)" class="st0" width="21.5" height="21.5"/>
<rect x="3661.5" y="1917.1" transform="matrix(0.866 -0.5 0.5 0.866 -471.9375 2094.4451)" class="st0" width="21.5" height="21.5"/>
<rect x="3752.8" y="1773.5" transform="matrix(0.866 -0.5 0.5 0.866 -387.915 2120.875)" class="st0" width="21.5" height="21.5"/>
<rect x="3689.9" y="1776" transform="matrix(0.866 -0.5 0.5 0.866 -397.6011 2089.7415)" class="st0" width="21.5" height="21.5"/>
<rect x="3653.6" y="1716.7" transform="matrix(0.866 -0.5 0.5 0.866 -372.7825 2063.6841)" class="st0" width="21.5" height="21.5"/>
<rect x="3670.3" y="1628" transform="matrix(0.866 -0.5 0.5 0.866 -326.2122 2060.1252)" class="st0" width="21.5" height="21.5"/>
<rect x="3719.5" y="1683.2" transform="matrix(0.866 -0.5 0.5 0.866 -347.1882 2092.1396)" class="st0" width="21.5" height="21.5"/>
<rect x="3579.3" y="1575" transform="matrix(0.866 -0.5 0.5 0.866 -311.9022 2007.5015)" class="st0" width="21.5" height="21.5"/>
<rect x="3646.9" y="1565.1" transform="matrix(0.866 -0.5 0.5 0.866 -297.8622 2040.0017)" class="st0" width="21.5" height="21.5"/>
<rect x="3598.8" y="1600.3" transform="matrix(0.866 -0.5 0.5 0.866 -321.932 2020.647)" class="st0" width="21.5" height="21.5"/>
<rect x="3813.8" y="1548" transform="matrix(0.866 -0.5 0.5 0.866 -266.9727 2121.1848)" class="st0" width="21.5" height="21.5"/>
<rect x="3791.2" y="1466.5" transform="matrix(0.866 -0.5 0.5 0.866 -229.2226 2098.9558)" class="st0" width="21.5" height="21.5"/>
<rect x="3684.9" y="1529.3" transform="matrix(0.866 -0.5 0.5 0.866 -274.8715 2054.2151)" class="st0" width="21.5" height="21.5"/>
<rect x="3868.8" y="1550.4" transform="matrix(0.866 -0.5 0.5 0.866 -260.8087 2148.9917)" class="st0" width="21.5" height="21.5"/>
<rect x="3905.6" y="1489.2" transform="matrix(0.866 -0.5 0.5 0.866 -225.3015 2159.1646)" class="st0" width="21.5" height="21.5"/>
<rect x="3962.2" y="1484.8" transform="matrix(0.866 -0.5 0.5 0.866 -215.4867 2186.9172)" class="st0" width="21.5" height="21.5"/>
<rect x="3943.7" y="1377.6" transform="matrix(0.866 -0.5 0.5 0.866 -164.3511 2163.3008)" class="st0" width="21.5" height="21.5"/>
<rect x="4092.3" y="1414.3" transform="matrix(0.866 -0.5 0.5 0.866 -162.7958 2242.5129)" class="st0" width="21.5" height="21.5"/>
<rect x="4115.8" y="1367.8" transform="matrix(0.866 -0.5 0.5 0.866 -136.4108 2248.0386)" class="st0" width="21.5" height="21.5"/>
<rect x="4170.7" y="1354.8" transform="matrix(0.866 -0.5 0.5 0.866 -122.5523 2273.7522)" class="st0" width="21.5" height="21.5"/>
<rect x="4131.9" y="1269.2" transform="matrix(0.866 -0.5 0.5 0.866 -84.9354 2242.8794)" class="st0" width="21.5" height="21.5"/>
<rect x="4202.7" y="1315.8" transform="matrix(0.866 -0.5 0.5 0.866 -98.7562 2284.5112)" class="st0" width="21.5" height="21.5"/>
<rect x="4509.9" y="1426.5" transform="matrix(0.9946 -0.1042 0.1042 0.9946 -125.1481 478.8557)" class="st0" width="21.5" height="21.5"/>
<rect x="4364.3" y="1225" transform="matrix(0.9946 -0.1042 0.1042 0.9946 -104.9456 462.5918)" class="st0" width="21.5" height="21.5"/>
<rect x="4391.9" y="1192.2" transform="matrix(0.9946 -0.1042 0.1042 0.9946 -101.3774 465.2818)" class="st0" width="21.5" height="21.5"/>
<rect x="4453.1" y="1206.5" transform="matrix(0.9946 -0.1042 0.1042 0.9946 -102.5314 471.7395)" class="st0" width="21.5" height="21.5"/>
<rect x="4460.3" y="1157.9" transform="matrix(0.9946 -0.1042 0.1042 0.9946 -97.4262 472.2277)" class="st0" width="21.5" height="21.5"/>
<rect x="4510.3" y="1168.6" transform="matrix(0.9946 -0.1042 0.1042 0.9946 -98.2763 477.4962)" class="st0" width="21.5" height="21.5"/>
<rect x="4597.5" y="1121.3" transform="matrix(0.9946 -0.1042 0.1042 0.9946 -92.871 486.3161)" class="st0" width="21.5" height="21.5"/>
<rect x="4639.1" y="1097.1" transform="matrix(0.9946 -0.1042 0.1042 0.9946 -90.1193 490.5222)" class="st0" width="21.5" height="21.5"/>
<rect x="4442.5" y="1104.7" transform="matrix(0.9946 -0.1042 0.1042 0.9946 -91.9837 470.081)" class="st0" width="21.5" height="21.5"/>
<rect x="4465" y="1076.9" transform="matrix(0.9946 -0.1042 0.1042 0.9946 -88.967 472.2689)" class="st0" width="21.5" height="21.5"/>
<rect x="4334.8" y="1094.9" transform="matrix(0.9946 -0.1042 0.1042 0.9946 -91.5474 458.8049)" class="st0" width="21.5" height="21.5"/>
<rect x="4388.2" y="1144.9" transform="matrix(0.9946 -0.1042 0.1042 0.9946 -96.4679 464.6425)" class="st0" width="21.5" height="21.5"/>
<rect x="4371.5" y="1088.7" transform="matrix(0.9946 -0.1042 0.1042 0.9946 -90.7067 462.5993)" class="st0" width="21.5" height="21.5"/>
<rect x="4357.2" y="1026" transform="matrix(0.9946 -0.1042 0.1042 0.9946 -84.2514 460.7658)" class="st0" width="21.5" height="21.5"/>
<rect x="4439.4" y="1045.8" transform="matrix(0.9946 -0.1042 0.1042 0.9946 -85.8621 469.4386)" class="st0" width="21.5" height="21.5"/>
<rect x="4435.5" y="1008.6" transform="matrix(0.9946 -0.1042 0.1042 0.9946 -82.0059 468.8288)" class="st0" width="21.5" height="21.5"/>
<rect x="4404.7" y="967.8" transform="matrix(0.9946 -0.1042 0.1042 0.9946 -77.9271 465.3955)" class="st0" width="21.5" height="21.5"/>
<rect x="4337.7" y="996.7" transform="matrix(0.9946 -0.1042 0.1042 0.9946 -81.306 458.576)" class="st0" width="21.5" height="21.5"/>
<rect x="4320.8" y="948.4" transform="matrix(0.9946 -0.1042 0.1042 0.9946 -76.3632 456.5447)" class="st0" width="21.5" height="21.5"/>
<rect x="4310.2" y="878.9" transform="matrix(0.9946 -0.1042 0.1042 0.9946 -69.1794 455.0659)" class="st0" width="21.5" height="21.5"/>
<rect x="4393.9" y="882.6" transform="matrix(0.9946 -0.1042 0.1042 0.9946 -69.1075 463.8105)" class="st0" width="21.5" height="21.5"/>
<rect x="4457.7" y="907" transform="matrix(0.9946 -0.1042 0.1042 0.9946 -71.3005 470.5923)" class="st0" width="21.5" height="21.5"/>
<rect x="4494.4" y="882.6" transform="matrix(0.9946 -0.1042 0.1042 0.9946 -68.5598 474.2833)" class="st0" width="21.5" height="21.5"/>
<rect x="4408.8" y="818.1" transform="matrix(0.9946 -0.1042 0.1042 0.9946 -62.3029 465.0082)" class="st0" width="21.5" height="21.5"/>
<rect x="4368.5" y="752.3" transform="matrix(0.9946 -0.1042 0.1042 0.9946 -55.6648 460.4547)" class="st0" width="21.5" height="21.5"/>
<rect x="4356.7" y="698.4" transform="matrix(0.9946 -0.1042 0.1042 0.9946 -50.1174 458.9254)" class="st0" width="21.5" height="21.5"/>
<rect x="4268.5" y="742.4" transform="matrix(0.9946 -0.1042 0.1042 0.9946 -55.1798 449.981)" class="st0" width="21.5" height="21.5"/>
<rect x="4259.1" y="696.4" transform="matrix(0.9946 -0.1042 0.1042 0.9946 -50.4405 448.7494)" class="st0" width="21.5" height="21.5"/>
<rect x="4249.2" y="642" transform="matrix(0.9946 -0.1042 0.1042 0.9946 -44.8259 447.4245)" class="st0" width="21.5" height="21.5"/>
<rect x="4331.2" y="612.6" transform="matrix(0.9946 -0.1042 0.1042 0.9946 -41.3194 455.8056)" class="st0" width="21.5" height="21.5"/>
<rect x="4532.5" y="1465.9" transform="matrix(0.9946 -0.1042 0.1042 0.9946 -129.1256 481.4287)" class="st0" width="21.5" height="21.5"/>
<rect x="4552.9" y="1506.4" transform="matrix(0.9946 -0.1042 0.1042 0.9946 -133.2386 483.7678)" class="st0" width="21.5" height="21.5"/>
<rect x="4437.3" y="1494.5" transform="matrix(0.9946 -0.1042 0.1042 0.9946 -132.6312 471.6638)" class="st0" width="21.5" height="21.5"/>
<rect x="4554.4" y="1542.9" transform="matrix(0.9946 -0.1042 0.1042 0.9946 -137.0376 484.1287)" class="st0" width="21.5" height="21.5"/>
<rect x="4611" y="1489.1" transform="matrix(0.9946 -0.1042 0.1042 0.9946 -131.1184 489.7264)" class="st0" width="21.5" height="21.5"/>
<rect x="4714.9" y="1475.5" transform="matrix(0.9946 -0.1042 0.1042 0.9946 -129.1397 500.4781)" class="st0" width="21.5" height="21.5"/>
<rect x="4767.3" y="1505.2" transform="matrix(0.9946 -0.1042 0.1042 0.9946 -131.9458 506.1061)" class="st0" width="21.5" height="21.5"/>
<rect x="4778" y="1441.8" transform="matrix(0.9946 -0.1042 0.1042 0.9946 -125.2856 506.8777)" class="st0" width="21.5" height="21.5"/>
<rect x="4423.7" y="1648.4" transform="matrix(0.9946 -0.1042 0.1042 0.9946 -148.7366 471.0769)" class="st0" width="21.5" height="21.5"/>
<rect x="4554.2" y="1640.5" transform="matrix(0.9946 -0.1042 0.1042 0.9946 -147.2064 484.6373)" class="st0" width="21.5" height="21.5"/>
<rect x="4483.5" y="1739.7" transform="matrix(0.9946 -0.1042 0.1042 0.9946 -157.9273 477.81)" class="st0" width="21.5" height="21.5"/>
<rect x="4585.3" y="1733" transform="matrix(0.9946 -0.1042 0.1042 0.9946 -156.6734 488.3742)" class="st0" width="21.5" height="21.5"/>
<rect x="4619.8" y="1798.9" transform="matrix(0.9946 -0.1042 0.1042 0.9946 -163.3555 492.3334)" class="st0" width="21.5" height="21.5"/>
<rect x="4508.7" y="1797.3" transform="matrix(0.9946 -0.1042 0.1042 0.9946 -163.7877 480.7496)" class="st0" width="21.5" height="21.5"/>
<rect x="4608" y="1840" transform="matrix(0.9946 -0.1042 0.1042 0.9946 -167.7035 491.329)" class="st0" width="21.5" height="21.5"/>
<rect x="4517.5" y="1896.5" transform="matrix(0.9946 -0.1042 0.1042 0.9946 -174.0743 482.2066)" class="st0" width="21.5" height="21.5"/>
<rect x="4612.4" y="1938.9" transform="matrix(0.9946 -0.1042 0.1042 0.9946 -177.9807 492.3257)" class="st0" width="21.5" height="21.5"/>
<rect x="4616.4" y="1977.3" transform="matrix(0.9946 -0.1042 0.1042 0.9946 -181.9579 492.9538)" class="st0" width="21.5" height="21.5"/>
<rect x="4537.3" y="2140.2" transform="matrix(0.9946 -0.1042 0.1042 0.9946 -199.3626 485.5969)" class="st0" width="21.5" height="21.5"/>
<rect x="4558.4" y="2215.9" transform="matrix(0.9946 -0.1042 0.1042 0.9946 -207.1401 488.2079)" class="st0" width="21.5" height="21.5"/>
<rect x="4492.3" y="2169.8" transform="matrix(0.9946 -0.1042 0.1042 0.9946 -202.696 481.0671)" class="st0" width="21.5" height="21.5"/>
<rect x="4678.5" y="2205.4" transform="matrix(0.9946 -0.1042 0.1042 0.9946 -205.3854 500.663)" class="st0" width="21.5" height="21.5"/>
<rect x="4685" y="2289.2" transform="matrix(0.9946 -0.1042 0.1042 0.9946 -214.0804 501.7956)" class="st0" width="21.5" height="21.5"/>
<rect x="4617" y="2394.8" transform="matrix(0.9946 -0.1042 0.1042 0.9946 -225.4609 495.2884)" class="st0" width="21.5" height="21.5"/>
<rect x="4539.4" y="2421.7" transform="matrix(0.9946 -0.1042 0.1042 0.9946 -228.6867 487.3442)" class="st0" width="21.5" height="21.5"/>
<rect x="4522.9" y="2468.3" transform="matrix(0.9946 -0.1042 0.1042 0.9946 -233.6255 485.8828)" class="st0" width="21.5" height="21.5"/>
<rect x="4484.4" y="2436.7" transform="matrix(0.9946 -0.1042 0.1042 0.9946 -230.5444 481.6936)" class="st0" width="21.5" height="21.5"/>
<rect x="4467.1" y="2480.1" transform="matrix(0.9946 -0.1042 0.1042 0.9946 -235.1604 480.1312)" class="st0" width="21.5" height="21.5"/>
<rect x="4430.5" y="2454.3" transform="matrix(0.9946 -0.1042 0.1042 0.9946 -232.6741 476.1717)" class="st0" width="21.5" height="21.5"/>
<rect x="4403.6" y="2504.8" transform="matrix(0.9946 -0.1042 0.1042 0.9946 -238.0807 473.6518)" class="st0" width="21.5" height="21.5"/>
<rect x="4382.6" y="2470.4" transform="matrix(0.9946 -0.1042 0.1042 0.9946 -234.6131 471.2736)" class="st0" width="21.5" height="21.5"/>
<rect x="4357.9" y="2516.4" transform="matrix(0.9946 -0.1042 0.1042 0.9946 -239.5406 468.9456)" class="st0" width="21.5" height="21.5"/>
<rect x="4312.3" y="2491.9" transform="matrix(0.9946 -0.1042 0.1042 0.9946 -237.2353 464.0628)" class="st0" width="21.5" height="21.5"/>
<rect x="4324.8" y="2530.1" transform="matrix(0.9946 -0.1042 0.1042 0.9946 -241.1449 465.5799)" class="st0" width="21.5" height="21.5"/>
<rect x="4261.6" y="2516.4" transform="matrix(0.9946 -0.1042 0.1042 0.9946 -240.0625 458.913)" class="st0" width="21.5" height="21.5"/>
<rect x="4609.2" y="2456.5" transform="matrix(0.9946 -0.1042 0.1042 0.9946 -231.9306 494.8077)" class="st0" width="21.5" height="21.5"/>
<rect x="4650.4" y="2452.1" transform="matrix(0.9946 -0.1042 0.1042 0.9946 -231.2506 499.0807)" class="st0" width="21.5" height="21.5"/>
<rect x="4656.4" y="2509.8" transform="matrix(0.9946 -0.1042 0.1042 0.9946 -237.229 500.0149)" class="st0" width="21.5" height="21.5"/>
<rect x="4663.5" y="2562.9" transform="matrix(0.9946 -0.1042 0.1042 0.9946 -242.7181 501.0441)" class="st0" width="21.5" height="21.5"/>
<rect x="4759.9" y="2616.4" transform="matrix(0.9946 -0.1042 0.1042 0.9946 -247.7649 511.3781)" class="st0" width="21.5" height="21.5"/>
<rect x="4661.5" y="2596.4" transform="matrix(0.9946 -0.1042 0.1042 0.9946 -246.222 501.0193)" class="st0" width="21.5" height="21.5"/>
<rect x="4710.7" y="2694.4" transform="matrix(0.9946 -0.1042 0.1042 0.9946 -256.1654 506.6743)" class="st0" width="21.5" height="21.5"/>
<rect x="4678" y="2715" transform="matrix(0.9946 -0.1042 0.1042 0.9946 -258.4915 503.3798)" class="st0" width="21.5" height="21.5"/>
<rect x="4638.9" y="2668.9" transform="matrix(0.9946 -0.1042 0.1042 0.9946 -253.8986 499.0549)" class="st0" width="21.5" height="21.5"/>
<rect x="4572.1" y="2694.4" transform="matrix(0.9946 -0.1042 0.1042 0.9946 -256.9232 492.2392)" class="st0" width="21.5" height="21.5"/>
<rect x="4733.3" y="2804.1" transform="matrix(0.9946 -0.1042 0.1042 0.9946 -267.4747 509.6313)" class="st0" width="21.5" height="21.5"/>
<rect x="4663.5" y="2829.9" transform="matrix(0.9946 -0.1042 0.1042 0.9946 -270.5377 502.4948)" class="st0" width="21.5" height="21.5"/>
<rect x="4557" y="2848.2" transform="matrix(0.9946 -0.1042 0.1042 0.9946 -273.0251 491.5054)" class="st0" width="21.5" height="21.5"/>
<rect x="4593.7" y="2848.2" transform="matrix(0.9946 -0.1042 0.1042 0.9946 -272.8264 495.3286)" class="st0" width="21.5" height="21.5"/>
<rect x="4536.4" y="2810.3" transform="matrix(0.9946 -0.1042 0.1042 0.9946 -269.1905 489.1476)" class="st0" width="21.5" height="21.5"/>
<rect x="4581.9" y="2908.7" transform="matrix(0.9946 -0.1042 0.1042 0.9946 -279.1946 494.4284)" class="st0" width="21.5" height="21.5"/>
<rect x="4627.7" y="2893.9" transform="matrix(0.9946 -0.1042 0.1042 0.9946 -277.4029 499.1137)" class="st0" width="21.5" height="21.5"/>
<rect x="4673.4" y="2893.9" transform="matrix(0.9946 -0.1042 0.1042 0.9946 -277.1577 503.8728)" class="st0" width="21.5" height="21.5"/>
<rect x="4711.4" y="2875.1" transform="matrix(0.9946 -0.1042 0.1042 0.9946 -274.9931 507.7318)" class="st0" width="21.5" height="21.5"/>
<rect x="4749" y="2875.2" transform="matrix(0.9946 -0.1042 0.1042 0.9946 -274.7917 511.6571)" class="st0" width="21.5" height="21.5"/>
<rect x="4714.9" y="2847.2" transform="matrix(0.9946 -0.1042 0.1042 0.9946 -272.0648 507.9449)" class="st0" width="21.5" height="21.5"/>
<rect x="4651.6" y="2863.4" transform="matrix(0.9946 -0.1042 0.1042 0.9946 -274.0906 501.4452)" class="st0" width="21.5" height="21.5"/>
<rect x="4675" y="1858.4" transform="matrix(0.9946 -0.1042 0.1042 0.9946 -169.2557 498.4044)" class="st0" width="21.5" height="21.5"/>
<rect x="2800.6" y="2116.4" transform="matrix(0.866 -0.5 0.5 0.866 -686.9544 1690.6992)" class="st0" width="21.5" height="21.5"/>
<rect x="2765.4" y="2136.7" transform="matrix(0.866 -0.5 0.5 0.866 -701.7996 1675.797)" class="st0" width="21.5" height="21.5"/>
<rect x="2849.8" y="2116.4" transform="matrix(0.866 -0.5 0.5 0.866 -680.319 1715.311)" class="st0" width="21.5" height="21.5"/>
<rect x="2719.9" y="2216.7" transform="matrix(0.866 -0.5 0.5 0.866 -747.9177 1663.7964)" class="st0" width="21.5" height="21.5"/>
<rect x="2798.4" y="2174.9" transform="matrix(0.866 -0.5 0.5 0.866 -716.4886 1697.421)" class="st0" width="21.5" height="21.5"/>
<rect x="2688.8" y="2180.9" transform="matrix(0.866 -0.5 0.5 0.866 -734.1823 1643.4623)" class="st0" width="21.5" height="21.5"/>
<rect x="2660.7" y="2104.8" transform="matrix(0.866 -0.5 0.5 0.866 -699.8968 1619.2073)" class="st0" width="21.5" height="21.5"/>
<rect x="2582.2" y="2234" transform="matrix(0.866 -0.5 0.5 0.866 -774.9946 1597.2743)" class="st0" width="21.5" height="21.5"/>
<rect x="2624.1" y="2228.2" transform="matrix(0.866 -0.5 0.5 0.866 -766.4669 1617.402)" class="st0" width="21.5" height="21.5"/>
<rect x="2646.7" y="2192.8" transform="matrix(0.866 -0.5 0.5 0.866 -745.7494 1624.0027)" class="st0" width="21.5" height="21.5"/>
<rect x="2636.2" y="2259.5" transform="matrix(0.866 -0.5 0.5 0.866 -780.5236 1627.6744)" class="st0" width="21.5" height="21.5"/>
<rect x="2524.2" y="2274.2" transform="matrix(0.866 -0.5 0.5 0.866 -802.8529 1573.6616)" class="st0" width="21.5" height="21.5"/>
<rect x="2451.6" y="2211" transform="matrix(0.866 -0.5 0.5 0.866 -780.9767 1528.8757)" class="st0" width="21.5" height="21.5"/>
<rect x="2456.7" y="2310.4" transform="matrix(0.866 -0.5 0.5 0.866 -830.025 1544.7354)" class="st0" width="21.5" height="21.5"/>
<rect x="2358.3" y="2347.6" transform="matrix(0.866 -0.5 0.5 0.866 -861.7761 1500.538)" class="st0" width="21.5" height="21.5"/>
<rect x="2357.1" y="2287" transform="matrix(0.866 -0.5 0.5 0.866 -831.6495 1491.8135)" class="st0" width="21.5" height="21.5"/>
<rect x="2378.6" y="2257.7" transform="matrix(0.866 -0.5 0.5 0.866 -814.1376 1498.6459)" class="st0" width="21.5" height="21.5"/>
<rect x="2420.1" y="2247" transform="matrix(0.866 -0.5 0.5 0.866 -803.2332 1517.9301)" class="st0" width="21.5" height="21.5"/>
<rect x="2328.8" y="2366.5" transform="matrix(0.866 -0.5 0.5 0.866 -875.192 1488.2939)" class="st0" width="21.5" height="21.5"/>
<rect x="2348.9" y="2401.3" transform="matrix(0.866 -0.5 0.5 0.866 -889.9259 1503.0206)" class="st0" width="21.5" height="21.5"/>
<rect x="2302.5" y="2297" transform="matrix(0.866 -0.5 0.5 0.866 -843.9938 1465.8502)" class="st0" width="21.5" height="21.5"/>
<rect x="2308.4" y="2253.2" transform="matrix(0.866 -0.5 0.5 0.866 -821.3 1462.9302)" class="st0" width="21.5" height="21.5"/>
<rect x="2248.9" y="2332.7" transform="matrix(0.866 -0.5 0.5 0.866 -868.988 1443.8016)" class="st0" width="21.5" height="21.5"/>
<rect x="2229" y="2279.6" transform="matrix(0.866 -0.5 0.5 0.866 -845.1096 1426.7429)" class="st0" width="21.5" height="21.5"/>
<rect x="2170.3" y="2371.3" transform="matrix(0.866 -0.5 0.5 0.866 -898.8275 1409.7139)" class="st0" width="21.5" height="21.5"/>
<rect x="2234.2" y="2421" transform="matrix(0.866 -0.5 0.5 0.866 -915.1302 1448.3339)" class="st0" width="21.5" height="21.5"/>
<rect x="2162.5" y="2467.5" transform="matrix(0.866 -0.5 0.5 0.866 -947.9684 1418.6726)" class="st0" width="21.5" height="21.5"/>
<rect x="2080.5" y="2432.7" transform="matrix(0.866 -0.5 0.5 0.866 -941.5851 1373.0067)" class="st0" width="21.5" height="21.5"/>
<rect x="2106.5" y="2492.9" transform="matrix(0.866 -0.5 0.5 0.866 -968.2102 1394.0793)" class="st0" width="21.5" height="21.5"/>
<rect x="2031.1" y="2464.9" transform="matrix(0.866 -0.5 0.5 0.866 -964.2662 1352.6571)" class="st0" width="21.5" height="21.5"/>
<rect x="2062.1" y="2518.6" transform="matrix(0.866 -0.5 0.5 0.866 -986.9612 1375.3524)" class="st0" width="21.5" height="21.5"/>
<rect x="2098.1" y="2531.9" transform="matrix(0.866 -0.5 0.5 0.866 -988.8004 1395.1038)" class="st0" width="21.5" height="21.5"/>
<rect x="2022.5" y="2541.4" transform="matrix(0.866 -0.5 0.5 0.866 -1003.7001 1358.5988)" class="st0" width="21.5" height="21.5"/>
<rect x="2003.6" y="2584.9" transform="matrix(0.866 -0.5 0.5 0.866 -1027.952 1354.943)" class="st0" width="21.5" height="21.5"/>
<rect x="1960.6" y="2579" transform="matrix(0.866 -0.5 0.5 0.866 -1030.7942 1332.6862)" class="st0" width="21.5" height="21.5"/>
<rect x="1956.5" y="2507.9" transform="matrix(0.866 -0.5 0.5 0.866 -995.7869 1321.111)" class="st0" width="21.5" height="21.5"/>
<rect x="1978.2" y="2473.5" transform="matrix(0.866 -0.5 0.5 0.866 -975.7001 1327.3269)" class="st0" width="21.5" height="21.5"/>
<rect x="1972.6" y="2403.3" transform="matrix(0.866 -0.5 0.5 0.866 -941.3107 1315.1456)" class="st0" width="21.5" height="21.5"/>
<rect x="1903.4" y="2541.4" transform="matrix(0.866 -0.5 0.5 0.866 -1019.6448 1299.0516)" class="st0" width="21.5" height="21.5"/>
<rect x="1873.1" y="2570.2" transform="matrix(0.866 -0.5 0.5 0.866 -1038.1029 1287.7341)" class="st0" width="21.5" height="21.5"/>
<rect x="1891.7" y="2621.7" transform="matrix(0.866 -0.5 0.5 0.866 -1061.3695 1303.965)" class="st0" width="21.5" height="21.5"/>
<rect x="1858.4" y="2647.5" transform="matrix(0.866 -0.5 0.5 0.866 -1078.7064 1290.7385)" class="st0" width="21.5" height="21.5"/>
<rect x="1803.7" y="2674.1" transform="matrix(0.866 -0.5 0.5 0.866 -1099.3383 1266.9674)" class="st0" width="21.5" height="21.5"/>
<rect x="1942.1" y="2650.1" transform="matrix(0.866 -0.5 0.5 0.866 -1068.8224 1332.9631)" class="st0" width="21.5" height="21.5"/>
<rect x="1711.1" y="2638.7" transform="matrix(0.866 -0.5 0.5 0.866 -1094.0815 1215.9065)" class="st0" width="21.5" height="21.5"/>
<rect x="1746.9" y="2643.1" transform="matrix(0.866 -0.5 0.5 0.866 -1091.4584 1234.3821)" class="st0" width="21.5" height="21.5"/>
<rect x="1716.4" y="2729.5" transform="matrix(0.866 -0.5 0.5 0.866 -1138.7655 1230.7258)" class="st0" width="21.5" height="21.5"/>
<rect x="1736.9" y="2761.2" transform="matrix(0.866 -0.5 0.5 0.866 -1151.8831 1245.2181)" class="st0" width="21.5" height="21.5"/>
<rect x="1656.8" y="2704" transform="matrix(0.866 -0.5 0.5 0.866 -1133.9963 1197.5089)" class="st0" width="21.5" height="21.5"/>
<rect x="1654.6" y="2773.5" transform="matrix(0.866 -0.5 0.5 0.866 -1169.0128 1205.718)" class="st0" width="21.5" height="21.5"/>
<rect x="1613.4" y="2717.6" transform="matrix(0.866 -0.5 0.5 0.866 -1146.5707 1177.6516)" class="st0" width="21.5" height="21.5"/>
<rect x="1701.7" y="2800.8" transform="matrix(0.866 -0.5 0.5 0.866 -1176.3708 1232.9337)" class="st0" width="21.5" height="21.5"/>
<rect x="2543.3" y="2179.5" transform="matrix(0.866 -0.5 0.5 0.866 -752.9575 1570.4847)" class="st0" width="21.5" height="21.5"/>
<rect x="2528.6" y="2114.4" transform="matrix(0.866 -0.5 0.5 0.866 -722.3504 1554.4463)" class="st0" width="21.5" height="21.5"/>
</svg>
