<?xml version="1.0" encoding="utf-8"?>
<!-- Generator: Adobe Illustrator 22.0.0, SVG Export Plug-In . SVG Version: 6.00 Build 0)  -->
<svg version="1.1" id="Layer_1" xmlns="http://www.w3.org/2000/svg" xmlns:xlink="http://www.w3.org/1999/xlink" x="0px" y="0px"
	 width="5760px" height="3240px" viewBox="0 0 5760 3240" style="enable-background:new 0 0 5760 3240;" xml:space="preserve">
<style type="text/css">
	.st0{fill:#3737F1;}
</style>
<circle class="st0" cx="3198.6" cy="1802" r="23.7"/>
<circle class="st0" cx="2809.1" cy="1972.6" r="23.7"/>
<circle class="st0" cx="3006.9" cy="2115.6" r="23.7"/>
<circle class="st0" cx="3431" cy="1954.1" r="23.7"/>
<circle class="st0" cx="3210.9" cy="2010.1" r="23.7"/>
<circle class="st0" cx="3030.6" cy="1873.7" r="23.7"/>
<circle class="st0" cx="3779.9" cy="1601.1" r="23.7"/>
<ellipse transform="matrix(0.1602 -0.9871 0.9871 0.1602 1990.5947 5288.2627)" class="st0" cx="4103.1" cy="1474.3" rx="23.7" ry="23.7"/>
<circle class="st0" cx="4205.1" cy="1217" r="23.7"/>
<circle class="st0" cx="4014.8" cy="1461.9" r="23.7"/>
<circle class="st0" cx="3948.2" cy="1334.7" r="23.7"/>
<circle class="st0" cx="4442.3" cy="1582" r="23.7"/>
<circle class="st0" cx="4618.8" cy="1690.9" r="23.7"/>
<circle class="st0" cx="4556.3" cy="2004" r="23.7"/>
<circle class="st0" cx="4522" cy="2219.1" r="23.7"/>
<circle class="st0" cx="4498.1" cy="1697.6" r="23.7"/>
<circle class="st0" cx="4678.7" cy="2137" r="23.7"/>
<circle class="st0" cx="4677.8" cy="2034.9" r="23.7"/>
<circle class="st0" cx="3900.3" cy="1641.5" r="23.7"/>
<circle class="st0" cx="4519.5" cy="1039.3" r="23.7"/>
<circle class="st0" cx="4292.6" cy="821.2" r="23.7"/>
<circle class="st0" cx="4509.7" cy="1311" r="23.7"/>
<circle class="st0" cx="4201.5" cy="631.3" r="23.7"/>
<circle class="st0" cx="4471.1" cy="855.9" r="23.7"/>
<circle class="st0" cx="4310.2" cy="1048.6" r="23.7"/>
<circle class="st0" cx="4580" cy="2547.1" r="23.7"/>
<circle class="st0" cx="4272.4" cy="2455.9" r="23.7"/>
<circle class="st0" cx="4736.1" cy="2352.9" r="23.7"/>
<circle class="st0" cx="4699.4" cy="2772.6" r="23.7"/>
<circle class="st0" cx="4484.7" cy="2820.8" r="23.7"/>
<circle class="st0" cx="4774" cy="3021.4" r="23.7"/>
<circle class="st0" cx="4646.4" cy="2962.2" r="23.7"/>
<circle class="st0" cx="4780.7" cy="2561.6" r="23.7"/>
<circle class="st0" cx="3695.7" cy="1481.8" r="23.7"/>
<circle class="st0" cx="3481.8" cy="1575.9" r="23.7"/>
<circle class="st0" cx="3363.8" cy="1670.3" r="23.7"/>
<circle class="st0" cx="3737.9" cy="1825.6" r="23.7"/>
<circle class="st0" cx="2577.7" cy="2152.5" r="23.7"/>
<circle class="st0" cx="2760.7" cy="2193.5" r="23.7"/>
<circle class="st0" cx="2267.4" cy="2484.3" r="23.7"/>
<circle class="st0" cx="2367.9" cy="2499.3" r="23.7"/>
<circle class="st0" cx="1618.9" cy="2825.5" r="23.7"/>
<circle class="st0" cx="1902.8" cy="2698.3" r="23.7"/>
<circle class="st0" cx="1879.2" cy="2515.4" r="23.7"/>
<circle class="st0" cx="1537.8" cy="2769.5" r="23.7"/>
<circle class="st0" cx="2124.9" cy="2660.9" r="23.7"/>
<circle class="st0" cx="2427" cy="2176.2" r="23.7"/>
</svg>
