<?xml version="1.0" encoding="utf-8"?>
<!-- Generator: Adobe Illustrator 22.0.0, SVG Export Plug-In . SVG Version: 6.00 Build 0)  -->
<svg version="1.1" xmlns="http://www.w3.org/2000/svg" xmlns:xlink="http://www.w3.org/1999/xlink" x="0px" y="0px" width="5760px"
	 height="3240px" viewBox="0 0 5760 3240" style="enable-background:new 0 0 5760 3240;" xml:space="preserve">
<style type="text/css">
	.st0{opacity:0.35;fill:url(#SVGID_1_);}
	.st1{opacity:0.35;fill:url(#SVGID_2_);}
	.st2{opacity:0.35;fill:url(#SVGID_3_);}
	.st3{opacity:0.35;fill:url(#SVGID_4_);}
	.st4{opacity:0.35;fill:url(#SVGID_5_);}
	.st5{opacity:0.35;fill:url(#SVGID_6_);}
	.st6{opacity:0.35;fill:url(#SVGID_7_);}
	.st7{opacity:0.5;fill:url(#SVGID_8_);}
	.st8{opacity:0.35;fill:url(#SVGID_9_);}
	.st9{opacity:0.5;fill:url(#SVGID_10_);}
	.st10{opacity:0.5;fill:url(#SVGID_11_);}
	.st11{opacity:0.5;fill:url(#SVGID_12_);}
	.st12{opacity:0.5;fill:url(#SVGID_13_);}
	.st13{opacity:0.5;fill:url(#SVGID_14_);}
	.st14{opacity:0.5;fill:url(#SVGID_15_);}
	.st15{opacity:0.5;fill:url(#SVGID_16_);}
	.st16{opacity:0.5;fill:url(#SVGID_17_);}
	.st17{opacity:0.5;fill:url(#SVGID_18_);}
	.st18{opacity:0.5;fill:url(#SVGID_19_);}
	.st19{opacity:0.5;fill:url(#SVGID_20_);}
	.st20{opacity:0.5;fill:url(#SVGID_21_);}
	.st21{opacity:0.5;fill:url(#SVGID_22_);}
	.st22{opacity:0.5;fill:url(#SVGID_23_);}
	.st23{opacity:0.5;fill:url(#SVGID_24_);}
	.st24{opacity:0.5;fill:url(#SVGID_25_);}
	.st25{opacity:0.5;fill:url(#SVGID_26_);}
	.st26{opacity:0.5;fill:url(#SVGID_27_);}
	.st27{opacity:0.5;fill:url(#SVGID_28_);}
	.st28{opacity:0.5;fill:url(#SVGID_29_);}
	.st29{opacity:0.5;fill:url(#SVGID_30_);}
	.st30{opacity:0.5;fill:url(#SVGID_31_);}
	.st31{opacity:0.5;fill:url(#SVGID_32_);}
	.st32{opacity:0.5;fill:url(#SVGID_33_);}
	.st33{opacity:0.5;fill:url(#SVGID_34_);}
	.st34{opacity:0.5;fill:url(#SVGID_35_);}
</style>
<g id="floods1">
	<radialGradient id="SVGID_1_" cx="1712.6517" cy="1998.832" r="190.5381" gradientUnits="userSpaceOnUse">
		<stop  offset="0" style="stop-color:#CDDAF1"/>
		<stop  offset="0.5" style="stop-color:#B1C7E9"/>
		<stop  offset="0.5094" style="stop-color:#B0C7E9"/>
		<stop  offset="1" style="stop-color:#99B7E2"/>
	</radialGradient>
	<path class="st0" d="M1584.3,1998.7c7.5,9.1,12.4,7.3,30.3,21.6c10.6,8.5,15.9,12.7,18.4,18.4c5.6,12.6-2.2,19.3,2.2,36.2
		c3.2,12.2,10.2,20.2,12.4,22.7c8.1,8.9,13.7,9,35.1,20c25.6,13.1,24.9,16.8,35.1,17.8c13.2,1.4,28.5-3.3,37.8-13.5
		c6.3-6.9,3.8-9.7,10.3-18.9c9.9-14.1,19.5-12.9,35.7-25.9c12.7-10.3,8.6-12.6,27-31.9c14.6-15.3,21.9-23,32.4-27
		c19-7.4,41.4-3.4,51.4-1.6c14.6,2.6,20.9,6.2,26.5,2.2c9.3-6.8,4.8-26.9,4.3-29.2c-0.3-1.3-6.2-26-27-36.8
		c-6.3-3.2-22.4-9.6-90.3,16.2c-47.4,18.1-59.1,28.6-79.5,22.7c-11.5-3.3-32.6-13.8-35.1-29.2c-0.8-4.9,0.3-9.9-2.7-18.4
		c-1.5-4.2-5.2-14.7-10.8-15.1c-7.9-0.7-9.4,19.7-23.8,24.3c-7.6,2.5-14.8-0.7-24.3-4.9c-4-1.7-16.5-7.7-26.5-21.1
		c-6-8-9-16.1-10.3-19.5c-5.1-13.9-3.1-19.8-7.6-22.2c-6.6-3.5-13,8.5-28.1,8.6c-11.6,0.1-20.9-6.8-24.9-9.7
		c-7.6-5.6-8.1-9.2-13-13.5c-16-14-51.2-10.9-57.8,3.2c-3.2,6.9,1.1,14.9,8.6,28.7c6.3,11.5,16.2,29.7,37.3,42.7
		c22.2,13.7,33.3,7.2,43.8,21.1C1580.4,1978.8,1573.8,1985.9,1584.3,1998.7z"/>
	<radialGradient id="SVGID_2_" cx="2910.7146" cy="2279.7466" r="154.1401" gradientUnits="userSpaceOnUse">
		<stop  offset="0" style="stop-color:#CDDAF1"/>
		<stop  offset="0.5" style="stop-color:#B1C7E9"/>
		<stop  offset="0.5094" style="stop-color:#B0C7E9"/>
		<stop  offset="1" style="stop-color:#99B7E2"/>
	</radialGradient>
	<path class="st1" d="M2835.3,2238.5c35.6,81.4,27.9,67.6,35.3,82c36.2,69.5,42.7,58.9,50.7,89.3c3.6,14,7.7,37.1,26.7,57.3
		c4.3,4.6,13.5,14.4,18.7,12c8.9-4.1,5.2-43.6-10-77.3c-14.9-33.2-33.6-44.8-28.7-64.7c2.2-8.8,9.1-19.7,18-20.7
		c23.2-2.6,44.1,63.6,50,61.3c4.7-1.8,1.3-48.6-24-94c-8.1-14.5-21.9-35-17.3-39.3c3.1-2.9,11.2,5.3,18,2
		c9.6-4.7,10.1-29.3,4.7-48.7c-5.9-20.9-16.1-26.3-12.7-38c2-6.8,5.9-6.3,16.7-21.3c8.1-11.2,12.1-16.8,12-23.3
		c-0.2-13.8-17.9-23.7-22-26c-29.7-16.6-75.3-9.4-82,9.3c-5.5,15.3,17.8,30.4,11.3,41.3c-7.8,13.2-43.6-5.4-64,13.3
		c-10.1,9.3-11.6,23.4-12.7,33.3C2821.8,2207.6,2828.9,2223.8,2835.3,2238.5z"/>
	<radialGradient id="SVGID_3_" cx="4585.4341" cy="617.4225" r="94.5043" gradientUnits="userSpaceOnUse">
		<stop  offset="0" style="stop-color:#CDDAF1"/>
		<stop  offset="0.5" style="stop-color:#B1C7E9"/>
		<stop  offset="0.5094" style="stop-color:#B0C7E9"/>
		<stop  offset="1" style="stop-color:#99B7E2"/>
	</radialGradient>
	<path class="st2" d="M4506.2,546.4c8.3,10.4-2.5-0.1,22.6,38.2c12.7,19.4,19.1,29.1,24.8,36.1c15.2,18.4,24.2,23.5,29.3,39.7
		c1.7,5.3,3.8,12.4,1.7,20.6c-3.1,12.6-12.9,16-11.6,21.2c2.6,10.4,43.8,6.9,44.2,11.2c0.3,2.9-17.7,6.6-17.9,5.8
		c-0.4-1.4,59.5-10.5,62.3-32.3c1.2-9.3-9-12.8-24.8-44c-5.3-10.4-8-15.8-8.5-22c-1.4-17.7,10.4-32.6,17.8-41.9
		c14.7-18.6,25.5-20.3,26-31.3c0.5-10.1-7.9-21.5-17-23c-11.7-1.9-23.4,12.7-33.5,25.3c-10.2,12.8-11.6,19.7-22.4,26.8
		c-5.8,3.8-12.2,8-20,7.1c-12.8-1.5-21.4-15.9-31.6-33.1c-6.4-10.8-7.7-15.8-15.2-23.5c-5.8-5.9-13.1-13.4-21.2-11.6
		c-6.5,1.5-11.6,8.5-12,15C4498.5,537.4,4502.8,542.3,4506.2,546.4z"/>
	<radialGradient id="SVGID_4_" cx="3629.2781" cy="1960.401" r="94.597" gradientUnits="userSpaceOnUse">
		<stop  offset="0" style="stop-color:#CDDAF1"/>
		<stop  offset="0.5" style="stop-color:#B1C7E9"/>
		<stop  offset="0.5094" style="stop-color:#B0C7E9"/>
		<stop  offset="1" style="stop-color:#99B7E2"/>
	</radialGradient>
	<path class="st3" d="M3562.9,1860.7c14.4-0.6,21.7-0.8,27.1,3.7c7.9,6.6,8,17.9,8,19.1c-0.1,10.6-6.7,12.7-10.9,29.2
		c-1.8,7-3.7,14.9,0.2,18.5c3.1,2.9,8.5,1.7,14.3,0.4c14.9-3.5,16.6-10,25.4-10.3c12.1-0.5,21.4,11.2,22.9,13.2
		c6.1,8,4.3,13.2,7.9,23.6c4.2,11.8,12.5,19.5,29,34.7c20.9,19.2,28.8,20.3,30.9,30.9c1.9,10-3,20.6-9.7,27.1
		c-1.1,1.1-11.7,11.2-23.6,9.4c-14.2-2.1-16.9-19.2-41.8-57.4c-20.6-31.7-31.1-39-40.7-38.7c-5.6,0.2-9,3-17.6,2
		c-3.7-0.4-15.4-1.7-21.7-10.8c-7.1-10.3-2.4-23.8-1.7-25.9c4.4-12.7,13.2-13.5,14.1-24.1c0.6-6.3-1.7-14.3-7.1-17.3
		c-5.5-3.1-9.6,1.6-16.1-1c-8.2-3.2-14.1-15.4-10.6-21.5C3543.6,1861.5,3550.1,1861.2,3562.9,1860.7z"/>
	<radialGradient id="SVGID_5_" cx="5039.1396" cy="1706.1801" r="127.2452" gradientUnits="userSpaceOnUse">
		<stop  offset="0" style="stop-color:#CDDAF1"/>
		<stop  offset="0.5" style="stop-color:#B1C7E9"/>
		<stop  offset="0.5094" style="stop-color:#B0C7E9"/>
		<stop  offset="1" style="stop-color:#99B7E2"/>
	</radialGradient>
	<path class="st4" d="M4918.3,1811c-2.1-15.2,18.4-20,48-58c12.7-16.3,13.6-21.3,27-36c12.4-13.5,21.2-19.6,34-30
		c18-14.6,58.5-47.6,91-93c9.4-13.2,14.4-22.1,17-21c4.5,1.8,3,33.1-15,55c-11.4,13.9-19.3,11.6-45,34c-13.2,11.5-25.8,22.7-23,30
		c2.4,6.1,15,8.3,25,7c25.7-3.2,30.1-28.2,59-34c2-0.4,19.2-3.7,23,3c3.7,6.5-7.3,18.9-10,22c-11.1,12.6-22.2,16.3-35,23
		c0,0-33,17.2-57,47c-12.4,15.4-6.7,14.6-20,32c-9.9,13-33,43.1-67,47c-12.2,1.4-20.6-1.2-23-2
		C4937.3,1833.7,4920.2,1824.2,4918.3,1811z"/>
	<radialGradient id="SVGID_6_" cx="4723.9897" cy="918.0389" r="73.9479" gradientUnits="userSpaceOnUse">
		<stop  offset="0" style="stop-color:#CDDAF1"/>
		<stop  offset="0.5" style="stop-color:#B1C7E9"/>
		<stop  offset="0.5094" style="stop-color:#B0C7E9"/>
		<stop  offset="1" style="stop-color:#99B7E2"/>
	</radialGradient>
	<path class="st5" d="M4648.9,880.7c2.2-6.7,9.2-12.6,14.3-11.4c4.1,1,3.5,5.7,8.1,8.1c5.5,2.8,12.6-0.7,19.5-4.2
		c7.5-3.8,9.8-6.5,20.8-14.6c12.8-9.4,19.2-14.1,21.8-12.3c2.6,1.8,1.3,9.7-1.9,15.6c-5.7,10.4-14.7,9.6-25.3,22.1
		c-3.6,4.3-8.1,9.5-6.5,12.7c2.6,5.1,20.8,5.1,34.4-2.9c8.2-4.9,11.5-10.8,23.7-15.3c1.9-0.7,9.8-3.6,11-1.6
		c1.5,2.4-8.8,7.5-14.6,19.5c-6.3,12.9-0.5,19.2-7.5,29.9c-6,9.1-14.1,10.3-13.3,13c1.2,4.1,22.1,6.2,38-3.6
		c10.9-6.7,13.1-15,18.5-14c6.4,1.2,11.5,14.4,9.1,25.3c-3,13.7-17.5,21.9-21.8,24.4c-8.7,4.9-16.1,5.8-24,14.3
		c-2,2.2-2.5,3.1-4.2,3.9c-8.9,3.9-23.1-10.1-29.9-16.9c-17.8-17.7-14.3-23.7-27.6-32.2c-9.6-6.2-14.1-4.7-23.7-13
		c-9-7.7-13-15.8-14-17.9c-3.4-7.2-4.2-13.4-4.9-18.2C4648.3,886.3,4648,883.7,4648.9,880.7z"/>
	<radialGradient id="SVGID_7_" cx="723.7297" cy="2449.0332" r="177.954" gradientUnits="userSpaceOnUse">
		<stop  offset="0" style="stop-color:#CDDAF1"/>
		<stop  offset="0.5" style="stop-color:#B1C7E9"/>
		<stop  offset="0.5094" style="stop-color:#B0C7E9"/>
		<stop  offset="1" style="stop-color:#99B7E2"/>
	</radialGradient>
	<path class="st6" d="M878.7,2372.8c-16.6,0.1-28.5-29.2-30.6-34.5c-2.2-5.4-2.8-8.7-7.1-18.8c-3.8-9-6-14.3-10.2-20.4
		c-6.3-9.2-10.6-15.5-17.3-16.5c-6.7-1-13.9,5.9-28.2,19.6c-10.5,10.1-15.9,15.3-18.8,22.8c-4.5,11.2-0.7,16.1-5.5,20.4
		c-6.8,6.2-15.8-2.2-33.7,2.4c-2.2,0.6-18.4,4.8-19.6,13.3c-0.8,5.2,4.5,8.3,3.1,11c-2.8,5.5-25-6.5-33.7,1.6
		c-4.4,4.1-0.9,9.2-2.4,33c-1.1,19-3.9,24.7-5.5,27.5c-5,8.9-12.4,13.6-15.7,15.7c-9.7,6.1-16.2,5.7-29,8.6
		c-12.7,2.9-39.2,9-54.1,28.2c-4.8,6.1-3.2,7-9.4,14.9c-12.8,16.3-21.8,15.9-25.1,24.3c-2.8,7.2,1.5,13.3,23.5,46.3
		c21.9,32.7,25.6,38.5,35.3,41.6c13.2,4.2,26.5,0,31.4-1.6c10.3-3.3,16.9-8.5,25.9-15.7c11.2-8.9,18.2-17.6,22-22.8
		c5.7-7.7,8.5-11.6,9.4-15.7c4.2-18.6-16.9-34.3-12.6-40c2.1-2.7,8.2-1.1,30.6,5.5c28.9,8.5,38.7,11.8,40.8,8.6
		c1.7-2.5-2.7-7.2-12.6-29c-2.6-5.7-3.5-8.1-2.4-10.2c2.9-5.4,17.3-4.5,28.2-0.8c18.7,6.3,27.8,20.9,32.2,18
		c2.5-1.6-0.5-6.4,2.4-13.3c3.3-7.9,11.4-11.4,15.7-13.3c11.7-5.2,34.7,2.5,31.4-20.4c-1-6.9,5.9-11.4,8.6-9.4
		c36.1,26.4,16.1-12.3,25.9-28.2c2.8-4.5,4.8-7.9,8.6-11.8c10.3-10.5,18.6-10.2,32.2-18"/>
	<radialGradient id="SVGID_8_" cx="1173.054" cy="2214.1555" r="92.2224" gradientUnits="userSpaceOnUse">
		<stop  offset="0" style="stop-color:#CDDAF1"/>
		<stop  offset="0.5" style="stop-color:#B1C7E9"/>
		<stop  offset="0.5094" style="stop-color:#B0C7E9"/>
		<stop  offset="1" style="stop-color:#99B7E2"/>
	</radialGradient>
	<path class="st7" d="M1068.9,2276.2c6.5,0,13.2-6.3,14.2-12.5c0.7-4.7-2.6-5.8-4-13c-2.1-10.8,8.2-29.2,26.6-32.3
		c11.9-1.9-6.1-20,0.6-35.1c1.8-3.9,5.1-9.1,9.1-13.6c4.4-5,5.8-4.9,9.1-8.5c10.4-11.3,7.2-23.8,13.6-25.5
		c4.9-1.3,10.3,5.1,10.8,5.7c4.6,5.5,4.3,12.4,4,19.2c-0.6,11.8-4.1,12.4-3.4,18.7c1.5,13.3,18.2,21.6,23.8,24.3
		c4.6,2.3,13.9,6.7,25.5,5.1c5.3-0.7,9.2-2.5,12.5-4c15.2-6.9,16.9-15.5,23.2-14.7c7.4,0.9,7.3,13,19.2,19.2
		c5.4,2.8,10.8,3.3,14.8,3.1l9,3.7c-3.4,4.6-5.8,8.6-7.4,11.3c-2.7,4.9-3.4,7.2-7.4,14.7c-2.9,5.6-4.4,8.4-5.1,9.1
		c-8.8,8.3-29-0.3-29.4,1.1c-0.3,1.1,10.7,6.2,11.3,5.1c0.9-1.6-19.4-13.9-37.4-22.1c-8.4-3.8-13.6-5.6-18.7-3.4
		c-4.5,1.9-8.8,6.9-9.1,12.5c-0.4,8.2,8.3,10.5,11.9,23.8c1,3.6,2.5,9.2,0,11.3c-2.8,2.4-8.7-1.4-22.1-7.4
		c-15.5-7-23.4-10.4-29.4-9.6c-5.6,0.8-11.3,5.2-22.6,14.2c-13.4,10.6-11.1,11.5-18.7,15.9"/>
	<radialGradient id="SVGID_9_" cx="1738.8499" cy="2832.1079" r="365.4018" gradientUnits="userSpaceOnUse">
		<stop  offset="0" style="stop-color:#CDDAF1"/>
		<stop  offset="0.5" style="stop-color:#B1C7E9"/>
		<stop  offset="0.5094" style="stop-color:#B0C7E9"/>
		<stop  offset="1" style="stop-color:#99B7E2"/>
	</radialGradient>
	<path class="st8" d="M1383.2,2940.5c36.6,19.4,55,29.1,68,28c9.8-0.8,12.6-4.2,52-34c47.2-35.8,56.7-41.3,68-46
		c14.4-6,32.1-13.5,54-12c49.6,3.3,81.1,49.6,84,54c16.4,24.9,7.8,31.6,32,128c6.3,24.9,12,45.1,26,68c13.3,21.7,26.6,43.5,46,46
		c39.8,5.2,84.5-92.2,42-164c-9-15.3-12.5-15.8-36-52c-26.1-40.1-35-59.7-40-82c-2.6-11.8-4.9-22-4-36c2.9-45.9,36.2-75.9,46-84
		c3.4-2.8,10.2-8.1,38-22c61.8-30.8,85.3-33.1,140-62c12.9-6.8,23.7-12.5,38-22c42.3-28,41-39.8,76-64
		c37.4-25.8-5.9-126.7-49.6-81.5c-36.5,37.8-45.7,13-154.4,95.5c-8.4,6.4-35.5,20.8-88,52c-61.4,36.5-62.4,37.4-78,46
		c-58.3,32.1-63.2,29.3-88,48c-28.7,21.7-48,45-62,62c-33.5,40.6-57.1,31-79.2,47.2c-31.1,22.9-69.3,11.6-80.8,0.8
		c-14.4-13.6-46.8-12.2-66,6c-16.7,15.8-21.9,42.7-12,60C1358.3,2926,1362.4,2929.5,1383.2,2940.5z"/>
	<radialGradient id="SVGID_10_" cx="2672.085" cy="1475.5042" r="258.5673" gradientUnits="userSpaceOnUse">
		<stop  offset="0" style="stop-color:#CDDAF1"/>
		<stop  offset="0.5" style="stop-color:#B1C7E9"/>
		<stop  offset="0.5094" style="stop-color:#B0C7E9"/>
		<stop  offset="1" style="stop-color:#99B7E2"/>
	</radialGradient>
	<path class="st9" d="M2462.8,1747.6c24-1.4,35.5-19.3,56.5-35.6c25.2-19.6,29.6-10,90-37.6c36-16.5,54-24.7,67.8-37.2
		c25.4-23,36.4-49.7,54.9-94.6c19.3-46.8,13.8-51.2,28.4-72.2c17.3-24.9,27.7-22.7,70.6-59.8c29.1-25.2,49.8-43.3,66-73.5
		c10.3-19.1,22.9-42.6,18-72c-4-24-20.7-57.6-48-61.5c-23-3.3-42.9,16.1-54,27c-19.6,19.2-27.4,39.4-33,52.5
		c-14.8,34.5-31.9,58.5-66,106.5c-22.7,31.9-48.4,68-91.5,103.5c-27.4,22.5-26.7,15.9-79.5,55.5c-38,28.5-60.3,48.3-81,75
		c-18.9,24.3-26.2,41-30,57c-2.4,10.2-11.1,47.1,7.5,61.5C2447.7,1748.4,2457.8,1747.9,2462.8,1747.6z"/>
</g>
<g id="floods2">
	<radialGradient id="SVGID_11_" cx="902.8962" cy="2413.7798" r="544.2629" gradientUnits="userSpaceOnUse">
		<stop  offset="0" style="stop-color:#CDDAF1"/>
		<stop  offset="0.5" style="stop-color:#B1C7E9"/>
		<stop  offset="0.5094" style="stop-color:#B0C7E9"/>
		<stop  offset="1" style="stop-color:#99B7E2"/>
	</radialGradient>
	<path class="st10" d="M1476.7,2179.5c-33.2-17.5-33-51.2-53.6-53.6c-17.6-2.1-22.3,21.7-64.7,41c-9.1,4.2-19.9,9-34.7,11
		c-32.3,4.5-58.3-7.9-71-14.2c-15.6-7.7-62.1-30.6-66.3-67.8c-2-17.6,7.7-19.1,9.5-52.1c1-19.1,1.8-38.4-11-53.6
		c-1.4-1.6-16.4-19.5-30-15.8c-17.7,4.8-8.9,39.6-37.9,71c-9.1,9.9-13,9.7-25.2,23.7c-10.9,12.4-20.4,26.9-25.2,37.9
		c-18.7,42,31.5,92.4-1.6,97.8c-51.3,8.4-79.9,59.8-74.2,89.9c3.9,20.2,13,23.1,11,36.3c-2.6,17.1-21.4,34.6-39.4,34.7
		c-33.3,0.3-57.2-58.8-61.5-69.4c-4.4-10.8-5.6-17.4-14.2-37.9c-7.6-18.1-12.1-28.8-20.5-41c-12.7-18.4-21.4-31.1-34.7-33.1
		c-13.6-2.1-28,11.8-56.8,39.4c-21.2,20.4-31.9,30.8-37.9,45.8c-9,22.6-1.5,32.3-11,41c-13.6,12.4-31.8-4.3-67.8,4.7
		c-4.5,1.1-36.9,9.6-39.4,26.8c-1.5,10.5,9.1,16.6,6.3,22.1c-5.7,11.1-50.3-13-67.8,3.2c-8.9,8.2-1.8,18.6-4.7,66.3
		c-2.3,38.2-7.9,49.7-11,55.2c-10.1,17.9-24.9,27.4-31.6,31.6c-19.5,12.2-32.5,11.4-58.4,17.4c-25.6,5.9-78.8,18.2-108.9,56.8
		c-9.6,12.3-6.5,14.1-18.9,30c-25.7,32.8-43.9,31.9-50.5,48.9c-5.6,14.4,3,26.8,47.3,93.1c44,65.8,51.5,77.4,71,83.6
		c26.6,8.5,53.3,0,63.1-3.2c20.8-6.7,34-17.2,52.1-31.6c22.5-17.9,36.6-35.5,44.2-45.8c11.4-15.5,17-23.3,18.9-31.6
		c8.5-37.5-34-68.9-25.2-80.5c4.1-5.5,16.5-2.3,61.5,11c58.1,17.1,77.8,23.7,82,17.4c3.3-5-5.5-14.5-25.2-58.4
		c-5.1-11.4-7-16.3-4.7-20.5c5.9-10.9,34.9-9,56.8-1.6c37.6,12.7,55.9,42,64.7,36.3c5.1-3.3-1.1-12.9,4.7-26.8
		c6.6-15.8,22.9-23,31.6-26.8c23.6-10.4,69.8,5,63.1-41c-2-13.9,12-22.9,17.4-18.9c72.6,53.2,32.3-24.7,52.1-56.8
		c5.6-9.1,9.7-15.8,17.4-23.7c20.6-21.2,37.5-20.6,64.7-36.3c21.2-12.2,14.7-14.8,52.1-44.2c31.6-24.9,47.4-37.3,63.1-39.4
		c16.9-2.3,38.8,7.4,82,26.8c37.2,16.7,53.7,27.3,61.5,20.5c6.9-6,2.7-21.6,0-31.6c-10-37-34.3-43.5-33.1-66.3
		c0.8-15.4,12.7-29.3,25.2-34.7c14.1-6.1,28.6-1.2,52.1,9.5c49.9,22.8,101,92,114.6,80.9c17.5-14.2,65.2-40.2,83.8-51.2
		c7.6-4.5-0.5-67.7-15.5-74.7"/>
	<radialGradient id="SVGID_12_" cx="1712.7915" cy="1984.2321" r="274.0731" gradientUnits="userSpaceOnUse">
		<stop  offset="0" style="stop-color:#CDDAF1"/>
		<stop  offset="0.5" style="stop-color:#B1C7E9"/>
		<stop  offset="0.5094" style="stop-color:#B0C7E9"/>
		<stop  offset="1" style="stop-color:#99B7E2"/>
	</radialGradient>
	<path class="st11" d="M1541,2176.2c0.5-16.9,10.7-19.1,16.5-43.5c1.7-7.2,6.5-27.2,0-48c-7.9-25.5-24.2-25-39-55.5
		c-11.5-23.8-3.2-27.3-13.5-43.5c-16.5-25.9-38.2-17.7-64.5-45c-20.7-21.5-26.6-46.8-28.5-55.5c-4.2-18.8-2.3-32.5,1.5-60
		c6.1-44.5,9.2-66.7,25.5-76.5c16.1-9.6,42.9-7.7,57,6c13.4,13.1,12.3,33.9,30,82.5c1.6,4.4,4.6,12.2,10.5,13.5
		c8,1.7,11.7-10.5,27-19.5c19.3-11.4,34-4.1,40.5-15c5.4-9-1.8-19,3-22.5c4.4-3.2,13.8,2.8,31.5,15c38.2,26.4,43.5,32.3,58.5,37.5
		c12.8,4.4,12.4,1.2,34.5,6c4.9,1.1,32.1,7.1,57,19.5c45.9,22.9,42.4,46.7,75,54c15.2,3.4,11.7-2.7,55.5-3c46-0.3,59.5,6.5,67.5,12
		c4.8,3.3,17.1,12.2,22.5,28.5c8.4,25.5,7.7,33.1,5.9,35.6c-3.1,4.5-24.3,9.6-69,29.2c-37.8,16.6-40.2,18.5-58.2,26.5
		c-20,8.9-33.4,16.5-50.6,29.5c-23.8,18-28.2,19.5-54,42c-21.6,18.8-24,22.3-37.2,33.3c-14.3,12-17.5,8.4-53.4,13.9
		c-43.8,6.8-65.7,10.1-84,24c-19.6,14.8-20.8,28.6-33,28.5C1558.8,2225.6,1540.3,2199.6,1541,2176.2z"/>
	<radialGradient id="SVGID_13_" cx="2782.8584" cy="1486.991" r="582.6996" gradientUnits="userSpaceOnUse">
		<stop  offset="0" style="stop-color:#CDDAF1"/>
		<stop  offset="0.5" style="stop-color:#B1C7E9"/>
		<stop  offset="0.5094" style="stop-color:#B0C7E9"/>
		<stop  offset="1" style="stop-color:#99B7E2"/>
	</radialGradient>
	<path class="st12" d="M2117.6,1862.7c33.4-36.1,70.9-61.2,78-66c16-10.8,50.7-45.2,120-114c37.6-37.3,39.2-40.2,69-69
		c38.4-37.1,69.2-64.6,81-75c112-99,147.2-109.9,162-162c8.3-29.3-1.5-30.4,9-63c21.4-66.3,84.7-88,98.9-97.7
		c36.1-24.5,41.1-21,78-46c58.5-39.6,101.2-72.4,132-77.5c48.2-8.1,65.6,52.9,69.2,122.2c2.6,51-32.2,86.4-18,99
		c13.1,11.6,52.6-10.1,72-24c15.4-11.1,24.6-21.8,39-39c37.5-44.7,36.4-60.9,60-75c17.6-10.5,22.3-3.9,63-12
		c39.6-7.9,75.9-15.1,102-39c40.4-36.9,27.9-87.3,54-93c19.8-4.3,43.5,21.2,54,42c20.8,41.4,41.5,158.7,18.7,170.8
		c-21.7,11.6-36.2,18.6-98.3,70.5c-16.7,14-29,26.4-52.1,43.8c-19.2,14.4-44.3,34.3-95.6,51.7c-75.5,25.7-103,59.5-130.2,75.8
		c-64.5,38.7-100.9-4.7-155.6,25.4c-58.1,32-76.7,23.7-150,51c-81.8,30.5-59,68.1-172.7,113.5c-115.6,46.1-124.3,56.7-193.6,104.4
		c-35.2,24.2-89.9,59.5-98.2,63.9c-67.1,35.6-71.7,37.6-110.4,60.9c-24.2,14.5-75.9,50.8-97.1,32.4c-10.6-9.2-9.3-28.8-9-33
		C2097.9,1884.7,2110,1870.9,2117.6,1862.7z"/>
	
		<radialGradient id="SVGID_14_" cx="635.1461" cy="3212.7173" r="217.5842" gradientTransform="matrix(0.9393 0.343 -0.343 0.9393 1153.7084 -22.8911)" gradientUnits="userSpaceOnUse">
		<stop  offset="0" style="stop-color:#CDDAF1"/>
		<stop  offset="0.5" style="stop-color:#B1C7E9"/>
		<stop  offset="0.5094" style="stop-color:#B0C7E9"/>
		<stop  offset="1" style="stop-color:#99B7E2"/>
	</radialGradient>
	<path class="st13" d="M417.8,3185.3c34,2.4,60.1-1.6,77.7-5.7c23.2-5.4,21.5-8.7,47.9-14.5c20.1-4.4,32.1-4.8,42.8-15.2
		c2.4-2.3,4.8-8.9,2.6-20.9c-2.7-14.9-3.4-19-9.9-55.2c-2.8-15.3-8.9-40.7-8.7-49.6c0.3-10.8,5.6-15.3,14-20.3
		c6.8-4,14-7.8,18.6-11.9c4-3.6,5.4,17,10.7,27.4c23.7,46.5,45.8,47.7,50.6,80.2c2.2,14.8-1.5,20.8,3.7,24.8
		c9.3,7.1,26.6-7.6,68.5-15.5c8.6-1.6,12.9-2.4,17.8-2c28.4,2.1,79.9,10.2,87.7,19.3c5.4,6.2-15.9,24.2-11.3,51.2
		c0.3,1.8,3.5,19.4,13.3,21.9c5.2,1.3,7.8-2.7,17.9-5.2c3.4-0.8,16.9-4.2,25.3,0.7c10.8,6.3,14.4,27.3,8,42.3
		c-7.2,16.8-26,23.6-63.4,36.5c-34.1,11.8-37.7,7.9-48.9,17.3c-15.2,12.7-13.2,23.8-34.2,47.1c-12.1,13.4-21.8,24.1-30.4,21.9
		c-15.7-3.9-6.6-45.6-27.5-55.8c-14.8-7.2-37.1,5.1-59.7,17.6c-6.2,3.4-13.8,7.7-22.6,15.2c-19.6,16.7-17,25.7-29.4,34
		c-23.4,15.6-57.6,0.8-65.1-2.5c-11.5-5-24.6-10.7-28.8-23.3c-5-15.3,6.3-31.4,12.5-40.1c21.2-30,48.2-32.2,47.8-46.4
		c-0.2-9.8-13.3-20.1-25.9-22.2c-26.1-4.4-36.8,27.9-67.5,27.5c-17.9-0.2-35.2-11.4-44.8-25.9c-10.9-16.5-9.6-33.9-9-39.5"/>
	<radialGradient id="SVGID_15_" cx="3102.1689" cy="2283.1917" r="862.2437" gradientUnits="userSpaceOnUse">
		<stop  offset="0" style="stop-color:#CDDAF1"/>
		<stop  offset="0.5" style="stop-color:#B1C7E9"/>
		<stop  offset="0.5094" style="stop-color:#B0C7E9"/>
		<stop  offset="1" style="stop-color:#99B7E2"/>
	</radialGradient>
	<path class="st14" d="M3961.4,2276.6c2.4-15.8,7.8-28.9,11.3-37.3c9.6-23,16.7-28,16-40c-0.7-11.4-7.9-19-20.7-32
		c-24.4-24.9-38.4-24.4-60-48c-12.1-13.2-19.1-20.9-19-32c0.1-9.1,4.9-13,30-47c13.7-18.6,16.7-23.4,19-31c4.6-15-0.7-17.1,3-33
		c3.6-15.7,9.2-15.9,22-44c3-6.6,5.3-12.8,10-25c11.3-29.8,10.8-33.8,10.3-36c-3.1-14-20.6-24.4-36-26.7c-19.3-2.8-28.4,8.3-62,24
		c-26.9,12.6-65.6,30.6-78.7,18c-8.9-8.6-4.7-30.2,4.7-43.3c5.9-8.3,12.4-10.9,32-20c62.3-28.7,56.6-29.4,74.7-34.7
		c26.3-7.7,34.9-5.3,40-14c8.3-14.4-2.4-42.6-21-53.8c-12.7-7.7-22.9-3.5-26-10.5c-5.3-11.7,18-34.9,25-42
		c12.4-12.4,20.1-15.9,19-20.5c-1.6-6.5-19.7-10.8-36-7.5c-22.1,4.5-27.5,20.2-57.5,28.5c-10.5,2.9-15.4,2.5-17.5,0
		c-5.1-6.3,10-22.1,5.5-27.5c-4-4.8-22.1,0.4-36,11.5c-14.2,11.3-12.1,19.3-27.5,37c-10.5,12-24.2,27.7-40.5,25.5
		c-10.7-1.5-22-10.6-23.5-21c-0.9-6.3,2.2-9.6,27-44.5c12.3-17.3,7.7-11.1,12-17c14.6-20.3,19.2-24.9,18-26.5
		c-3.1-3.9-38.3,16.3-52.5,24.5c-17.1,9.8-23.9,14.7-32,12c-9.3-3.1-16.2-14.8-15-25c0.8-7.1,5.6-13.5,22.5-24
		c19.4-12,33.5-16.3,51-23c45.7-17.5,38.6-22.4,69-31c19.7-5.6,31-5.9,40.5-17c9.4-11,4.1-17.4,13.5-29c13-16.1,33.1-5.6,46.7-22.5
		c5.5-6.8,25.3-18,21.3-23.3c-7.5-9.6-58.4,17-90,40.8c-17.1,12.8-78.1,46.9-86,51.8c-23.6,14.5-43.9,7.8-59.5,6.3
		c-15.9-1.5-29.5-6.5-56.5-16.5c-13-4.8-19.6-8-26.5-13.5c-12.3-9.9-12.5-16.9-21.5-25.5c-15.1-14.4-43.1-21.9-52.7-12.7
		c-11.4,10.9,11.2,37.5-1.3,72c-4.3,11.9-13,14.4-11.3,20c3.8,12.5,41.1,0.5,69.3,18.7c13.5,8.7,17,19.3,34,62
		c36.3,91,42.7,98.4,36,110c-14.1,24.5-64.9,29.7-100,18c-26.8-8.9-34.6-24.4-50-20c-14.8,4.2-22.7,24.9-38,66
		c-15.2,40.8-13.4,49.8-26,60c-10.4,8.3-14.9,5-52,18c-40.4,14.2-43.3,21.1-44,24c-2.9,11.4,11.9,17,26,40c20.3,33.2,18,68.2,16,98
		c-1.2,18.6-2,28-8,32c-17,11.4-60.5-16.3-82-50c-5.4-8.4-18.6-29.8-16-56c1.6-15.8,7.2-16,6-24c-5.3-34.1-107.4-26.9-126-76
		c-2.3-6.1,0-4.3-4-22c-5.7-25.3-14-45.4-24-66c-18.8-38.9-37.1-76.6-46-74c-7.7,2.3-8.6,34.9,0,64c15.1,51.2,53.9,71.8,46,88
		c-7.7,15.9-53.9,33.1-88-34c-1.1-2.2-14.3-28.3-34-62c-15.8-27-21-33.6-28-34c-16-0.8-39.6,31.1-38,62c0.6,11.7,5.1,27.8,84,110
		c23.2,24.2,33.3,33.7,34,50c1.4,32.9-37.3,57.7-44,62c-23.3,14.9-65.7,29.8-98,12c-34.6-19.1-75.1-91.2-86-88.6
		c-7.7,1.8,33.8,49,20,62.6c-19.6,19.3-104.9-56.8-149.5-51.3c-6.1,0.8,22,81,12,102.5c-22.7,48.9,1.4,72.1,1.5,76.8
		c0.3,15.6,13.5,39.1,40,86c6.4,11.3,10.2,17.5,12,28c3.8,22.4-7.6,31.6-14,60c-8.9,39.6,5.2,56.9-8,68c-10.6,8.9-31.2,7.3-44-2
		c-24-17.5-3.4-49.6-24-80c-15.1-22.2-48.7-31.5-116-50c-29.2-8.1-49.2-11.5-54-26c-4.9-14.8,11.8-23.4,10-48
		c-1.5-20.9-15.1-37.6-22-46c-15.1-18.5-24.5-18.1-26-28c-2.3-14.9,17.9-21.8,42-50c31.1-36.4,46.9-47.3,50-59.3
		c4.7-18.3-22.6-15.9-24.3-9.7c-4.4,15.7-19.7,15.8-75.7,39c-33.4,13.8-36.2,28.1-60,28c-25.2-0.1-46.1-16.2-64-30
		c-16.6-12.8-18.9-18.9-44-42c-15.5-14.2-40-72.6-49.1-79.6c-35.5,20.2-22.6,13.3-55.4,31.4c-1.1,0.6,46.2,61.8,57.1,91.5
		c10.8,29.3,10.6,35.9,19.3,42.7c16,12.5,33.6,1.6,40,12c6.6,10.7-4.3,34.8-20.7,46c-8.7,5.9-14.4,5.1-16.7,10.7
		c-4.5,11.1,10.6,32.8,25.3,33.3c11.9,0.5,18.5-13,25.3-10c5,2.2,5.5,10.9,6,22.7c0.7,15.9,1.4,31.8-7.3,48.7
		c-7.2,13.8-14,15.4-13.3,24c0.8,9.4,14.8,43.7,13.3,52c-2,10.8,4.8,20.5,6.7,23.3c23.3,35.8,10.4,135.7,53.3,155.3
		c11.9,5.5,12.8-2.3,52.5,3.5c21.1,3.1,32.6,4.9,46,12.5c7.4,4.2,27.8,15.8,36,38c4.8,13,1.5,19.1,9,38c5,12.4,8,20,14.5,22
		c14.1,4.3,27.1-22.6,40.5-18.5c8.5,2.6,13.9,16.6,12.5,28c-3,23.4-34.4,30.3-32,41c2.1,9.6,30.1,14.9,53,8.5
		c18.6-5.2,31.5-17.4,36-22c13.4-13.7,14.4-24.4,30.5-34.5c7.7-4.8,14.5-6.8,18.5-8c18.7-5.4,33.1-2.1,51,0.5
		c39.6,5.7,64.6,9.3,75-3c9.5-11.2,1.4-28.9,7-31c9.4-3.6,24,48.5,56,54c22.6,3.9,50.6-16.1,60-39c8.5-20.8-1.2-36.9,7-42
		c13.1-8,37.3,32.7,72,29c16.5-1.8,33.1-13.4,38-28c3.2-9.6-0.8-20.9-9-43c-9.3-25.1-16.7-34.7-19-56c-1-9.3-2.1-20.1,3-23
		c7.2-4.1,25.2,7.9,33,24c4.6,9.4,3.4,15.6,3,40c-0.9,52,3.7,57.5,7,60c9,6.8,26,4.1,35-4c9.3-8.3,5.6-18.2,18-37
		c4-6.1,10.8-16.3,16-15c5.8,1.4,8.3,16.7,7,29c-2.3,22.3-16.3,31.2-12,38c4.2,6.6,22.6,6,33-3c1.7-1.5,5.6-5.2,11-24
		c7.3-25.4,4.5-33,12-40c6.7-6.2,18.8-9.3,27-5c9.3,4.9,8.1,16.3,17,46c7,23.4,11.3,37.1,20,39c12.6,2.8,26.1-20.5,30-18
		c4.8,3.1-21.6,35.9-11,62c5.2,12.7,18.6,22.7,26,20c9.7-3.6,1.8-26.6,15-37c12.1-9.6,38.3-5.5,47,8c10.2,15.9-9.7,35.2,1,53
		c7.1,11.9,22.8,14.6,31,16c14.8,2.6,24.6-0.9,75-16c19.7-5.9,29.8-8.8,38-6c15,5.1,28.2,22.3,26,37c-2.8,18.5-29.6,29.2-49,37
		c-21.7,8.7-31.8,7.1-40,18c-8.9,11.8-2,20.2-10,32c-10.7,15.8-37.1,21.3-57,16c-20.5-5.5-21.5-19-46-36c-23.5-16.3-46.4-20.4-66-24
		c-49.9-9-85.6,3.3-93,6c-11.1,4-35.2,12.8-36,26.3c-0.5,7.6,6.9,10.3,18.7,31.3c7.4,13.2,11,19.9,9.3,27.3
		c-2.8,12.4-16.8,12.9-17.3,22c-0.7,12,23,23.4,37.3,28c7.5,2.4,8.4,1.6,24,4.7c28.1,5.5,43,8.4,44,14.7c1.1,6.6-13.8,16.3-28,20
		c-19.7,5.1-27.3-4-45.3,0.7c-14.6,3.8-32.2,15.6-32,27.3c0.3,16,33.9,36,62,33.3c8.2-0.8,15-3.4,22.7,0.7
		c3.9,2.1,5.6,4.6,18.7,23.3c8.1,11.6,9,12.8,11.3,14.7c10.5,8.1,23.4,7,23.3,8c-0.1,1.4-28.1-5.4-46.7,8.7
		c-1.7,1.3-14,10.6-13.3,22c1.1,18.8,37.4,35.9,69.3,36.7c21.2,0.5,25.6-6.6,58-6c29.7,0.6,37,6.7,40,11.3c1.1,1.7,1.5,3,10.7,20.7
		c2.4,4.6,3.6,6.9,4,7.3c10.7,10.9,48.8-9.9,60-16c20.7-11.3,38.4-20.9,54-42c4-5.3,13.4-18.9,19.3-38.7c5.8-19,5.4-34.1,5.3-45.3
		c-0.3-48.5,4.8-99.4,9.8-99.8c5.6-0.4,1.8,61.9,34.8,79.1c13.9,7.2,33.8,6.2,46-3.3c17.3-13.5,5.4-33.2,21.3-51.3
		c19.7-22.4,49.7-5.8,68.7-28.7c6.2-7.4,3.1-9.3,12.7-49.3c5.9-24.6,8.5-30,15.3-60c5.1-22.5,7.9-38.1,0.7-54.7
		c-2.6-6.1-4-9.1-6.7-11.3c-20.1-16.7-60.9,31.1-118,24.7c-8.7-1-35.6-4-44-21.3c-12.5-25.7,23.6-66.6,36.7-81.3
		c25.6-28.9,31.3-20.7,61.3-52c27.9-29.1,51-65.5,59.3-78.7c8.1-12.8,17.5-24.8,26-37.3c11-16.2,15.9-24.1,26.7-30
		c5.5-3,19.5-10.6,30-5.3c17,8.6,5.3,41,25.3,55.3c8.6,6.2,21.6,7.9,29.3,2.7c10.1-6.8,9.6-24.5,9.3-35.3c-0.5-20.1-7.4-28.6-2-34.7
		c3.7-4.1,10.3-3.9,23.3-3.3c17.8,0.7,23.1,5,29.3,1.3c7.7-4.6,8.4-16.5,8.7-20.7c1.1-17.6-8.9-23.7-16.7-44.7
		C3956.8,2308.6,3960.2,2284.3,3961.4,2276.6z M3769,2286.3c-16.8,7-23.8-3.1-38,4c-17.8,8.8-12.7,27.5-33,60
		c-9.1,14.6-21.8,34.9-45,45c-20.9,9.1-37.6,4.5-40,12c-3.7,11.4,33.8,24.6,32,44c-1.1,12.4-17.9,23.2-33,24c-23,1.2-37-21.3-38-23
		c-11.1-18.6-2.8-35.1-11-39c-8.7-4.1-27.7,10.1-35,28c-1.9,4.6-2.6,8.6-3,32c-0.6,38.2,1.2,44-4,51c-8.2,11-26.5,15.5-40,11
		c-24.8-8.3-32.5-46.5-35-59c-4.3-21.1-0.9-32.6-7-35c-8-3.2-25.9,11.7-29,29c-2.7,15.1,7,25.5,3,29c-2,1.7-7,1.5-36-18
		c-24.2-16.3-36.4-24.6-42-35c-3.4-6.4-5-17-8-38c-4.9-34.3-2.6-34.2-6-51c-6.4-31.7-18.5-51.5-22-57c-5.9-9.2-12.4-19.3-25-28
		c-11.5-7.9-31.5-17.2-36-12c-6.3,7.4,28,32.3,40,82c3.8,15.9,8.7,37.4-2,59c-7.8,15.6-25.9,35.5-49,35c-21.2-0.4-35.4-17.7-43-27
		c-14.7-17.9-28.7-49.2-26-80c0.6-6.9,2.3-16.6-2-28c-3.8-10.1-10.4-16.6-17-23c-6.2-6-9.8-8-29-21c-14-9.5-21.1-14.3-26-18
		c-17.4-13.4-28-21.8-27-31c0.5-4.7,3.7-6.3,11-14c13.1-13.7,12.6-18.5,23-31c11.2-13.5,22-26.5,37-29c22.4-3.7,43,17.8,49,24
		c26.1,27.2,21.3,54.8,40,60c7.9,2.2,16.9-2.2,35-11c24.3-11.8,27.6-20.5,46-25c7.8-1.9,25.8-6.3,33,2c10.6,12.3-16,36.9-6,62
		c6,15,23.5,26.5,37,24c19.4-3.6,30.2-36.3,29-61c-1.1-24.1-13.1-29.7-8-42c6.9-16.6,33.8-19,78-23c14.9-1.4,22.4-0.9,28,4
		c12.7,11.2,4.4,36,11,38c5,1.5,14.7-11.3,20-24c8.3-19.9,2-30,11-42c5.4-7.3,12.4-9.8,24-14c7.3-2.7,14.1-4,60-5
		c14.8-0.3,16-0.2,18,1c14,8.6,1.7,33.3,16,62c7.3,14.6,17.9,23,28,31c14.1,11.1,29.7,23.5,46,20c8.7-1.9,8.8-6.4,25-13
		c11.6-4.7,18.4-7.5,26-6c14.5,2.9,24.8,20.2,27,35C3804.5,2254.8,3788.1,2278.3,3769,2286.3z"/>
	<radialGradient id="SVGID_16_" cx="4106.3237" cy="2728.7136" r="275.0467" gradientUnits="userSpaceOnUse">
		<stop  offset="0" style="stop-color:#CDDAF1"/>
		<stop  offset="0.5" style="stop-color:#B1C7E9"/>
		<stop  offset="0.5094" style="stop-color:#B0C7E9"/>
		<stop  offset="1" style="stop-color:#99B7E2"/>
	</radialGradient>
	<path class="st15" d="M4133.4,2390.5c-12.9,23.8-14.5,42.6-13.5,55.5c1.6,21,10.3,29.2,6,46.5c-5.2,20.8-23.7,32.4-27,34.5
		c-15.1,9.5-22.3,5-45,12c-11.6,3.6-35.6,11-52.5,31.5c-14.2,17.3-25.8,46.9-15,61.5c6.5,8.8,16.1,5.3,33,19.5
		c7.3,6.2,16.4,13.7,15,21c-2.3,12.1-31.1,10.9-33,22.5c-1,5.7,5.6,8.1,16.5,24c8.5,12.4,14.6,21.4,12,27c-5.2,11.2-38.6-4.4-49.5,9
		c-11.1,13.7,3.9,54.5,30,67.5c9.2,4.6,14.4,3,19.5,9c11.5,13.5,1.1,40.2-4.5,54c-18.8,46.6-46.1,61.5-40.5,72
		c5.2,9.9,35.8,9.3,57-4.5c21-13.7,30.4-38.6,39-61.5c9.5-25.3,12-46,27-51c2.2-0.7,7-2.3,10.5,0c9.1,6-2.4,30.1-7.5,70.5
		c-3.6,28.2-5.8,48.1,4.5,67.5c7.1,13.3,11.2,9.6,22.5,27c12,18.3,10,26.3,24,57c6.1,13.4,15.7,34.3,21,33c4.7-1.1-1.1-17.8,6-40.5
		c3.8-12.1,12.6-24.7,30-49.5c14.1-20,18.5-24.3,16.5-28.5c-4.9-10.4-36.8,6-60-10.5c-15.8-11.3-18.7-31.6-19.5-37.5
		c-3.5-25,8.4-51.9,27-64.5c9.2-6.2,16-6.2,33-18c10.1-7.1,19-14.9,18-16.5c-1.3-2.1-19.6,8.4-49.5,15c-12.6,2.8-17.2,2.6-19.5,0
		c-4-4.5,1.6-12.6,7.5-33c5.4-18.7,8.2-28.4,6-40.5c-0.2-0.9-0.2-1-9-27c-4.4-13.1-6.6-19.7-4.5-22.5c4.9-6.4,19.8,3.9,28.5-3
		c8.3-6.6,6.5-25.4,0-37.5c-6.6-12.1-18.4-18.6-28.5-24c-13.8-7.4-17.3-5.5-21-10.5c-11.7-16.1,9.1-57.7,24-57
		c8.6,0.4,11.9,14.7,18,13.5c6.5-1.3,9.8-19,9-34.5c-0.9-18.4-7.2-25.1-21-63c-6.3-17.2-9.4-25.8-10.5-33c-2.8-19,1.7-24.6,0-52.5
		c-1.3-21.5-4.8-30.2-6-33c-5.1-12.1-12.6-20.5-18-25.5"/>
	<radialGradient id="SVGID_17_" cx="1838.4437" cy="2504.6399" r="3.4328" gradientUnits="userSpaceOnUse">
		<stop  offset="0" style="stop-color:#CDDAF1"/>
		<stop  offset="0.5" style="stop-color:#B1C7E9"/>
		<stop  offset="0.5094" style="stop-color:#B0C7E9"/>
		<stop  offset="1" style="stop-color:#99B7E2"/>
	</radialGradient>
	<path class="st16" d="M1842,2505.3c-0.4,2.1-5.9,3.4-7,2c-0.8-1,0.8-2.9,3.4-5.9C1840.9,2502.8,1842.2,2504.2,1842,2505.3z"/>
	<radialGradient id="SVGID_18_" cx="2153.5686" cy="2210.5085" r="0.5103" gradientUnits="userSpaceOnUse">
		<stop  offset="0" style="stop-color:#CDDAF1"/>
		<stop  offset="0.5" style="stop-color:#B1C7E9"/>
		<stop  offset="0.5094" style="stop-color:#B0C7E9"/>
		<stop  offset="1" style="stop-color:#99B7E2"/>
	</radialGradient>
	<path class="st17" d="M2154,2210c0,0-0.3,0.4-0.9,1.1C2153.7,2210.3,2154,2209.9,2154,2210z"/>
	<radialGradient id="SVGID_19_" cx="-152.7753" cy="2824.3306" r="240.8756" gradientUnits="userSpaceOnUse">
		<stop  offset="0" style="stop-color:#CDDAF1"/>
		<stop  offset="0.5" style="stop-color:#B1C7E9"/>
		<stop  offset="0.5094" style="stop-color:#B0C7E9"/>
		<stop  offset="1" style="stop-color:#99B7E2"/>
	</radialGradient>
	<path class="st18" d="M138,2884.3c-19.7-18.4-36.7-9.6-74-26c-13.7-6-29.2-13-41-29c-5.9-8-10-17.2-14-26
		c-11.6-25.7-9.6-33.4-16-36c-13.3-5.4-27.5,25.1-50,22c-12.8-1.8-21.3-13.5-26-20c-12.4-17.2-5.7-26.8-18-51
		c-7.8-15.3-17-24.4-21-28c-2.4-2.2-26.5-24-36-18c-6.6,4.2-1.5,18.8,7,73c4.8,30.2,6.1,44,2,61c-1.3,5.6-8.1,33.8-21,35
		c-12.7,1.2-25.2-24.3-29-32c-9.2-18.8-5.4-24.4-12-32c-17.9-20.5-77-14.9-90,14c-7.2,16.1,1.5,35.4,5,43c13.1,28.9,36.2,34.2,34,47
		c-1.6,9.2-15.4,13.9-43,23c-27.8,9.2-52.6,13.9-64,16c-33.3,6-42.9,5.1-60,14c-4.8,2.5-30.1,15.7-28,26c2.1,10.1,29.1,12.1,68,15
		c38.7,2.9,58.4,4.1,77-5c12.8-6.3,11.7-10,36-27c18.4-12.9,33.2-20.7,47-28c56.3-29.6,104.8-36,122-10c11.3,17.2,2,30.2,13,39
		c16.5,13.2,57.9,0.4,69-23c4.2-8.8,1.3-13.4,7-21c12-16,39.1-14.2,42-14c26.9,2.1,29,19.3,59,29c28.8,9.2,63.6,5.3,68-7
		C154.2,2899.4,141.3,2887.4,138,2884.3z"/>
	<radialGradient id="SVGID_20_" cx="5005.8579" cy="1683.9907" r="710.907" gradientUnits="userSpaceOnUse">
		<stop  offset="0" style="stop-color:#CDDAF1"/>
		<stop  offset="0.5" style="stop-color:#B1C7E9"/>
		<stop  offset="0.5094" style="stop-color:#B0C7E9"/>
		<stop  offset="1" style="stop-color:#99B7E2"/>
	</radialGradient>
	<path class="st19" d="M4995.5,2478.7c1.2-5.4,8.5-28.2-0.3-49.2c-1.9-4.4-5.9-9.4-8.5-15.8c-5.9-14.4-9.7-33.1-6.7-45.3
		c4.9-19.6,14.7-27.3,17.4-29.2c8.6-6.4,18-8.3,28.2-11.8c6-2,14.4-4.9,25.8-14.7c10.3-8.8,20.3-23.5,26-33.5
		c7.2-12.6,12.3-23.2,13.1-35.6c0.4-6.5,0.4-14.2,1.1-20c3.1-25.8,0.3-44.3-1.1-54c-2.1-15.1-12.8-32.4-27-34.5
		c-13-2-25.5,9.2-31.5,18c-12.6,18.3-16.3,21-28.5-3c-13.6-26.8-23.9-27.7-31.5-51c-1.7-5.3-6.2-19.5-4.5-37.5
		c3.1-32.7,23.4-43,18-55.5c-8.5-19.8-69-14.9-69-15c0-0.1,11.4,2.2,13.5-1.5c3.7-6.6-28.1-20.4-42-52.5c-6.5-15-1.1-15.5-9-52.5
		c-7.3-33.9-11.9-34-10.5-46.5c2.1-18.5,12.7-22.7,33-55.5c8.4-13.6,13.6-24.6,24-46.5c23.8-50.1,19.2-55,33-70.5
		c19.3-21.6,40.8-26.2,39-37.5c-1.1-7.3-10.4-7.2-22-20.5c-4.8-5.5-15.3-17.5-15.3-31.3c-0.1-17.2,16.1-20.8,30.7-52
		c5.9-12.6,10.8-23.6,6-31.3c-5.5-8.9-22.1-10.8-34.7-7.3c-23.1,6.4-26.2,29-47.3,30.7c-5.5,0.4-14.3-0.4-16-4.7
		c-3.6-9.4,31.7-23.8,29.3-40.7c-1.3-9.5-13.1-8-24.7-25.3c-9.4-14-5.8-21.3-14.7-27.3c-10.5-7.2-20.7-0.4-27.3-8
		c-4.7-5.3-1.1-10.3-4-21.3c-2.3-8.8-6.2-12.1-19.3-28c-17.3-20.9-13.6-18.8-24.7-31.3c-14-15.8-20.9-23.6-30-29.3
		c-23.3-14.7-40.3-8.9-46.7-22c-5.1-10.5,3.7-18.8-2-25.3c-2.4-2.7-7.7-5.7-46.3,1.3c-22.8,4.1-28.7,6.6-34.5,2.5
		c-8.1-5.7-11.3-20.6-6-30c7.7-13.5,29.6-9.3,32-19.5c1.3-5.4-3.6-12-9-14.5c-6-2.7-12.9-0.5-27,7.5c-27.7,15.8-34.2,26.2-55.5,36
		c-10.2,4.7-7.5,1.8-23,8c-22.6,9.1-30.6,16.2-60,30.5c-26.5,12.9-31,12.5-33,10.5c-5.3-5.4,6.2-24.9,7.5-27
		c4.1-6.9,9.8-12.5,21-23.5c15.4-15.2,20.3-18.1,24.5-27.5c2.1-4.8,2.9-8.7,4.5-16.5c3-15.1,1.6-20.2,3-30c2.1-15.4,10.6-38,26.5-54
		c4.3-4.3,8.8-7.8,9.5-14c1.2-11.1-11-20.3-12-21c-9.6-7-20.5-6.2-23-6c-12.5,1.2-14.8,8.5-22.5,7c-10.2-2-15-16.6-17.5-24
		c-1.3-4-5.5-16.6-0.8-20.2c4.3-3.3,12.7,3.2,13.8,1.7c1.7-2.3-15.6-19.8-40.8-38c-17.9-12.9-23.5-14.5-35-26
		c-6-6-13.5-13.5-20-25.3c-8.3-15-5.1-18.8-15.3-38c-3.7-6.8-6.1-10.1-4.7-12.3c3.4-5.3,24.4,2.8,33.7,6.3c12.7,4.9,33,12.9,56.3,32
		c14.1,11.6,12,13,24.3,22c14.7,10.7,20.5,10.7,43,22.7c27.1,14.4,40.7,21.9,42,32.7c1.6,13.3-14.7,18.4-13,33
		c1.8,15.6,22.7,28.5,30,24.5c3.8-2.1,1.6-7.4,7-15c4.3-6.1,15.4-14,21.3-15.3c6.3-1.3,12.1-3.1,17.5,20.2c2.2,9.5,7,12.9,9.4,17.2
		c5.3,9.5,8.9,12.9,16.9,21.9c7.1,8,27.2,25.6,36,30.4c7.7,4.1-4.8,14.4-16.7,38.1c-2.1,4.3-11.4,22.9-4,40
		c9.1,21,37.1,24.9,42.5,25.5c18.5,2.1,33-5.1,43-10c9.5-4.7,11.8-7.6,42.5-31c23-17.6,24.7-18.2,27-18.5
		c14.7-2.1,24.3,10.3,65.5,48.3c35.5,32.8,29.7,24.6,44,39.3c22.6,23.1,36.1,42.2,45.3,38.7c5.6-2.1,3.3-10.1,10.7-16.7
		c7.3-6.6,18.4-6.6,40.7-2.7c25.7,4.5,44.4,10.5,58.7,14.7c2.4,0.7,28.4,8.4,50,13.3c56.4,12.9,89.2,8.8,91.3,19.3
		c2,9.8-25.9,16.1-27.3,36c-1,13.1,9.9,28.6,21.3,30c15.8,2,25.4-23.7,38.7-20c7.1,2,11.3,11.2,12,18c0.7,6.3-1.5,12.8-8.7,22
		c-14.6,18.6-27.6,19.7-50,37.3c-8.3,6.5-29.4,23.1-26,30.7c3,6.8,24.8,4.4,40,0c17.6-5,27-12.9,46-26.7
		c60-43.6,68.6-40.3,85.3-63.3c11.8-16.3,14-26.9,21.3-26.7c12.8,0.3,28.3,32.7,22,58.7c-2.8,11.6-7.8,13.1-9.3,24
		c-2.4,17.7,8.2,32.9,17,44.7c27.6,37,40.1,44.3,64,74c1.2,1.5,22.8,28.7,42,69c9.3,19.5,10.9,27,10,35c-2.8,25.2-28.8,44-50,51
		c-37.1,12.3-71.8-7.4-87-16c-15.3-8.7-24.5-18.3-42-36c-39.2-39.6-39.3-55.2-58-59c-23-4.6-45.2,14.6-64,31
		c-12.9,11.2-25.9,22.5-26,38c-0.1,15.6,13,19.1,13,35c0,17.5-16.1,33.2-30,40c-9.4,4.6-11.2,1.9-40,7c-18.5,3.3-27.7,4.9-37,9
		c-12.8,5.6-38.9,20.9-37,35c2.2,16.8,43.1,26,70,27c12.7,0.5,14.2-1.2,23-1c42.1,0.8,53.1,39.5,110,74.3
		c38.3,23.4,49.9,16.1,81.3,42.7c9.8,8.3,19,17.7,38,31.3c11.5,8.2,45.6,32.6,54.7,24.7c6.1-5.4-5.3-20.6,2.7-30
		c8.1-9.6,28.6-3.9,30.7-3.3c13.1,3.8,20.8,12.2,33.3,26c15.3,16.9,13.3,20,26,33.3c18.3,19.2,24.7,15.1,32.7,28
		c7.9,12.7,7.3,27.3,6,56.7c-1.2,28-5.4,34.5-0.7,50c4.8,15.7,11.3,15.9,15.3,28.7c5.4,17.1-1.9,30-17,66.7
		c-17.4,42.3-26.1,63.5-28,79c-4,32.2,5,42.9-6,60c-11.9,18.5-37.6,29.4-49,22c-8.8-5.8-1.6-17.7-10-41c-9.8-27.3-25-25.2-29-47
		c-0.5-2.9,1-18.9,4-51c1.3-13.8,1.9-19.6-2-25c-7.5-10.5-27.6-13.8-36-6c-8.9,8.3,2.4,22.7-7,42c-5.5,11.2-17,22.1-25,20
		c-3.4-0.9-5.4-3.9-16-29c-7.6-18.1-8.7-21.4-13-24c-8.1-4.8-21.7-3.3-30,4c-13.6,11.9-3.1,30.8-18,47c-6.5,7.1-17.4,13.2-23,10
		c-7.2-4.1,0.8-20-8-41c-2-4.7-7.9-18.8-16-19c-12.7-0.3-16.9,34-30,34c-8.4,0-17.9-14.3-19-27c-0.9-9.9,3.9-13.8,1-19
		c-4.8-8.5-23.1-8-34-6c-24.8,4.4-34.6,19.9-43,15c-5.2-3-6.4-11.7-8-24c-1.6-12.3,0.5-16.6-3-21c-4.9-6.3-16.2-6.8-24-5
		c-18.2,4.3,11.6,49.4-16.2,85.2c-14.9,19.2-14.8,39.4-20,44.5c-13.5,13.2-23,49.3-29.5,57c-14.5,17.1-19.6-3.1-35,22
		c-12,19.5-4.3,38.9-17.3,42.3C4999.9,2456.6,5002.3,2482.6,4995.5,2478.7"/>
	<radialGradient id="SVGID_21_" cx="4649.7163" cy="735.9892" r="285.6171" gradientUnits="userSpaceOnUse">
		<stop  offset="0" style="stop-color:#CDDAF1"/>
		<stop  offset="0.5" style="stop-color:#B1C7E9"/>
		<stop  offset="0.5094" style="stop-color:#B0C7E9"/>
		<stop  offset="1" style="stop-color:#99B7E2"/>
	</radialGradient>
	<path class="st20" d="M4774.2,1062.1c20.4-9.5,33.2-33.5,32-54.5c-0.4-7-2.7-20.4-10.5-33c-4.6-7.5-10.2-13.3-10-22.5
		c0.1-6,2.7-10.6,4-13c3.3-5.9,7.7-9.5,18-16c9.5-6,17.6-10.5,29-16.5c13.4-7.1,19-12.3,21.3-14c14.2-10.4,24-19.4,24.2-29
		c0.1-2.8-12.6-12.3-24.5-10c-15.2,2.9-18.8,23.6-28.5,22.5c-6.5-0.7-5.6-10.2-16-16c-9.4-5.3-23.2-4.8-32,1.5
		c-7.5,5.4-7.1,12.2-11.5,12.5c-6.5,0.5-8.2-14.2-21.5-29c-13.3-14.8-22.4-12.1-26.5-23c-4.8-12.7,2-30.7,14-37.5
		c6-3.4,12.5-3.4,20.5-3.5c4.2,0,11.7,0,20.5,3c8.3,2.9,9.5,5.6,24.5,13.5c8.3,4.4,12.5,6.5,13.5,5.5c2.7-2.9-13.4-22.8-23-33.5
		c-5.6-6.3-12.6-14.1-23.5-23c-17.5-14.4-22.4-13-26-20.5c-2.7-5.5-2.6-11.6,9.7-44.5c11-29.4,14-32.6,19.3-50.7
		c5.8-19.6,2.9-17.9,8.7-35.3c6.9-21.1,12.2-26.8,12.7-42c0.4-14.7-2.9-21-5.5-21.6c-9.2-1.9-22.9-18.1-30-16.5
		c-5.1,1.2,4,1.4-2.5,49.4c-4.7,34.9-4.9,35.9-5.3,41.3c-2.6,33.9,1.8,34.6-2.7,49.3c-4.4,14.6-11.8,24.1-26.7,43.3
		c-11.6,15-15.2,16.2-17.3,16.7c-15.3,3.1-34.7-18.7-42.7-39.3c-8.3-21.5-3.8-40.8,2.7-68c3.7-15.9,9.6-40.6,26.7-66
		c8.9-13.3,16.6-27.5,26.7-40c3.3-4-27.3-34.8-49.3-49.7c-38.7-26.2-103.2-64.7-120.7-37.6c-13.9,21.6-14.2,17.1-31.3,42
		c-17.6,25.6-30.9,44.9-39.3,70.7c-2.3,7.1,21.1,40-8.7,65.3c-26.5,22.5-54.8,38.7-48.3,45.6c12.1,12.8,17.9,13.4,29.9,26.4
		c3.1,3.3,9,9.8,16.6,14.3c8.7,5.2,19.8,6.9,20.5,12.7c0.6,4.9,5.5,14.2,4.6,23.4c-0.6,6.3-5.4,13.3,2,14.2c24.1,3.1,36.4-1,58-2.7
		c11.5-0.9,30.6,1,68.7,4.7c43.5,4.2,50.6,6.8,56,13.3c10.6,12.8,7.3,31.7,5.3,43.3c-1.1,6.5-17.3,15-32,60.7
		c-7.6,23.5-10.1,43.6-10.7,56.3c-0.4,7.6,1.2,11,1.1,14.8c-0.2,7,5.1,8.8,6.9,15.5c1.8,6.4,0.1,17.7,1.8,24.5
		c2,7.5,6.5,14.1,8.7,21c3.6,11.4,5.3,21.9,11.2,26.2c34.3,25.1,68.8,60.9,92.3,59.1C4766.3,1065.7,4771.6,1063.3,4774.2,1062.1z"/>
	<radialGradient id="SVGID_22_" cx="1545.749" cy="2754.5652" r="682.0801" gradientUnits="userSpaceOnUse">
		<stop  offset="0" style="stop-color:#CDDAF1"/>
		<stop  offset="0.5" style="stop-color:#B1C7E9"/>
		<stop  offset="0.5094" style="stop-color:#B0C7E9"/>
		<stop  offset="1" style="stop-color:#99B7E2"/>
	</radialGradient>
	<path class="st21" d="M2234.4,2607.1c-14.9-47.5-12.7-75.4-28.7-80c-18.2-5.3-36.1,26.8-53.3,19.3c-9.6-4.2-15.7-19.3-12-29.3
		c5.5-15,29.7-10.4,38-28c5.1-10.9,1-23.5,0-26.7c-4.5-13.9-12.7-14-15.3-26c-2.2-10.1,1.7-19.2,6.7-30.7
		c7.2-16.7,66.4-33.5,61.7-41.1c-9.8-15.7-29.2-50.5-32.7-55.2c-6.9-9.2-59.4,16.2-69.6,17c-16.9,1.3-18.4,19.5-40,29.3
		c-11.8,5.4-32.9,9.7-46.7-1.3c-13.4-10.7-17.9-34.4-9.3-49.3c12.7-22.1,46.9-12.4,68.7-40c3.1-4,7.7-10.8,13.3-19.3
		c9.6-14.4,27.4-23.4,25.7-27.4c-4.5-10.2-11.5-18.9-24.8-41.6c-15.9-27.3-26.5-42.1-36.1-58.2c-1.4-2.3-42.4,34.6-64.8,45.2
		c-32.2,15.2-41.9,26.3-76.7,44c-19.4,9.9-30.5,13.6-43.3,12c-13.3-1.6-21.2-8.1-26-10.7c-36.9-19.8-119.9,62.7-237.3,144.7
		c-60.1,42-77.7,47.8-94,50.7c-31,5.4-61-42.6-97.1-21.8c-17.7,10.2-35.3,29.2-51.4,44.2c-26,24.4-53.4,48.9-133.3,116.8
		c-8.1,6.9-62.2,58.9-66.5,63.3c-9,8.9-16.1,25.4-18.5,32.5c-2.3,6.8-11.4,6.1-43.3,52.8c-7.1,10.3-7.4,11.1-11,16.3
		c-1.7,2.5-4.5,6.7-8.3,12.1c-7.6,11-13.8,8.1-19.9,14.8c-5.3,5.8-31.2,22.8-34.8,25.1c-9.8,6.6-14.8,10.2-24.4,14.1
		c-12.2,5-18.8,8.8-29,12.6c-32.6,12.3-76.1,40.6-85.1,44.2c-2.5,1-7.1,5.3-17,9.7c-6.3,2.8-13.5,7.5-23.7,15.2
		c-23.2,17.5-10.9,28.5-17,36c-12.7,15.6-21.8,13.2-30,27c-9.9,16.6-8.1,38.9-1,42c5.8,2.5,12.8-8.8,19-6c5.3,2.4,2.9,11.7,7,31
		c1.3,6.1,3.5,16.4,9,28c7.1,15,12.5,17.1,12,25c-0.7,10-9.7,11-11,21c-1.5,12,9.6,26.1,22,30c7.5,2.3,9.3-1,22,0
		c7.9,0.6,23.6,1.9,29,11c2.9,4.9,0.8,8.7-4,30c-6.5,28.7-5.7,34.8-5,38.5c0.8,4.3,3.6,16.7,14.5,25c2.2,1.7,9.6,7.3,19.5,7.5
		c6.6,0.2,8.6-2.2,12-0.5c6.2,3,8.7,15,6,24.5c-3,10.4-10.4,11.3-10.5,19c-0.1,9.5,11.2,16.7,14,18.5c7.7,4.9,11.8,3.7,20.5,7
		c5.6,2.1,10.1,5,25.5,19.5c18.4,17.4,27.6,26,29.5,30c10.3,21.3-3.9,33.9,7.5,50c7.7,10.8,20.6,14.3,30.5,17c8.5,2.3,20.8,5.7,32,0
		c8.1-4.1,7.3-8.7,16-17c15.4-14.8,35.5-17.3,41.5-18c15-1.9,16,2.7,36.5,3.5c22.7,0.9,24-4.6,50-6c33.1-1.8,47.8,6.1,54-2.5
		c1.9-2.6,2.5-6.2-3.5-28c-8.6-31.1-12.7-34.5-14.5-48.5c-2.6-20.4,2.1-45.1,11-47c7-1.5,16.1,11.2,20.5,20
		c15.3,30.5-4.3,56.3,9.5,68.5c7.7,6.9,13.8-1.2,40.7,6.7c12.9,3.8,19.6,8.1,24,4.7c6.4-5-2.4-18.6,4-25.3c7-7.4,29.4-3.6,41.3,9.3
		c10.8,11.6,5,22,17.3,34.7c6.4,6.5,18,14.1,26,10.7c4.7-2.1,4.5-6.4,12.7-24c4.6-9.9,7.4-15.8,12-22c3.3-4.4,10.1-13.6,22-19.3
		c18.9-9.2,37.6-3.6,42.7-2c7.1,2.2,22.4,7,30,20.7c9.8,17.6-3.3,31.9,6.7,42.7c7.9,8.5,25.2,9.3,34.7,2c3.2-2.5,5.5-5.9,8-12.7
		c6.7-18.5,3.5-31.1,4.5-57c0.8-19.5,1.2-29.2,6.5-32c8.7-4.5,18,11.7,41,12.5c3.6,0.1,15.8,0.4,27.5-6.5c6.9-4,7.5-7,18.5-16
		c0,0,8.8-7.2,20-14c5.3-3.2,19.6-11.9,33.5-15.5c19.5-5,36.1,0.6,58,8c29.5,10,30.1,17.1,58.5,26c14.3,4.5,29.4,9.1,49,7.8
		c19.8-1.3,51.3-8.9,54.7-25c2-9.6-7.6-15.1-4.3-27c2.1-7.7,8.6-14.5,16-17.3c11.4-4.3,16.7,4.2,34.3,3.7c3.6-0.1,23.6-0.7,31-13.3
		c3.2-5.5,2.7-11,2-19.3c-1.7-19.4-9.7-22.7-8.3-34.3c1.3-11.2,10.4-22.6,21-26c13.1-4.2,21.4,5.9,29,0.3c7.9-5.8,5.8-22.1,5-28
		c-1-7.2-3.1-12.2-6-19c-6.2-14.4-13.8-24.4-16.7-28c-10.8-13.6-14.8-12.5-16-18.3c-2.4-11.4,11.6-18.9,27.8-39.7
		c10.3-13.2,24.6-31.5,27-54.5c2.1-20.2-7.3-21-8-52.5c-0.3-14.6-0.5-31.5,9.5-46.5c7.7-11.6,17.7-16.2,25-20.5
		c31.1-18.4,55.9-55.8,60-84.7C2274.6,2672.4,2254.5,2671.2,2234.4,2607.1z M1278.4,3128.5c-11.5,10-45.3-39.5-101-39
		c-12.6,0.1-26.9,2.8-32-5c-6.1-9.4,9.6-21.4,5-40c-3.5-14.4-17.3-25.6-30-29c-4.9-1.3-7.2-0.9-17-1c-9.3-0.1-22.6-0.7-39-3l-18-27
		c6.8,1.1,17.4,2.2,30,0c9.7-1.7,14.6-2.5,19-6c15.2-12,5.5-38.7,16-43c5.9-2.4,14.7,3.9,19,9c9.7,11.5,3.1,23.9,11,30
		c8.3,6.4,23.8-0.6,29-3c20.2-9.1,20.7-23,35-25c11.3-1.6,23.5,5.2,29,14c5.1,8,2.3,14.1,3,31c0,0,0.8,19.3,8,42
		c6.5,20.6,12.2,21.3,22,44C1274.5,3093.8,1286.4,3121.5,1278.4,3128.5z M1475.4,2786.5c-9.9,13.5-29.9,25.1-48,20
		c-22.9-6.5-40-38.7-30-76l20-53c8.4,1.2,24.6,4.7,39,17C1481.7,2716.1,1495.2,2759.5,1475.4,2786.5z M1997.7,2335.8
		c-12.1,14.5-20.5,12.6-36.7,25.3c-16.4,12.9-11.2,17.7-28,32.7c-15,13.3-19.1,9.6-42,25.3c-17.3,11.9-29.1,23.7-39.7,34.3
		c-13.2,13.2-9,11.1-27,30c-18.5,19.4-23.7,22.5-27,33c-2.7,8.7-0.2,9.9-4,28c-4,18.8-7.9,23.1-10,25c-4.7,4.3-14.2,9.8-22,7
		c-17.5-6.3-14.2-49.9-21-50c-3.6-0.1-6.9,11.7-9,19c-3.3,11.4-1.7,13.3-4,21c-3.4,11.4-10.3,19.2-14.6,24.1
		c-8.2-4.9-28.5-11-41.4-14.1c-9-2.2-13.5-3.3-17-3c-25.6,1.9-38.6,37.9-38,70c0.2,13.1,3.6,19.2-1,25c-7.1,8.8-26.5,8.7-39,0
		c-14.9-10.3-19.3-32-13-43c2-3.6,4.9-5.4,12.3-16.3c3.6-5.3,5.4-7.9,6-9.3c4.9-12.4-5.5-20.3-3.3-35.3c0.4-2.8,2.1-14.5,10-18.7
		c11.8-6.1,23.6,11.8,39.3,6c7-2.5,13.9-9.4,16.7-17.3c1-2.8,1.2-5.1,1.3-6.7c1.6-21.7-12.4-51.7-8.7-54c2.1-1.3,9.1,6.1,13.3,11.3
		c9.8,12.2,9.3,19,17.3,31.3c6.4,9.8,13.5,20.7,22.7,20.7c7.9,0,9.9-8.2,29.3-19.3c6.3-3.6,9.4-5.4,12.7-6
		c15.8-2.9,22.5,11.8,35.3,9.3c12.3-2.4,18.9-18.3,21.3-24c0.9-2.2,4.7-11.7,4-25.3c-0.9-17.1-7.9-21.4-14.7-46.7
		c-2.1-8-6.5-24.6-3.3-26c3.4-1.5,17.8,12.8,21.3,30c0.9,4.4,0.7,7.2,3.3,10c3.9,4.2,11.4,5.1,16.8,5.1c3.8,0,6.5-0.4,6.5-0.4
		s29.2-7.4,52-25.3c9.6-7.5,25.2-19.8,23.3-32.7c-1.6-11-14.7-12.9-17.3-27.3c-1.4-7.6,0.3-17.8,6-20.7c8-4,24,6.7,32,19.3
		c5,7.9,5.6,14.4,9.3,14.7c4.5,0.3,9.2-8.5,11.3-15.3c4.5-14.6-2.7-21.5,2.7-30.7c3.9-6.7,12-10,18-10.7c12.4-1.3,16.4,8.8,28,10
		C1997.6,2326.1,2002.7,2329.8,1997.7,2335.8z"/>
</g>
<g id="floods3">
	<radialGradient id="SVGID_23_" cx="3482.4927" cy="2381.6636" r="13.1865" gradientUnits="userSpaceOnUse">
		<stop  offset="0" style="stop-color:#CDDAF1"/>
		<stop  offset="0.5" style="stop-color:#B1C7E9"/>
		<stop  offset="0.5094" style="stop-color:#B0C7E9"/>
		<stop  offset="1" style="stop-color:#99B7E2"/>
	</radialGradient>
	<path class="st22" d="M3473.5,2389.1c-4.8,1.2-7.3,1.6-7.5,0.9c-0.9-2.6,32.8-17.5,33-17
		C3499.1,2373.3,3489.1,2381.2,3473.5,2389.1z"/>
	<radialGradient id="SVGID_24_" cx="2457.5339" cy="2246.9241" r="1753.8151" gradientUnits="userSpaceOnUse">
		<stop  offset="0" style="stop-color:#CDDAF1"/>
		<stop  offset="0.5" style="stop-color:#B1C7E9"/>
		<stop  offset="0.5094" style="stop-color:#B0C7E9"/>
		<stop  offset="1" style="stop-color:#99B7E2"/>
	</radialGradient>
	<path class="st23" d="M4564,2140.7c-34.1-99.8-100.8-159.4-141.3-194.7c-118.6-103.5-198.7-88-215.1-151.7
		c-20.3-78.5,96.4-121.8,97.6-256.6c0.6-72.6-33.1-72.3-30.2-146.1c4.3-108.5,78-130.3,79.9-234.9c0.3-14.8,2-105.8-61.9-154.3
		c-54.5-41.4-124.2-27.2-148.6-22.3c-93.2,18.9-149,90.9-167.6,115.6c-57.1,75.9-35.8,113.9-88.5,160.2
		c-34.7,30.5-48.4,18-167.3,54.9c-102.8,31.9-174.9,55.2-238.6,116.7c-39.2,37.8-28,44.7-57.6,65.3c-72.5,50.5-130.1,2.5-258.5,24.4
		c-59.7,10.2-113.1,41-153.8,61c-25.9,12.7-49.1,17-57.4,21.9c-66,39.2-59.8,43.4-116.4,63.6c-56.3,20.2-67.6,22.7-157.7,35
		c-79.3,10.9-135.3,38-149,44c-65.6,28.6-66.9,45-167.8,111.5c-33.1,21.8-111.2,66.3-209.2,118.3c-76.8,40.8-65.6,36.4-87.1,46
		c-0.5,0.2-60.4,17-57.8,16.6c-20.4,5.8-45.2,16.7-72.3,28.3c-43.1,18.4-75.3,38.9-92.8,50.9c-43.5,29.7-44.2,39.7-102.2,86
		c-30.4,24.3-58,47.7-98.8,66.7c-32.1,15-46.7,20.7-62.8,26.3c-16.2,5.7-29.8,15.4-55.7,30c-10.8,6.1-16.6,10.2-41,27.1
		c-17.2,11.9-44.4,27.5-85.1,66.7c-43.9,42.3-68.5,63-109.8,98.1c-58.4,49.6-68.6,60.1-75.3,67.2c-36.8,39.1-34.6,48.4-76.6,97
		c-13.2,15.3-19.9,35.3-32,43.8c-21.4,15-32.6,24.8-52.1,37.4c-27.1,17.6-35.8,16.4-92.7,45.6c-33.9,17.4-55.5,30.4-72.7,40.4
		c-77.5,45-117,57-263.9,131.2c-55.6,28.1-84.3,55.5-105.8,68.6c-24.1,14.7-38.1,13.8-47.3,23.7c-32,34.3-35.3,54.7-77.2,87.8
		c-27.3,21.6-49.5,31.7-60,60c-8.1,21.9-4.6,42.4-2,58c4.6,27.4,15.2,48.1,34,78c32.9,52.4,49.4,78.6,66,92
		c34.5,27.9,78,32.5,222,18c87.4-8.8,114.3-14.8,188-24c258-32.1,308.6-5.6,330,8c53.2,33.9,53.5,70.1,92,72
		c74,3.7,117-127.5,184-116c30.9,5.3,27.9,34.4,64,40c38.5,6,55.3-24.9,136-48c11.3-3.2,28.4-8.1,52-12c57.8-9.5,85.1-1.3,100-20
		c8.8-11,3.6-19.2,8-40c8.3-39.4,40.2-72.6,64-84c60.4-28.9,110.1,63.9,192,52c70-10.2,114-89.7,156.7-167
		c8.9-16.1,48.2-89,71.3-197c23.5-109.6,7.6-149.3,49.3-214.5c14.2-22.2,44.8-70.2,98.7-81.5c41-8.6,80,7.1,112,20
		c40,16.1,51.3,29.9,72,40c104.3,51.1,220.4-99.4,316-56c21.6,9.8,41.1,46.6,80,120c10.3,19.5,48.6,93.3,88,220
		c32.9,105.8,22.7,107.1,40,128c73.4,88.4,249.5,54.4,324,40c46.7-9,120.1-23.9,199-75.5c86.8-56.7,139.5-130.9,161-164.5
		c46.8-73.1,62.3-135.4,80-132c12.2,2.3,12.8,33.5,20,80c13.1,84.9,28.8,186.2,88,232c43,33.3,108.1,36.6,156,20
		c83.3-28.8,119.1-119.5,180-280c61.3-161.7,41.2-182.1,96.8-273.4c55.1-90.5,88.9-93.5,115.3-170.1
		C4606.5,2269.3,4572.9,2166.7,4564,2140.7z M2053,2027.2c0.5-0.1,0.8-0.2,0.8-0.2C2053.8,2027,2053.6,2027.1,2053,2027.2z
		 M3680,2293c-4.7,24-30.9,38.5-48,48c-16.7,9.3-30.4,12.6-44,16c-59.5,15.1-98.9,28.1-114.5,32.1c-19.1,9.6-46.7,19-74.5,13.9
		c-8.9-1.6-31.2-5.7-42-25c-12.3-21.9-0.6-46.9,1-50l-2-18c3.5-5.6,9.5-13,19-17c16.7-7.1,30.1,2.4,38-5c5.9-5.6,0.6-13,2-32
		c0.5-6.4,2.6-35.6,23-53c3-2.6,12.1-10.1,25-12c35.7-5.3,52.4,39.7,81,35c24.5-4.1,25.6-39.4,57-44c2.2-0.3,16.9-2.3,30,6
		c11.8,7.5,14.9,18.6,22,37C3673.6,2278.8,3682.9,2278,3680,2293z"/>
	<radialGradient id="SVGID_25_" cx="771.3885" cy="2358.7319" r="1015.4608" gradientUnits="userSpaceOnUse">
		<stop  offset="0" style="stop-color:#CDDAF1"/>
		<stop  offset="0.5" style="stop-color:#B1C7E9"/>
		<stop  offset="0.5094" style="stop-color:#B0C7E9"/>
		<stop  offset="1" style="stop-color:#99B7E2"/>
	</radialGradient>
	<path class="st24" d="M-56.4,3017c0.2-26.2,133.6-40.5,133.6-40.5c117.1-12.5,76.7-14.9,168-22.5c157.1-13,166.9,3.2,210-21
		c30.4-17.1,54.6-41.5,99-43.5c17.5-0.8,35.7,2,61.5,6c36.2,5.6,72.8,14.7,72.8,14.4c0.1-0.2-15.4-1.1-16.4-6
		c-2.2-10.6,66.6-23.4,148.3-67.7c43.6-23.7,37.8-27.5,76-45.7c39.6-18.9,57.9-20.5,111.9-45.8c30.8-14.4,46.2-21.6,54.2-28.5
		c38-32.7,31.8-66.4,72.1-104.1c17.4-16.3,19.2-10.6,45-30c45.7-34.5,56.6-64.9,87-102c29.5-36,28.7-18.9,122-95.5
		c75.4-61.9,81.1-77.4,125.5-98c20.4-9.5,29.5-11,81-33.7c53.8-23.7,70.6-33.8,76.7-37.5c7.3-4.5,18.9-12,69.7-54.3
		c61.3-51.1,62.8-55.5,89-74.2c32.7-23.3,50.6-36.1,79.4-47.5c39-15.6,76.5-35,116-49.3c1.9-0.7,6-2.2,8.7-6
		c9.4-13.4-8.9-39.8-28.7-72c-46-74.9-36.8-78-50.7-85.3c-39.5-20.8-69.2,28.2-145.7,17.4c-7.3-1-0.1-0.5-78-22.5
		c-19-5.4-38.2-11.1-76.5-22.5c-52.6-15.7-73.5-22.3-73.5-31.5c0-4.7,5.6-9.4,10.2-11.1c9.7-3.5,21.7,3.7,21.3,5.1
		c-0.6,2-31,0-54-16.5c-12.1-8.7-11.1-13.5-24-27c-3.2-3.4-45-46.4-73.5-36c-16.2,6-10.7,22.9-34.5,39
		c-17.3,11.7-26.7,7.2-37.5,19.5c-7.9,9.1-9.3,19-12,39c-1.8,13.3-4.5,34.5,1.5,60c5.6,24,13.4,28.1,21,48
		c17.8,46.5,2.2,93.8-3,109.5c-3.3,10.1-15.7,32.7-40.5,78c-8.5,15.5-17.9,23.3-22.5,40.5c-6,22.5-0.2,35.8-9,42
		c-9.6,6.8-26.5-1.8-40.5-9c-13.7-7-32.5-16.6-42-37.5c-8-17.5-6.5-36.5-6-43.5c1.1-13.9,4.2-16.6,2.5-26.2
		c-2.2-12.2-8.9-16.7-19.7-32.1c-14-19.9-9.5-21.8-20.3-36.3c-6-8.1-26.7-35.7-49.5-33c-10,1.2-17.7,8.8-33,24
		c-8.7,8.6-14.5,16.3-22.5,27c-8.9,11.9-15.3,21.9-19.5,28.5c-1.4,2.1-10.2,16.1-13.5,22.5c-18,34.8,0.6,93.1,12,93
		c6.6,0,12.4-19.8,10.5-21c-1.7-1-9.1,12.7-27,30c-8.7,8.5-20,19.2-36,27c-5.7,2.8-10.6,4.5-42,10.5c-52.9,10.2-63.8,10.1-75.6,5.2
		c-1.4-0.6,0.1,0-20.4-12.7c-33.5-20.7-39.9-23.7-48-24c-4.3-0.2-11,0.3-31.5,12c-37.2,21.2-65.8,37.5-70.5,64.5
		c-2.6,15.2,4.9,19.1,0,37.5c-1.3,5.1-6.3,23.8-22.5,33c-2.7,1.5-6.7,3.4-29.3,5.1c-28.6,2.2-31.1-0.1-47.4,2.3
		c-5.8,0.8-21,3.4-38.8,10.6c-14.2,5.8-15.8,8.7-34.5,16.5c-20,8.3-20.7,6-25.5,10.5c-8.8,8.2-6.9,16.2-16.5,43.5
		c-0.3,0.8-0.2,0.4-9,22.5c-13.7,34.2-15.5,38.8-19.5,48c-14,32-19.4,38.3-27,42c-7.3,3.5-12.9,2.8-21,3
		c-30.1,0.7-53.7,12.5-73.5,22.5c-29.4,14.8-47.8,32.8-52.5,37.5c-7.3,7.4-20.6,20.9-31.5,42c-11.1,21.5-8.1,28.3-16.5,49.5
		c-11.8,29.9-30.3,48.4-48,66c-21.2,21.1-36.2,36.1-61.5,43.5c-17.3,5.1-33,4.7-45,4.5c-17.7-0.4-29.9-0.6-43.5-7.5
		c-7.8-4-14.2-9.1-27-19.5c-12.4-10.1-12.6-11.7-18-15c-15.1-9.2-28.5-5.5-41.5-6.7c-42.6-3.8-71-58.8-74-56.3
		c-1.7,1.4,9.3,16.5,7.5,18c-2.6,2.2-23.9-33.4-61.5-46.5c-6.1-2.1-41-14.3-63,4.5c-17.8,15.2-16.6,41.8-16.5,43.5
		c1.7,27.7,24.1,41.5,18,51c-5.5,8.6-27.8,3.5-30,3c-21.1-5-23.2-18.2-37.5-19.5c-23-2.1-42.9,29.6-45,33c-8,12.7-10.3,24.5-15,48
		c-6.9,34.8-2.4,40-10.5,52.5c-6.8,10.4-10.1,7-39,28.5c-22.5,16.7-23.5,21-41.8,32.5c-16.4,10.2-17.3,7.8-31,17
		c-18.7,12.4-35.2,23.5-38,42c-1.7,11.3,1.8,24.3,10,33c7,7.5,15.6,9.9,49,13c33.7,3.1,59.7,3.7,72,4c30.2,0.7,45.4,1,51,0
		c7.2-1.3,16.3-3.4,68-27c25.9-11.8,30.8-14.5,44-19c37.8-12.9,51-8.8,58-5c8.4,4.5,13.5,11.5,16,15c10.8,15,5.2,22.5,14,35
		c13.4,19,38.6,19,41,19c4-0.1,11.3-0.3,14.6-5C-53,3027.1-56.4,3020.8-56.4,3017z"/>
	<radialGradient id="SVGID_26_" cx="2875.8079" cy="1335.7295" r="735.6645" gradientUnits="userSpaceOnUse">
		<stop  offset="0" style="stop-color:#CDDAF1"/>
		<stop  offset="0.5" style="stop-color:#B1C7E9"/>
		<stop  offset="0.5094" style="stop-color:#B0C7E9"/>
		<stop  offset="1" style="stop-color:#99B7E2"/>
	</radialGradient>
	<path class="st25" d="M2078.1,1967.1c-7.2-8.7-12.9-11.5-16.5-15c-9.5-9.2-9-26.9-8.5-40.1c0.5-12,2.3-19.7,11.1-51.3
		c13.2-47.3,16.4-56.1,19.9-64.6c7.1-17,10.6-25.5,17.1-35c16.8-24.7,41.1-37.1,89.1-60.9c31-15.4,38.9-16.7,57.3-30
		c16.8-12.1,29.5-24.9,37.5-33c6.8-6.9,20.7-21.1,34.5-40.5c23.3-32.8,16.4-38.3,33-60c16.8-21.9,24.5-17.1,70.5-54
		c23-18.5,19.3-18.2,48-42c38.6-32,43.2-30.6,64.5-51c17-16.3,34.6-33.1,48-60c6.9-13.7,11.7-35.3,21-78c9.8-44.6,8.9-48.1,15-69
		c10-34.1,22.5-59,26.9-67.4c14.6-28,32.5-49.1,67.8-90.2c55.3-64.4,73.9-75,86.8-80.9c15.8-7.3,28.3-10,51-15c34.7-7.6,64-14,99-6
		c13.9,3.2,40.8,9.3,63,31.5c15,15,21.7,36.2,34.5,78c16.1,52.8,24.2,79.1,22.5,109.5c-2.1,36.8-14.1,57.8-4.5,64.5
		c9.2,6.4,30.8-5.3,43.5-19.5c11.6-12.9,12.1-23.8,21-55.5c10.6-38,12.4-31.5,23.3-70.7c9.5-34.3,14.3-51.4,14.2-70.3
		c-0.1-28.2-7.5-34.7-2.5-49.5c8.3-24.5,37.4-33.2,58.4-42.1c83.5-35.6,65.1-86.6,153.5-130.9c50.3-25.2,62.3-11.7,110.1-42
		c16.2-10.2,34.6-24.3,62.9-26.5c7.7-0.6,30.5-2.1,51,10.5c12.4,7.6,22.4,19.5,40,70c24.1,69.3,14.9,74.9,36,128
		c8.4,21.2,14.7,32.5,16,52.9c1.4,22.6-4.9,30.3-2,57.1c2.7,24.4,8.9,26.4,5.9,38.1c-4.9,19.4-23,17.7-45.9,41.9
		c-22.9,24.2-14.7,36.4-42,64c-4.8,4.8-1.7,1.1-28,24c-22.9,19.9-28.2,25.4-39.2,29.6c-14,5.4-18.2,1.5-34.8,4.4
		c-19.3,3.3-28,10.9-60.4,31.6c-46.1,29.3-41.3,22.1-62.2,37.5c-18.7,13.8-16,14.8-59.3,52.5c-32.8,28.6-41.8,34.5-48.1,38.3
		c-12.2,7.4-26.2,13.3-53.9,24.7c-50.9,21-54.2,19.2-72,30c-4.1,2.5-1.3,1-48,37.5c-28.2,22.1-37.4,29-50.1,37.3
		c-8.6,5.7-18.7,11.4-38.4,22.7c-35.9,20.5-53.9,30.8-79.4,43.8c-22.5,11.5-30.2,14.6-48.1,25.2c-16.4,9.7-20.8,13.5-33.1,20.9
		c-24.9,15-45.9,22.8-61.3,28.6c-46.9,17.5-76.6-1.4-163.6,16.7c-47.6,9.9-79.8,33.7-100,42.7c-24.3,10.7-32,16-87.3,49.3
		c-17.4,10.5-28.4,23.6-59.8,41.8c-120.5,69.9-177.8,95.9-212.3,122.4c-6.9,5.3-17.7,14.3-35,22.9c-18.1,9.1-21,6.7-32,15.1
		c-7.2,5.5-13.9,12.5-20,10.4C2081.3,1971.2,2080.3,1969.7,2078.1,1967.1z"/>
	<radialGradient id="SVGID_27_" cx="5003.8857" cy="1494.8488" r="940.4304" gradientUnits="userSpaceOnUse">
		<stop  offset="0" style="stop-color:#CDDAF1"/>
		<stop  offset="0.5" style="stop-color:#B1C7E9"/>
		<stop  offset="0.5094" style="stop-color:#B0C7E9"/>
		<stop  offset="1" style="stop-color:#99B7E2"/>
	</radialGradient>
	<path class="st26" d="M4382,578.5c20.6-8,33-9.3,42.8-34.8c10.2-26.5-6.6-39.8-0.8-77c7.5-48.5,44.2-78.2,51.6-84.2
		c15.4-12.5,33.2-27,56.4-26.8c33.2,0.3,51.1,30.3,86.6,63.1c45,41.5,51,25.5,119.6,74.3c102.3,72.8,96.7,114,165.4,133.6
		c37.2,10.6,67,6.6,80.7,30c9.2,15.8,2.5,29.2-2.2,73.8c-5,47.2,1.4,42.7-2.6,97.8c-5,70-15.2,73.8-11.6,114.3
		c2.2,25,5,56.7,25.1,85.2c20.9,29.5,39.7,26.3,117.8,66.1c63.1,32.1,67.6,42.8,124.3,66.9c17.1,7.3,11.1,4,73.4,26.8
		c109.3,40.1,132.3,52.1,155.9,71.4c12.9,10.5,31.3,25.8,47.6,50.9c28.1,43.2,22.9,73.9,34,140.3c19.1,115,51.9,127,43,200
		c-3.4,27.8-7.3,59.6-30.3,89c-36.5,46.5-81.7,37.1-108.2,83c-15.6,27.1-21.5,67.9-3.4,89.8c20.1,24.4,51.3,2.8,102.9,22.6
		c57,21.9,86.9,74.5,100.4,98.2c19.6,34.5,25.7,64,31.4,91.2c16.2,78.3,5.4,142-0.5,175c-2.9,16.1-13.1,68.6-42.4,131.6
		c-17.9,38.5-45.8,97.1-104.8,149.4c-31.4,27.9-57.1,49.9-96.9,53.7c-5.3,0.5-57.1,4.6-97.3-30c-30.9-26.7-21.3-47.4-58.3-101.3
		c-21.9-31.9-47.3-69-77.5-67.6c-28.1,1.3-29.6,34.6-72,51.3c-39.3,15.5-64.3,65.2-78.2,60.6c-14.6-4.8-113.8-7.8-135.6-48.6
		c-14.6-27.3,29-128.2,31.8-176c1.1-18.5,3.4-32.3,8-60c11.7-71.1,18.4-71.6,16-92c-4.1-35.2-24.8-42.4-52-92
		c-13.5-24.7-20.1-47.3-34-92c-22.1-70.9-70.9-105.5-65.7-137.1c6.8-41.9,45.6-52.7,59.9-104.9c13.8-50.2,26.4-84.7,23.8-104
		c-10.9-82.1-52-124.1-68-196c-8-36.2-12.1-54.4-12-66c0.1-9.9,1-19.8-4-32c-6.3-15.4-17.9-24.1-26-30c-14.9-10.9-25.3-12-64-22
		c-48.2-12.4-72.3-18.6-78-21.3c-10.8-5.1-21.3-11.2-36-10c-5.1,0.4-9.2,1.6-30.7,11.3c-20.4,9.2-24.1,11.5-38.7,18
		c-16.3,7.3-6.3,2.1-40.7,16c-15,6.1-20.5,8.5-26.7,6c-5.9-2.4-7.1-7.1-16.7-19.3c-8-10.3-14.3-16.1-16-18
		c-55.8-62.1-111.5-533.1-111.5-533.1c-2.3-19.3-5.1-37.5-5.1-37.5c-3.2-20.5-3.6-19-5.3-31c-5.7-40.3,1.1-43.7-5.7-63
		c-0.8-2.3-3.7-10.1-3.5-20.5c0.1-6.2,0.3-12.8,5-17.5c4.6-4.6,11.1-4.8,17-5c9.2-0.3,16.9,2.4,22,5"/>
</g>
<g id="floods4">
	<radialGradient id="SVGID_28_" cx="2315.1873" cy="2025.363" r="2043.2583" gradientUnits="userSpaceOnUse">
		<stop  offset="0" style="stop-color:#CDDAF1"/>
		<stop  offset="0.5" style="stop-color:#B1C7E9"/>
		<stop  offset="0.5094" style="stop-color:#B0C7E9"/>
		<stop  offset="1" style="stop-color:#99B7E2"/>
	</radialGradient>
	<path class="st27" d="M4673,2464.9c-12.1-74.4-26.9-102.6-47.6-181.7c-22-84.3-25.6-130.7-41-239c-15-105.8-31.8-196.5-65.2-377.8
		c-25.4-137.6-24.3-109.3-96.2-444.6c-77.3-360.6-115.9-540.9-125.2-604.9c-5.7-39.2-17.7-77.3-23.4-116.5
		c-4.4-30.7-6.8-56.2-25.4-83.4c-7.9-11.4-21.1-30.3-46-38.9c-38.2-13.3-72.4,8.2-74.9,9.8c-40.9,26.8-51.8,85.9-34.3,112.7
		c3.4,5.3,11.3,13.5,27,30.1c14.1,14.8,17.9,17.7,22,25c8.5,15.4,5.4,31.2,6.1,43.3c0.6,11,2.6,58.8-18.7,116.6
		c-10,27.1-11.8,20.2-46.1,94.5c-8.9,19.2-9.7,21.8-13.9,27.5c-15.6,21.5-31.4,23.9-77.2,55.1c-19.1,13-24.9,18.4-27.8,21.2
		c-13.1,12.7-21,25.1-30.6,40.4c-13.7,21.8-11.8,23.5-19.3,33.2c-6.5,8.4-14.7,15.9-45.7,32.6c-23.9,12.9-45.1,22.2-87.4,40.8
		c-24.4,10.7-35.5,15.2-39.2,16.7c-23.5,9.5-23.2,8.4-28.1,11.3c-7.5,4.4-17.6,12.5-38.2,52.2c-18.7,36-15.2,38.5-26.5,53.2
		c-3.6,4.6-18.2,22.7-43.4,35.4c-24,12.1-31.2,6.1-70.6,17.4c-29.6,8.5-51,19.2-61,24.3c-5.6,2.8-26.4,13.6-59.6,38.5
		c-43.1,32.3-43.4,40.6-87.4,74.2c-38,29-58.5,38.6-64.3,41.2c-26.7,12.2-33.1,9.5-60.3,19.8c-37.1,14-61.7,32.6-91.4,55.1
		c-46.1,34.9-41.8,42.5-75.9,62.7c-25.1,14.8-26.9,10.4-76.2,34c-6.1,2.9-16,7.7-76.4,40.3c-73.2,39.4-70.8,38.9-76.8,40.9
		c-22,7.5-22.4,3.6-115.2,16.1c-37.8,5.1-48.7,7.2-59.8,9.9c-12.3,3-39.8,10.2-73.3,25.1c-57.4,25.7-89.1,54.7-157.9,101
		c-11.6,7.8,1-0.9-134.7,81.9c-60.7,37.1-96.2,58.9-128.6,69.8c-10.4,3.5-23.9,7-41.3,17.2c-15.6,9.1-20.1,15.2-36.7,22.1
		c-11.4,4.7-21.2,6.7-30.3,8.6c-18.7,3.8-32.7,4.1-37.1,4.3c-25.9,1.4-43.1,17.4-88.6,47.8c-57.7,38.5-54.8,29.3-87.8,54.7
		c-29.6,22.8-27.8,27-67.6,59.7c-27.9,22.9-44.3,36.3-69.7,51.2c-25.8,15.2-52.2,26.7-88,42.4c-20.7,9.1-27,11.2-41.1,18.6
		c-26.1,13.6-44.3,27-57.9,37.1c-58.2,43.3-91.9,71.6-91.9,71.6c-74.1,62.1-59.8,56.6-122.6,108.8c-30.6,25.4-54.8,44.1-82.1,78.8
		c-3.2,4.1-11.3,15.3-27.4,37.7c-40.8,56.6-45.8,65.8-61.5,80.8c-16.1,15.3-29.5,23.6-52.1,37.4c-34.3,21-49.7,24.4-87.8,43.1
		c-40.5,19.9-34,21.3-91.5,52.8c-38.7,21.1-70.3,36.1-104.1,52.2c-22.3,10.6-62.1,29.1-88.7,41.4c-28.6,13.3-40.8,18.8-59.1,28.9
		c-18.2,10-20.1,12.3-57.3,35.5c-40.7,25.4-61.5,38.3-83,48.4c-2.8,1.3-20.4,8.4-55.7,22.6c-27.3,11-50,20-76.2,30.4
		c-26.2,10.4-39.3,15.6-41,16.2c-46,16.6-58.5,15.6-80.2,28.8c-19,11.5-21.1,19.3-37.1,33c-42.5,36.4-80.3,26.6-192,64
		c-29.3,9.8-41.2,15.4-48.8,27.9c-17.1,28,0.8,67.9,14.3,97.1c32.2,69.3,79.7,110.4,84,114c112.5,95.2,293.2,129.2,342,138
		c223,40.1,397.5,41.8,438,42c113.3,0.6,86.6-6.2,471-33c261.9-18.2,318.1-18.1,420-54c89.8-31.6,157.8-71,258-129
		c112.8-65.3,169.8-99,201-150c35.3-57.6,33.8-102.5,90.5-154.9c21.2-19.6,43.3-33.6,59.6-67.1c16.6-34.1,16.6-66.9,16.4-91.4
		c-0.7-74.6-29.1-93.4-13.4-127.6c14.1-30.6,51.6-47.9,81-51c57.5-6.1,93.1,40.5,112.8,25.8c20.4-15.3-15.6-66.8,7.2-94.8
		c29.3-35.9,129.6-1.1,150,6c64,22.2,70.1,44.5,135,60c46.6,11.2,51.5,1.6,84,15c51.4,21.2,81.1,62.2,99,87
		c25.7,35.6,13.6,33.5,51,96c31,51.8,47.8,67.2,51,102c2.8,30.1-7.6,41.5-9,63c-4.6,71.4,98.8,134.4,135,156
		c126.7,75.4,269.2,103.3,408,111c137.3,7.7,271.8,15.2,438-42c70.4-24.2,322.9-111.1,432-327c17.1-33.8,11.1-32,56.5-135.8
		c79.7-182.3,106.3-206,117.6-287.2C4692,2582.1,4682.2,2521.9,4673,2464.9z M3680,2293c-4.7,24-30.9,38.5-48,48
		c-16.7,9.3-30.4,12.6-44,16c-59.5,15.1-98.9,28.1-114.5,32.1c-19.1,9.6-46.7,19-74.5,13.9c-8.9-1.6-31.2-5.7-42-25
		c-12.3-21.9-0.6-46.9,1-50l-2-18c3.5-5.6,9.5-13,19-17c16.7-7.1,30.1,2.4,38-5c5.9-5.6,0.6-13,2-32c0.5-6.4,2.6-35.6,23-53
		c3-2.6,12.1-10.1,25-12c35.7-5.3,52.4,39.7,81,35c24.5-4.1,25.6-39.4,57-44c2.2-0.3,16.9-2.3,30,6c11.8,7.5,14.9,18.6,22,37
		C3673.6,2278.8,3682.9,2278,3680,2293z"/>
	<radialGradient id="SVGID_29_" cx="4986.1846" cy="256.7996" r="678.1504" gradientUnits="userSpaceOnUse">
		<stop  offset="0" style="stop-color:#CDDAF1"/>
		<stop  offset="0.5" style="stop-color:#B1C7E9"/>
		<stop  offset="0.5094" style="stop-color:#B0C7E9"/>
		<stop  offset="1" style="stop-color:#99B7E2"/>
	</radialGradient>
	<path class="st28" d="M4144-132c5.6,39.5,9.8,69.8,12,86c12.4,90.5,14.6,112.6,32,142c6.2,10.5,19.9,33.1,46,52
		c23.1,16.7,39.5,18.5,66.6,30c33.1,14.1,48.6,28.3,83.4,54c30,22.2,92,67.9,161.5,102.3c61.1,30.2,67.9,22,146.8,61.1
		c42.9,21.3,75,40.6,88.9,49.2c67.5,41.6,61.8,48.5,121.4,86.1c12.8,8.1,77,48.1,168,83.6c24.7,9.6,21.1,7.1,39.4,14.7
		c84.6,34.8,92.7,60,146.5,75.7c23.6,6.9,77,22.4,112.4-3.8c26.2-19.4,15.4-41.6,44.9-68.5c8.9-8.1,20.5-15.8,101.4-37.1
		c67.1-17.6,58.6-12.2,80.8-20c53.9-19,58.1-34.9,116-55.4c44-15.6,46.9-8.3,64-20c43.6-29.9,48.6-93.9,51.6-140
		c3.6-54.5-6.1-100.4-25.6-190c-17-78.1-25.5-117.2-42-156c-23.9-56.4-50.5-119-108-156c-43.5-28-80.2-25.6-192-26
		c-248.1-0.9-208.8-13.4-302-6c-113.7,9-200.7,29.8-310,56c-167.7,40.2-191.7,61.2-258,46c-49.4-11.3-103.3-38.4-198-86
		c-51-25.6-82.8-44.3-130-44c-49.2,0.3-88.9,21.2-114,38"/>
	<radialGradient id="SVGID_30_" cx="5005.4634" cy="1656.2056" r="1214.7411" gradientUnits="userSpaceOnUse">
		<stop  offset="0" style="stop-color:#CDDAF1"/>
		<stop  offset="0.5" style="stop-color:#B1C7E9"/>
		<stop  offset="0.5094" style="stop-color:#B0C7E9"/>
		<stop  offset="1" style="stop-color:#99B7E2"/>
	</radialGradient>
	<path class="st29" d="M4178,186.7c15.7,23.3,13.7,32.9,29.5,71c10.1,24.4,10.1,18.2,29,58.1c15.5,32.7,15.5,36.6,34.4,78.1
		c15.9,34.8,23.9,52.2,31.1,62.7c24.3,35.5,7.2,29.1,11.5,51.6c3.3,16.9-0.6,26.2-9.6,67.9c0,0,4.5,35.8,8.1,63.9
		c4,30.9,14.9,50.7,23.8,92.6c21.7,101.9,24,111,24,111c50.9,193.7,76.3,290.6,85.6,348.8c4,24.9,8.4,56.4,19.2,102.3
		c14.8,62.9,22.1,94.3,41.3,131.3c20.6,39.8,28.9,36,84,116c28.5,41.4,42.7,62.1,49.5,80.6c10.5,28.9,9.9,48.6,2.5,149.4
		c-8.2,113.4-11,138.5-5.5,183.5c3.5,28.3,5.3,24.1,13.4,72.2c14.3,83.9,11.3,111.1,19.7,179.9c4.7,37.8,16.3,91,39.7,197.3
		c9.2,41.7,18.9,83.9,29.7,147.1c1.8,10.6,6,35.5,10.5,67.5c19.5,137.3,8.7,141.3,23.7,188.7c13.9,43.9,19,27.4,67.8,132.3
		c19.7,42.4,26.5,61.4,48,101.3c42.9,79.4,63.9,92.5,75,98.2c3.6,1.9,51.9,25.7,93,4.5c7-3.6,13.4-8.3,45.9-53.7
		c33.9-47.3,50.9-71.3,54.6-88.8c8.4-40.1-12.8-48-3-82.5c10.2-36.1,44.3-66.5,83.4-75.3c9.7-2.2,47-10.6,75.2,9.9
		c26.3,19.1,17.6,43.7,46,87.4c13.9,21.4,31.3,48.2,59.3,57.5c53.4,17.7,114.3-37.9,144.3-65.3c15-13.7,57.5-53.4,77.1-116.6
		c4.3-13.8,0.4-5.9,12.2-60.9c14.1-65.9,20.7-82,15.9-110.4c-4.2-24.5-10.8-22.7-13.9-47.7c-4.3-34.9,5.7-62.9,11.9-79.9
		c4-10.9,15-38.4,44.2-73.6c46-55.6,68.6-47.6,99.7-90.6c31.7-43.9,36.1-90.9,37.5-108c4.1-50.6-10.8-87.9-27-127.5
		c-23-56.1-61-148.9-148.5-192c-52.2-25.7-95.4-20.5-114-58.5c-14.1-28.8-4.2-62.1-3-66c8.8-28.1,25.9-34.4,52.1-70.9
		c10-13.9,27.1-37.8,34.6-62.8c16.4-55.3-25.7-78.9-43.3-179c-10.6-60.3-5-106.7-3.1-120.1c5.3-38.6,15.8-68.6,24.7-93.4
		c26.1-73.1,43.6-79.5,48.1-123.9c2.1-20.2,6.3-61.5-18-92c-18.3-23-37.5-20.6-102-48c-18.9-8-50.4-21.5-84-42
		c-49.7-30.3-83.2-63.3-112-92c-35.8-35.7-37.5-43.6-60-66.1c-56.1-56.1-116.2-77.7-155.7-94c-18-7.5-1.3-1.3-312.5-192.7
		C4643.5,414.3,4658.2,424.7,4594,384c-89.7-56.9-97.6-64-138.2-85.7c-105-56.1-152.8-62.2-197.1-97.7
		c-22.8-18.2-36.2-23.5-63.1-33.9c-27.8-10.9-31.5-7.2-32.3-6.1C4160.5,164.7,4169.2,173.7,4178,186.7z"/>
	<radialGradient id="SVGID_31_" cx="3074.8337" cy="1071.0585" r="982.3051" gradientUnits="userSpaceOnUse">
		<stop  offset="0" style="stop-color:#CDDAF1"/>
		<stop  offset="0.5" style="stop-color:#B1C7E9"/>
		<stop  offset="0.5094" style="stop-color:#B0C7E9"/>
		<stop  offset="1" style="stop-color:#99B7E2"/>
	</radialGradient>
	<path class="st30" d="M2057.6,1982.6c-6.3-9-14.7-23.1-20.6-41.6c-5-15.9-6-27.9-7.4-56.5c-2.5-49-3.7-73.5-2.6-81.5
		c5.8-40.1,21.8-67.2,26-74c8.6-14,9.2-10.6,24-31c24.7-34.1,42.6-70.5,52-90c12-24.7,12.4-28.7,19.3-33.7
		c23.4-16.8,51.8,4.3,82.8,5.6c35,1.4,60.2-23.1,178.4-168c83-101.7,88.6-111.6,94.5-128c27.4-75.6-6.7-95.4,24-180
		c12.6-34.8,34.3-68.5,77.7-135.8c22.9-35.4,33.1-48,46.3-60.2c18-16.7,57.1-53.1,106-54.6c66.4-2,94.6,61.9,134.1,44.9
		c20.6-8.9,34.2-35.5,47.9-62.3c9.9-19.4,14.6-35.2,16-40c28.5-94.2,43.7-141,71.2-161.9c45.9-34.8,106.6-5.5,118.8-34.1
		c7.2-17.1-14.5-27-16-58c-1.6-32.6,21-49.8,76-120c36.1-46.1,28-40.8,60.9-81.8c50.7-63,76.5-94.6,101.1-96.2
		c31.7-2.1,36.2,25.8,99.5,37.7c12.7,2.4,33.9,5.3,59.8,3.3c13.6-1,32.5-2.5,52.7-11c22.8-9.7,27.1-20,49.3-37.4
		c17.7-13.8,21.2-12.2,120.7-56.6c31.9-14.3,34.6-15.8,43.4-17.7c42.7-9.1,78.9,5.8,92.6,11.7c24.1,10.3,43.4,18.6,54.1,38.3
		c13.7,25.2-3.7,37.6,3.9,81.7c5.1,29.8,21.3,72.4,48,78c10.2,2.2,15.7-2.5,24,2c14.3,7.6,23.3,33,16.6,51.1
		c-3,8.1-8.6,13.6-6.3,21.2c1.2,3.8,3.1,4.1,8,12.3c3,5,4.7,9.1,6.5,13.3c3.6,8.4,3.5,10.2,6.7,17.1c1.8,3.8,3.3,6.3,5.7,10.6
		c3.9,6.6,8.7,14.8,15.5,23.4c4.7,6,8.7,9.9,16.7,17.7c14.8,14.6,16.3,13.6,21.3,20.8c6,8.6,9.4,17.8,11.1,22.4
		c0,0,2.4,6.5,3.8,12.7c4.6,20.2-2.6,45.4-10.1,66.8c-4.8,13.9-4.8,12.2-15.6,39.9c-17.7,45.8-18.2,51.9-27.9,67.8
		c-4.8,7.9-11.1,16-23.5,32.4c-13.1,17.2-18.5,22.9-23.8,27.8c-8.3,7.6-15.4,12.3-22.9,17.2c-16.7,11-21.7,11.3-35.7,20.8
		c-5.2,3.5-14.5,9.8-24,19.3c-16.3,16.4-14.3,23.5-32,45.3c-6.1,7.5-13.2,14.6-27.3,28.7c-7.8,7.8-18.4,18.3-25.3,24.2
		c-13.1,11.1-24.5,15-86.3,32.2c-42.9,11.9-51.3,13.9-64,23c-18.3,13.2-29.4,29.6-31,32c-9.8,14.8-7.5,18.5-19.9,40.7
		c-4.4,7.9-11.4,17.6-25.4,37.1c-10.8,15-16.4,21.9-25.8,26.4c-2.7,1.3-5.4,2.2-9.8,4.9c-9.2,5.5-11.6,9.9-18,15.1
		c-9.5,7.8-11.5,4-26,12.9c-13,7.9-12.6,11.7-22,15c-6.8,2.4-7.6,0.6-23,2c-14.6,1.3-25.9,4-34,6c-9.7,2.3-14.6,3.5-18,5
		c-15,6.5-16.9,15.6-33.3,31.4c-10.2,9.8-9.4,6.2-33.7,25.6c-7.2,5.8-16.6,13.3-27,23c-21.9,20.4-20.1,24-34,36
		c-10.4,8.9-24.3,15.6-52,29c-9.6,4.6-21.9,10-45.9,20.6c-46.5,20.4-47.2,20.1-56.1,25.4c-13.5,8.1-20.5,14.2-37,22
		c-3.6,1.7-8.5,3.9-15,8c-10,6.3-16,12.2-20.5,16.2c-14.3,13-15.4,10.1-36.9,27.1c-21.8,17.3-18.9,19-31.3,26
		c-11.8,6.6-27.9,12.6-33.3,14.7c-9.8,3.6-8.4,2.6-13.3,4.7c-20.5,8.5-22.8,17.6-44,28.7c-3.7,2-1.5,0.5-19.3,8.7
		c-13.1,6-19.6,8.9-24,11.3c-8.4,4.6-8.8,5.9-27.9,19.5c-15,10.7-22.6,16.1-30.1,19.9c-11.8,6-21.6,8.6-29.3,10.7
		c-17.3,4.6-21.8,3-64.7,8.7c-8.2,1.1-15.7,2.2-19.3,2.7c-17.9,2.5-31.9,4.8-35.3,5.3c-28.4,4.6-34.2,10-82.7,22
		c-22,5.5-27.9,6.1-42,11.3c-10.1,3.7-11.1,4.9-36,16c-27.4,12.2-29.2,12.1-40.7,18c-13.6,6.9-22.4,12.8-37.3,22.7
		c-20.9,13.9-24,17.7-53.4,37.9c-9.3,6.4-16.2,11-23.1,15.6c-25.4,16.8-44.6,28.8-51.9,33.3c-13.1,8.1-19.6,12.1-29.6,17.7
		c-17.3,9.8-31.1,16.6-34,18c-26.4,12.9-30.4,12.5-45.5,22c-7.5,4.7-5.4,4.1-21.5,15c-11.9,8-20.4,13.7-31.5,19.8
		c-10.3,5.6-9.6,4.3-24.5,11.7c-16.6,8.3-20.5,11.4-36.7,19.9c-6.8,3.5-16.8,8.6-29.3,14.1"/>
	<radialGradient id="SVGID_32_" cx="737.4667" cy="2290.9333" r="1108.5991" gradientUnits="userSpaceOnUse">
		<stop  offset="0" style="stop-color:#CDDAF1"/>
		<stop  offset="0.5" style="stop-color:#B1C7E9"/>
		<stop  offset="0.5094" style="stop-color:#B0C7E9"/>
		<stop  offset="1" style="stop-color:#99B7E2"/>
	</radialGradient>
	<path class="st31" d="M2043.5,1985c-0.4-4.2-1-10-2.5-17c-2.6-12.3-6.2-21.3-9-28c-9.6-23.1-15.6-37.3-27.5-58.5
		c-16.7-29.7-17.1-23.3-24.5-40c-9.3-21.1-9.7-33.6-23-49.5c0,0-8-9.4-18-16c-35.8-23.3-83.4,24-148.1,20.5
		c-57.9-3.1-102.1-45.4-117.8-60.4c-17.7-16.9-15.4-20.6-66-81c-14.6-17.4-25.7-30.1-48-55.5c-38.7-44.1-58.4-66.5-76.5-84
		c-29.2-28.2-43.8-42.3-65.7-55.4c-25.4-15.2-66.5-39.6-115.8-30.1c-9.5,1.8-50,9.6-70.7,44c-11.7,19.4-12.1,39.1-12.4,52.9
		c-0.4,20.4,3.6,40.6,17.1,72.7c17.9,42.4,30.7,54.5,49.6,89.3c25.7,47.6,36.2,88.8,40.4,105.7c14.6,58.9,25.2,101.6,6,142.5
		c-21.7,46.3-60.5,58.2-97.5-7.5c-25.2-44.8-18.7-54.9-54-121.5c-19.4-36.6-22.7-36.1-31.5-58.5c-17.1-43.7-8-54.8-24-106.5
		c-13.4-43.3-31-71.9-37.5-82c-7.6-11.8-18.8-28.8-37.5-47c-23-22.4-31.2-21-70.5-49.5c-42.2-30.6-48.7-43.8-60-40.5
		c-16.4,4.8-16.1,36.4-26.3,93.9c-13.5,76.1-20.3,114.1-44.1,146.1c-34.9,46.7-91.8,65.7-114.3,73.2
		c-52.1,17.4-84.3,10.6-115.2,40.7c-20.1,19.6-26.7,42.2-30,52.5c-48,148.9-220,227.4-212.7,369.4c3.2,62.5,38.6,88.4,23.3,159.7
		c-8.7,40.4-28.3,70.5-39.6,87.9c-30.4,46.7-64.3,72.3-107.6,104.4c-65.7,48.7-98.6,73-142.6,71.4c-18.7-0.7-42.3-8.3-89.4-23.4
		c-33.7-10.9-44-16.5-76.4-26c-31.3-9.2-52.9-15.6-77.6-18c-74.8-7.4-135.1,25.4-154,36c-36.4,20.4-58.2,43.2-82,68
		c-40.1,41.9-43.5,60.8-98,122c-31.3,35.2-31.8,30.7-46,50c-14.2,19.2-49.4,67-54,132c-3.4,48.3,7.6,139.8,64,170
		c97.4,52.2,266.9-112.6,368.2-70.5c52.1,21.7,79.4,40.5,79.4,40.5c26.2,18.1,32.6,28.2,56.4,37.5c6.5,2.5,17.7,6.3,68.3,11.5
		c37.6,3.8,56.3,5.7,67.5,5.2c34.1-1.5,47.9-13,105.1-37.9c51.6-22.3,43.3-14.5,109.3-41.8c29.3-12.2,67-27.7,112.5-51
		c73.3-37.5,74-47.2,138-78c44.9-21.6,43.1-16.1,109.5-46.5c41.5-19,72.1-34.9,108-53.5c63.1-32.7,94.6-49,104.3-57.4
		c24.6-21.2,40.4-43,74.1-51.1c12.8-3.1,20.1-2.2,34.4-7.4c9-3.3,25.3-11.1,52.6-39.1c17.3-17.7,28.8-33.1,39.3-47.5
		c28.3-39,38.8-56.8,53-77c6.9-9.8,37.3-52.6,79-91c42.1-38.8,59.1-39.5,106-75c27.7-21,65.3-53.6,104-103"/>
</g>
<g id="floods5">
	<radialGradient id="SVGID_33_" cx="1703.3936" cy="1536.9368" r="2094.8333" gradientUnits="userSpaceOnUse">
		<stop  offset="0" style="stop-color:#CDDAF1"/>
		<stop  offset="0.5" style="stop-color:#B1C7E9"/>
		<stop  offset="0.5094" style="stop-color:#B0C7E9"/>
		<stop  offset="1" style="stop-color:#99B7E2"/>
	</radialGradient>
	<path class="st32" d="M-98.3,3167c-21.5-22.3-26-31.3-39-34.5c-15.5-3.8-29.6,4.1-36,7.5c-2.7,1.5-42.3,14.5-121.5,40.5
		c-54.9,18.1-100.3,18.8-145.5,19.5c-64.2,1-96.4,1.5-121.5-15c-26.3-17.3-25.2-33.9-78-130.5c-37.4-68.5-36.8-58-46.5-82.5
		c-22.1-56-23.6-106.8-25.5-169.5c-2.2-72.7-1.8-81.7,1.5-88.5c21.9-44.8,80.9-64.8,124.5-79.5c16.2-5.5,39.9-12.1,79.5-27
		c29.5-11,38-15.5,46.5-21c21.7-14.1,25.8-24.2,48-39c0,0,17.3-11.5,43.5-21c72.3-26.2,166.8-5,166.5,0c-0.2,3.1-37.5,3.5-37.5,3
		c-0.1-0.7,74.7-19,159-3c16.3,3.1,44.6,9.7,75.5,19.2c28.4,8.7,49.9,17.2,85,22.8c30.7,4.9,41.3,2.8,46.5,1.5
		c21.3-5.5,29.8-17.7,52.5-36c32.6-26.3,34.7-17,67.5-42c36.4-27.8,25.4-32.9,70-70.7c18.9-16,32-24.5,35-41.8
		c2.7-15.5-5.8-20.7-3-39c3.8-24.9,21.9-31,18-43.5c-3.8-12.1-21.4-7.9-40.1-27.7c-8.6-9.2-12.8-18.6-15.3-24.2
		c-3.4-7.8-9.8-22.4-7.6-38.1c1.8-12.9,8.4-18.8,19.1-33.6c11.7-16.2,18.9-31.1,33.4-60.8c5.1-10.4,3.4-8,24-58.5
		c20.6-50.6,24.4-58.2,21-70.5c-5.5-20-22-23.6-19.9-37.8c2.6-18.1,31.8-28.1,36.4-29.7c17.2-5.9,21.3-0.7,41.9-6.6
		c16.2-4.6,27.4-11.8,36.4-17.5c13.5-8.7,24.2-18.3,40.2-35.8c30.2-32.9,25.9-35.2,52.5-64.5c28.1-30.9,37-32.7,43.2-51.4
		c3.6-10.8,4.3-21,13.8-29.5c4.6-4.1,11.8-8.3,30-10.5c28.1-3.4,34.7,3.4,51,1.5c18.3-2.2,34.2-18.5,66-51
		c19.8-20.2,29.9-30.7,39.2-47.7c7.7-13.9,17.9-32.4,18.7-56.8c1.1-36-19.8-41.2-14.4-69.5c4.7-24.6,21.9-28.3,22.5-55.5
		c0.3-14.4-4.3-20.2,0.4-30.8c5-11.1,13.4-11.9,28.1-24.7c10.2-9,7.5-9.8,25.5-31.5c14.2-17,14.8-15.3,36-39.1
		c19.4-21.9,19.8-24.4,27-28.4c22-12.3,46.4-5.2,48.9-4.5c25.2,7.7,44.3,30.9,47.4,54.3c3.5,26.5-16.3,31.3-15.3,64.2
		c0.6,17.9,6.9,32.1,19.5,60c7.4,16.5,8.1,14.7,19.5,37.5c15,30,16.5,38.7,33,73.5c13.7,28.9,13.2,24.1,18,36
		c23.2,57.5,2.3,88.2,28.5,124.5c4.2,5.8,18.7,25.9,36,24c14.9-1.6,28.2-19.2,30-36c2.5-23.2-18.4-29.6-34.5-70.5
		c-4-10-7.1-25.7-13.5-57c-8.1-39.8-7.8-51.6-7.5-57c0.6-11.2,2.8-28.8,11-48.3c11.2-26.8,27.6-43.1,38.5-53.7
		c10.5-10.2,28.7-27.9,57-39c15.5-6.1,23.2-6,34.5-15c12.2-9.8,13.2-18,24-34.5c11.2-17.2,28.5-43.5,49.1-44.3
		c24.1-0.9,42.7,33.7,44.6,37.4c15,28.7,2.2,43.2,15.3,83.7c1.8,5.7,1,1.9,23.3,46.8c25.3,50.8,29.3,61.3,43.2,77.3
		c4.4,5.1,2.8,2.6,33,30c32.5,29.5,48.7,44.2,57,54c10.3,12.3,20.4,27.7,40.5,58.5c14,21.5,20.6,32.9,36,43.5
		c4.1,2.8,16.4,10.8,34.5,15c22,5.1,28.2-1.2,52.5,1.5c22.5,2.5,21.6,8.3,48,13.5c17.6,3.5,37.9,7.5,60.6,1.9
		c31.8-7.8,40.4-27.4,62.4-22.9c12.7,2.6,12,9.6,24,12c25.5,5.2,57-20.7,71.1-49c9.6-19.2,3.6-24.6,14.4-47c8.5-17.7,18.8-28,36-45
		c25.6-25.3,46.7-46,79.9-58.5c26.3-9.9,34.1-4.7,56.6-17.6c15.6-8.9,21.9-17,40.5-36.4c11.8-12.3,45.8-47.7,83.3-79.3
		c26.1-21.9,37.9-28.5,47.2-48.2c7.9-17,7.1-29,9-45c7.1-60.4,39.1-60.8,46.5-111c6.7-45.8-17.8-60.2-13.5-120
		c0.8-10.9,2.5-23.7,3-46.5c0.6-28.3-1.7-31.9,1.5-43.5c5.2-18.8,14.8-22.1,30-45c6.6-10,13-25.3,25.5-55.5
		c25.9-62.5,20.8-58.8,28.5-70.5c6.2-9.4,28.9-43.1,72-55.5c10.9-3.1,29.4-8.5,51-3c35.6,9,35.7,36.3,72,48
		c23.1,7.5,44.9,3.5,64.5,0c19-3.4,32.8-9.1,51-16.5c27.7-11.3,46.8-22.9,51-25.5c17.3-10.7,33-20.3,49.5-37.5
		c11.3-11.8,35.7-37.9,43.5-77.1c5-25.1-3-24.2,3-42.9c9.8-30.2,37.9-54.2,57-70.5c12.6-10.7,18.7-14.2,22.5-24
		c8.4-21.6-5.3-45.6-7.5-49.5c-17-29.8-40.5-25.3-50.6-52.1c-2.2-5.8-2.8-17.2-4-40c-1.1-19.7-1.6-29.6,0-41c0.8-5.5,3.9-25.4,16-48
		c4-7.4,11.5-21.2,26-35c12.7-12.2,32.5-31,60-30c4.8,0.2,21,1,35,13c5.8,5,14.6,16.1,18,60c3.8,49.2-4.9,67.6,6,75
		c11.5,7.8,33.8-3.9,45-14c13.2-11.8,17.9-27.5,21-38c4.7-15.6,1.5-17.8,6-31c4.8-14.3,12.5-23.2,24.1-36.7
		c6-6.9,18.5-20.4,40.9-37.3c28.6-21.6,42.9-32.4,56.3-31.2c21,1.9,19.6,22.7,48.7,40.2c24.6,14.8,50.8,13.6,103,11
		c13.3-0.7,24.8-2,35.6-9.7c13.6-9.7,18.9-24.5,21.4-31.3c5.3-14.7,5.2-27.3,5-34c-1.2-41.8-10.6-64.8-17-110
		c-3.4-23.9-5.1-35.9-4-51.6c0.7-10.3,3.3-48.3,25-78.4c16.1-22.4,47.6-33.9,110-56c53.2-18.8,80.5-28.3,116-31
		c46.8-3.5,82.4,4.4,93,7c28.1,6.8,48.6,16.4,65,24c27.9,13,46.5,25.4,67,39c24.2,16.1,36.5,24.4,45,36c12.7,17.4,20.3,39.3,23,47
		c3.1,8.9,5.7,18.4,7.2,24.1c4,14.8,6,22.1,7.2,30.5c1.1,7.9,3.3,24.2-1.4,42.4c-4.7,17.6-10.8,17.5-16.9,34.8
		c-8.3,23.8,1.6,29-4.7,48.9c-8.5,26.9-27.7,21.1-42.4,53.2c-8.2,17.9-4,23.6-15.8,46.9c-7.7,15.2-11.8,17.3-12.4,26.3
		c-1.1,16.5,11.8,19.7,17.7,42.8c1.3,5.1,1.3,16.9,1.4,40.7c0.1,17.7,0.1,26.7-1.6,33.2c-4.2,15.9-10.6,18.2-11.3,31.1
		c-0.8,14.4,6.4,26.9,7.3,26.7c0.9-0.2-1.9-12.2-1.2-12.4c1.1-0.3,4.9,25.7,20.1,53.3c5.9,10.7,11.9,18.7,15.5,23.4
		c12.4,16.3,19.8,21.5,27,29.8c18.2,21,28.6,54.4,22.3,82.4c-3.8,17.1-9.8,14.5-19.5,40.5c-11,29.2-4.4,35.1-13,61.7
		c-10.6,32.8-30.6,54.8-41,66.2c-13.7,15.1-27,25.3-40.5,35.6c-22.2,17-26.1,16.4-42,30.2c-10,8.7-19.1,19.3-37.2,40.4
		c-21.1,24.7-22.1,27.7-36.5,43.2c-16,17.3-24,26-35,33.9c-17.4,12.4-25.4,10.7-66.8,23.3c-73.7,22.4-90.5,40.5-97.5,49.5
		c-0.7,0.9-4.6,6.7-12.3,18.2c-24.1,36-25.4,39.4-33.5,51c-21.8,31-42.9,61.1-68.9,68.2c-4.5,1.2-16.1,3.7-27.8,12.6
		c-8.6,6.5-7.7,9.3-13.7,12.8c-14.3,8.3-25.7-3.6-44.8-0.8c-11.4,1.7-12.5,6.7-39,25.5c-23,16.3-25.8,15.1-45,28.5
		c-21.4,15-22.3,19.5-48.1,41.1c-34.2,28.6-64.2,47-79.2,56.1c-10.3,6.3-23.4,13.3-49.6,27.3c-30.5,16.3-55.4,28.9-95.6,50.9
		c-21.1,11.5-32,17.8-45.4,28.6c-15.5,12.5-16.4,16.7-32.1,29.8c-19.4,16.2-36.4,25.3-52,33.6c-10.3,5.5-31,12.6-55.9,26.7
		c-39.2,22.2-40.1,21-58.1,31.4c-30,17.4-31.4,21.2-60.1,38.5c-12.1,7.3-12.4,3.7-71.9,16.4c-40.2,8.5-46.8,11.6-78,17
		c-25.3,4.4-36.1,5-50,7c-41.2,6-76.4,22.1-145,54c-45.4,21.1-94.5,65.3-123.4,82.6c-37.6,22.6-6,4.6-68.9,40.2
		c-51.1,28.9-77.3,45.9-119.7,67.2c-22.6,11.3-59.7,31.7-93.3,50.9c-23.8,13.6-46.8,16.7-94.9,37.1c-83.5,35.3-82.5,31.2-107.9,48.5
		c-40.2,27.4-53.5,28.3-115.8,85.7c-22.5,20.7-47.8,40.5-47.8,40.5c-11.4,8.9-26.8,21-42.4,30.9c-34,21.6-56.9,25.4-87.6,37.1
		c-32.6,12.4-54.1,26.8-97.3,55.3c-39.2,25.9-68.3,51-126.5,101.1c-51.7,44.6-48.3,44.9-84,73.7c-28.4,22.9-45.2,39.5-69.6,64
		c-21,21.1-35.4,34.4-44.3,45.4c-16,19.8-17.4,23.5-45.9,61.2c-23.9,31.6-36,47.6-43.8,54.3c-16.4,14-23.3,13.9-71.9,38.2
		c0,0-30.6,15.3-69.1,36.9c-45.7,25.7-45.1,29-80.3,48.8c-19.2,10.9-50.5,25.3-113.1,54.1c-28.1,12.9-56.1,25.9-84.2,38.8
		c-32.5,14.9-46.8,21.4-66.6,32.8c-26.5,15.3-38.3,25.2-56.2,37.4c-38.6,26.3-75.4,41.1-148.9,70.6c-36.6,14.7-66,25-89.6,33.2
		c-18.4,6.4-21.9,12-88,33.9c-59.8,19.8-70.6,25.5-102.1,40.1c-36.2,16.8-62.7,24.4-72.8,35c-19.2,20-29,42.8-33.2,41.1
		C-7.7,3250-86.8,3178.9-98.3,3167z"/>
	<radialGradient id="SVGID_34_" cx="2909.9771" cy="1764.5093" r="2550.8865" gradientUnits="userSpaceOnUse">
		<stop  offset="0" style="stop-color:#CDDAF1"/>
		<stop  offset="0.5" style="stop-color:#B1C7E9"/>
		<stop  offset="0.5094" style="stop-color:#B0C7E9"/>
		<stop  offset="1" style="stop-color:#99B7E2"/>
	</radialGradient>
	<path class="st33" d="M-70.5,3242c-30.2,61.2-29.3,111.2-27,135c7,73.3,48.4,124.7,93,180c28.4,35.2,46.8,48.9,54,54
		c39.8,28.1,77.5,34.9,114,42c169.1,32.8,142.6,38.7,240,51c41.7,5.2,40.7,3.4,162,12c128.1,9.1,148.8,12.5,300,24
		c127.9,9.7,191.9,14.6,213,15c148.9,2.7,262.9-14.9,381-33c84.7-13,147.5-26.7,273-54c131.5-28.6,165.8-39.9,195-51
		c105.9-40.2,174.2-88.7,210-117c60.4-47.7,94.9-75,114-126c16.8-44.8,4.8-63.1,30-111c19-36,31.2-36.1,69-93
		c27-40.6,21.8-42.2,46.7-77.6c32.3-46.1,63.6-75.5,72.9-83.9c35.1-32.2,69.5-54.5,69.5-54.5c29.1-18.9,37.6-19.9,50.8-34.7
		c26.9-30.3,14-51.9,33.3-67.3c31.8-25.5,106.1,1.5,150,30c29.2,19,40.2,35.6,69,39c29.5,3.5,37.9-11.5,64.6-13.3
		c55.8-3.7,117.9,55.3,137.5,116.7c11.4,35.6-1.3,41.4,4,104.7c1.9,22.7,7.5,88.1,36.9,145.9c32.5,64,82.7,95.6,150,138
		c35.7,22.5,104.8,65.1,204,81c16.5,2.7,35.3,4.8,102,6c110.6,2,184-1.6,237-3c242.8-6.5,247.5,27.5,345-3
		c80.1-25,146.9-69.8,177-90c54.9-36.8,93.7-72.5,129-105c42.1-38.8,63.6-58.8,85.1-89.4c23.9-34.1,18.9-38.5,61.9-117.7
		c34-62.5,37.9-61.2,56.5-101.4c17.6-38.2,20-52.2,39.6-93.6c33.2-70.4,35.7-77.8,42-78c19.7-0.5,18,60.7,66,144
		c16.5,28.6,46,66.1,105,141c15.4,19.6,11.2,13.8,36,45c66.7,84,66.8,87.8,76,91c46.1,16.5,74.1-68.5,192-122
		c39.8-18.1,117.5-53.3,210-42c38.5,4.7,56.6,14.7,86,4c48.6-17.7,40.7-60.1,100-96c39.1-23.6,65.4-19.1,86-50
		c4.8-7.2,6.7-12.4,16-50c16.7-67.2,25-100.7,25.4-117.8c1.2-47-12.6-45.9-9.8-92.2c1-17.3,3.5-53,23.6-89.9
		c16.8-30.7,29.4-32,61.2-72.7c18.5-23.7,28.9-42.1,45.6-71.4c30.8-54.3,51.3-90.5,66-142c11.3-39.4,29.1-104.9,10-182
		c-3.7-14.8-10.8-42.7-30-74c-29.5-48.1-69.9-75.8-88-88c-44.9-30.1-64.3-27.4-88.4-58.4c-8.3-10.7-22.9-29.4-25.3-56
		c-2.2-24.7,8.5-29.7,25.3-89.6c10.2-36.4,12.4-56.4,13-62.8c3-30-1.3-34.2,0.8-51.9c5.3-44.2,35.8-50,58.6-99.3
		c8.3-18.1,30.1-65.2,12.5-103.5c-18.8-40.8-64.6-32.7-79.2-72.8c-4-11.1-2.2-16.5,11.7-83.1c13.1-62.9,17.7-87.8,20.9-107.5
		c8.5-52.1,12.6-78.6,7.1-96.3c-14.2-45.6-57.7-70.9-77.1-82.2c-37.7-21.9-54.5-16-96-40.5c-9.7-5.7-17.4-11.4-57.5-46.2
		c-64.6-56.2-97-84.7-101.5-100.8c-15.4-55.2,31.9-111.4,41-122.2c8.7-10.4,32.6-36.4,100-63.8c115.9-47.1,164-18.2,248-71.1
		c47.8-30.1,62.3-58.3,66-66c11.5-23.8,13-49.9,16-102c2-34.7,3-52,0-76c-3.6-28.6-11.8-51.4-28-96c-19.5-53.7-25.2-58.2-36-94
		c-7.9-26.2-11.4-45.8-18-84c-17.9-103.3-8.8-109-24-146c-10-24.4-29.7-72.4-74-90c-8-3.2-18.9-6.2-102,0c-43.5,3.2-65,5.9-90,8
		c-56.6,4.8-99.4,4.4-134,4c-123.8-1.3-125.4-18.5-194-14c-68.8,4.5-60.5,21.4-182,50c-63,14.8-132.1,30.6-222,28
		c-46.5-1.3-88.9-2.5-142-20c-70.5-23.2-70.6-45.6-138-62c-44.9-11-87.6-11.4-142-12c-39.6-0.4-32.2,1.9-80,2
		c-93.2,0.1-111.5-8.9-140,8c-23,13.6-45,39.6-46,68c-0.4,11.9,3.7,21.5,12,40c28.2,63.1,42.3,94.7,49.4,108
		c27.9,52.5,32.4,53.6,38.6,76c6,21.9,4.9,32.7,10,70c8.2,59.7,19.3,60.9,14,76c-12.4,35.4-60.8,22.3-94,70
		c-6.8,9.8-13.6,27.9-27,64c-13,35.1-15.9,50.1-17,57c-3.6,22.1-6.4,39-1,59c9,33.3,36.2,58.4,39,61c11.5,10.4,24.3,18.4,28,35
		c1.7,7.7,0.6,13.8,0,18c-4.5,29.6,0.1,42.1-1.3,67.3c-1.7,29.9-10.5,52.7-23.3,86c-21.6,56.1-32.4,84.2-58,107.3
		c-21.3,19.3-30.2,15.9-83.3,56c-26,19.6-32.2,26.7-37.3,35.3c-13.1,22.1-9.3,38.4-26,50c-7.2,5-11.7,4.6-26.7,14
		c-10.1,6.3-16.8,11.9-19.3,14c-24.2,19.6-67.2,35.4-83.9,41.5c-40.9,15-54.2,13.8-73.8,31.3c-8.9,7.9-15.1,16.1-20.4,23.2
		c-17.4,23-17.1,32.1-32.5,56c-10.6,16.3-19.5,30.2-36,42c-9.8,7-14.3,7.6-49.7,20.4c-11.1,4-39.9,14.5-64.8,24.9
		c-23.9,10-39.9,16.6-57.7,26.9c-14.4,8.3-18.9,12.7-67.3,53.3c-19.6,16.5-45.6,38.2-79,63c-16.3,12.1-25.9,18.7-39.5,25
		c-21.2,9.8-30.2,8.9-51.8,17.2c-16.3,6.2-28.6,14.2-52.7,29.8c-8.9,5.8-25.4,16.7-66.5,48c-51.9,39.4-52.8,42.6-70,51
		c-12.6,6.2-16.3,6.5-53.5,23.4c-24,10.9-31.4,14.8-39,19.4c-19.4,11.7-19.6,15.4-36.2,25c-14.3,8.2-19.6,8.7-44.5,18.8
		c-39.6,16.1-32.8,17.8-51.7,23.4c-25.3,7.6-57.9,10.8-75.2,10.1c-10.3-0.4-15,0.4-24.4,1.9c-7,1.2-10.6,1.8-14.3,4.2
		c-1.4,0.9-3.1,2.3-5.9,3.1c-3.1,0.9-5.5,0.5-7.9,0.3c-4.3-0.4-8.6,0.2-12.9,0.3c-11.9,0.2-38.4,7.2-51.9,10.9
		c-1.3,0.4-29.5,8.1-43.4,14.7c-4,1.9-7.5,3.5-11.7,6.6c-4,2.9-4.5,4-8.1,6.1c-2.9,1.7-4.7,2.2-11.2,4.6c-3.7,1.4-7.4,2.8-11,4.2
		c-9.7,3.7-16.4,10.3-22.9,15.7c-5.1,4.2-2.7,1.7-32,20.5c-12.5,8.1-21.3,13.7-32.3,21.3c-12,8.3-15.8,11.4-28.7,20.7
		c-2.6,1.9-24.8,17.9-41.3,28.7c-23.9,15.6-28.2,15.2-67.3,37c-22,12.2-17,10.3-57.3,33.7c-15.2,8.8-36.3,21-64.3,36.3
		c-19,10.4-32.4,17.5-52.9,28.2c-64.9,34.1-56.5,27.9-61.4,31.3c-6.3,4.4-14.9,11.1-28,13.1c-7,1.1-10.2,0-19.8,1.4
		c-9,1.3-15.6,3.7-23.2,6.6c-18.3,6.9-27.4,10.4-40.7,16.5c-14.4,6.6-25.8,12.5-48.7,24.4c-22.2,11.5-30.2,16.1-32.9,17.7
		c-2.2,1.3-18.4,10.7-31,19.3c-26.7,18.2-29.6,27.5-59.5,53.3c-2.2,1.9-17.6,13.5-48.3,36.7c-41.4,31.2-46,34.5-54.3,39.7
		c-22.2,13.8-41.1,22.4-54,28.3c-32.6,14.7-36.8,12.8-62.9,26c-15.1,7.7-25.6,14.4-46.1,27.4c-20,12.8-37.4,25.1-48.7,33
		c-1.6,1.1-12.9,9.1-20.7,14.8c-29.7,21.9-49.7,41.5-74.3,64.4c-10,9.3-33.7,31.4-59.8,54c-51.2,44.3-95.2,76.5-118,108
		c-1.3,1.8-7.9,11-17.5,24c-12.1,16.4-18.1,24.2-24,32c-30.5,40.8-27,44.1-41.5,59.1c-4.3,4.4-10.8,10.6-49.3,33.3
		c-31.2,18.4-55,31-72,40c-22.2,11.7-60.2,31.9-93.3,50c-57.1,31.2-49.5,28.9-84.7,47.3c-22.6,11.8-57.8,30.1-104.7,50
		c-33.3,14.1-32.8,12.2-51.3,21.3c-28.5,14-51.6,29.4-80.7,48.7c-22.5,14.9-22.2,15.6-38.7,26c-9.6,6-32.3,20.3-57.3,32.7
		c-26.5,13.1-36,14.4-86.7,32.7c-40.4,14.6-39.5,15.6-78.7,30c-59.9,22-74,24.1-106.7,36c-125.2,45.8-164,106.3-224,88.2
		c-16.7-5-28.4-14.2-34-19L-70.5,3242z"/>
</g>
</svg>
