<?xml version="1.0" encoding="utf-8"?>
<!-- Generator: Adobe Illustrator 22.0.0, SVG Export Plug-In . SVG Version: 6.00 Build 0)  -->
<svg version="1.1" id="floods5" xmlns="http://www.w3.org/2000/svg" xmlns:xlink="http://www.w3.org/1999/xlink" x="0px" y="0px"
	 width="5760px" height="3240px" viewBox="0 0 5760 3240" style="enable-background:new 0 0 5760 3240;" xml:space="preserve">
<style type="text/css">
	.st0{opacity:0.5;fill:url(#SVGID_1_);}
	.st1{opacity:0.5;fill:url(#SVGID_2_);}
</style>
<radialGradient id="SVGID_1_" cx="1703.3936" cy="1536.9368" r="2094.8333" gradientUnits="userSpaceOnUse">
	<stop  offset="0" style="stop-color:#CDDAF1"/>
	<stop  offset="0.5" style="stop-color:#B1C7E9"/>
	<stop  offset="0.5094" style="stop-color:#B0C7E9"/>
	<stop  offset="1" style="stop-color:#99B7E2"/>
</radialGradient>
<path class="st0" d="M-98.3,3167c-21.5-22.3-26-31.3-39-34.5c-15.5-3.8-29.6,4.1-36,7.5c-2.7,1.5-42.3,14.5-121.5,40.5
	c-54.9,18.1-100.3,18.8-145.5,19.5c-64.2,1-96.4,1.5-121.5-15c-26.3-17.3-25.2-33.9-78-130.5c-37.4-68.5-36.8-58-46.5-82.5
	c-22.1-56-23.6-106.8-25.5-169.5c-2.2-72.7-1.8-81.7,1.5-88.5c21.9-44.8,80.9-64.8,124.5-79.5c16.2-5.5,39.9-12.1,79.5-27
	c29.5-11,38-15.5,46.5-21c21.7-14.1,25.8-24.2,48-39c0,0,17.3-11.5,43.5-21c72.3-26.2,166.8-5,166.5,0c-0.2,3.1-37.5,3.5-37.5,3
	c-0.1-0.7,74.7-19,159-3c16.3,3.1,44.6,9.7,75.5,19.2c28.4,8.7,49.9,17.2,85,22.8c30.7,4.9,41.3,2.8,46.5,1.5
	c21.3-5.5,29.8-17.7,52.5-36c32.6-26.3,34.7-17,67.5-42c36.4-27.8,25.4-32.9,70-70.7c18.9-16,32-24.5,35-41.8
	c2.7-15.5-5.8-20.7-3-39c3.8-24.9,21.9-31,18-43.5c-3.8-12.1-21.4-7.9-40.1-27.7c-8.6-9.2-12.8-18.6-15.3-24.2
	c-3.4-7.8-9.8-22.4-7.6-38.1c1.8-12.9,8.4-18.8,19.1-33.6c11.7-16.2,18.9-31.1,33.4-60.8c5.1-10.4,3.4-8,24-58.5
	c20.6-50.6,24.4-58.2,21-70.5c-5.5-20-22-23.6-19.9-37.8c2.6-18.1,31.8-28.1,36.4-29.7c17.2-5.9,21.3-0.7,41.9-6.6
	c16.2-4.6,27.4-11.8,36.4-17.5c13.5-8.7,24.2-18.3,40.2-35.8c30.2-32.9,25.9-35.2,52.5-64.5c28.1-30.9,37-32.7,43.2-51.4
	c3.6-10.8,4.3-21,13.8-29.5c4.6-4.1,11.8-8.3,30-10.5c28.1-3.4,34.7,3.4,51,1.5c18.3-2.2,34.2-18.5,66-51
	c19.8-20.2,29.9-30.7,39.2-47.7c7.7-13.9,17.9-32.4,18.7-56.8c1.1-36-19.8-41.2-14.4-69.5c4.7-24.6,21.9-28.3,22.5-55.5
	c0.3-14.4-4.3-20.2,0.4-30.8c5-11.1,13.4-11.9,28.1-24.7c10.2-9,7.5-9.8,25.5-31.5c14.2-17,14.8-15.3,36-39.1
	c19.4-21.9,19.8-24.4,27-28.4c22-12.3,46.4-5.2,48.9-4.5c25.2,7.7,44.3,30.9,47.4,54.3c3.5,26.5-16.3,31.3-15.3,64.2
	c0.6,17.9,6.9,32.1,19.5,60c7.4,16.5,8.1,14.7,19.5,37.5c15,30,16.5,38.7,33,73.5c13.7,28.9,13.2,24.1,18,36
	c23.2,57.5,2.3,88.2,28.5,124.5c4.2,5.8,18.7,25.9,36,24c14.9-1.6,28.2-19.2,30-36c2.5-23.2-18.4-29.6-34.5-70.5
	c-4-10-7.1-25.7-13.5-57c-8.1-39.8-7.8-51.6-7.5-57c0.6-11.2,2.8-28.8,11-48.3c11.2-26.8,27.6-43.1,38.5-53.7
	c10.5-10.2,28.7-27.9,57-39c15.5-6.1,23.2-6,34.5-15c12.2-9.8,13.2-18,24-34.5c11.2-17.2,28.5-43.5,49.1-44.3
	c24.1-0.9,42.7,33.7,44.6,37.4c15,28.7,2.2,43.2,15.3,83.7c1.8,5.7,1,1.9,23.3,46.8c25.3,50.8,29.3,61.3,43.2,77.3
	c4.4,5.1,2.8,2.6,33,30c32.5,29.5,48.7,44.2,57,54c10.3,12.3,20.4,27.7,40.5,58.5c14,21.5,20.6,32.9,36,43.5
	c4.1,2.8,16.4,10.8,34.5,15c22,5.1,28.2-1.2,52.5,1.5c22.5,2.5,21.6,8.3,48,13.5c17.6,3.5,37.9,7.5,60.6,1.9
	c31.8-7.8,40.4-27.4,62.4-22.9c12.7,2.6,12,9.6,24,12c25.5,5.2,57-20.7,71.1-49c9.6-19.2,3.6-24.6,14.4-47c8.5-17.7,18.8-28,36-45
	c25.6-25.3,46.7-46,79.9-58.5c26.3-9.9,34.1-4.7,56.6-17.6c15.6-8.9,21.9-17,40.5-36.4c11.8-12.3,45.8-47.7,83.3-79.3
	c26.1-21.9,37.9-28.5,47.2-48.2c7.9-17,7.1-29,9-45c7.1-60.4,39.1-60.8,46.5-111c6.7-45.8-17.8-60.2-13.5-120
	c0.8-10.9,2.5-23.7,3-46.5c0.6-28.3-1.7-31.9,1.5-43.5c5.2-18.8,14.8-22.1,30-45c6.6-10,13-25.3,25.5-55.5
	c25.9-62.5,20.8-58.8,28.5-70.5c6.2-9.4,28.9-43.1,72-55.5c10.9-3.1,29.4-8.5,51-3c35.6,9,35.7,36.3,72,48c23.1,7.5,44.9,3.5,64.5,0
	c19-3.4,32.8-9.1,51-16.5c27.7-11.3,46.8-22.9,51-25.5c17.3-10.7,33-20.3,49.5-37.5c11.3-11.8,35.7-37.9,43.5-77.1
	c5-25.1-3-24.2,3-42.9c9.8-30.2,37.9-54.2,57-70.5c12.6-10.7,18.7-14.2,22.5-24c8.4-21.6-5.3-45.6-7.5-49.5
	c-17-29.8-40.5-25.3-50.6-52.1c-2.2-5.8-2.8-17.2-4-40c-1.1-19.7-1.6-29.6,0-41c0.8-5.5,3.9-25.4,16-48c4-7.4,11.5-21.2,26-35
	c12.7-12.2,32.5-31,60-30c4.8,0.2,21,1,35,13c5.8,5,14.6,16.1,18,60c3.8,49.2-4.9,67.6,6,75c11.5,7.8,33.8-3.9,45-14
	c13.2-11.8,17.9-27.5,21-38c4.7-15.6,1.5-17.8,6-31c4.8-14.3,12.5-23.2,24.1-36.7c6-6.9,18.5-20.4,40.9-37.3
	c28.6-21.6,42.9-32.4,56.3-31.2c21,1.9,19.6,22.7,48.7,40.2c24.6,14.8,50.8,13.6,103,11c13.3-0.7,24.8-2,35.6-9.7
	c13.6-9.7,18.9-24.5,21.4-31.3c5.3-14.7,5.2-27.3,5-34c-1.2-41.8-10.6-64.8-17-110c-3.4-23.9-5.1-35.9-4-51.6
	c0.7-10.3,3.3-48.3,25-78.4c16.1-22.4,47.6-33.9,110-56c53.2-18.8,80.5-28.3,116-31c46.8-3.5,82.4,4.4,93,7
	c28.1,6.8,48.6,16.4,65,24c27.9,13,46.5,25.4,67,39c24.2,16.1,36.5,24.4,45,36c12.7,17.4,20.3,39.3,23,47c3.1,8.9,5.7,18.4,7.2,24.1
	c4,14.8,6,22.1,7.2,30.5c1.1,7.9,3.3,24.2-1.4,42.4c-4.7,17.6-10.8,17.5-16.9,34.8c-8.3,23.8,1.6,29-4.7,48.9
	c-8.5,26.9-27.7,21.1-42.4,53.2c-8.2,17.9-4,23.6-15.8,46.9c-7.7,15.2-11.8,17.3-12.4,26.3c-1.1,16.5,11.8,19.7,17.7,42.8
	c1.3,5.1,1.3,16.9,1.4,40.7c0.1,17.7,0.1,26.7-1.6,33.2c-4.2,15.9-10.6,18.2-11.3,31.1c-0.8,14.4,6.4,26.9,7.3,26.7
	c0.9-0.2-1.9-12.2-1.2-12.4c1.1-0.3,4.9,25.7,20.1,53.3c5.9,10.7,11.9,18.7,15.5,23.4c12.4,16.3,19.8,21.5,27,29.8
	c18.2,21,28.6,54.4,22.3,82.4c-3.8,17.1-9.8,14.5-19.5,40.5c-11,29.2-4.4,35.1-13,61.7c-10.6,32.8-30.6,54.8-41,66.2
	c-13.7,15.1-27,25.3-40.5,35.6c-22.2,17-26.1,16.4-42,30.2c-10,8.7-19.1,19.3-37.2,40.4c-21.1,24.7-22.1,27.7-36.5,43.2
	c-16,17.3-24,26-35,33.9c-17.4,12.4-25.4,10.7-66.8,23.3c-73.7,22.4-90.5,40.5-97.5,49.5c-0.7,0.9-4.6,6.7-12.3,18.2
	c-24.1,36-25.4,39.4-33.5,51c-21.8,31-42.9,61.1-68.9,68.2c-4.5,1.2-16.1,3.7-27.8,12.6c-8.6,6.5-7.7,9.3-13.7,12.8
	c-14.3,8.3-25.7-3.6-44.8-0.8c-11.4,1.7-12.5,6.7-39,25.5c-23,16.3-25.8,15.1-45,28.5c-21.4,15-22.3,19.5-48.1,41.1
	c-34.2,28.6-64.2,47-79.2,56.1c-10.3,6.3-23.4,13.3-49.6,27.3c-30.5,16.3-55.4,28.9-95.6,50.9c-21.1,11.5-32,17.8-45.4,28.6
	c-15.5,12.5-16.4,16.7-32.1,29.8c-19.4,16.2-36.4,25.3-52,33.6c-10.3,5.5-31,12.6-55.9,26.7c-39.2,22.2-40.1,21-58.1,31.4
	c-30,17.4-31.4,21.2-60.1,38.5c-12.1,7.3-12.4,3.7-71.9,16.4c-40.2,8.5-46.8,11.6-78,17c-25.3,4.4-36.1,5-50,7
	c-41.2,6-76.4,22.1-145,54c-45.4,21.1-94.5,65.3-123.4,82.6c-37.6,22.6-6,4.6-68.9,40.2c-51.1,28.9-77.3,45.9-119.7,67.2
	c-22.6,11.3-59.7,31.7-93.3,50.9c-23.8,13.6-46.8,16.7-94.9,37.1c-83.5,35.3-82.5,31.2-107.9,48.5c-40.2,27.4-53.5,28.3-115.8,85.7
	c-22.5,20.7-47.8,40.5-47.8,40.5c-11.4,8.9-26.8,21-42.4,30.9c-34,21.6-56.9,25.4-87.6,37.1c-32.6,12.4-54.1,26.8-97.3,55.3
	c-39.2,25.9-68.3,51-126.5,101.1c-51.7,44.6-48.3,44.9-84,73.7c-28.4,22.9-45.2,39.5-69.6,64c-21,21.1-35.4,34.4-44.3,45.4
	c-16,19.8-17.4,23.5-45.9,61.2c-23.9,31.6-36,47.6-43.8,54.3c-16.4,14-23.3,13.9-71.9,38.2c0,0-30.6,15.3-69.1,36.9
	c-45.7,25.7-45.1,29-80.3,48.8c-19.2,10.9-50.5,25.3-113.1,54.1c-28.1,12.9-56.1,25.9-84.2,38.8c-32.5,14.9-46.8,21.4-66.6,32.8
	c-26.5,15.3-38.3,25.2-56.2,37.4c-38.6,26.3-75.4,41.1-148.9,70.6c-36.6,14.7-66,25-89.6,33.2c-18.4,6.4-21.9,12-88,33.9
	c-59.8,19.8-70.6,25.5-102.1,40.1c-36.2,16.8-62.7,24.4-72.8,35c-19.2,20-29,42.8-33.2,41.1C-7.7,3250-86.8,3178.9-98.3,3167z"/>
<radialGradient id="SVGID_2_" cx="2909.9771" cy="1764.5093" r="2550.8865" gradientUnits="userSpaceOnUse">
	<stop  offset="0" style="stop-color:#CDDAF1"/>
	<stop  offset="0.5" style="stop-color:#B1C7E9"/>
	<stop  offset="0.5094" style="stop-color:#B0C7E9"/>
	<stop  offset="1" style="stop-color:#99B7E2"/>
</radialGradient>
<path class="st1" d="M-70.5,3242c-30.2,61.2-29.3,111.2-27,135c7,73.3,48.4,124.7,93,180c28.4,35.2,46.8,48.9,54,54
	c39.8,28.1,77.5,34.9,114,42c169.1,32.8,142.6,38.7,240,51c41.7,5.2,40.7,3.4,162,12c128.1,9.1,148.8,12.5,300,24
	c127.9,9.7,191.9,14.6,213,15c148.9,2.7,262.9-14.9,381-33c84.7-13,147.5-26.7,273-54c131.5-28.6,165.8-39.9,195-51
	c105.9-40.2,174.2-88.7,210-117c60.4-47.7,94.9-75,114-126c16.8-44.8,4.8-63.1,30-111c19-36,31.2-36.1,69-93
	c27-40.6,21.8-42.2,46.7-77.6c32.3-46.1,63.6-75.5,72.9-83.9c35.1-32.2,69.5-54.5,69.5-54.5c29.1-18.9,37.6-19.9,50.8-34.7
	c26.9-30.3,14-51.9,33.3-67.3c31.8-25.5,106.1,1.5,150,30c29.2,19,40.2,35.6,69,39c29.5,3.5,37.9-11.5,64.6-13.3
	c55.8-3.7,117.9,55.3,137.5,116.7c11.4,35.6-1.3,41.4,4,104.7c1.9,22.7,7.5,88.1,36.9,145.9c32.5,64,82.7,95.6,150,138
	c35.7,22.5,104.8,65.1,204,81c16.5,2.7,35.3,4.8,102,6c110.6,2,184-1.6,237-3c242.8-6.5,247.5,27.5,345-3c80.1-25,146.9-69.8,177-90
	c54.9-36.8,93.7-72.5,129-105c42.1-38.8,63.6-58.8,85.1-89.4c23.9-34.1,18.9-38.5,61.9-117.7c34-62.5,37.9-61.2,56.5-101.4
	c17.6-38.2,20-52.2,39.6-93.6c33.2-70.4,35.7-77.8,42-78c19.7-0.5,18,60.7,66,144c16.5,28.6,46,66.1,105,141
	c15.4,19.6,11.2,13.8,36,45c66.7,84,66.8,87.8,76,91c46.1,16.5,74.1-68.5,192-122c39.8-18.1,117.5-53.3,210-42
	c38.5,4.7,56.6,14.7,86,4c48.6-17.7,40.7-60.1,100-96c39.1-23.6,65.4-19.1,86-50c4.8-7.2,6.7-12.4,16-50
	c16.7-67.2,25-100.7,25.4-117.8c1.2-47-12.6-45.9-9.8-92.2c1-17.3,3.5-53,23.6-89.9c16.8-30.7,29.4-32,61.2-72.7
	c18.5-23.7,28.9-42.1,45.6-71.4c30.8-54.3,51.3-90.5,66-142c11.3-39.4,29.1-104.9,10-182c-3.7-14.8-10.8-42.7-30-74
	c-29.5-48.1-69.9-75.8-88-88c-44.9-30.1-64.3-27.4-88.4-58.4c-8.3-10.7-22.9-29.4-25.3-56c-2.2-24.7,8.5-29.7,25.3-89.6
	c10.2-36.4,12.4-56.4,13-62.8c3-30-1.3-34.2,0.8-51.9c5.3-44.2,35.8-50,58.6-99.3c8.3-18.1,30.1-65.2,12.5-103.5
	c-18.8-40.8-64.6-32.7-79.2-72.8c-4-11.1-2.2-16.5,11.7-83.1c13.1-62.9,17.7-87.8,20.9-107.5c8.5-52.1,12.6-78.6,7.1-96.3
	c-14.2-45.6-57.7-70.9-77.1-82.2c-37.7-21.9-54.5-16-96-40.5c-9.7-5.7-17.4-11.4-57.5-46.2c-64.6-56.2-97-84.7-101.5-100.8
	c-15.4-55.2,31.9-111.4,41-122.2c8.7-10.4,32.6-36.4,100-63.8c115.9-47.1,164-18.2,248-71.1c47.8-30.1,62.3-58.3,66-66
	c11.5-23.8,13-49.9,16-102c2-34.7,3-52,0-76c-3.6-28.6-11.8-51.4-28-96c-19.5-53.7-25.2-58.2-36-94c-7.9-26.2-11.4-45.8-18-84
	c-17.9-103.3-8.8-109-24-146c-10-24.4-29.7-72.4-74-90c-8-3.2-18.9-6.2-102,0c-43.5,3.2-65,5.9-90,8c-56.6,4.8-99.4,4.4-134,4
	c-123.8-1.3-125.4-18.5-194-14c-68.8,4.5-60.5,21.4-182,50c-63,14.8-132.1,30.6-222,28c-46.5-1.3-88.9-2.5-142-20
	c-70.5-23.2-70.6-45.6-138-62c-44.9-11-87.6-11.4-142-12c-39.6-0.4-32.2,1.9-80,2c-93.2,0.1-111.5-8.9-140,8c-23,13.6-45,39.6-46,68
	c-0.4,11.9,3.7,21.5,12,40c28.2,63.1,42.3,94.7,49.4,108c27.9,52.5,32.4,53.6,38.6,76c6,21.9,4.9,32.7,10,70
	c8.2,59.7,19.3,60.9,14,76c-12.4,35.4-60.8,22.3-94,70c-6.8,9.8-13.6,27.9-27,64c-13,35.1-15.9,50.1-17,57c-3.6,22.1-6.4,39-1,59
	c9,33.3,36.2,58.4,39,61c11.5,10.4,24.3,18.4,28,35c1.7,7.7,0.6,13.8,0,18c-4.5,29.6,0.1,42.1-1.3,67.3c-1.7,29.9-10.5,52.7-23.3,86
	c-21.6,56.1-32.4,84.2-58,107.3c-21.3,19.3-30.2,15.9-83.3,56c-26,19.6-32.2,26.7-37.3,35.3c-13.1,22.1-9.3,38.4-26,50
	c-7.2,5-11.7,4.6-26.7,14c-10.1,6.3-16.8,11.9-19.3,14c-24.2,19.6-67.2,35.4-83.9,41.5c-40.9,15-54.2,13.8-73.8,31.3
	c-8.9,7.9-15.1,16.1-20.4,23.2c-17.4,23-17.1,32.1-32.5,56c-10.6,16.3-19.5,30.2-36,42c-9.8,7-14.3,7.6-49.7,20.4
	c-11.1,4-39.9,14.5-64.8,24.9c-23.9,10-39.9,16.6-57.7,26.9c-14.4,8.3-18.9,12.7-67.3,53.3c-19.6,16.5-45.6,38.2-79,63
	c-16.3,12.1-25.9,18.7-39.5,25c-21.2,9.8-30.2,8.9-51.8,17.2c-16.3,6.2-28.6,14.2-52.7,29.8c-8.9,5.8-25.4,16.7-66.5,48
	c-51.9,39.4-52.8,42.6-70,51c-12.6,6.2-16.3,6.5-53.5,23.4c-24,10.9-31.4,14.8-39,19.4c-19.4,11.7-19.6,15.4-36.2,25
	c-14.3,8.2-19.6,8.7-44.5,18.8c-39.6,16.1-32.8,17.8-51.7,23.4c-25.3,7.6-57.9,10.8-75.2,10.1c-10.3-0.4-15,0.4-24.4,1.9
	c-7,1.2-10.6,1.8-14.3,4.2c-1.4,0.9-3.1,2.3-5.9,3.1c-3.1,0.9-5.5,0.5-7.9,0.3c-4.3-0.4-8.6,0.2-12.9,0.3
	c-11.9,0.2-38.4,7.2-51.9,10.9c-1.3,0.4-29.5,8.1-43.4,14.7c-4,1.9-7.5,3.5-11.7,6.6c-4,2.9-4.5,4-8.1,6.1
	c-2.9,1.7-4.7,2.2-11.2,4.6c-3.7,1.4-7.4,2.8-11,4.2c-9.7,3.7-16.4,10.3-22.9,15.7c-5.1,4.2-2.7,1.7-32,20.5
	c-12.5,8.1-21.3,13.7-32.3,21.3c-12,8.3-15.8,11.4-28.7,20.7c-2.6,1.9-24.8,17.9-41.3,28.7c-23.9,15.6-28.2,15.2-67.3,37
	c-22,12.2-17,10.3-57.3,33.7c-15.2,8.8-36.3,21-64.3,36.3c-19,10.4-32.4,17.5-52.9,28.2c-64.9,34.1-56.5,27.9-61.4,31.3
	c-6.3,4.4-14.9,11.1-28,13.1c-7,1.1-10.2,0-19.8,1.4c-9,1.3-15.6,3.7-23.2,6.6c-18.3,6.9-27.4,10.4-40.7,16.5
	c-14.4,6.6-25.8,12.5-48.7,24.4c-22.2,11.5-30.2,16.1-32.9,17.7c-2.2,1.3-18.4,10.7-31,19.3c-26.7,18.2-29.6,27.5-59.5,53.3
	c-2.2,1.9-17.6,13.5-48.3,36.7c-41.4,31.2-46,34.5-54.3,39.7c-22.2,13.8-41.1,22.4-54,28.3c-32.6,14.7-36.8,12.8-62.9,26
	c-15.1,7.7-25.6,14.4-46.1,27.4c-20,12.8-37.4,25.1-48.7,33c-1.6,1.1-12.9,9.1-20.7,14.8c-29.7,21.9-49.7,41.5-74.3,64.4
	c-10,9.3-33.7,31.4-59.8,54c-51.2,44.3-95.2,76.5-118,108c-1.3,1.8-7.9,11-17.5,24c-12.1,16.4-18.1,24.2-24,32
	c-30.5,40.8-27,44.1-41.5,59.1c-4.3,4.4-10.8,10.6-49.3,33.3c-31.2,18.4-55,31-72,40c-22.2,11.7-60.2,31.9-93.3,50
	c-57.1,31.2-49.5,28.9-84.7,47.3c-22.6,11.8-57.8,30.1-104.7,50c-33.3,14.1-32.8,12.2-51.3,21.3c-28.5,14-51.6,29.4-80.7,48.7
	c-22.5,14.9-22.2,15.6-38.7,26c-9.6,6-32.3,20.3-57.3,32.7c-26.5,13.1-36,14.4-86.7,32.7c-40.4,14.6-39.5,15.6-78.7,30
	c-59.9,22-74,24.1-106.7,36c-125.2,45.8-164,106.3-224,88.2c-16.7-5-28.4-14.2-34-19L-70.5,3242z"/>
</svg>
