<?xml version="1.0" encoding="utf-8"?>
<!-- Generator: Adobe Illustrator 22.0.0, SVG Export Plug-In . SVG Version: 6.00 Build 0)  -->
<svg version="1.1" id="floods1" xmlns="http://www.w3.org/2000/svg" xmlns:xlink="http://www.w3.org/1999/xlink" x="0px" y="0px"
	 width="5760px" height="3240px" viewBox="0 0 5760 3240" style="enable-background:new 0 0 5760 3240;" xml:space="preserve">
<style type="text/css">
	.st0{opacity:0.5;fill:#FFFFFF;enable-background:new    ;}
</style>
<path class="st0" d="M1584.3,1998.7c7.5,9.1,12.4,7.3,30.3,21.6c10.6,8.5,15.9,12.7,18.4,18.4c5.6,12.6-2.2,19.3,2.2,36.2
	c3.2,12.2,10.2,20.2,12.4,22.7c8.1,8.9,13.7,9,35.1,20c25.6,13.1,24.9,16.8,35.1,17.8c13.2,1.4,28.5-3.3,37.8-13.5
	c6.3-6.9,3.8-9.7,10.3-18.9c9.9-14.1,19.5-12.9,35.7-25.9c12.7-10.3,8.6-12.6,27-31.9c14.6-15.3,21.9-23,32.4-27
	c19-7.4,41.4-3.4,51.4-1.6c14.6,2.6,20.9,6.2,26.5,2.2c9.3-6.8,4.8-26.9,4.3-29.2c-0.3-1.3-6.2-26-27-36.8
	c-6.3-3.2-22.4-9.6-90.3,16.2c-47.4,18.1-59.1,28.6-79.5,22.7c-11.5-3.3-32.6-13.8-35.1-29.2c-0.8-4.9,0.3-9.9-2.7-18.4
	c-1.5-4.2-5.2-14.7-10.8-15.1c-7.9-0.7-9.4,19.7-23.8,24.3c-7.6,2.5-14.8-0.7-24.3-4.9c-4-1.7-16.5-7.7-26.5-21.1
	c-6-8-9-16.1-10.3-19.5c-5.1-13.9-3.1-19.8-7.6-22.2c-6.6-3.5-13,8.5-28.1,8.6c-11.6,0.1-20.9-6.8-24.9-9.7
	c-7.6-5.6-8.1-9.2-13-13.5c-16-14-51.2-10.9-57.8,3.2c-3.2,6.9,1.1,14.9,8.6,28.7c6.3,11.5,16.2,29.7,37.3,42.7
	c22.2,13.7,33.3,7.2,43.8,21.1C1580.4,1978.8,1573.8,1985.9,1584.3,1998.7z"/>
<path class="st0" d="M2835.3,2238.5c35.6,81.4,27.9,67.6,35.3,82c36.2,69.5,42.7,58.9,50.7,89.3c3.6,14,7.7,37.1,26.7,57.3
	c4.3,4.6,13.5,14.4,18.7,12c8.9-4.1,5.2-43.6-10-77.3c-14.9-33.2-33.6-44.8-28.7-64.7c2.2-8.8,9.1-19.7,18-20.7
	c23.2-2.6,44.1,63.6,50,61.3c4.7-1.8,1.3-48.6-24-94c-8.1-14.5-21.9-35-17.3-39.3c3.1-2.9,11.2,5.3,18,2c9.6-4.7,10.1-29.3,4.7-48.7
	c-5.9-20.9-16.1-26.3-12.7-38c2-6.8,5.9-6.3,16.7-21.3c8.1-11.2,12.1-16.8,12-23.3c-0.2-13.8-17.9-23.7-22-26
	c-29.7-16.6-75.3-9.4-82,9.3c-5.5,15.3,17.8,30.4,11.3,41.3c-7.8,13.2-43.6-5.4-64,13.3c-10.1,9.3-11.6,23.4-12.7,33.3
	C2821.8,2207.6,2828.9,2223.8,2835.3,2238.5z"/>
<path class="st0" d="M4506.2,546.4c8.3,10.4-2.5-0.1,22.6,38.2c12.7,19.4,19.1,29.1,24.8,36.1c15.2,18.4,24.2,23.5,29.3,39.7
	c1.7,5.3,3.8,12.4,1.7,20.6c-3.1,12.6-12.9,16-11.6,21.2c2.6,10.4,43.8,6.9,44.2,11.2c0.3,2.9-17.7,6.6-17.9,5.8
	c-0.4-1.4,59.5-10.5,62.3-32.3c1.2-9.3-9-12.8-24.8-44c-5.3-10.4-8-15.8-8.5-22c-1.4-17.7,10.4-32.6,17.8-41.9
	c14.7-18.6,25.5-20.3,26-31.3c0.5-10.1-7.9-21.5-17-23c-11.7-1.9-23.4,12.7-33.5,25.3c-10.2,12.8-11.6,19.7-22.4,26.8
	c-5.8,3.8-12.2,8-20,7.1c-12.8-1.5-21.4-15.9-31.6-33.1c-6.4-10.8-7.7-15.8-15.2-23.5c-5.8-5.9-13.1-13.4-21.2-11.6
	c-6.5,1.5-11.6,8.5-12,15C4498.5,537.4,4502.8,542.3,4506.2,546.4z"/>
<path class="st0" d="M3562.9,1860.7c14.4-0.6,21.7-0.8,27.1,3.7c7.9,6.6,8,17.9,8,19.1c-0.1,10.6-6.7,12.7-10.9,29.2
	c-1.8,7-3.7,14.9,0.2,18.5c3.1,2.9,8.5,1.7,14.3,0.4c14.9-3.5,16.6-10,25.4-10.3c12.1-0.5,21.4,11.2,22.9,13.2
	c6.1,8,4.3,13.2,7.9,23.6c4.2,11.8,12.5,19.5,29,34.7c20.9,19.2,28.8,20.3,30.9,30.9c1.9,10-3,20.6-9.7,27.1
	c-1.1,1.1-11.7,11.2-23.6,9.4c-14.2-2.1-16.9-19.2-41.8-57.4c-20.6-31.7-31.1-39-40.7-38.7c-5.6,0.2-9,3-17.6,2
	c-3.7-0.4-15.4-1.7-21.7-10.8c-7.1-10.3-2.4-23.8-1.7-25.9c4.4-12.7,13.2-13.5,14.1-24.1c0.6-6.3-1.7-14.3-7.1-17.3
	c-5.5-3.1-9.6,1.6-16.1-1c-8.2-3.2-14.1-15.4-10.6-21.5C3543.6,1861.5,3550.1,1861.2,3562.9,1860.7z"/>
<path class="st0" d="M4918.3,1811c-2.1-15.2,18.4-20,48-58c12.7-16.3,13.6-21.3,27-36c12.4-13.5,21.2-19.6,34-30
	c18-14.6,58.5-47.6,91-93c9.4-13.2,14.4-22.1,17-21c4.5,1.8,3,33.1-15,55c-11.4,13.9-19.3,11.6-45,34c-13.2,11.5-25.8,22.7-23,30
	c2.4,6.1,15,8.3,25,7c25.7-3.2,30.1-28.2,59-34c2-0.4,19.2-3.7,23,3c3.7,6.5-7.3,18.9-10,22c-11.1,12.6-22.2,16.3-35,23
	c0,0-33,17.2-57,47c-12.4,15.4-6.7,14.6-20,32c-9.9,13-33,43.1-67,47c-12.2,1.4-20.6-1.2-23-2
	C4937.3,1833.7,4920.2,1824.2,4918.3,1811z"/>
<path class="st0" d="M4648.9,880.7c2.2-6.7,9.2-12.6,14.3-11.4c4.1,1,3.5,5.7,8.1,8.1c5.5,2.8,12.6-0.7,19.5-4.2
	c7.5-3.8,9.8-6.5,20.8-14.6c12.8-9.4,19.2-14.1,21.8-12.3c2.6,1.8,1.3,9.7-1.9,15.6c-5.7,10.4-14.7,9.6-25.3,22.1
	c-3.6,4.3-8.1,9.5-6.5,12.7c2.6,5.1,20.8,5.1,34.4-2.9c8.2-4.9,11.5-10.8,23.7-15.3c1.9-0.7,9.8-3.6,11-1.6
	c1.5,2.4-8.8,7.5-14.6,19.5c-6.3,12.9-0.5,19.2-7.5,29.9c-6,9.1-14.1,10.3-13.3,13c1.2,4.1,22.1,6.2,38-3.6
	c10.9-6.7,13.1-15,18.5-14c6.4,1.2,11.5,14.4,9.1,25.3c-3,13.7-17.5,21.9-21.8,24.4c-8.7,4.9-16.1,5.8-24,14.3
	c-2,2.2-2.5,3.1-4.2,3.9c-8.9,3.9-23.1-10.1-29.9-16.9c-17.8-17.7-14.3-23.7-27.6-32.2c-9.6-6.2-14.1-4.7-23.7-13
	c-9-7.7-13-15.8-14-17.9c-3.4-7.2-4.2-13.4-4.9-18.2C4648.3,886.3,4648,883.7,4648.9,880.7z"/>
<path class="st0" d="M878.7,2372.8c-16.6,0.1-28.5-29.2-30.6-34.5c-2.2-5.4-2.8-8.7-7.1-18.8c-3.8-9-6-14.3-10.2-20.4
	c-6.3-9.2-10.6-15.5-17.3-16.5s-13.9,5.9-28.2,19.6c-10.5,10.1-15.9,15.3-18.8,22.8c-4.5,11.2-0.7,16.1-5.5,20.4
	c-6.8,6.2-15.8-2.2-33.7,2.4c-2.2,0.6-18.4,4.8-19.6,13.3c-0.8,5.2,4.5,8.3,3.1,11c-2.8,5.5-25-6.5-33.7,1.6
	c-4.4,4.1-0.9,9.2-2.4,33c-1.1,19-3.9,24.7-5.5,27.5c-5,8.9-12.4,13.6-15.7,15.7c-9.7,6.1-16.2,5.7-29,8.6
	c-12.7,2.9-39.2,9-54.1,28.2c-4.8,6.1-3.2,7-9.4,14.9c-12.8,16.3-21.8,15.9-25.1,24.3c-2.8,7.2,1.5,13.3,23.5,46.3
	c21.9,32.7,25.6,38.5,35.3,41.6c13.2,4.2,26.5,0,31.4-1.6c10.3-3.3,16.9-8.5,25.9-15.7c11.2-8.9,18.2-17.6,22-22.8
	c5.7-7.7,8.5-11.6,9.4-15.7c4.2-18.6-16.9-34.3-12.6-40c2.1-2.7,8.2-1.1,30.6,5.5c28.9,8.5,38.7,11.8,40.8,8.6
	c1.7-2.5-2.7-7.2-12.6-29c-2.6-5.7-3.5-8.1-2.4-10.2c2.9-5.4,17.3-4.5,28.2-0.8c18.7,6.3,27.8,20.9,32.2,18
	c2.5-1.6-0.5-6.4,2.4-13.3c3.3-7.9,11.4-11.4,15.7-13.3c11.7-5.2,34.7,2.5,31.4-20.4c-1-6.9,5.9-11.4,8.6-9.4
	c36.1,26.4,16.1-12.3,25.9-28.2c2.8-4.5,4.8-7.9,8.6-11.8c10.3-10.5,18.6-10.2,32.2-18"/>
<path class="st0" d="M1068.9,2276.2c6.5,0,13.2-6.3,14.2-12.5c0.7-4.7-2.6-5.8-4-13c-2.1-10.8,8.2-29.2,26.6-32.3
	c11.9-1.9-6.1-20,0.6-35.1c1.8-3.9,5.1-9.1,9.1-13.6c4.4-5,5.8-4.9,9.1-8.5c10.4-11.3,7.2-23.8,13.6-25.5c4.9-1.3,10.3,5.1,10.8,5.7
	c4.6,5.5,4.3,12.4,4,19.2c-0.6,11.8-4.1,12.4-3.4,18.7c1.5,13.3,18.2,21.6,23.8,24.3c4.6,2.3,13.9,6.7,25.5,5.1
	c5.3-0.7,9.2-2.5,12.5-4c15.2-6.9,16.9-15.5,23.2-14.7c7.4,0.9,7.3,13,19.2,19.2c5.4,2.8,10.8,3.3,14.8,3.1l9,3.7
	c-3.4,4.6-5.8,8.6-7.4,11.3c-2.7,4.9-3.4,7.2-7.4,14.7c-2.9,5.6-4.4,8.4-5.1,9.1c-8.8,8.3-29-0.3-29.4,1.1
	c-0.3,1.1,10.7,6.2,11.3,5.1c0.9-1.6-19.4-13.9-37.4-22.1c-8.4-3.8-13.6-5.6-18.7-3.4c-4.5,1.9-8.8,6.9-9.1,12.5
	c-0.4,8.2,8.3,10.5,11.9,23.8c1,3.6,2.5,9.2,0,11.3c-2.8,2.4-8.7-1.4-22.1-7.4c-15.5-7-23.4-10.4-29.4-9.6
	c-5.6,0.8-11.3,5.2-22.6,14.2c-13.4,10.6-11.1,11.5-18.7,15.9"/>
<path class="st0" d="M1383.2,2940.5c36.6,19.4,55,29.1,68,28c9.8-0.8,12.6-4.2,52-34c47.2-35.8,56.7-41.3,68-46
	c14.4-6,32.1-13.5,54-12c49.6,3.3,81.1,49.6,84,54c16.4,24.9,7.8,31.6,32,128c6.3,24.9,12,45.1,26,68c13.3,21.7,26.6,43.5,46,46
	c39.8,5.2,84.5-92.2,42-164c-9-15.3-12.5-15.8-36-52c-26.1-40.1-35-59.7-40-82c-2.6-11.8-4.9-22-4-36c2.9-45.9,36.2-75.9,46-84
	c3.4-2.8,10.2-8.1,38-22c61.8-30.8,85.3-33.1,140-62c12.9-6.8,23.7-12.5,38-22c42.3-28,41-39.8,76-64c37.4-25.8-5.9-126.7-49.6-81.5
	c-36.5,37.8-45.7,13-154.4,95.5c-8.4,6.4-35.5,20.8-88,52c-61.4,36.5-62.4,37.4-78,46c-58.3,32.1-63.2,29.3-88,48
	c-28.7,21.7-48,45-62,62c-33.5,40.6-57.1,31-79.2,47.2c-31.1,22.9-69.3,11.6-80.8,0.8c-14.4-13.6-46.8-12.2-66,6
	c-16.7,15.8-21.9,42.7-12,60C1358.3,2926,1362.4,2929.5,1383.2,2940.5z"/>
<path class="st0" d="M2462.8,1747.6c24-1.4,35.5-19.3,56.5-35.6c25.2-19.6,29.6-10,90-37.6c36-16.5,54-24.7,67.8-37.2
	c25.4-23,36.4-49.7,54.9-94.6c19.3-46.8,13.8-51.2,28.4-72.2c17.3-24.9,27.7-22.7,70.6-59.8c29.1-25.2,49.8-43.3,66-73.5
	c10.3-19.1,22.9-42.6,18-72c-4-24-20.7-57.6-48-61.5c-23-3.3-42.9,16.1-54,27c-19.6,19.2-27.4,39.4-33,52.5
	c-14.8,34.5-31.9,58.5-66,106.5c-22.7,31.9-48.4,68-91.5,103.5c-27.4,22.5-26.7,15.9-79.5,55.5c-38,28.5-60.3,48.3-81,75
	c-18.9,24.3-26.2,41-30,57c-2.4,10.2-11.1,47.1,7.5,61.5C2447.7,1748.4,2457.8,1747.9,2462.8,1747.6z"/>
</svg>
