<?xml version="1.0" encoding="utf-8"?>
<!-- Generator: Adobe Illustrator 20.1.0, SVG Export Plug-In . SVG Version: 6.00 Build 0)  -->
<svg version="1.1" id="Layer_1" xmlns="http://www.w3.org/2000/svg" xmlns:xlink="http://www.w3.org/1999/xlink" x="0px" y="0px" viewBox="0 0 1920 1080" width="1920" height="1080">
<style type="text/css">
	.st0{opacity:0.24;}
	.st1{fill:#FFFFFF;}
	.st2{opacity:0.45;}
	.st3{opacity:0.6;}
	.st4{opacity:0.3;}
	.st5{opacity:0.8;fill:none;stroke:#FFFFFF;stroke-width:0.5;stroke-miterlimit:10;}
</style>
<g id="MF_x5F_PB5">
	<g id="XMLID_12_" class="st0">
		<g>
			<path class="st1" d="M1241.2,20.3c0.7,0,1.3,0,2,0.1c0,0-8.3,10.7-13.3,18.2s-14,35-23.5,49.8s-18,26.3-25.8,35
				s-19.5,14.3-31.8,27s-14,7.8-25.3,11.8s-12.8,2.3-23.3,8s-20.8,18.8-40.3,35.8c-9.2,8-25.2,21.4-41.1,34.5
				c-7.2-10.5-14.1-21.6-21.9-29.3c-6.2-6.1-8.8-10-10-12.7c5.4-4.4,11.9-9.7,21.7-18.3c20.8-18.3,58.5-56.8,77.3-75
				s17.3-19.3,40.8-31.5s53.8-32.8,73.8-40.8S1221.2,19.8,1241.2,20.3z"/>
			<path class="st1" d="M997.2,211c7.8,7.7,14.7,18.8,21.9,29.3c-17.8,14.8-35.4,29.1-42.5,35c-13.5,11.2-29.7,20.3-38.8,29.2
				c-9.2,8.8-60.1,45.5-60.1,45.5c-4.8-8.8-8.8-16.7-8.9-18.9c-0.2-5.3-0.5-25,4.7-30.3c5.2-5.3,12.5-10.5,24.3-17.5
				c11.8-7,58.4-57.6,71.7-69.8c6.9-6.4,11.8-10.3,17.8-15.2C988.4,201,991,204.9,997.2,211z"/>
			<path class="st1" d="M225.7,620.3c1.6,0.1,3.2,0.2,4.8,0.3c14,1,30.7,2.3,41.5,2.6c15.8,0.5,112.3,1.3,121.8,0s11.3-1.4,26.8,0.7
				c15.5,2.1,26,8.1,37.3,1.3s27.3-14.5,36.3-17s13.3-2.5,29.5-2.5c16.1,0,41,0,41.6,0C533,641.6,453.8,730.4,448.3,735
				c-6,5-14.7,15.3-14.3,17.7c0.3,2.3,19.5,15.8,19.5,15.8c-22.3,2.9-43.3,4.7-61.5,5.2c-49.3,1.3-73.7,0.7-111.7,4
				c-38,3.3-32.8,2.8-102.1,5.1s-86-4.5-98.3-5.8s-17.2-10.5-30.7-27.3S0,700.8,0,700.8v-77.5c0,0,43.8-5.8,56.8-6s39-1.8,47-1.3
				s9.5,2.9,15.8,3.6c6.3,0.7,9,1,19.3-3.7c10.3-4.7,60.8,3,74.8,3.7c2.1,0.1,4.6,0.3,7.3,0.4C222.4,620.1,224,620.2,225.7,620.3z"
				/>
		</g>
		<g>
		</g>
	</g>
</g>
<g id="MF_x5F_PB4">
	<g id="XMLID_10_" class="st2">
		<g>
			<path class="st1" d="M1422.3,0h31.5c0,0-12,4.2-22.8,9.7c-10.8,5.5-14.7,10.5-21.3,19.3c-6.7,8.8-20.7,18.5-50.7,47.5
				s-65,63-102.5,102.5s-59,75.5-101,127s-58.5,57.5-90,95.5S984,513,956,549s-63,76.5-94.5,101.5S743.5,700,700,714
				s-67.5,18-128,32.5c-38.2,9.2-80.3,17-118.5,22c0,0-19.2-13.5-19.5-15.8c-0.3-2.3,8.3-12.7,14.3-17.7
				c5.5-4.6,84.7-93.4,116.8-129.3c0,0,0,0,0,0c3.1-3.5,5.7-6.4,7.9-8.8c24-26.7,48.7-50.7,60-66c11.3-15.3,8.5-10.5,48-24.5
				s182-74.5,202.5-86s112-47.8,137-57s25.5-17.3,36.5-12.3s38.5-34.5,47-45s146-156.3,171.8-178.8c25.8-22.5,53.2-33,80.5-63.7
				C1383.7,33,1422.3,0,1422.3,0z"/>
			<path class="st1" d="M1076.3,296.6c45.1-39.8,143.6-126.6,141.2-134.6c-3-10-10.5-17.5-13-24.5s-9.5-9.5,9-22s33-12,40-17.5
				s23-42.5,25-50.5c1.3-5.4,0.9-14.3,2.5-21.7c0.8-3.7,2.1-6.9,4.5-9.3c7-7,15.8-16.5,15.8-16.5h121.1c0,0-38.7,33-66,63.7
				c-27.3,30.7-54.7,41.3-80.5,63.7c-25.8,22.5-163.3,168.3-171.8,178.8s-36,50-47,45s-11.5,3-36.5,12.3s-116.5,45.5-137,57
				s-163,72-202.5,86s-36.7,9.2-48,24.5c-11.3,15.3-36,39.3-60,66c-2.1,2.3-4.8,5.3-7.9,8.8c0,0,0,0,0,0c-0.6,0-25.6,0-41.6,0
				c-16.3,0-20.5,0-29.5,2.5s-25,10.3-36.3,17s-21.8,0.8-37.3-1.3c-15.5-2.1-17.3-1.9-26.8-0.7s-106,0.5-121.8,0
				c-10.7-0.3-27.4-1.6-41.5-2.6c-1.7-0.1-3.3-0.2-4.8-0.3c1-0.4,35.1-13.6,55-24c20.2-10.5,49.3-24.2,59-30.2
				c9.7-6,35.1-34.9,52.6-43.9s44.8-18.8,65.8-26s26.5-9.5,49.8-13c23.3-3.5,53-2.5,74-2.5s29.3-1,54.8-0.1
				c25.5,0.9,35.3,4.4,47,2.9s26.3-11,33.8-18.5s56.8-40.7,76.4-50c19.7-9.3,18.7-3,45-15.3c11.6-5.5,31.7-13.3,51.9-20.6
				c1-0.4,2.1-0.8,3.1-1.1c24.5-8.8,48.8-16.6,58.3-18.2c17.7-3,18.7,0,50.3-15.3c31.7-15.3,41-17.3,52.7-28.7
				C1057.3,313.4,1065.2,306.5,1076.3,296.6z"/>
			<path class="st1" d="M470.9,802.9c10-0.4,14.8,3.1-0.5,7.8c-15.3,4.7-43.7,4-85.3,4s-27,3.3-52.3,6c-25.3,2.7-67.7,5.3-102,3.3
				c-34.3-2-72,0-93.7,0s-40.8,6-59.5,11s-28.7-0.3-37.5-2.8S0,835,0,835V714c0,0,27.3,33,40,46s17.7,38,28.7,37.7
				c11-0.3,26.3,1,63.7,4.6c37.3,3.7,117,1,153.3-2.7c36.3-3.7,96.3-1.3,115.3,0C420,801,460.9,803.3,470.9,802.9z"/>
		</g>
		<g>
		</g>
	</g>
</g>
<g id="MF_x5F_PB3">
	<g id="XMLID_8_" class="st3">
		<g>
			<path class="st1" d="M1629.7,0h79.3c0,0-20.5,13.8-38,25.8s-22.8,21.2-41.3,50.8s-19.1,41.5-46.4,73.8
				c-27.3,32.3-16.3,26-48,76.3c-31.7,50.3-25.7,26.7-60.3,54c-34.7,27.3-22.7,14-63,37.7c-40.3,23.7-37.5,26.9-60,45.2
				c-12.2,9.9-23.4,24.4-33.5,37.3c-8.6,10.9-16.4,20.6-23.5,25.5c-15.2,10.3-19.1,4.5-19.2,4.4c0,0,0,0,0,0
				c14.7-16.3,30.5-40,44.2-63.6c18-31,13-35.5,37.5-84s44-71,59-91.5s17.5-12.5,50-31s25-32,55.5-69s29.5-26,48-46
				S1629.7,0,1629.7,0z"/>
			<path class="st1" d="M1671,348.5c9.9,29.3,10.6,39.7,13.5,48.4c-7.6,2.4-10,2.6-22.5-25.9s-8.5-31.5-23-64.5s-10.5-14-38.5-22.5
				s-22,6.5-35.5,17s-36.5,23-68.5,34s-26,14-54,35.5s-42,17-65,36.5s-16.5,12.5-45,25.4c-28.5,12.9-46.8,17.9-63.5,27.3
				c-16.7,9.3-14,12.7-32,37.3c-18,24.7-26,38-32,61.3c-6,23.3-2.7,10-6.7,32s-9.3,8-30,15.4c-20.7,7.4-24,16.6-42,39.3
				c-18,22.7-16,23.3-38,46c-22,22.7-57.8,73-67.3,80s-47.5,23.5-61,33s-37.5,57-38,61.5s-12,41-8.5,49.5s1.5,14-3,22.5s-9.5,7-25,7
				s-19.5,2-36,15.2s-12,18.8-26.5,42.8s-73.5,60-88.5,64s-50.5,0-64.5,0s-67.5,13.5-67.5,13.5H0v-83.5c0,0,37-3.8,84.3-6.8
				c47.3-3,26.3,1.7,81.3,2.3c55,0.7,66.3-0.5,122.8,0s73.5,5,150,13.5s92,17,130.5,30s42,9,82,12s51.5-12.5,88.5-28
				s48.5-23.8,64.5-48.2c16-24.3,7.3-16.3,26.7-46c19.3-29.7,10-6.7,31.3-22.7c21.3-16,45.3-56,59.3-83s18.7-16.3,55-39.3
				c36.3-23,21.3-16,42.7-36c21.3-20,54.5-67.3,64-94.8s12.5-21,34.5-39.5s20.5-24,34-50s93-102,111-116.5
				c4.3-3.4,8.8-7.8,13.3-12.9c0.1,0.2,3.9,6,19.2-4.4c7.1-4.8,14.9-14.5,23.5-25.5c0,0,17.8-1.1,25-9.2s39.5-30.1,58.8-39.1
				s21.8-12,43.8-18.5s51.7-17.7,88-41c22.7-14.6,32.8-18.9,40.7-24.3l0.1,0c0,0,6.5,3.4,22.9,0c16.3-3.4,10.7-10,23.7-2
				S1654,298,1671,348.5z"/>
			<path class="st1" d="M1453.8,0h31.8c0,0-30,14.3-42.7,26.3c-12.7,12-3.3,20-16.7,38.7c-13.3,18.7-22,17.3-62,58
				c-40,40.7-28,37.3-58,98.7c-30,61.3-43.3,64.7-65.3,90c-22,25.3-70,86-107.3,132c-37.3,46-60.7,72.7-88,111.3
				c-27.3,38.7-90,121.3-120,152c-30,30.7-52,75.3-64.7,98c-12.7,22.7-88,59.3-125.3,78c-37.3,18.7-80.7,6.7-124,3.3
				c-43.3-3.3-93.3-15.3-140-32.3c-46.7-17-147.3-7.7-171.3-10.4c-24-2.7-162.7,18.7-188,20.7c-25.3,2-77.3-7.3-91.3-14
				c-14-6.7-21-6.7-21-6.7V835c0,0,31.3-5.3,40-2.8s18.8,7.8,37.5,2.8s37.8-11,59.5-11s59.3-2,93.7,0c34.3,2,76.7-0.7,102-3.3
				c25.3-2.7,10.7-6,52.3-6s70,0.7,85.3-4c15.3-4.7,10.5-8.2,0.5-7.8c-10,0.4-50.9-1.9-69.9-3.2c-19-1.3-79-3.7-115.3,0
				c-36.3,3.7-116,6.3-153.3,2.7c-37.3-3.7-52.7-4.9-63.7-4.6C57.7,798,52.7,773,40,760S0,714,0,714v-13.3c0,0,35.8,32.3,49.3,49
				s18.5,26,30.7,27.3s29,8,98.3,5.8s64.1-1.8,102.1-5.1c38-3.3,62.3-2.7,111.7-4c18.2-0.5,39.2-2.3,61.5-5.2
				c38.2-4.9,80.3-12.8,118.5-22C632.5,732,656.5,728,700,714s130-38.5,161.5-63.5S928,585,956,549s78-109.5,109.5-147.5
				s48-44,90-95.5s63.5-87.5,101-127S1329,105.5,1359,76.5s44-38.7,50.7-47.5c6.7-8.8,10.5-13.8,21.3-19.3
				C1441.8,4.2,1453.8,0,1453.8,0z"/>
			<path class="st1" d="M1046.8,0h97.3c0,0-4.5,2.8-7.5,7.7c-3,4.8-5.5,3.7-20.8,11.2c-15.3,7.5-9,3.7-21.7,10.8
				c-12.7,7.2-37.9,14.3-51.2,25.8s-3.5,7.3-20.5,25.3s-23.3,30.8-37,41.5s-22.5,20.8-32,32.3c-4.1,4.9-7.5,10-10.9,14.7
				c-4.6,6.3-9.1,11.9-15.1,15.3c-10.5,6-17.8,2-35.8,0.3s-17.3-6.8-28-15s-11.3-12.5-11.3-12.5s-2-0.8-5.8,8s-1.5,20.3-4.5,42
				s-1.3,16-4.8,28.8s-1,22-44.5,46.5s-51,21-94,31.5s-130.5,29.5-158.5,37.5s-46,15.5-73.5,37s-41.5,41-85,71.5s-36.5,13-69.5,33.5
				s-54,56.5-68,77s-22,7-37,0s-11-9.5-16.5-30.5s-7-14.5-21.5-29c-3.4-3.4-6.7-5.6-9.9-7.5c0.1-0.2,2.9-8.1,10.1-8.8
				c7.3-0.7,14,1.7,21,10.3c7,8.7,10.3,14.7,20.3,17.3c10,2.7,22.7,8.3,29.7,0c7-8.3,12.7-3.3,15-25c2.3-21.7,6.3-30.3,12.7-43.7
				c6.3-13.3-10.7-6,27.3-22.7c38-16.7,40.3-30.3,58-22.3c17.7,8,17.7,16,26.7,12.3c9-3.7,32.2-19,57.2-32s48.5-14.5,51-24
				s-7.5-19-16.5-30s-21.5-10.5-26-26.5s-11.5-24-5-29.5s17-4,28.5,4s10.5,5,25,10s20,9,25,14s24.8,4,35.8,3.3c11-0.7,23,0.3,41-9.3
				c18-9.7,20.7-14,31.7-10.3c11,3.6,8.3,8.6,20.3,4.3c12-4.3,31.3-7.7,36.7-9.3c5.3-1.7,21-5.7,47.7-13c26.7-7.3,31.7-3.7,51-13.3
				c19.3-9.7,31.7-8.7,36.3-17.3c4.7-8.7,9-43,12.5-56s-2.3-11.3,9.5-28.8s2.3-35,1.3-40.8s3.8-0.8-7.5-14.8s-39.1-37.1-47.4-43.1
				c-8.3-6-2-6.7-21.3-15.7c-19.3-9-23.7-7.7-25.7-16.3c-2-8.7-3.3-14-12-13.7c-8.7,0.3-12,3.7-28.7,8.3c-16.7,4.7-7.7,5.7-33,6
				c-25.3,0.3-38.7,10-46.7,3.7c-8-6.3-13.3-9.3-19.3-31H786c0,0,14.3,22.3,20,30.3c5.7,8,6.7,0.7,12,13.7c5.3,13,2,8,5.3,19.7
				c3.3,11.7,4.3,12,12.3,20.7s13,10,18.3,19.7c5.3,9.7,10,20.3,22.3,21.3c12.3,1,21,6,28.3-4c7.3-10,9.7-10.3,12.3-25
				c2.7-14.7-5.7-9.7,4-20.3c9.7-10.7,8.7-16.7,20.3-9.3C953,74,957.3,79,960,79c2.7,0,8.8-9.5,10.8-15.3s4.8-4.5,5.8-18
				s-6-12.8,3.5-23.2s-0.5-14.3,14.8-12.3s16.8,7.8,27.8,8s18.2-7.3,20.2-10.9S1046.8,0,1046.8,0z"/>
			<path class="st1" d="M735.7,975c3.3,6,8.3,10.5,2.5,17.8s-10.5,10.5-26.5,18.3s-43.8,26-83.8,21s-37.5,3.5-65.5-12.3
				s-44.3-18.3-63-24.5c-18.8-6.3-31-13.8-41.8-18.3s-19-6.3-15.3-10.3s2.3-7.5,11-7s20,2.5,20,2.5s45.8,5.5,62,10.3s21,6,53.8,6.3
				s12.8,4.8,54.3,0s35.8-3,58-5.8S732.5,969,735.7,975z"/>
		</g>
		<g>
		</g>
	</g>
</g>
<g id="MF_x5F_PB1">
	<g id="XMLID_6_" class="st2">
		<g>
			<path class="st1" d="M1920,778.5V1080h-458c0,0-17.5-4.5-44-14s-17.5-11.5-35.5-25.5s-45.5-16.5-72-29.5s-34.5-9-60.5-10.5
				s-31.5-6.5-47.5-20S1172,946,1144,900s-21.5-33.5-25-39s-50.7-34.2-60.7-37c-10-2.8-15.8-0.8-26.2-6.2c-10.3-5.3-1.2-6.2-0.5-13
				c0.7-6.8,2.7-9.8,1.2-14c-1.5-4.2-4.7,1.5-11.7,4.7c-7,3.2-11.2,4-14.2,10.5s1.5,10,7,22.5s12.5,11.5,20.5,25.5
				s36.5,48,55.5,71.5s57.5,44.5,69.5,64.5s17,21.5,28.5,52.5s8.3,37.5,8.3,37.5H602.5c0,0,53.5-13.5,67.5-13.5s49.5,4,64.5,0
				s74-40,88.5-64s10-29.6,26.5-42.8s20.5-15.2,36-15.2s20.5,1.5,25-7s6.5-14,3-22.5s8-45,8.5-49.5s24.5-52,38-61.5s51.5-26,61-33
				s45.3-57.3,67.3-80c22-22.7,20-23.3,38-46c18-22.7,21.3-31.8,42-39.3c20.7-7.4,26,6.6,30-15.4s0.7-8.7,6.7-32
				c6-23.3,14-36.7,32-61.3c18-24.7,15.3-28,32-37.3c16.7-9.3,35-14.4,63.5-27.3c28.5-12.9,22-5.9,45-25.4s37-15,65-36.5
				s22-24.5,54-35.5s55-23.5,68.5-34s7.5-25.5,35.5-17s24-10.5,38.5,22.5s10.5,36,23,64.5s14.9,28.4,22.5,25.9v0
				c2.1,6.3,5.3,11.6,14,22.6c20.5,26,34,36,51.5,58s60,54,79.5,95.5s20,31,29,71.5s7.5,63,21,85.5S1920,778.5,1920,778.5z"/>
			<path class="st1" d="M1920,0v460c0,0-15-10-20.5-11s-20.5,1.5-39.5-2.4s-15-11.6-25-34.1s-11-20.5-22-28.5s-11.5-6-21.5-8
				s-14.5,2.5-33.5-29.5s-42.7-89.8-61.3-103.5c-18.7-13.7-25.3-0.7-41.3-2.3c-16-1.7-12.3-8.3-13.3-27.3s14-12.3,31.3-24.7
				c17.3-12.3,17.5-24.4,17.5-24.4c17.8-11.4,21.5-17.5,48.2-28.3c34.5-14,58.5-17,71.5-29.5s10.8-36.2,15.5-46.2
				c4.7-10,6.3-11.3,16.7-16c10.3-4.7,8.7,2,14.3-9.3c5.7-11.3,7.3-11.7,13.3-15.3c6-3.7,12.3-13.3,12.3-14.7c0-1.3,0-5,0-5H1920z"
				/>
			<path class="st1" d="M786,0h260.8c0,0-2.2,3.7-4.2,7.3s-9.2,11.2-20.2,10.9s-12.5-6-27.8-8S989.5,12,980,22.5s-2.5,9.7-3.5,23.2
				s-3.8,12.3-5.8,18S962.7,79,960,79c-2.7,0-7-5-18.7-12.3c-11.7-7.3-10.7-1.3-20.3,9.3c-9.7,10.7-1.3,5.7-4,20.3
				c-2.7,14.7-5,15-12.3,25c-7.3,10-16,5-28.3,4c-12.3-1-17-11.7-22.3-21.3c-5.3-9.7-10.3-11-18.3-19.7s-9-9-12.3-20.7
				C820,52,823.3,57,818,44c-5.3-13-6.3-5.7-12-13.7C800.3,22.3,786,0,786,0z"/>
			<path class="st1" d="M843.2,116.5c1,5.8,10.5,23.3-1.3,40.8s-6,15.8-9.5,28.8s-7.8,47.3-12.5,56c-4.7,8.7-17,7.7-36.3,17.3
				c-19.3,9.7-24.3,6-51,13.3c-26.7,7.3-42.3,11.3-47.7,13c-5.3,1.7-24.7,5-36.7,9.3c-12,4.3-9.3-0.7-20.3-4.3
				c-11-3.6-13.7,0.6-31.7,10.3c-18,9.7-30,8.7-41,9.3c-11,0.7-30.8,1.7-35.8-3.3s-10.5-9-25-14s-13.5-2-25-10s-22-9.5-28.5-4
				s0.5,13.5,5,29.5s17,15.5,26,26.5s19,20.5,16.5,30s-26,11-51,24s-48.2,28.3-57.2,32c-9,3.7-9-4.3-26.7-12.3
				c-17.7-8-20,5.7-58,22.3c-38,16.7-21,9.3-27.3,22.7c-6.3,13.3-10.3,22-12.7,43.7c-2.3,21.7-8,16.7-15,25c-7,8.3-19.7,2.7-29.7,0
				c-10-2.7-13.3-8.7-20.3-17.3c-7-8.7-13.7-11-21-10.3c-7.2,0.7-10,8.6-10.1,8.8c-10.6-6.3-20.2-8.5-27.1-33.5
				c-9-32.5-0.5-13-13.5-43.5s-9.3-52.5,0.7-64.5s3.7-11-3.3-23.7c-7-12.7-7.7,0-30.7,0S53,334,44.3,324c-8.7-10-3-12.3,2.7-32
				c5.7-19.7-5.7-15-6-43.3c-0.3-28.3,6.7-23.4,29.7-61c23-37.7,7.7-12.7,9.8-24.7c2.2-12-8.5-16.8,0-28.3s16-7,20.3-10.5
				s8.5-12.8,15.8-27s5.5-13,5.3-21.3s-3-8,0-16s5-1.8,15-1.8s7.5-4.5,12.8-18s11-40.3,11-40.3h441.2c6,21.7,11.3,24.7,19.3,31
				c8,6.3,21.3-3.3,46.7-3.7c25.3-0.3,16.3-1.3,33-6c16.7-4.7,20-8,28.7-8.3c8.7-0.3,10,5,12,13.7c2,8.7,6.3,7.3,25.7,16.3
				c19.3,9,13,9.7,21.3,15.7c8.3,6,36.2,29.1,47.4,43.1S842.2,110.8,843.2,116.5z"/>
			<path class="st1" d="M0,0h110.5c0,0-4.5,9.5-10,20.5s-7,5.5-20,14.5S64,46,57.5,57.5S57,75,55,93.5S46.5,106,33,129s-4,10-9.5,32
				S0,182,0,182V0z"/>
		</g>
		<g>
		</g>
	</g>
</g>
<g id="MAP_x5F_FINAL_copy">
	<g id="XMLID_7_" class="st4">
		<g>
			<path class="st1" d="M1038.5,262.5c15.8,12,37.2,33.5,37.8,34.1c-11.1,9.8-19,16.8-21.3,19.1c-11.7,11.3-21,13.3-52.7,28.7
				c-31.7,15.3-32.7,12.3-50.3,15.3c-9.5,1.6-33.7,9.4-58.3,18.2c0,0-8.9-14.8-16-27.9c0,0,50.9-36.7,60.1-45.5
				c9.2-8.8,25.3-18,38.8-29.2c7.1-5.9,24.7-20.3,42.5-35C1025.1,248.9,1031.3,257,1038.5,262.5z"/>
			<path class="st1" d="M1281,25.8c-1.7,7.4-1.2,16.4-2.5,21.7c-2,8-18,45-25,50.5s-21.5,5-40,17.5s-11.5,15-9,22s10,14.5,13,24.5
				c2.4,8-96.1,94.8-141.2,134.6c-0.6-0.6-22-22.1-37.8-34.1c-7.2-5.5-13.4-13.6-19.3-22.2c15.8-13.1,31.9-26.5,41.1-34.5
				c19.5-17,29.8-30,40.3-35.8s12-4,23.3-8s13,1,25.3-11.8s24-18.3,31.8-27s16.3-20.3,25.8-35S1225,46,1230,38.5
				s13.3-18.2,13.3-18.2C1262.6,21.1,1281,25.8,1281,25.8z"/>
			<path class="st1" d="M1144.2,0h157.1c0,0-8.8,9.5-15.8,16.5c-2.3,2.3-3.6,5.6-4.5,9.3c0,0-18.5-4.7-37.8-5.4
				c-0.7,0-1.3-0.1-2-0.1c-20-0.5-20.5,4.5-40.5,12.5s-50.3,28.5-73.8,40.8s-22,13.3-40.8,31.5s-56.5,56.8-77.3,75
				c-9.9,8.7-16.3,13.9-21.7,18.3c-1.5-3.5-0.5-5.1-1.8-7.3c-2.3-4-3-16.5-11-21.8c-8-5.3-22.5,2.8-31.9,0
				c3.4-4.7,6.8-9.8,10.9-14.7c9.5-11.5,18.3-21.5,32-32.3s20-23.5,37-41.5s7.3-13.8,20.5-25.3s38.5-18.7,51.2-25.8
				c12.7-7.2,6.3-3.3,21.7-10.8c15.3-7.5,17.8-6.3,20.8-11.2C1139.7,2.8,1144.2,0,1144.2,0z"/>
			<path class="st1" d="M159.6,503.5c3.2,1.9,6.5,4.2,9.9,7.5c14.5,14.5,16,8,21.5,29s1.5,23.5,16.5,30.5s23,20.5,37,0
				s35-56.5,68-77s26-3,69.5-33.5s57.5-50,85-71.5s45.5-29,73.5-37S656,324.5,699,314s50.5-7,94-31.5s41-33.8,44.5-46.5
				s1.8-7,4.8-28.8s0.8-33.3,4.5-42s5.8-8,5.8-8s0.5,4.3,11.3,12.5s10,13.3,28,15s25.3,5.8,35.8-0.3c6-3.4,10.5-9,15.1-15.3
				c9.4,2.8,23.9-5.3,31.9,0c8,5.3,8.8,17.8,11,21.8c1.3,2.3,0.3,3.9,1.8,7.3c-6,4.9-10.8,8.8-17.8,15.2
				c-13.3,12.3-59.8,62.8-71.7,69.8c-11.8,7-19.2,12.2-24.3,17.5c-5.2,5.3-4.8,25-4.7,30.3c0.1,2.1,4.1,10.1,8.9,18.9
				c7.1,13,16,27.9,16,27.9c-1,0.4-2.1,0.8-3.1,1.1c-20.3,7.3-40.3,15.2-51.9,20.6c-26.3,12.3-25.3,6-45,15.3
				c-19.7,9.3-68.9,42.5-76.4,50s-22,17-33.8,18.5s-21.5-2-47-2.9c-25.5-0.9-33.8,0.1-54.8,0.1s-50.8-1-74,2.5
				c-23.3,3.5-28.8,5.8-49.8,13s-48.3,17-65.8,26s-42.9,37.9-52.6,43.9c-9.7,6-38.8,19.7-59,30.2c-19.9,10.3-54,23.6-55,24
				c-1.7-0.1-3.3-0.2-4.9-0.3c-2.7-0.2-5.2-0.3-7.3-0.4c-14-0.7-64.5-8.3-74.8-3.7c-10.3,4.6-13,4.3-19.3,3.7
				c-6.3-0.7-7.8-3.1-15.8-3.6s-34,1-47,1.3s-56.8,6-56.8,6V182c0,0,18,1,23.5-21s-4-9,9.5-32s20-17,22-35.5s-4-24.5,2.5-36
				s10-13.5,23-22.5s14.5-3.5,20-14.5s10-20.5,10-20.5h50c0,0-5.8,26.8-11,40.3s-2.8,18-12.8,18s-12-6.3-15,1.8s-0.3,7.8,0,16
				s2,7-5.3,21.3s-11.5,23.5-15.8,27s-11.8-1-20.3,10.5s2.2,16.3,0,28.3c-2.2,12,13.2-13-9.8,24.7c-23,37.7-30,32.7-29.7,61
				c0.3,28.3,11.7,23.6,6,43.3c-5.7,19.7-11.3,22-2.7,32c8.7,10,18.3,14.3,41.3,14.3s23.7-12.7,30.7,0c7,12.7,13.3,11.7,3.3,23.7
				s-13.7,34-0.7,64.5s4.5,11,13.5,43.5C139.4,494.9,149,497.2,159.6,503.5z"/>
			<path class="st1" d="M1920,460v318.5c0,0-27-26-40.5-48.5s-12-45-21-85.5s-9.5-30-29-71.5s-62-73.5-79.5-95.5s-31-32-51.5-58
				c-8.6-10.9-11.8-16.3-14-22.6v0c-2.9-8.7-3.7-19.1-13.5-48.4c-17-50.5-36.7-73.8-49.7-81.8s-7.3-1.3-23.7,2
				c-16.3,3.4-22.9,0-22.9,0l-0.1,0c-7.9,5.4-18,9.7-40.7,24.3c-36.3,23.3-66,34.5-88,41s-24.5,9.5-43.8,18.5s-51.5,31-58.8,39.1
				s-25,9.2-25,9.2c10.1-12.9,21.3-27.4,33.5-37.3c22.5-18.3,19.7-21.5,60-45.2c40.3-23.7,28.3-10.3,63-37.7
				c34.7-27.3,28.7-3.7,60.3-54c31.7-50.3,20.7-44,48-76.3c27.3-32.3,27.9-44.3,46.4-73.8s23.8-38.8,41.3-50.8S1709,0,1709,0h173.7
				c0,0,0,3.7,0,5c0,1.3-6.3,11-12.3,14.7c-6,3.7-7.7,4-13.3,15.3c-5.7,11.3-4,4.7-14.3,9.3c-10.3,4.7-12,6-16.7,16
				c-4.7,10-2.5,33.7-15.5,46.2s-37,15.5-71.5,29.5c-26.7,10.8-30.3,16.9-48.2,28.3c0,0-0.2,12.1-17.5,24.4
				c-17.3,12.3-32.3,5.7-31.3,24.7s-2.7,25.7,13.3,27.3c16,1.7,22.7-11.3,41.3,2.3c18.7,13.7,42.3,71.5,61.3,103.5
				s23.5,27.5,33.5,29.5s10.5,0,21.5,8s12,6,22,28.5s6,30.2,25,34.1s34,1.4,39.5,2.4S1920,460,1920,460z"/>
			<path class="st1" d="M1462,1080h-265.7c0,0,3.2-6.5-8.3-37.5s-16.5-32.5-28.5-52.5s-50.5-41-69.5-64.5s-47.5-57.5-55.5-71.5
				s-15-13-20.5-25.5s-10-16-7-22.5s7.2-7.3,14.2-10.5c7-3.2,10.2-8.8,11.7-4.7c1.5,4.2-0.5,7.2-1.2,14c-0.7,6.8-9.8,7.7,0.5,13
				c10.3,5.3,16.2,3.3,26.2,6.2c10,2.8,57.2,31.5,60.7,37s-3-7,25,39s42.5,67,58.5,80.5s21.5,18.5,47.5,20s34-2.5,60.5,10.5
				s54,15.5,72,29.5s9,16,35.5,25.5S1462,1080,1462,1080z"/>
		</g>
		<g>
		</g>
	</g>
</g>
<g id="MAP_x5F_FINAL">
	<path class="st5" d="M1629.8,0c0,0-41.3,25.5-59.8,45.5s-17.5,9-48,46s-23,50.5-55.5,69s-35,10.5-50,31s-34.5,43-59,91.5
		s-19.5,53-37.5,84s-39.5,62-57.5,76.5S1165,534,1151.5,560s-12,31.5-34,50s-25,12-34.5,39.5s-42.7,74.8-64,94.8
		c-21.3,20-6.3,13-42.7,36c-36.3,23-41,12.3-55,39.3s-38,67-59.3,83s-12-7-31.3,22.7C811.3,955,820,947,804,971.3
		c-16,24.3-27.5,32.7-64.5,48.2s-48.5,31-88.5,28s-43.5,1-82-12s-54-21.5-130.5-30s-93.5-13-150-13.5s-67.8,0.7-122.8,0
		s-34-5.3-81.3-2.3S0,996.5,0,996.5"/>
	<path class="st5" d="M0,843.7c0,0,7,0,21,6.7c14,6.7,66,16,91.3,14s164-23.3,188-20.7c24,2.7,124.7-6.6,171.3,10.4
		s96.7,29,140,32.3c43.3,3.3,86.7,15.3,124-3.3c37.3-18.7,112.7-55.3,125.3-78s34.7-67.3,64.7-98s92.7-113.3,120-152
		c27.3-38.7,50.7-65.3,88-111.3c37.3-46,85.3-106.7,107.3-132c22-25.3,35.3-28.7,65.3-90s18-58,58-98.7s48.7-39.3,62-58
		c13.3-18.7,4-26.7,16.7-38.7S1485.7,0,1485.7,0"/>
	<path class="st5" d="M473.5,962.3c0,0,45.8,5.5,62,10.3s21,6,53.8,6.3s12.8,4.8,54.3,0s35.8-3,58-5.8s31-4,34.3,2
		s8.3,10.5,2.5,17.8s-10.5,10.5-26.5,18.3s-43.8,26-83.8,21s-37.5,3.5-65.5-12.3s-44.3-18.3-63-24.5s-31-13.8-41.8-18.3
		s-19-6.3-15.3-10.3s2.3-7.5,11-7S473.5,962.3,473.5,962.3z"/>
	<path class="st5" d="M0,835c0,0,31.3-5.3,40-2.8s18.8,7.8,37.5,2.8s37.8-11,59.5-11s59.3-2,93.7,0s76.7-0.7,102-3.3
		c25.3-2.7,10.7-6,52.3-6s70,0.7,85.3-4c15.3-4.7,10.5-8.2,0.5-7.8S420,801,401,799.7c-19-1.3-79-3.7-115.3,0
		c-36.3,3.7-116,6.3-153.3,2.7c-37.3-3.7-52.7-4.9-63.7-4.6C57.7,798,52.7,773,40,760S0,714,0,714"/>
	<path class="st5" d="M0,700.8c0,0,35.8,32.3,49.3,49s18.5,26,30.8,27.3s29,8,98.3,5.8s64.1-1.8,102.1-5.1c38-3.3,62.3-2.7,111.7-4
		c49.3-1.3,119.5-12.7,180-27.2S656.5,728,700,714s130-38.5,161.5-63.5S928,585,956,549s78-109.5,109.5-147.5s48-44,90-95.5
		s63.5-87.5,101-127S1329,105.5,1359,76.5s44-38.7,50.7-47.5c6.7-8.8,10.5-13.8,21.3-19.3s22.8-9.7,22.8-9.7"/>
	<path class="st5" d="M159.6,503.5c3.2,1.9,6.5,4.2,9.9,7.5c14.5,14.5,16,8,21.5,29s1.5,23.5,16.5,30.5s23,20.5,37,0s35-56.5,68-77
		s26-3,69.5-33.5s57.5-50,85-71.5s45.5-29,73.5-37S656,324.5,699,314s50.5-7,94-31.5s41-33.8,44.5-46.5s1.8-7,4.8-28.8
		s0.8-33.3,4.5-42s5.8-8,5.8-8s0.5,4.3,11.3,12.5s10,13.3,28,15s25.3,5.8,35.8-0.3s16.5-18.5,26-30s18.3-21.5,32-32.3
		s20-23.5,37-41.5s7.3-13.8,20.5-25.3s38.5-18.7,51.2-25.8c12.7-7.2,6.3-3.3,21.7-10.8c15.3-7.5,17.8-6.3,20.8-11.2s7.5-7.7,7.5-7.7
		"/>
	<path class="st5" d="M160.5,0c0,0-5.8,26.8-11,40.3s-2.8,18-12.8,18s-12-6.3-15,1.8s-0.3,7.8,0,16s2,7-5.3,21.3s-11.5,23.5-15.8,27
		s-11.8-1-20.3,10.5s2.2,16.3,0,28.3s13.2-13-9.8,24.7s-30,32.7-29.7,61s11.7,23.6,6,43.3s-11.3,22-2.7,32s18.3,14.3,41.3,14.3
		s23.7-12.7,30.7,0c7,12.7,13.3,11.7,3.3,23.7s-13.7,34-0.7,64.5s4.5,11,13.5,43.5c6.9,24.9,16.5,27.2,27.1,33.5"/>
	<path class="st5" d="M1275.8,430.6c0,0,3.7,6.2,19.2-4.3s34.5-44.5,57-62.8s19.7-21.5,60-45.2c40.3-23.7,28.3-10.3,63-37.7
		s28.7-3.7,60.3-54c31.7-50.3,20.7-44,48-76.3c27.3-32.3,27.9-44.3,46.4-73.8s23.8-38.8,41.3-50.8S1709,0,1709,0"/>
	<path class="st5" d="M1684.6,396.9c-2.9-8.7-3.7-19.1-13.6-48.4c-17-50.5-36.7-73.8-49.7-81.8s-7.3-1.3-23.7,2
		c-16.3,3.4-22.9,0-22.9,0l0,0c-7.9,5.4-18,9.7-40.7,24.3c-36.3,23.3-66,34.5-88,41s-24.5,9.5-43.8,18.5s-51.5,31-58.8,39.1
		c-7.3,8.1-25,9.2-25,9.2"/>
	<path class="st5" d="M1920,778.5c0,0-27-26-40.5-48.5s-12-45-21-85.5s-9.5-30-29-71.5s-62-73.5-79.5-95.5s-31-32-51.5-58
		c-8.6-10.9-11.8-16.3-13.9-22.6"/>
	<path class="st5" d="M1920,460c0,0-15-10-20.5-11s-20.5,1.5-39.5-2.4s-15-11.6-25-34.1s-11-20.5-22-28.5s-11.5-6-21.5-8
		s-14.5,2.5-33.5-29.5s-42.7-89.8-61.3-103.5c-18.7-13.7-25.3-0.7-41.3-2.3c-16-1.7-12.3-8.3-13.3-27.3s14-12.3,31.3-24.7
		c17.3-12.3,17.5-24.4,17.5-24.4c17.8-11.4,21.5-17.5,48.2-28.3c34.5-14,58.5-17,71.5-29.5s10.8-36.2,15.5-46.2s6.3-11.3,16.7-16
		c10.3-4.7,8.7,2,14.3-9.3s7.3-11.7,13.3-15.3s12.3-13.3,12.3-14.7s0-5,0-5"/>
	<path class="st5" d="M159.6,503.5c0,0,2.7-8.1,10.1-8.8c7.3-0.7,14,1.7,21,10.3c7,8.7,10.3,14.7,20.3,17.3c10,2.7,22.7,8.3,29.7,0
		c7-8.3,12.7-3.3,15-25c2.3-21.7,6.3-30.3,12.7-43.7c6.3-13.3-10.7-6,27.3-22.7s40.3-30.3,58-22.3c17.7,8,17.7,16,26.7,12.3
		s32.2-19,57.2-32s48.5-14.5,51-24s-7.5-19-16.5-30s-21.5-10.5-26-26.5s-11.5-24-5-29.5s17-4,28.5,4s10.5,5,25,10s20,9,25,14
		s24.8,4,35.8,3.3c11-0.7,23,0.3,41-9.3s20.7-14,31.7-10.3c11,3.6,8.3,8.6,20.3,4.3s31.3-7.7,36.7-9.3c5.3-1.7,21-5.7,47.7-13
		c26.7-7.3,31.7-3.7,51-13.3c19.3-9.7,31.7-8.7,36.3-17.3s9-43,12.5-56s-2.3-11.3,9.5-28.8s2.3-35,1.3-40.8s3.8-0.8-7.5-14.8
		s-39.1-37.1-47.4-43.1c-8.3-6-2-6.7-21.3-15.7s-23.7-7.7-25.7-16.3s-3.3-14-12-13.7c-8.7,0.3-12,3.7-28.7,8.3
		c-16.7,4.7-7.7,5.7-33,6c-25.3,0.3-38.7,10-46.7,3.7s-13.3-9.3-19.3-31"/>
	<path class="st5" d="M786,0c0,0,14.3,22.3,20,30.3s6.7,0.7,12,13.7s2,8,5.3,19.7c3.3,11.7,4.3,12,12.3,20.7s13,10,18.3,19.7
		s10,20.3,22.3,21.3c12.3,1,21,6,28.3-4c7.3-10,9.7-10.3,12.3-25s-5.7-9.7,4-20.3s8.7-16.7,20.3-9.3C953,74,957.3,79,960,79
		s8.8-9.5,10.8-15.3s4.8-4.5,5.8-18s-6-12.8,3.5-23.3s-0.5-14.3,14.8-12.3s16.8,7.8,27.8,8s18.2-7.3,20.2-10.9s4.2-7.3,4.2-7.3"/>
	<path class="st5" d="M0,182c0,0,18,1,23.5-21s-4-9,9.5-32s20-17,22-35.5s-4-24.5,2.5-36s10-13.5,23-22.5s14.5-3.5,20-14.5
		s10-20.5,10-20.5"/>
	<path class="st5" d="M1196.3,1080c0,0,3.2-6.5-8.3-37.5s-16.5-32.5-28.5-52.5s-50.5-41-69.5-64.5s-47.5-57.5-55.5-71.5
		s-15-13-20.5-25.5s-10-16-7-22.5s7.2-7.3,14.2-10.5c7-3.2,10.2-8.8,11.7-4.7c1.5,4.2-0.5,7.2-1.2,14c-0.7,6.8-9.8,7.7,0.5,13
		c10.3,5.3,16.2,3.3,26.2,6.2s57.2,31.5,60.7,37s-3-7,25,39s42.5,67,58.5,80.5s21.5,18.5,47.5,20s34-2.5,60.5,10.5s54,15.5,72,29.5
		s9,16,35.5,25.5s44,14,44,14"/>
	<path class="st5" d="M453.5,768.5c0,0-19.2-13.5-19.5-15.8c-0.3-2.3,8.3-12.7,14.3-17.7S549,623.7,573,597s48.7-50.7,60-66
		s8.5-10.5,48-24.5s182-74.5,202.5-86s112-47.8,137-57s25.5-17.3,36.5-12.3s38.5-34.5,47-45s146-156.3,171.8-178.8
		s53.2-33,80.5-63.7c27.3-30.7,66-63.7,66-63.7"/>
	<path class="st5" d="M0,623.3c0,0,43.8-5.8,56.8-6s39-1.8,47-1.3s9.5,2.9,15.8,3.6s9,1,19.3-3.7s60.8,3,74.8,3.7
		c2.1,0.1,4.6,0.2,7.3,0.4c3,0.2,6.3,0.4,9.7,0.7c14,1,30.7,2.3,41.5,2.6c15.8,0.5,112.3,1.3,121.8,0s11.3-1.4,26.8,0.7
		s26,8.1,37.3,1.3s27.3-14.5,36.3-17s13.3-2.5,29.5-2.5s41.6,0,41.6,0"/>
	<path class="st5" d="M225.7,620.3c0,0,34.8-13.5,55-24c20.2-10.5,49.3-24.2,59-30.2c9.7-6,35.1-34.9,52.6-43.9s44.8-18.8,65.8-26
		s26.5-9.5,49.8-13s53-2.5,74-2.5s29.3-1,54.8-0.1s35.3,4.4,47,2.9s26.3-11,33.8-18.5s56.8-40.7,76.4-50c19.7-9.3,18.7-3,45-15.3
		c11.6-5.4,31.7-13.3,51.9-20.6c25.6-9.3,51.6-17.7,61.4-19.4c17.7-3,18.7,0,50.3-15.3c31.7-15.3,41-17.3,52.7-28.7
		c11.7-11.3,165.5-143.7,162.5-153.7s-10.5-17.5-13-24.5s-9.5-9.5,9-22s33-12,40-17.5s23-42.5,25-50.5s0-24,7-31S1301.3,0,1301.3,0"
		/>
	<path class="st5" d="M893.7,377.9c0,0-24.7-41.4-24.9-46.7c-0.2-5.3-0.5-25,4.7-30.3c5.2-5.3,12.5-10.5,24.3-17.5
		c11.8-7,58.4-57.6,71.7-69.8s18.8-15.3,39.5-33.5s58.5-56.8,77.3-75s17.3-19.3,40.8-31.5s53.8-32.8,73.8-40.8s20.5-13,40.5-12.5
		s39.8,5.5,39.8,5.5"/>
	<path class="st5" d="M942.6,169.2c9.4,2.8,23.9-5.3,31.9,0s8.8,17.8,11,21.8s-2.5,6,11.8,20s25.3,39.3,41.3,51.5
		c16,12.2,37.8,34.1,37.8,34.1"/>
	<path class="st5" d="M877.7,350c0,0,50.9-36.7,60.1-45.5c9.2-8.8,25.3-18,38.8-29.2c13.5-11.2,64.1-52.6,83.6-69.6
		s29.8-30,40.3-35.8s12-4,23.3-8s13,1,25.3-11.8s24-18.3,31.8-27s16.3-20.3,25.8-35S1225,46,1230,38.5s13.3-18.2,13.3-18.2"/>
	<path class="st5" d="M602.5,1080c0,0,53.5-13.5,67.5-13.5s49.5,4,64.5,0s74-40,88.5-64s10-29.6,26.5-42.8
		c16.5-13.2,20.5-15.2,36-15.2s20.5,1.5,25-7s6.5-14,3-22.5s8-45,8.5-49.5s24.5-52,38-61.5s51.5-26,61-33s45.3-57.3,67.3-80
		s20-23.3,38-46s21.3-31.8,42-39.3c20.7-7.4,26,6.6,30-15.4s0.7-8.7,6.7-32c6-23.3,14-36.7,32-61.3c18-24.7,15.3-28,32-37.3
		c16.7-9.3,35-14.4,63.5-27.3s22-5.9,45-25.4s37-15,65-36.5s22-24.5,54-35.5s55-23.5,68.5-34s7.5-25.5,35.5-17s24-10.5,38.5,22.5
		s10.5,36,23,64.5s14.9,28.4,22.6,25.9"/>
	<rect class="st5" width="1920" height="1080"/>
</g>
</svg>
