<?xml version="1.0" encoding="utf-8"?>
<!-- Generator: Adobe Illustrator 22.0.0, SVG Export Plug-In . SVG Version: 6.00 Build 0)  -->
<svg version="1.1" id="nodes" xmlns="http://www.w3.org/2000/svg" xmlns:xlink="http://www.w3.org/1999/xlink" x="0px" y="0px"
	 width="1900px" height="1045px" viewBox="0 0 1900 1045" style="enable-background:new 0 0 1900 1045;" xml:space="preserve">
<style type="text/css">
	.st0{fill:#F5FF3C;}
</style>
<rect x="1053.9" y="544.5" class="st0" width="8.3" height="8.3"/>
<rect x="1150.6" y="526.2" transform="matrix(0.5 0.866 -0.866 0.5 1035.6715 -734.6011)" class="st0" width="6.9" height="6.9"/>
<rect x="1152.8" y="539.4" transform="matrix(0.5 0.866 -0.866 0.5 1048.2712 -729.9247)" class="st0" width="6.9" height="6.9"/>
<rect x="1115.8" y="552.1" transform="matrix(0.5 0.866 -0.866 0.5 1040.6736 -691.5151)" class="st0" width="6.9" height="6.9"/>
<rect x="1111.4" y="564" transform="matrix(0.5 0.866 -0.866 0.5 1048.827 -681.804)" class="st0" width="6.9" height="6.9"/>
<rect x="1087.1" y="573.1" transform="matrix(0.5 0.866 -0.866 0.5 1044.5269 -656.1891)" class="st0" width="6.9" height="6.9"/>
<rect x="1091.9" y="560" transform="matrix(0.5 0.866 -0.866 0.5 1035.6715 -666.8749)" class="st0" width="6.9" height="6.9"/>
<rect x="1075" y="584" transform="matrix(0.5 0.866 -0.866 0.5 1047.9873 -640.2065)" class="st0" width="6.9" height="6.9"/>
<rect x="1051.5" y="600.3" transform="matrix(0.5 0.866 -0.866 0.5 1050.3102 -611.7299)" class="st0" width="6.9" height="6.9"/>
<rect x="1032.7" y="591.7" transform="matrix(0.5 0.866 -0.866 0.5 1033.5018 -599.7836)" class="st0" width="6.9" height="6.9"/>
<rect x="1008.4" y="622.9" transform="matrix(0.5 0.866 -0.866 0.5 1048.3263 -563.127)" class="st0" width="6.9" height="6.9"/>
<rect x="978.5" y="626.8" transform="matrix(0.5 0.866 -0.866 0.5 1036.7599 -535.2601)" class="st0" width="6.9" height="6.9"/>
<rect x="988.6" y="634.3" transform="matrix(0.5 0.866 -0.866 0.5 1048.3263 -540.2842)" class="st0" width="6.9" height="6.9"/>
<rect x="948.9" y="647.8" transform="matrix(0.5 0.866 -0.866 0.5 1040.174 -499.1638)" class="st0" width="6.9" height="6.9"/>
<rect x="930.7" y="659" transform="matrix(0.5 0.866 -0.866 0.5 1040.7375 -477.7651)" class="st0" width="6.9" height="6.9"/>
<rect x="943.2" y="658.6" transform="matrix(0.5 0.866 -0.866 0.5 1046.6628 -488.7779)" class="st0" width="6.9" height="6.9"/>
<rect x="961.2" y="670.2" transform="matrix(0.5 0.866 -0.866 0.5 1065.7616 -498.608)" class="st0" width="6.9" height="6.9"/>
<rect x="977" y="666.7" transform="matrix(0.5 0.866 -0.866 0.5 1070.6055 -513.9979)" class="st0" width="6.9" height="6.9"/>
<rect x="997.6" y="649.2" transform="matrix(0.5 0.866 -0.866 0.5 1065.7616 -540.5799)" class="st0" width="6.9" height="6.9"/>
<rect x="1003.3" y="660.3" transform="matrix(0.5 0.866 -0.866 0.5 1078.1934 -539.9457)" class="st0" width="6.9" height="6.9"/>
<rect x="1013.4" y="643.1" transform="matrix(0.5 0.866 -0.866 0.5 1068.3527 -557.3668)" class="st0" width="6.9" height="6.9"/>
<rect x="1026.9" y="635.3" transform="matrix(0.5 0.866 -0.866 0.5 1068.3527 -572.9138)" class="st0" width="6.9" height="6.9"/>
<rect x="1046.3" y="627.6" transform="matrix(0.5 0.866 -0.866 0.5 1071.3212 -593.5593)" class="st0" width="6.9" height="6.9"/>
<rect x="1056.8" y="618.2" transform="matrix(0.5 0.866 -0.866 0.5 1068.4757 -607.4227)" class="st0" width="6.9" height="6.9"/>
<rect x="1061.1" y="630.2" transform="matrix(0.5 0.866 -0.866 0.5 1081.028 -605.0831)" class="st0" width="6.9" height="6.9"/>
<rect x="1076.8" y="606.1" transform="matrix(0.5 0.866 -0.866 0.5 1067.9324 -630.7341)" class="st0" width="6.9" height="6.9"/>
<rect x="1103.5" y="611.1" transform="matrix(0.5 0.866 -0.866 0.5 1085.7097 -651.3586)" class="st0" width="6.9" height="6.9"/>
<rect x="1095.4" y="596.4" transform="matrix(0.5 0.866 -0.866 0.5 1068.9133 -651.7222)" class="st0" width="6.9" height="6.9"/>
<rect x="1116.6" y="586.2" transform="matrix(0.5 0.866 -0.866 0.5 1070.6199 -675.178)" class="st0" width="6.9" height="6.9"/>
<rect x="1124.4" y="577.8" transform="matrix(0.5 0.866 -0.866 0.5 1067.2578 -686.1643)" class="st0" width="6.9" height="6.9"/>
<rect x="1136" y="577.8" transform="matrix(0.5 0.866 -0.866 0.5 1073.0494 -696.1958)" class="st0" width="6.9" height="6.9"/>
<rect x="1152.1" y="560.4" transform="matrix(0.5 0.866 -0.866 0.5 1066.0801 -718.791)" class="st0" width="6.9" height="6.9"/>
<rect x="1160.1" y="574.4" transform="matrix(0.5 0.866 -0.866 0.5 1082.1932 -718.791)" class="st0" width="6.9" height="6.9"/>
<rect x="1187.6" y="566.1" transform="matrix(0.5 0.866 -0.866 0.5 1088.7568 -746.6595)" class="st0" width="6.9" height="6.9"/>
<rect x="1194.6" y="577.8" transform="matrix(0.5 0.866 -0.866 0.5 1102.3695 -746.9795)" class="st0" width="6.9" height="6.9"/>
<rect x="1170.6" y="589.5" transform="matrix(0.5 0.866 -0.866 0.5 1100.5035 -720.2477)" class="st0" width="6.9" height="6.9"/>
<rect x="1173.1" y="575" transform="matrix(0.5 0.866 -0.866 0.5 1089.2379 -729.7349)" class="st0" width="6.9" height="6.9"/>
<rect x="1178.2" y="601.9" transform="matrix(0.5 0.866 -0.866 0.5 1115.0901 -720.6789)" class="st0" width="6.9" height="6.9"/>
<rect x="1203.4" y="589.5" transform="matrix(0.5 0.866 -0.866 0.5 1116.9269 -748.6938)" class="st0" width="6.9" height="6.9"/>
<rect x="1187" y="592.5" transform="matrix(0.5 0.866 -0.866 0.5 1111.3134 -732.9707)" class="st0" width="6.9" height="6.9"/>
<rect x="1193.5" y="629.3" transform="matrix(0.5 0.866 -0.866 0.5 1146.4523 -720.2477)" class="st0" width="6.9" height="6.9"/>
<rect x="1218" y="612.7" transform="matrix(0.5 0.866 -0.866 0.5 1144.3046 -749.7778)" class="st0" width="6.9" height="6.9"/>
<rect x="1209.4" y="647.5" transform="matrix(0.5 0.866 -0.866 0.5 1170.1947 -724.8708)" class="st0" width="6.9" height="6.9"/>
<rect x="1214.9" y="630.7" transform="matrix(0.5 0.866 -0.866 0.5 1158.3229 -738.0581)" class="st0" width="6.9" height="6.9"/>
<rect x="1204.6" y="622.9" transform="matrix(0.5 0.866 -0.866 0.5 1146.4523 -732.9707)" class="st0" width="6.9" height="6.9"/>
<rect x="1233.8" y="576.9" transform="matrix(0.5 0.866 -0.866 0.5 1121.2401 -781.3019)" class="st0" width="6.9" height="6.9"/>
<rect x="1213.6" y="577.8" transform="matrix(0.5 0.866 -0.866 0.5 1111.8658 -763.4277)" class="st0" width="6.9" height="6.9"/>
<rect x="1202.1" y="558.8" transform="matrix(0.5 0.866 -0.866 0.5 1089.6198 -762.8962)" class="st0" width="6.9" height="6.9"/>
<rect x="1207.4" y="530.3" transform="matrix(0.5 0.866 -0.866 0.5 1067.6769 -781.7234)" class="st0" width="6.9" height="6.9"/>
<rect x="1223.1" y="548" transform="matrix(0.5 0.866 -0.866 0.5 1090.8516 -786.53)" class="st0" width="6.9" height="6.9"/>
<rect x="1178.2" y="513.4" transform="matrix(0.5 0.866 -0.866 0.5 1038.4108 -764.9497)" class="st0" width="6.9" height="6.9"/>
<rect x="1199.9" y="510.2" transform="matrix(0.5 0.866 -0.866 0.5 1046.494 -785.3254)" class="st0" width="6.9" height="6.9"/>
<rect x="1184.5" y="521.5" transform="matrix(0.5 0.866 -0.866 0.5 1048.5541 -766.3104)" class="st0" width="6.9" height="6.9"/>
<rect x="1253.4" y="504.7" transform="matrix(0.5 0.866 -0.866 0.5 1068.4856 -834.3329)" class="st0" width="6.9" height="6.9"/>
<rect x="1246.1" y="478.6" transform="matrix(0.5 0.866 -0.866 0.5 1042.2357 -841.1167)" class="st0" width="6.9" height="6.9"/>
<rect x="1212.1" y="498.7" transform="matrix(0.5 0.866 -0.866 0.5 1042.6556 -801.5941)" class="st0" width="6.9" height="6.9"/>
<rect x="1271" y="505.5" transform="matrix(0.5 0.866 -0.866 0.5 1077.948 -849.2012)" class="st0" width="6.9" height="6.9"/>
<rect x="1282.7" y="485.9" transform="matrix(0.5 0.866 -0.866 0.5 1066.8633 -869.1686)" class="st0" width="6.9" height="6.9"/>
<rect x="1300.9" y="484.5" transform="matrix(0.5 0.866 -0.866 0.5 1074.7197 -885.6097)" class="st0" width="6.9" height="6.9"/>
<rect x="1295" y="450.2" transform="matrix(0.5 0.866 -0.866 0.5 1042.0278 -897.6524)" class="st0" width="6.9" height="6.9"/>
<rect x="1342.5" y="461.9" transform="matrix(0.5 0.866 -0.866 0.5 1075.9954 -932.9858)" class="st0" width="6.9" height="6.9"/>
<rect x="1350.1" y="447" transform="matrix(0.5 0.866 -0.866 0.5 1066.8633 -946.9393)" class="st0" width="6.9" height="6.9"/>
<rect x="1367.6" y="442.9" transform="matrix(0.5 0.866 -0.866 0.5 1072.0519 -964.2471)" class="st0" width="6.9" height="6.9"/>
<rect x="1355.2" y="415.4" transform="matrix(0.5 0.866 -0.866 0.5 1042.1001 -967.2023)" class="st0" width="6.9" height="6.9"/>
<rect x="1377.9" y="430.4" transform="matrix(0.5 0.866 -0.866 0.5 1066.3516 -979.3739)" class="st0" width="6.9" height="6.9"/>
<rect x="1476.3" y="465.7" transform="matrix(0.1042 0.9946 -0.9946 0.1042 1792.161 -1051.3859)" class="st0" width="6.9" height="6.9"/>
<rect x="1429.7" y="401.2" transform="matrix(0.1042 0.9946 -0.9946 0.1042 1686.2238 -1062.8135)" class="st0" width="6.9" height="6.9"/>
<rect x="1438.5" y="390.7" transform="matrix(0.1042 0.9946 -0.9946 0.1042 1683.6753 -1080.9841)" class="st0" width="6.9" height="6.9"/>
<rect x="1458.1" y="395.3" transform="matrix(0.1042 0.9946 -0.9946 0.1042 1705.7935 -1096.4152)" class="st0" width="6.9" height="6.9"/>
<rect x="1460.4" y="379.7" transform="matrix(0.1042 0.9946 -0.9946 0.1042 1692.3872 -1112.6563)" class="st0" width="6.9" height="6.9"/>
<rect x="1476.4" y="383.1" transform="matrix(0.1042 0.9946 -0.9946 0.1042 1710.139 -1125.4899)" class="st0" width="6.9" height="6.9"/>
<rect x="1504.3" y="368" transform="matrix(0.1042 0.9946 -0.9946 0.1042 1720.0632 -1166.8412)" class="st0" width="6.9" height="6.9"/>
<rect x="1517.7" y="360.2" transform="matrix(0.1042 0.9946 -0.9946 0.1042 1724.2997 -1187.0446)" class="st0" width="6.9" height="6.9"/>
<rect x="1454.7" y="362.6" transform="matrix(0.1042 0.9946 -0.9946 0.1042 1670.2963 -1122.2338)" class="st0" width="6.9" height="6.9"/>
<rect x="1461.9" y="353.8" transform="matrix(0.1042 0.9946 -0.9946 0.1042 1667.9152 -1137.3401)" class="st0" width="6.9" height="6.9"/>
<rect x="1420.2" y="359.5" transform="matrix(0.1042 0.9946 -0.9946 0.1042 1636.3081 -1090.7493)" class="st0" width="6.9" height="6.9"/>
<rect x="1437.3" y="375.5" transform="matrix(0.1042 0.9946 -0.9946 0.1042 1667.5245 -1093.4065)" class="st0" width="6.9" height="6.9"/>
<rect x="1432" y="357.5" transform="matrix(0.1042 0.9946 -0.9946 0.1042 1644.8734 -1104.2012)" class="st0" width="6.9" height="6.9"/>
<rect x="1427.4" y="337.5" transform="matrix(0.1042 0.9946 -0.9946 0.1042 1620.7936 -1117.6338)" class="st0" width="6.9" height="6.9"/>
<rect x="1453.7" y="343.8" transform="matrix(0.1042 0.9946 -0.9946 0.1042 1650.6823 -1138.1503)" class="st0" width="6.9" height="6.9"/>
<rect x="1452.5" y="331.9" transform="matrix(0.1042 0.9946 -0.9946 0.1042 1637.712 -1147.5841)" class="st0" width="6.9" height="6.9"/>
<rect x="1442.6" y="318.8" transform="matrix(0.1042 0.9946 -0.9946 0.1042 1615.8744 -1149.4645)" class="st0" width="6.9" height="6.9"/>
<rect x="1421.1" y="328.1" transform="matrix(0.1042 0.9946 -0.9946 0.1042 1605.9036 -1119.8271)" class="st0" width="6.9" height="6.9"/>
<rect x="1415.7" y="312.6" transform="matrix(0.1042 0.9946 -0.9946 0.1042 1585.6168 -1128.3043)" class="st0" width="6.9" height="6.9"/>
<rect x="1412.3" y="290.4" transform="matrix(0.1042 0.9946 -0.9946 0.1042 1560.4514 -1144.8652)" class="st0" width="6.9" height="6.9"/>
<rect x="1439.1" y="291.5" transform="matrix(0.1042 0.9946 -0.9946 0.1042 1585.6516 -1170.468)" class="st0" width="6.9" height="6.9"/>
<rect x="1459.6" y="299.4" transform="matrix(0.1042 0.9946 -0.9946 0.1042 1611.73 -1183.7957)" class="st0" width="6.9" height="6.9"/>
<rect x="1471.3" y="291.5" transform="matrix(0.1042 0.9946 -0.9946 0.1042 1614.4858 -1202.4803)" class="st0" width="6.9" height="6.9"/>
<rect x="1443.9" y="270.9" transform="matrix(0.1042 0.9946 -0.9946 0.1042 1569.3712 -1193.7264)" class="st0" width="6.9" height="6.9"/>
<rect x="1431" y="249.8" transform="matrix(0.1042 0.9946 -0.9946 0.1042 1536.8317 -1199.767)" class="st0" width="6.9" height="6.9"/>
<rect x="1427.2" y="232.5" transform="matrix(0.1042 0.9946 -0.9946 0.1042 1516.2904 -1211.4615)" class="st0" width="6.9" height="6.9"/>
<rect x="1399" y="246.6" transform="matrix(0.1042 0.9946 -0.9946 0.1042 1504.9902 -1170.7493)" class="st0" width="6.9" height="6.9"/>
<rect x="1396" y="231.9" transform="matrix(0.1042 0.9946 -0.9946 0.1042 1487.6681 -1180.9473)" class="st0" width="6.9" height="6.9"/>
<rect x="1392.8" y="214.5" transform="matrix(0.1042 0.9946 -0.9946 0.1042 1467.5095 -1193.4)" class="st0" width="6.9" height="6.9"/>
<rect x="1419" y="205.1" transform="matrix(0.1042 0.9946 -0.9946 0.1042 1481.6593 -1227.9427)" class="st0" width="6.9" height="6.9"/>
<rect x="1483.5" y="478.3" transform="matrix(0.1042 0.9946 -0.9946 0.1042 1811.1705 -1047.324)" class="st0" width="6.9" height="6.9"/>
<rect x="1490" y="491.3" transform="matrix(0.1042 0.9946 -0.9946 0.1042 1829.9039 -1042.1599)" class="st0" width="6.9" height="6.9"/>
<rect x="1453" y="487.5" transform="matrix(0.1042 0.9946 -0.9946 0.1042 1793.0005 -1008.7463)" class="st0" width="6.9" height="6.9"/>
<rect x="1490.5" y="503" transform="matrix(0.1042 0.9946 -0.9946 0.1042 1842.0093 -1032.157)" class="st0" width="6.9" height="6.9"/>
<rect x="1508.7" y="485.8" transform="matrix(0.1042 0.9946 -0.9946 0.1042 1841.0898 -1065.6362)" class="st0" width="6.9" height="6.9"/>
<rect x="1541.9" y="481.4" transform="matrix(0.1042 0.9946 -0.9946 0.1042 1866.566 -1102.5873)" class="st0" width="6.9" height="6.9"/>
<rect x="1558.7" y="490.9" transform="matrix(0.1042 0.9946 -0.9946 0.1042 1891.0753 -1110.798)" class="st0" width="6.9" height="6.9"/>
<rect x="1562.2" y="470.6" transform="matrix(0.1042 0.9946 -0.9946 0.1042 1873.9528 -1132.4131)" class="st0" width="6.9" height="6.9"/>
<rect x="1448.7" y="536.8" transform="matrix(0.1042 0.9946 -0.9946 0.1042 1838.0632 -960.276)" class="st0" width="6.9" height="6.9"/>
<rect x="1490.5" y="534.3" transform="matrix(0.1042 0.9946 -0.9946 0.1042 1873.0332 -1004.1005)" class="st0" width="6.9" height="6.9"/>
<rect x="1467.8" y="566" transform="matrix(0.1042 0.9946 -0.9946 0.1042 1884.3425 -953.1564)" class="st0" width="6.9" height="6.9"/>
<rect x="1500.4" y="563.9" transform="matrix(0.1042 0.9946 -0.9946 0.1042 1911.3992 -987.4453)" class="st0" width="6.9" height="6.9"/>
<rect x="1511.5" y="585" transform="matrix(0.1042 0.9946 -0.9946 0.1042 1942.2965 -979.5815)" class="st0" width="6.9" height="6.9"/>
<rect x="1475.9" y="584.5" transform="matrix(0.1042 0.9946 -0.9946 0.1042 1909.923 -944.6397)" class="st0" width="6.9" height="6.9"/>
<rect x="1507.7" y="598.1" transform="matrix(0.1042 0.9946 -0.9946 0.1042 1952.0065 -964.0284)" class="st0" width="6.9" height="6.9"/>
<rect x="1478.7" y="616.2" transform="matrix(0.1042 0.9946 -0.9946 0.1042 1944.0126 -918.9868)" class="st0" width="6.9" height="6.9"/>
<rect x="1509.1" y="629.8" transform="matrix(0.1042 0.9946 -0.9946 0.1042 1984.7699 -937.0698)" class="st0" width="6.9" height="6.9"/>
<rect x="1510.4" y="642.1" transform="matrix(0.1042 0.9946 -0.9946 0.1042 1998.1554 -927.3339)" class="st0" width="6.9" height="6.9"/>
<rect x="1485.1" y="694.3" transform="matrix(0.1042 0.9946 -0.9946 0.1042 2027.3441 -855.4066)" class="st0" width="6.9" height="6.9"/>
<rect x="1491.8" y="718.5" transform="matrix(0.1042 0.9946 -0.9946 0.1042 2057.5088 -840.3962)" class="st0" width="6.9" height="6.9"/>
<rect x="1470.6" y="703.8" transform="matrix(0.1042 0.9946 -0.9946 0.1042 2023.859 -832.5374)" class="st0" width="6.9" height="6.9"/>
<rect x="1530.3" y="715.1" transform="matrix(0.1042 0.9946 -0.9946 0.1042 2088.5852 -881.6479)" class="st0" width="6.9" height="6.9"/>
<rect x="1532.3" y="742" transform="matrix(0.1042 0.9946 -0.9946 0.1042 2117.1389 -859.6821)" class="st0" width="6.9" height="6.9"/>
<rect x="1510.6" y="775.8" transform="matrix(0.1042 0.9946 -0.9946 0.1042 2131.304 -807.7419)" class="st0" width="6.9" height="6.9"/>
<rect x="1485.7" y="784.4" transform="matrix(0.1042 0.9946 -0.9946 0.1042 2117.5986 -775.2759)" class="st0" width="6.9" height="6.9"/>
<rect x="1480.5" y="799.3" transform="matrix(0.1042 0.9946 -0.9946 0.1042 2127.7183 -756.7034)" class="st0" width="6.9" height="6.9"/>
<rect x="1468.1" y="789.2" transform="matrix(0.1042 0.9946 -0.9946 0.1042 2106.5625 -753.4659)" class="st0" width="6.9" height="6.9"/>
<rect x="1462.6" y="803.1" transform="matrix(0.1042 0.9946 -0.9946 0.1042 2115.4636 -735.5406)" class="st0" width="6.9" height="6.9"/>
<rect x="1450.8" y="794.9" transform="matrix(0.1042 0.9946 -0.9946 0.1042 2096.7327 -731.2451)" class="st0" width="6.9" height="6.9"/>
<rect x="1442.3" y="811" transform="matrix(0.1042 0.9946 -0.9946 0.1042 2105.1223 -708.226)" class="st0" width="6.9" height="6.9"/>
<rect x="1435.5" y="800" transform="matrix(0.1042 0.9946 -0.9946 0.1042 2088.1353 -711.3668)" class="st0" width="6.9" height="6.9"/>
<rect x="1427.6" y="814.7" transform="matrix(0.1042 0.9946 -0.9946 0.1042 2095.6865 -690.3038)" class="st0" width="6.9" height="6.9"/>
<rect x="1413" y="806.9" transform="matrix(0.1042 0.9946 -0.9946 0.1042 2074.8042 -682.842)" class="st0" width="6.9" height="6.9"/>
<rect x="1417" y="819.1" transform="matrix(0.1042 0.9946 -0.9946 0.1042 2090.5464 -675.8685)" class="st0" width="6.9" height="6.9"/>
<rect x="1396.8" y="814.7" transform="matrix(0.1042 0.9946 -0.9946 0.1042 2068.0657 -659.6382)" class="st0" width="6.9" height="6.9"/>
<rect x="1508.1" y="795.6" transform="matrix(0.1042 0.9946 -0.9946 0.1042 2148.707 -787.5632)" class="st0" width="6.9" height="6.9"/>
<rect x="1521.3" y="794.2" transform="matrix(0.1042 0.9946 -0.9946 0.1042 2159.1401 -801.9073)" class="st0" width="6.9" height="6.9"/>
<rect x="1523.2" y="812.6" transform="matrix(0.1042 0.9946 -0.9946 0.1042 2179.2209 -787.3017)" class="st0" width="6.9" height="6.9"/>
<rect x="1525.5" y="829.6" transform="matrix(0.1042 0.9946 -0.9946 0.1042 2198.144 -774.3105)" class="st0" width="6.9" height="6.9"/>
<rect x="1556.3" y="846.7" transform="matrix(0.1042 0.9946 -0.9946 0.1042 2242.8342 -789.6766)" class="st0" width="6.9" height="6.9"/>
<rect x="1524.8" y="840.4" transform="matrix(0.1042 0.9946 -0.9946 0.1042 2208.2756 -764.0589)" class="st0" width="6.9" height="6.9"/>
<rect x="1540.6" y="871.7" transform="matrix(0.1042 0.9946 -0.9946 0.1042 2253.5891 -751.6169)" class="st0" width="6.9" height="6.9"/>
<rect x="1530.1" y="878.3" transform="matrix(0.1042 0.9946 -0.9946 0.1042 2250.7393 -735.2833)" class="st0" width="6.9" height="6.9"/>
<rect x="1517.6" y="863.6" transform="matrix(0.1042 0.9946 -0.9946 0.1042 2224.8718 -736.0646)" class="st0" width="6.9" height="6.9"/>
<rect x="1496.2" y="871.7" transform="matrix(0.1042 0.9946 -0.9946 0.1042 2213.8445 -707.4915)" class="st0" width="6.9" height="6.9"/>
<rect x="1547.8" y="906.9" transform="matrix(0.1042 0.9946 -0.9946 0.1042 2295.0249 -727.3699)" class="st0" width="6.9" height="6.9"/>
<rect x="1525.5" y="915.1" transform="matrix(0.1042 0.9946 -0.9946 0.1042 2283.1787 -697.718)" class="st0" width="6.9" height="6.9"/>
<rect x="1491.4" y="921" transform="matrix(0.1042 0.9946 -0.9946 0.1042 2258.5081 -658.5779)" class="st0" width="6.9" height="6.9"/>
<rect x="1503.1" y="921" transform="matrix(0.1042 0.9946 -0.9946 0.1042 2269.0339 -670.264)" class="st0" width="6.9" height="6.9"/>
<rect x="1484.8" y="908.9" transform="matrix(0.1042 0.9946 -0.9946 0.1042 2240.5142 -662.8508)" class="st0" width="6.9" height="6.9"/>
<rect x="1499.4" y="940.4" transform="matrix(0.1042 0.9946 -0.9946 0.1042 2284.9185 -649.1494)" class="st0" width="6.9" height="6.9"/>
<rect x="1514" y="935.6" transform="matrix(0.1042 0.9946 -0.9946 0.1042 2293.2957 -667.9499)" class="st0" width="6.9" height="6.9"/>
<rect x="1528.6" y="935.6" transform="matrix(0.1042 0.9946 -0.9946 0.1042 2306.397 -682.4953)" class="st0" width="6.9" height="6.9"/>
<rect x="1540.8" y="929.6" transform="matrix(0.1042 0.9946 -0.9946 0.1042 2311.3474 -699.9914)" class="st0" width="6.9" height="6.9"/>
<rect x="1552.9" y="929.6" transform="matrix(0.1042 0.9946 -0.9946 0.1042 2322.1531 -711.9883)" class="st0" width="6.9" height="6.9"/>
<rect x="1541.9" y="920.7" transform="matrix(0.1042 0.9946 -0.9946 0.1042 2303.4663 -709.1166)" class="st0" width="6.9" height="6.9"/>
<rect x="1521.7" y="925.8" transform="matrix(0.1042 0.9946 -0.9946 0.1042 2290.4565 -684.3555)" class="st0" width="6.9" height="6.9"/>
<rect x="1529.1" y="604" transform="matrix(0.1042 0.9946 -0.9946 0.1042 1977.0763 -980.0283)" class="st0" width="6.9" height="6.9"/>
<rect x="928.9" y="686.7" transform="matrix(0.5 0.866 -0.866 0.5 1063.8635 -462.3204)" class="st0" width="6.9" height="6.9"/>
<rect x="917.6" y="693.2" transform="matrix(0.5 0.866 -0.866 0.5 1063.8635 -449.2964)" class="st0" width="6.9" height="6.9"/>
<rect x="944.7" y="686.7" transform="matrix(0.5 0.866 -0.866 0.5 1071.7552 -475.9892)" class="st0" width="6.9" height="6.9"/>
<rect x="903" y="718.9" transform="matrix(0.5 0.866 -0.866 0.5 1078.7638 -423.8784)" class="st0" width="6.9" height="6.9"/>
<rect x="928.2" y="705.5" transform="matrix(0.5 0.866 -0.866 0.5 1079.7432 -452.3248)" class="st0" width="6.9" height="6.9"/>
<rect x="893.1" y="707.4" transform="matrix(0.5 0.866 -0.866 0.5 1063.8635 -420.9849)" class="st0" width="6.9" height="6.9"/>
<rect x="884.1" y="683" transform="matrix(0.5 0.866 -0.866 0.5 1038.2542 -425.3782)" class="st0" width="6.9" height="6.9"/>
<rect x="859" y="724.4" transform="matrix(0.5 0.866 -0.866 0.5 1061.5234 -382.9318)" class="st0" width="6.9" height="6.9"/>
<rect x="872.3" y="722.5" transform="matrix(0.5 0.866 -0.866 0.5 1066.5872 -395.4524)" class="st0" width="6.9" height="6.9"/>
<rect x="879.6" y="711.2" transform="matrix(0.5 0.866 -0.866 0.5 1060.4243 -407.4185)" class="st0" width="6.9" height="6.9"/>
<rect x="876.2" y="732.6" transform="matrix(0.5 0.866 -0.866 0.5 1077.2295 -393.819)" class="st0" width="6.9" height="6.9"/>
<rect x="840.4" y="737.3" transform="matrix(0.5 0.866 -0.866 0.5 1063.3606 -360.4013)" class="st0" width="6.9" height="6.9"/>
<rect x="817.1" y="717" transform="matrix(0.5 0.866 -0.866 0.5 1034.1986 -350.3912)" class="st0" width="6.9" height="6.9"/>
<rect x="818.7" y="748.9" transform="matrix(0.5 0.866 -0.866 0.5 1062.6156 -335.861)" class="st0" width="6.9" height="6.9"/>
<rect x="787.2" y="760.8" transform="matrix(0.5 0.866 -0.866 0.5 1057.1497 -302.6437)" class="st0" width="6.9" height="6.9"/>
<rect x="786.9" y="741.4" transform="matrix(0.5 0.866 -0.866 0.5 1040.174 -312.0232)" class="st0" width="6.9" height="6.9"/>
<rect x="793.7" y="732" transform="matrix(0.5 0.866 -0.866 0.5 1035.4924 -322.6646)" class="st0" width="6.9" height="6.9"/>
<rect x="807" y="728.6" transform="matrix(0.5 0.866 -0.866 0.5 1039.1655 -335.861)" class="st0" width="6.9" height="6.9"/>
<rect x="777.8" y="766.8" transform="matrix(0.5 0.866 -0.866 0.5 1057.666 -291.4048)" class="st0" width="6.9" height="6.9"/>
<rect x="784.2" y="778" transform="matrix(0.5 0.866 -0.866 0.5 1070.5673 -291.4048)" class="st0" width="6.9" height="6.9"/>
<rect x="769.4" y="744.6" transform="matrix(0.5 0.866 -0.866 0.5 1034.1986 -295.2629)" class="st0" width="6.9" height="6.9"/>
<rect x="771.2" y="730.6" transform="matrix(0.5 0.866 -0.866 0.5 1023.0117 -303.8867)" class="st0" width="6.9" height="6.9"/>
<rect x="752.2" y="756" transform="matrix(0.5 0.866 -0.866 0.5 1035.4924 -274.6655)" class="st0" width="6.9" height="6.9"/>
<rect x="745.8" y="739" transform="matrix(0.5 0.866 -0.866 0.5 1017.5825 -277.6446)" class="st0" width="6.9" height="6.9"/>
<rect x="727" y="768.4" transform="matrix(0.5 0.866 -0.866 0.5 1033.647 -246.7191)" class="st0" width="6.9" height="6.9"/>
<rect x="747.5" y="784.3" transform="matrix(0.5 0.866 -0.866 0.5 1057.666 -256.4726)" class="st0" width="6.9" height="6.9"/>
<rect x="724.5" y="799.2" transform="matrix(0.5 0.866 -0.866 0.5 1059.0482 -229.1165)" class="st0" width="6.9" height="6.9"/>
<rect x="698.3" y="788" transform="matrix(0.5 0.866 -0.866 0.5 1036.2887 -211.9459)" class="st0" width="6.9" height="6.9"/>
<rect x="706.6" y="807.3" transform="matrix(0.5 0.866 -0.866 0.5 1057.1497 -209.5113)" class="st0" width="6.9" height="6.9"/>
<rect x="682.5" y="798.3" transform="matrix(0.5 0.866 -0.866 0.5 1037.293 -193.1185)" class="st0" width="6.9" height="6.9"/>
<rect x="692.4" y="815.5" transform="matrix(0.5 0.866 -0.866 0.5 1057.1497 -193.1185)" class="st0" width="6.9" height="6.9"/>
<rect x="703.9" y="819.8" transform="matrix(0.5 0.866 -0.866 0.5 1066.598 -200.9425)" class="st0" width="6.9" height="6.9"/>
<rect x="679.7" y="822.8" transform="matrix(0.5 0.866 -0.866 0.5 1057.1497 -178.4831)" class="st0" width="6.9" height="6.9"/>
<rect x="673.6" y="836.8" transform="matrix(0.5 0.866 -0.866 0.5 1066.1602 -166.2564)" class="st0" width="6.9" height="6.9"/>
<rect x="659.9" y="834.9" transform="matrix(0.5 0.866 -0.866 0.5 1057.666 -155.2957)" class="st0" width="6.9" height="6.9"/>
<rect x="658.6" y="812.1" transform="matrix(0.5 0.866 -0.866 0.5 1037.293 -165.5466)" class="st0" width="6.9" height="6.9"/>
<rect x="665.5" y="801.1" transform="matrix(0.5 0.866 -0.866 0.5 1031.225 -177.0366)" class="st0" width="6.9" height="6.9"/>
<rect x="663.7" y="778.6" transform="matrix(0.5 0.866 -0.866 0.5 1010.8644 -186.771)" class="st0" width="6.9" height="6.9"/>
<rect x="641.6" y="822.8" transform="matrix(0.5 0.866 -0.866 0.5 1038.0839 -145.46)" class="st0" width="6.9" height="6.9"/>
<rect x="631.8" y="832.1" transform="matrix(0.5 0.866 -0.866 0.5 1041.1924 -132.407)" class="st0" width="6.9" height="6.9"/>
<rect x="637.8" y="848.6" transform="matrix(0.5 0.866 -0.866 0.5 1058.4818 -129.3531)" class="st0" width="6.9" height="6.9"/>
<rect x="627.1" y="856.8" transform="matrix(0.5 0.866 -0.866 0.5 1060.2776 -115.9634)" class="st0" width="6.9" height="6.9"/>
<rect x="609.6" y="865.3" transform="matrix(0.5 0.866 -0.866 0.5 1058.8888 -96.5579)" class="st0" width="6.9" height="6.9"/>
<rect x="654" y="857.6" transform="matrix(0.5 0.866 -0.866 0.5 1074.4227 -138.7811)" class="st0" width="6.9" height="6.9"/>
<rect x="580" y="854" transform="matrix(0.5 0.866 -0.866 0.5 1034.2719 -76.5144)" class="st0" width="6.9" height="6.9"/>
<rect x="591.4" y="855.4" transform="matrix(0.5 0.866 -0.866 0.5 1041.1924 -85.7404)" class="st0" width="6.9" height="6.9"/>
<rect x="581.6" y="883.1" transform="matrix(0.5 0.866 -0.866 0.5 1060.2776 -63.4329)" class="st0" width="6.9" height="6.9"/>
<rect x="588.2" y="893.2" transform="matrix(0.5 0.866 -0.866 0.5 1072.3738 -64.0509)" class="st0" width="6.9" height="6.9"/>
<rect x="562.6" y="874.9" transform="matrix(0.5 0.866 -0.866 0.5 1043.6633 -50.9895)" class="st0" width="6.9" height="6.9"/>
<rect x="561.9" y="897.2" transform="matrix(0.5 0.866 -0.866 0.5 1062.5885 -39.2688)" class="st0" width="6.9" height="6.9"/>
<rect x="548.7" y="879.2" transform="matrix(0.5 0.866 -0.866 0.5 1040.4889 -36.8245)" class="st0" width="6.9" height="6.9"/>
<rect x="576.9" y="905.9" transform="matrix(0.5 0.866 -0.866 0.5 1077.7028 -47.9476)" class="st0" width="6.9" height="6.9"/>
<rect x="846.5" y="707" transform="matrix(0.5 0.866 -0.866 0.5 1040.174 -380.8475)" class="st0" width="6.9" height="6.9"/>
<rect x="841.8" y="686.1" transform="matrix(0.5 0.866 -0.866 0.5 1019.7466 -387.2164)" class="st0" width="6.9" height="6.9"/>
</svg>
