<?xml version="1.0" encoding="utf-8"?>
<!-- Generator: Adobe Illustrator 22.0.0, SVG Export Plug-In . SVG Version: 6.00 Build 0)  -->
<svg version="1.1" id="nodes" xmlns="http://www.w3.org/2000/svg" xmlns:xlink="http://www.w3.org/1999/xlink" x="0px" y="0px"
	 width="1900px" height="1045px" viewBox="0 0 1900 1045" style="enable-background:new 0 0 1900 1045;" xml:space="preserve">
<style type="text/css">
	.st0{fill:#898989;}
</style>
<rect x="1053.9" y="544.5" class="st0" width="8.3" height="8.3"/>
<rect x="1150.6" y="526.2" transform="matrix(0.866 -0.5 0.5 0.866 -110.2048 647.983)" class="st0" width="6.9" height="6.9"/>
<rect x="1152.8" y="539.4" transform="matrix(0.866 -0.5 0.5 0.866 -116.4918 650.8834)" class="st0" width="6.9" height="6.9"/>
<rect x="1115.7" y="552.1" transform="matrix(0.866 -0.5 0.5 0.866 -127.8209 634.039)" class="st0" width="6.9" height="6.9"/>
<rect x="1111.4" y="563.9" transform="matrix(0.866 -0.5 0.5 0.866 -134.3294 633.4507)" class="st0" width="6.9" height="6.9"/>
<rect x="1087.1" y="573.1" transform="matrix(0.866 -0.5 0.5 0.866 -142.1499 622.5071)" class="st0" width="6.9" height="6.9"/>
<rect x="1091.9" y="560" transform="matrix(0.866 -0.5 0.5 0.866 -134.9553 623.1995)" class="st0" width="6.9" height="6.9"/>
<rect x="1075" y="584" transform="matrix(0.866 -0.5 0.5 0.866 -149.2387 617.9601)" class="st0" width="6.9" height="6.9"/>
<rect x="1051.5" y="600.3" transform="matrix(0.866 -0.5 0.5 0.866 -160.531 608.369)" class="st0" width="6.9" height="6.9"/>
<rect x="1032.7" y="591.6" transform="matrix(0.866 -0.5 0.5 0.866 -158.7272 597.8315)" class="st0" width="6.9" height="6.9"/>
<rect x="1008.4" y="622.9" transform="matrix(0.866 -0.5 0.5 0.866 -177.5957 589.8408)" class="st0" width="6.9" height="6.9"/>
<rect x="978.5" y="626.8" transform="matrix(0.866 -0.5 0.5 0.866 -183.5627 575.4193)" class="st0" width="6.9" height="6.9"/>
<rect x="988.6" y="634.3" transform="matrix(0.866 -0.5 0.5 0.866 -185.943 581.4813)" class="st0" width="6.9" height="6.9"/>
<rect x="948.9" y="647.7" transform="matrix(0.866 -0.5 0.5 0.866 -198.0064 563.4416)" class="st0" width="6.9" height="6.9"/>
<rect x="930.7" y="659" transform="matrix(0.866 -0.5 0.5 0.866 -206.0685 555.8292)" class="st0" width="6.9" height="6.9"/>
<rect x="943.2" y="658.6" transform="matrix(0.866 -0.5 0.5 0.866 -204.1969 562.0383)" class="st0" width="6.9" height="6.9"/>
<rect x="961.3" y="670.2" transform="matrix(0.866 -0.5 0.5 0.866 -207.5572 572.6135)" class="st0" width="6.9" height="6.9"/>
<rect x="977" y="666.7" transform="matrix(0.866 -0.5 0.5 0.866 -203.7151 580.038)" class="st0" width="6.9" height="6.9"/>
<rect x="997.6" y="649.2" transform="matrix(0.866 -0.5 0.5 0.866 -192.2072 588.0001)" class="st0" width="6.9" height="6.9"/>
<rect x="1003.3" y="660.3" transform="matrix(0.866 -0.5 0.5 0.866 -197.0079 592.3247)" class="st0" width="6.9" height="6.9"/>
<rect x="1013.4" y="643.1" transform="matrix(0.866 -0.5 0.5 0.866 -187.0167 595.0626)" class="st0" width="6.9" height="6.9"/>
<rect x="1026.9" y="635.3" transform="matrix(0.866 -0.5 0.5 0.866 -181.3292 600.776)" class="st0" width="6.9" height="6.9"/>
<rect x="1046.3" y="627.6" transform="matrix(0.866 -0.5 0.5 0.866 -174.8908 609.4136)" class="st0" width="6.9" height="6.9"/>
<rect x="1056.8" y="618.1" transform="matrix(0.866 -0.5 0.5 0.866 -168.7427 613.4173)" class="st0" width="6.9" height="6.9"/>
<rect x="1061.1" y="630.2" transform="matrix(0.866 -0.5 0.5 0.866 -174.197 617.1887)" class="st0" width="6.9" height="6.9"/>
<rect x="1076.7" y="606.1" transform="matrix(0.866 -0.5 0.5 0.866 -160.0509 621.7719)" class="st0" width="6.9" height="6.9"/>
<rect x="1103.5" y="611.1" transform="matrix(0.866 -0.5 0.5 0.866 -158.9595 635.8404)" class="st0" width="6.9" height="6.9"/>
<rect x="1095.4" y="596.4" transform="matrix(0.866 -0.5 0.5 0.866 -152.6826 629.8089)" class="st0" width="6.9" height="6.9"/>
<rect x="1116.6" y="586.2" transform="matrix(0.866 -0.5 0.5 0.866 -144.7519 639.0128)" class="st0" width="6.9" height="6.9"/>
<rect x="1124.4" y="577.7" transform="matrix(0.866 -0.5 0.5 0.866 -139.4894 641.7895)" class="st0" width="6.9" height="6.9"/>
<rect x="1136" y="577.7" transform="matrix(0.866 -0.5 0.5 0.866 -137.9434 647.5873)" class="st0" width="6.9" height="6.9"/>
<rect x="1152.1" y="560.4" transform="matrix(0.866 -0.5 0.5 0.866 -127.1032 653.337)" class="st0" width="6.9" height="6.9"/>
<rect x="1160.1" y="574.3" transform="matrix(0.866 -0.5 0.5 0.866 -132.9969 659.1978)" class="st0" width="6.9" height="6.9"/>
<rect x="1187.6" y="566.1" transform="matrix(0.866 -0.5 0.5 0.866 -125.2104 671.8497)" class="st0" width="6.9" height="6.9"/>
<rect x="1194.6" y="577.7" transform="matrix(0.866 -0.5 0.5 0.866 -130.0713 676.8931)" class="st0" width="6.9" height="6.9"/>
<rect x="1170.6" y="589.5" transform="matrix(0.866 -0.5 0.5 0.866 -139.1857 666.4744)" class="st0" width="6.9" height="6.9"/>
<rect x="1173.1" y="574.9" transform="matrix(0.866 -0.5 0.5 0.866 -131.5589 665.7928)" class="st0" width="6.9" height="6.9"/>
<rect x="1178.2" y="601.9" transform="matrix(0.866 -0.5 0.5 0.866 -144.3363 671.9533)" class="st0" width="6.9" height="6.9"/>
<rect x="1203.4" y="589.5" transform="matrix(0.866 -0.5 0.5 0.866 -134.7673 682.881)" class="st0" width="6.9" height="6.9"/>
<rect x="1187" y="592.5" transform="matrix(0.866 -0.5 0.5 0.866 -138.4765 675.0797)" class="st0" width="6.9" height="6.9"/>
<rect x="1193.5" y="629.2" transform="matrix(0.866 -0.5 0.5 0.866 -155.9794 683.2639)" class="st0" width="6.9" height="6.9"/>
<rect x="1218" y="612.6" transform="matrix(0.866 -0.5 0.5 0.866 -144.3931 693.2773)" class="st0" width="6.9" height="6.9"/>
<rect x="1209.4" y="647.5" transform="matrix(0.866 -0.5 0.5 0.866 -162.9682 693.6744)" class="st0" width="6.9" height="6.9"/>
<rect x="1214.9" y="630.7" transform="matrix(0.866 -0.5 0.5 0.866 -153.8288 694.1338)" class="st0" width="6.9" height="6.9"/>
<rect x="1204.6" y="622.9" transform="matrix(0.866 -0.5 0.5 0.866 -151.3379 687.9648)" class="st0" width="6.9" height="6.9"/>
<rect x="1233.8" y="576.9" transform="matrix(0.866 -0.5 0.5 0.866 -124.4 696.408)" class="st0" width="6.9" height="6.9"/>
<rect x="1213.6" y="577.7" transform="matrix(0.866 -0.5 0.5 0.866 -127.5291 686.3923)" class="st0" width="6.9" height="6.9"/>
<rect x="1202" y="558.8" transform="matrix(0.866 -0.5 0.5 0.866 -119.6115 678.0852)" class="st0" width="6.9" height="6.9"/>
<rect x="1207.4" y="530.3" transform="matrix(0.866 -0.5 0.5 0.866 -104.6456 676.9625)" class="st0" width="6.9" height="6.9"/>
<rect x="1223.1" y="547.9" transform="matrix(0.866 -0.5 0.5 0.866 -111.3626 687.1743)" class="st0" width="6.9" height="6.9"/>
<rect x="1178.2" y="513.3" transform="matrix(0.866 -0.5 0.5 0.866 -100.08 660.074)" class="st0" width="6.9" height="6.9"/>
<rect x="1199.9" y="510.2" transform="matrix(0.866 -0.5 0.5 0.866 -95.5803 670.5)" class="st0" width="6.9" height="6.9"/>
<rect x="1184.5" y="521.5" transform="matrix(0.866 -0.5 0.5 0.866 -103.3115 664.3048)" class="st0" width="6.9" height="6.9"/>
<rect x="1253.4" y="504.7" transform="matrix(0.866 -0.5 0.5 0.866 -85.6984 696.5259)" class="st0" width="6.9" height="6.9"/>
<rect x="1246.1" y="478.6" transform="matrix(0.866 -0.5 0.5 0.866 -73.598 689.3727)" class="st0" width="6.9" height="6.9"/>
<rect x="1212.1" y="498.7" transform="matrix(0.866 -0.5 0.5 0.866 -88.2161 675.0759)" class="st0" width="6.9" height="6.9"/>
<rect x="1271" y="505.5" transform="matrix(0.866 -0.5 0.5 0.866 -83.7311 705.4144)" class="st0" width="6.9" height="6.9"/>
<rect x="1282.7" y="485.9" transform="matrix(0.866 -0.5 0.5 0.866 -72.3404 708.6533)" class="st0" width="6.9" height="6.9"/>
<rect x="1300.9" y="484.5" transform="matrix(0.866 -0.5 0.5 0.866 -69.2162 717.553)" class="st0" width="6.9" height="6.9"/>
<rect x="1294.9" y="450.2" transform="matrix(0.866 -0.5 0.5 0.866 -52.8604 709.9881)" class="st0" width="6.9" height="6.9"/>
<rect x="1342.5" y="461.8" transform="matrix(0.866 -0.5 0.5 0.866 -52.3108 735.3423)" class="st0" width="6.9" height="6.9"/>
<rect x="1350.1" y="447" transform="matrix(0.866 -0.5 0.5 0.866 -43.8852 737.1422)" class="st0" width="6.9" height="6.9"/>
<rect x="1367.6" y="442.8" transform="matrix(0.866 -0.5 0.5 0.866 -39.4406 745.3239)" class="st0" width="6.9" height="6.9"/>
<rect x="1355.3" y="415.4" transform="matrix(0.866 -0.5 0.5 0.866 -27.3714 735.4785)" class="st0" width="6.9" height="6.9"/>
<rect x="1377.9" y="430.4" transform="matrix(0.866 -0.5 0.5 0.866 -31.8353 748.7924)" class="st0" width="6.9" height="6.9"/>
<rect x="1476.3" y="465.8" transform="matrix(0.9946 -0.1042 0.1042 0.9946 -40.8402 156.7359)" class="st0" width="6.9" height="6.9"/>
<rect x="1429.6" y="401.3" transform="matrix(0.9946 -0.1042 0.1042 0.9946 -34.3738 151.525)" class="st0" width="6.9" height="6.9"/>
<rect x="1438.5" y="390.8" transform="matrix(0.9946 -0.1042 0.1042 0.9946 -33.2305 152.3859)" class="st0" width="6.9" height="6.9"/>
<rect x="1458" y="395.3" transform="matrix(0.9946 -0.1042 0.1042 0.9946 -33.5972 154.4514)" class="st0" width="6.9" height="6.9"/>
<rect x="1460.4" y="379.8" transform="matrix(0.9946 -0.1042 0.1042 0.9946 -31.9612 154.6113)" class="st0" width="6.9" height="6.9"/>
<rect x="1476.4" y="383.2" transform="matrix(0.9946 -0.1042 0.1042 0.9946 -32.2317 156.3011)" class="st0" width="6.9" height="6.9"/>
<rect x="1504.3" y="368" transform="matrix(0.9946 -0.1042 0.1042 0.9946 -30.4989 159.1203)" class="st0" width="6.9" height="6.9"/>
<rect x="1517.7" y="360.3" transform="matrix(0.9946 -0.1042 0.1042 0.9946 -29.6249 160.4737)" class="st0" width="6.9" height="6.9"/>
<rect x="1454.7" y="362.7" transform="matrix(0.9946 -0.1042 0.1042 0.9946 -30.2178 153.9271)" class="st0" width="6.9" height="6.9"/>
<rect x="1461.8" y="353.9" transform="matrix(0.9946 -0.1042 0.1042 0.9946 -29.2556 154.6209)" class="st0" width="6.9" height="6.9"/>
<rect x="1420.2" y="359.6" transform="matrix(0.9946 -0.1042 0.1042 0.9946 -30.0771 150.3152)" class="st0" width="6.9" height="6.9"/>
<rect x="1437.3" y="375.6" transform="matrix(0.9946 -0.1042 0.1042 0.9946 -31.6531 152.1826)" class="st0" width="6.9" height="6.9"/>
<rect x="1432" y="357.7" transform="matrix(0.9946 -0.1042 0.1042 0.9946 -29.8125 151.5326)" class="st0" width="6.9" height="6.9"/>
<rect x="1427.3" y="337.6" transform="matrix(0.9946 -0.1042 0.1042 0.9946 -27.7444 150.9369)" class="st0" width="6.9" height="6.9"/>
<rect x="1453.7" y="343.9" transform="matrix(0.9946 -0.1042 0.1042 0.9946 -28.2571 153.7181)" class="st0" width="6.9" height="6.9"/>
<rect x="1452.4" y="332" transform="matrix(0.9946 -0.1042 0.1042 0.9946 -27.0275 153.5223)" class="st0" width="6.9" height="6.9"/>
<rect x="1442.6" y="318.9" transform="matrix(0.9946 -0.1042 0.1042 0.9946 -25.7169 152.4258)" class="st0" width="6.9" height="6.9"/>
<rect x="1421.1" y="328.1" transform="matrix(0.9946 -0.1042 0.1042 0.9946 -26.7947 150.2398)" class="st0" width="6.9" height="6.9"/>
<rect x="1415.7" y="312.7" transform="matrix(0.9946 -0.1042 0.1042 0.9946 -25.2131 149.5896)" class="st0" width="6.9" height="6.9"/>
<rect x="1412.3" y="290.4" transform="matrix(0.9946 -0.1042 0.1042 0.9946 -22.9128 149.11)" class="st0" width="6.9" height="6.9"/>
<rect x="1439.2" y="291.6" transform="matrix(0.9946 -0.1042 0.1042 0.9946 -22.888 151.9191)" class="st0" width="6.9" height="6.9"/>
<rect x="1459.5" y="299.5" transform="matrix(0.9946 -0.1042 0.1042 0.9946 -23.5988 154.0831)" class="st0" width="6.9" height="6.9"/>
<rect x="1471.3" y="291.6" transform="matrix(0.9946 -0.1042 0.1042 0.9946 -22.7143 155.2732)" class="st0" width="6.9" height="6.9"/>
<rect x="1443.9" y="270.9" transform="matrix(0.9946 -0.1042 0.1042 0.9946 -20.7128 152.2974)" class="st0" width="6.9" height="6.9"/>
<rect x="1431" y="249.9" transform="matrix(0.9946 -0.1042 0.1042 0.9946 -18.5876 150.8389)" class="st0" width="6.9" height="6.9"/>
<rect x="1427.2" y="232.6" transform="matrix(0.9946 -0.1042 0.1042 0.9946 -16.8078 150.3561)" class="st0" width="6.9" height="6.9"/>
<rect x="1399" y="246.7" transform="matrix(0.9946 -0.1042 0.1042 0.9946 -18.4343 147.4882)" class="st0" width="6.9" height="6.9"/>
<rect x="1396" y="232" transform="matrix(0.9946 -0.1042 0.1042 0.9946 -16.9176 147.0941)" class="st0" width="6.9" height="6.9"/>
<rect x="1392.8" y="214.6" transform="matrix(0.9946 -0.1042 0.1042 0.9946 -15.1169 146.6671)" class="st0" width="6.9" height="6.9"/>
<rect x="1419" y="205.1" transform="matrix(0.9946 -0.1042 0.1042 0.9946 -13.988 149.3486)" class="st0" width="6.9" height="6.9"/>
<rect x="1483.5" y="478.3" transform="matrix(0.9946 -0.1042 0.1042 0.9946 -42.1071 157.5572)" class="st0" width="6.9" height="6.9"/>
<rect x="1490" y="491.3" transform="matrix(0.9946 -0.1042 0.1042 0.9946 -43.4246 158.3032)" class="st0" width="6.9" height="6.9"/>
<rect x="1453" y="487.5" transform="matrix(0.9946 -0.1042 0.1042 0.9946 -43.2318 154.4295)" class="st0" width="6.9" height="6.9"/>
<rect x="1490.5" y="503" transform="matrix(0.9946 -0.1042 0.1042 0.9946 -44.6429 158.4212)" class="st0" width="6.9" height="6.9"/>
<rect x="1508.6" y="485.9" transform="matrix(0.9946 -0.1042 0.1042 0.9946 -42.7554 160.212)" class="st0" width="6.9" height="6.9"/>
<rect x="1541.9" y="481.5" transform="matrix(0.9946 -0.1042 0.1042 0.9946 -42.1168 163.6591)" class="st0" width="6.9" height="6.9"/>
<rect x="1558.7" y="491" transform="matrix(0.9946 -0.1042 0.1042 0.9946 -43.014 165.4624)" class="st0" width="6.9" height="6.9"/>
<rect x="1562.2" y="470.7" transform="matrix(0.9946 -0.1042 0.1042 0.9946 -40.8854 165.7098)" class="st0" width="6.9" height="6.9"/>
<rect x="1448.6" y="536.9" transform="matrix(0.9946 -0.1042 0.1042 0.9946 -48.3959 154.2376)" class="st0" width="6.9" height="6.9"/>
<rect x="1490.4" y="534.4" transform="matrix(0.9946 -0.1042 0.1042 0.9946 -47.9067 158.5805)" class="st0" width="6.9" height="6.9"/>
<rect x="1467.8" y="566" transform="matrix(0.9946 -0.1042 0.1042 0.9946 -51.3295 156.3997)" class="st0" width="6.9" height="6.9"/>
<rect x="1500.4" y="564" transform="matrix(0.9946 -0.1042 0.1042 0.9946 -50.9352 159.7791)" class="st0" width="6.9" height="6.9"/>
<rect x="1511.4" y="585.1" transform="matrix(0.9946 -0.1042 0.1042 0.9946 -53.0737 161.0472)" class="st0" width="6.9" height="6.9"/>
<rect x="1475.8" y="584.5" transform="matrix(0.9946 -0.1042 0.1042 0.9946 -53.2135 157.3365)" class="st0" width="6.9" height="6.9"/>
<rect x="1507.7" y="598.2" transform="matrix(0.9946 -0.1042 0.1042 0.9946 -54.4629 160.7316)" class="st0" width="6.9" height="6.9"/>
<rect x="1478.7" y="616.3" transform="matrix(0.9946 -0.1042 0.1042 0.9946 -56.5052 157.8065)" class="st0" width="6.9" height="6.9"/>
<rect x="1509.1" y="629.8" transform="matrix(0.9946 -0.1042 0.1042 0.9946 -57.7536 161.0477)" class="st0" width="6.9" height="6.9"/>
<rect x="1510.4" y="642.2" transform="matrix(0.9946 -0.1042 0.1042 0.9946 -59.0293 161.2489)" class="st0" width="6.9" height="6.9"/>
<rect x="1485" y="694.4" transform="matrix(0.9946 -0.1042 0.1042 0.9946 -64.6067 158.89)" class="st0" width="6.9" height="6.9"/>
<rect x="1491.8" y="718.6" transform="matrix(0.9946 -0.1042 0.1042 0.9946 -67.0909 159.7296)" class="st0" width="6.9" height="6.9"/>
<rect x="1470.6" y="703.8" transform="matrix(0.9946 -0.1042 0.1042 0.9946 -65.6687 157.4363)" class="st0" width="6.9" height="6.9"/>
<rect x="1530.3" y="715.2" transform="matrix(0.9946 -0.1042 0.1042 0.9946 -66.5362 163.7199)" class="st0" width="6.9" height="6.9"/>
<rect x="1532.3" y="742" transform="matrix(0.9946 -0.1042 0.1042 0.9946 -69.3133 164.0747)" class="st0" width="6.9" height="6.9"/>
<rect x="1510.6" y="775.9" transform="matrix(0.9946 -0.1042 0.1042 0.9946 -72.9616 161.9967)" class="st0" width="6.9" height="6.9"/>
<rect x="1485.7" y="784.5" transform="matrix(0.9946 -0.1042 0.1042 0.9946 -73.9926 159.4538)" class="st0" width="6.9" height="6.9"/>
<rect x="1480.5" y="799.4" transform="matrix(0.9946 -0.1042 0.1042 0.9946 -75.5792 158.9891)" class="st0" width="6.9" height="6.9"/>
<rect x="1468.1" y="789.3" transform="matrix(0.9946 -0.1042 0.1042 0.9946 -74.5893 157.6416)" class="st0" width="6.9" height="6.9"/>
<rect x="1462.6" y="803.2" transform="matrix(0.9946 -0.1042 0.1042 0.9946 -76.0679 157.1445)" class="st0" width="6.9" height="6.9"/>
<rect x="1450.8" y="794.9" transform="matrix(0.9946 -0.1042 0.1042 0.9946 -75.2678 155.8693)" class="st0" width="6.9" height="6.9"/>
<rect x="1442.3" y="811.1" transform="matrix(0.9946 -0.1042 0.1042 0.9946 -77.0066 155.0711)" class="st0" width="6.9" height="6.9"/>
<rect x="1435.5" y="800.1" transform="matrix(0.9946 -0.1042 0.1042 0.9946 -75.8919 154.3071)" class="st0" width="6.9" height="6.9"/>
<rect x="1427.6" y="814.8" transform="matrix(0.9946 -0.1042 0.1042 0.9946 -77.4705 153.565)" class="st0" width="6.9" height="6.9"/>
<rect x="1413" y="806.9" transform="matrix(0.9946 -0.1042 0.1042 0.9946 -76.7299 151.9961)" class="st0" width="6.9" height="6.9"/>
<rect x="1417" y="819.2" transform="matrix(0.9946 -0.1042 0.1042 0.9946 -77.9816 152.482)" class="st0" width="6.9" height="6.9"/>
<rect x="1396.8" y="814.9" transform="matrix(0.9946 -0.1042 0.1042 0.9946 -77.6416 150.3528)" class="st0" width="6.9" height="6.9"/>
<rect x="1508" y="795.6" transform="matrix(0.9946 -0.1042 0.1042 0.9946 -75.0339 161.8385)" class="st0" width="6.9" height="6.9"/>
<rect x="1521.2" y="794.3" transform="matrix(0.9946 -0.1042 0.1042 0.9946 -74.8202 163.2065)" class="st0" width="6.9" height="6.9"/>
<rect x="1523.2" y="812.7" transform="matrix(0.9946 -0.1042 0.1042 0.9946 -76.7279 163.5129)" class="st0" width="6.9" height="6.9"/>
<rect x="1525.5" y="829.7" transform="matrix(0.9946 -0.1042 0.1042 0.9946 -78.4922 163.8406)" class="st0" width="6.9" height="6.9"/>
<rect x="1556.4" y="846.8" transform="matrix(0.9946 -0.1042 0.1042 0.9946 -80.1005 167.1522)" class="st0" width="6.9" height="6.9"/>
<rect x="1524.8" y="840.4" transform="matrix(0.9946 -0.1042 0.1042 0.9946 -79.6088 163.8275)" class="st0" width="6.9" height="6.9"/>
<rect x="1540.6" y="871.8" transform="matrix(0.9946 -0.1042 0.1042 0.9946 -82.7963 165.6479)" class="st0" width="6.9" height="6.9"/>
<rect x="1530.1" y="878.4" transform="matrix(0.9946 -0.1042 0.1042 0.9946 -83.5389 164.5887)" class="st0" width="6.9" height="6.9"/>
<rect x="1517.5" y="863.7" transform="matrix(0.9946 -0.1042 0.1042 0.9946 -82.0708 163.2009)" class="st0" width="6.9" height="6.9"/>
<rect x="1496.2" y="871.8" transform="matrix(0.9946 -0.1042 0.1042 0.9946 -83.0342 161.0244)" class="st0" width="6.9" height="6.9"/>
<rect x="1547.8" y="906.9" transform="matrix(0.9946 -0.1042 0.1042 0.9946 -86.412 166.5865)" class="st0" width="6.9" height="6.9"/>
<rect x="1525.5" y="915.2" transform="matrix(0.9946 -0.1042 0.1042 0.9946 -87.4011 164.3056)" class="st0" width="6.9" height="6.9"/>
<rect x="1491.4" y="921.1" transform="matrix(0.9946 -0.1042 0.1042 0.9946 -88.1951 160.7852)" class="st0" width="6.9" height="6.9"/>
<rect x="1503.1" y="921" transform="matrix(0.9946 -0.1042 0.1042 0.9946 -88.126 162.0087)" class="st0" width="6.9" height="6.9"/>
<rect x="1484.7" y="909" transform="matrix(0.9946 -0.1042 0.1042 0.9946 -86.9707 160.0267)" class="st0" width="6.9" height="6.9"/>
<rect x="1499.3" y="940.5" transform="matrix(0.9946 -0.1042 0.1042 0.9946 -90.1739 161.719)" class="st0" width="6.9" height="6.9"/>
<rect x="1514" y="935.7" transform="matrix(0.9946 -0.1042 0.1042 0.9946 -89.596 163.2218)" class="st0" width="6.9" height="6.9"/>
<rect x="1528.6" y="935.7" transform="matrix(0.9946 -0.1042 0.1042 0.9946 -89.5139 164.7453)" class="st0" width="6.9" height="6.9"/>
<rect x="1540.8" y="929.7" transform="matrix(0.9946 -0.1042 0.1042 0.9946 -88.8237 165.9828)" class="st0" width="6.9" height="6.9"/>
<rect x="1552.9" y="929.7" transform="matrix(0.9946 -0.1042 0.1042 0.9946 -88.762 167.2402)" class="st0" width="6.9" height="6.9"/>
<rect x="1541.9" y="920.7" transform="matrix(0.9946 -0.1042 0.1042 0.9946 -87.8844 166.0471)" class="st0" width="6.9" height="6.9"/>
<rect x="1521.7" y="925.9" transform="matrix(0.9946 -0.1042 0.1042 0.9946 -88.5363 163.972)" class="st0" width="6.9" height="6.9"/>
<rect x="1529.1" y="604.1" transform="matrix(0.9946 -0.1042 0.1042 0.9946 -54.961 162.9967)" class="st0" width="6.9" height="6.9"/>
<rect x="928.9" y="686.7" transform="matrix(0.866 -0.5 0.5 0.866 -220.1728 558.6642)" class="st0" width="6.9" height="6.9"/>
<rect x="917.6" y="693.2" transform="matrix(0.866 -0.5 0.5 0.866 -224.9282 553.8938)" class="st0" width="6.9" height="6.9"/>
<rect x="944.7" y="686.7" transform="matrix(0.866 -0.5 0.5 0.866 -218.064 566.5621)" class="st0" width="6.9" height="6.9"/>
<rect x="903" y="718.8" transform="matrix(0.866 -0.5 0.5 0.866 -239.7043 549.9989)" class="st0" width="6.9" height="6.9"/>
<rect x="928.2" y="705.5" transform="matrix(0.866 -0.5 0.5 0.866 -229.6684 560.806)" class="st0" width="6.9" height="6.9"/>
<rect x="893.1" y="707.4" transform="matrix(0.866 -0.5 0.5 0.866 -235.3144 543.5217)" class="st0" width="6.9" height="6.9"/>
<rect x="884.1" y="683" transform="matrix(0.866 -0.5 0.5 0.866 -224.3235 535.7647)" class="st0" width="6.9" height="6.9"/>
<rect x="859" y="724.4" transform="matrix(0.866 -0.5 0.5 0.866 -248.3962 528.746)" class="st0" width="6.9" height="6.9"/>
<rect x="872.3" y="722.5" transform="matrix(0.866 -0.5 0.5 0.866 -245.6299 535.1641)" class="st0" width="6.9" height="6.9"/>
<rect x="879.6" y="711.2" transform="matrix(0.866 -0.5 0.5 0.866 -239.0082 537.2874)" class="st0" width="6.9" height="6.9"/>
<rect x="876.2" y="732.5" transform="matrix(0.866 -0.5 0.5 0.866 -250.1452 538.435)" class="st0" width="6.9" height="6.9"/>
<rect x="840.3" y="737.3" transform="matrix(0.866 -0.5 0.5 0.866 -257.3295 521.1534)" class="st0" width="6.9" height="6.9"/>
<rect x="817.1" y="717" transform="matrix(0.866 -0.5 0.5 0.866 -250.283 506.8149)" class="st0" width="6.9" height="6.9"/>
<rect x="818.7" y="748.8" transform="matrix(0.866 -0.5 0.5 0.866 -266.0031 511.8801)" class="st0" width="6.9" height="6.9"/>
<rect x="787.2" y="760.7" transform="matrix(0.866 -0.5 0.5 0.866 -276.1706 497.7119)" class="st0" width="6.9" height="6.9"/>
<rect x="786.9" y="741.4" transform="matrix(0.866 -0.5 0.5 0.866 -266.5443 494.9582)" class="st0" width="6.9" height="6.9"/>
<rect x="793.7" y="731.9" transform="matrix(0.866 -0.5 0.5 0.866 -260.899 497.1212)" class="st0" width="6.9" height="6.9"/>
<rect x="807" y="728.6" transform="matrix(0.866 -0.5 0.5 0.866 -257.432 503.3024)" class="st0" width="6.9" height="6.9"/>
<rect x="777.8" y="766.8" transform="matrix(0.866 -0.5 0.5 0.866 -280.4766 493.8391)" class="st0" width="6.9" height="6.9"/>
<rect x="784.2" y="778" transform="matrix(0.866 -0.5 0.5 0.866 -285.1902 498.533)" class="st0" width="6.9" height="6.9"/>
<rect x="769.4" y="744.6" transform="matrix(0.866 -0.5 0.5 0.866 -270.4912 486.6392)" class="st0" width="6.9" height="6.9"/>
<rect x="771.2" y="730.5" transform="matrix(0.866 -0.5 0.5 0.866 -263.2124 485.6733)" class="st0" width="6.9" height="6.9"/>
<rect x="752.2" y="756" transform="matrix(0.866 -0.5 0.5 0.866 -278.494 479.5773)" class="st0" width="6.9" height="6.9"/>
<rect x="745.8" y="739" transform="matrix(0.866 -0.5 0.5 0.866 -270.839 474.1028)" class="st0" width="6.9" height="6.9"/>
<rect x="727" y="768.3" transform="matrix(0.866 -0.5 0.5 0.866 -288.0299 468.6362)" class="st0" width="6.9" height="6.9"/>
<rect x="747.5" y="784.3" transform="matrix(0.866 -0.5 0.5 0.866 -293.2583 481.0232)" class="st0" width="6.9" height="6.9"/>
<rect x="724.5" y="799.2" transform="matrix(0.866 -0.5 0.5 0.866 -303.7869 471.507)" class="st0" width="6.9" height="6.9"/>
<rect x="698.3" y="788" transform="matrix(0.866 -0.5 0.5 0.866 -301.7325 456.9369)" class="st0" width="6.9" height="6.9"/>
<rect x="706.6" y="807.3" transform="matrix(0.866 -0.5 0.5 0.866 -310.2572 463.6677)" class="st0" width="6.9" height="6.9"/>
<rect x="682.5" y="798.3" transform="matrix(0.866 -0.5 0.5 0.866 -308.9989 450.4083)" class="st0" width="6.9" height="6.9"/>
<rect x="692.4" y="815.5" transform="matrix(0.866 -0.5 0.5 0.866 -316.2578 457.665)" class="st0" width="6.9" height="6.9"/>
<rect x="703.9" y="819.8" transform="matrix(0.866 -0.5 0.5 0.866 -316.863 463.9766)" class="st0" width="6.9" height="6.9"/>
<rect x="679.7" y="822.8" transform="matrix(0.866 -0.5 0.5 0.866 -321.5993 452.3053)" class="st0" width="6.9" height="6.9"/>
<rect x="673.6" y="836.7" transform="matrix(0.866 -0.5 0.5 0.866 -329.3972 451.0917)" class="st0" width="6.9" height="6.9"/>
<rect x="659.9" y="834.9" transform="matrix(0.866 -0.5 0.5 0.866 -330.3059 443.9939)" class="st0" width="6.9" height="6.9"/>
<rect x="658.6" y="812.1" transform="matrix(0.866 -0.5 0.5 0.866 -319.0885 440.3031)" class="st0" width="6.9" height="6.9"/>
<rect x="665.5" y="801.1" transform="matrix(0.866 -0.5 0.5 0.866 -312.6555 442.2815)" class="st0" width="6.9" height="6.9"/>
<rect x="663.7" y="778.6" transform="matrix(0.866 -0.5 0.5 0.866 -301.6216 438.3733)" class="st0" width="6.9" height="6.9"/>
<rect x="641.6" y="822.8" transform="matrix(0.866 -0.5 0.5 0.866 -326.7203 433.2508)" class="st0" width="6.9" height="6.9"/>
<rect x="631.8" y="832" transform="matrix(0.866 -0.5 0.5 0.866 -332.6476 429.5629)" class="st0" width="6.9" height="6.9"/>
<rect x="637.8" y="848.5" transform="matrix(0.866 -0.5 0.5 0.866 -340.0938 434.7738)" class="st0" width="6.9" height="6.9"/>
<rect x="627.1" y="856.8" transform="matrix(0.866 -0.5 0.5 0.866 -345.6332 430.5478)" class="st0" width="6.9" height="6.9"/>
<rect x="609.6" y="865.3" transform="matrix(0.866 -0.5 0.5 0.866 -352.2282 422.9366)" class="st0" width="6.9" height="6.9"/>
<rect x="654" y="857.6" transform="matrix(0.866 -0.5 0.5 0.866 -342.4677 444.1169)" class="st0" width="6.9" height="6.9"/>
<rect x="580" y="854" transform="matrix(0.866 -0.5 0.5 0.866 -350.5781 406.6147)" class="st0" width="6.9" height="6.9"/>
<rect x="591.4" y="855.4" transform="matrix(0.866 -0.5 0.5 0.866 -349.7228 412.4993)" class="st0" width="6.9" height="6.9"/>
<rect x="581.6" y="883" transform="matrix(0.866 -0.5 0.5 0.866 -364.8719 411.3051)" class="st0" width="6.9" height="6.9"/>
<rect x="588.2" y="893.2" transform="matrix(0.866 -0.5 0.5 0.866 -369.0549 415.9895)" class="st0" width="6.9" height="6.9"/>
<rect x="562.6" y="874.9" transform="matrix(0.866 -0.5 0.5 0.866 -363.3639 400.7116)" class="st0" width="6.9" height="6.9"/>
<rect x="561.9" y="897.2" transform="matrix(0.866 -0.5 0.5 0.866 -374.5951 403.3264)" class="st0" width="6.9" height="6.9"/>
<rect x="548.7" y="879.2" transform="matrix(0.866 -0.5 0.5 0.866 -367.3581 394.3605)" class="st0" width="6.9" height="6.9"/>
<rect x="576.9" y="905.9" transform="matrix(0.866 -0.5 0.5 0.866 -376.9053 412.027)" class="st0" width="6.9" height="6.9"/>
<rect x="846.4" y="707" transform="matrix(0.866 -0.5 0.5 0.866 -241.3546 520.1436)" class="st0" width="6.9" height="6.9"/>
<rect x="841.8" y="686.1" transform="matrix(0.866 -0.5 0.5 0.866 -231.5366 515.0059)" class="st0" width="6.9" height="6.9"/>
</svg>
