<?xml version="1.0" encoding="utf-8"?>
<!-- Generator: Adobe Illustrator 22.0.0, SVG Export Plug-In . SVG Version: 6.00 Build 0)  -->
<svg version="1.1" id="floods2" xmlns="http://www.w3.org/2000/svg" xmlns:xlink="http://www.w3.org/1999/xlink" x="0px" y="0px"
	 width="5760px" height="3240px" viewBox="0 0 5760 3240" style="enable-background:new 0 0 5760 3240;" xml:space="preserve">
<style type="text/css">
	.st0{opacity:0.5;fill:url(#SVGID_1_);}
	.st1{opacity:0.5;fill:url(#SVGID_2_);}
	.st2{opacity:0.5;fill:url(#SVGID_3_);}
	.st3{opacity:0.5;fill:url(#SVGID_4_);}
	.st4{opacity:0.5;fill:url(#SVGID_5_);}
	.st5{opacity:0.5;fill:url(#SVGID_6_);}
	.st6{opacity:0.5;fill:url(#SVGID_7_);}
	.st7{opacity:0.5;fill:url(#SVGID_8_);}
	.st8{opacity:0.5;fill:url(#SVGID_9_);}
	.st9{opacity:0.5;fill:url(#SVGID_10_);}
	.st10{opacity:0.5;fill:url(#SVGID_11_);}
	.st11{opacity:0.5;fill:url(#SVGID_12_);}
	.st12{opacity:0.5;fill:url(#SVGID_13_);}
</style>
<radialGradient id="SVGID_1_" cx="902.8962" cy="2413.7798" r="544.2629" gradientUnits="userSpaceOnUse">
	<stop  offset="0" style="stop-color:#CDDAF1"/>
	<stop  offset="0.5" style="stop-color:#B1C7E9"/>
	<stop  offset="0.5094" style="stop-color:#B0C7E9"/>
	<stop  offset="1" style="stop-color:#99B7E2"/>
</radialGradient>
<path class="st0" d="M1476.7,2179.5c-33.2-17.5-33-51.2-53.6-53.6c-17.6-2.1-22.3,21.7-64.7,41c-9.1,4.2-19.9,9-34.7,11
	c-32.3,4.5-58.3-7.9-71-14.2c-15.6-7.7-62.1-30.6-66.3-67.8c-2-17.6,7.7-19.1,9.5-52.1c1-19.1,1.8-38.4-11-53.6
	c-1.4-1.6-16.4-19.5-30-15.8c-17.7,4.8-8.9,39.6-37.9,71c-9.1,9.9-13,9.7-25.2,23.7c-10.9,12.4-20.4,26.9-25.2,37.9
	c-18.7,42,31.5,92.4-1.6,97.8c-51.3,8.4-79.9,59.8-74.2,89.9c3.9,20.2,13,23.1,11,36.3c-2.6,17.1-21.4,34.6-39.4,34.7
	c-33.3,0.3-57.2-58.8-61.5-69.4c-4.4-10.8-5.6-17.4-14.2-37.9c-7.6-18.1-12.1-28.8-20.5-41c-12.7-18.4-21.4-31.1-34.7-33.1
	c-13.6-2.1-28,11.8-56.8,39.4c-21.2,20.4-31.9,30.8-37.9,45.8c-9,22.6-1.5,32.3-11,41c-13.6,12.4-31.8-4.3-67.8,4.7
	c-4.5,1.1-36.9,9.6-39.4,26.8c-1.5,10.5,9.1,16.6,6.3,22.1c-5.7,11.1-50.3-13-67.8,3.2c-8.9,8.2-1.8,18.6-4.7,66.3
	c-2.3,38.2-7.9,49.7-11,55.2c-10.1,17.9-24.9,27.4-31.6,31.6c-19.5,12.2-32.5,11.4-58.4,17.4c-25.6,5.9-78.8,18.2-108.9,56.8
	c-9.6,12.3-6.5,14.1-18.9,30c-25.7,32.8-43.9,31.9-50.5,48.9c-5.6,14.4,3,26.8,47.3,93.1c44,65.8,51.5,77.4,71,83.6
	c26.6,8.5,53.3,0,63.1-3.2c20.8-6.7,34-17.2,52.1-31.6c22.5-17.9,36.6-35.5,44.2-45.8c11.4-15.5,17-23.3,18.9-31.6
	c8.5-37.5-34-68.9-25.2-80.5c4.1-5.5,16.5-2.3,61.5,11c58.1,17.1,77.8,23.7,82,17.4c3.3-5-5.5-14.5-25.2-58.4
	c-5.1-11.4-7-16.3-4.7-20.5c5.9-10.9,34.9-9,56.8-1.6c37.6,12.7,55.9,42,64.7,36.3c5.1-3.3-1.1-12.9,4.7-26.8
	c6.6-15.8,22.9-23,31.6-26.8c23.6-10.4,69.8,5,63.1-41c-2-13.9,12-22.9,17.4-18.9c72.6,53.2,32.3-24.7,52.1-56.8
	c5.6-9.1,9.7-15.8,17.4-23.7c20.6-21.2,37.5-20.6,64.7-36.3c21.2-12.2,14.7-14.8,52.1-44.2c31.6-24.9,47.4-37.3,63.1-39.4
	c16.9-2.3,38.8,7.4,82,26.8c37.2,16.7,53.7,27.3,61.5,20.5c6.9-6,2.7-21.6,0-31.6c-10-37-34.3-43.5-33.1-66.3
	c0.8-15.4,12.7-29.3,25.2-34.7c14.1-6.1,28.6-1.2,52.1,9.5c49.9,22.8,101,92,114.6,80.9c17.5-14.2,65.2-40.2,83.8-51.2
	c7.6-4.5-0.5-67.7-15.5-74.7"/>
<radialGradient id="SVGID_2_" cx="1712.7915" cy="1984.2321" r="274.0731" gradientUnits="userSpaceOnUse">
	<stop  offset="0" style="stop-color:#CDDAF1"/>
	<stop  offset="0.5" style="stop-color:#B1C7E9"/>
	<stop  offset="0.5094" style="stop-color:#B0C7E9"/>
	<stop  offset="1" style="stop-color:#99B7E2"/>
</radialGradient>
<path class="st1" d="M1541,2176.2c0.5-16.9,10.7-19.1,16.5-43.5c1.7-7.2,6.5-27.2,0-48c-7.9-25.5-24.2-25-39-55.5
	c-11.5-23.8-3.2-27.3-13.5-43.5c-16.5-25.9-38.2-17.7-64.5-45c-20.7-21.5-26.6-46.8-28.5-55.5c-4.2-18.8-2.3-32.5,1.5-60
	c6.1-44.5,9.2-66.7,25.5-76.5c16.1-9.6,42.9-7.7,57,6c13.4,13.1,12.3,33.9,30,82.5c1.6,4.4,4.6,12.2,10.5,13.5
	c8,1.7,11.7-10.5,27-19.5c19.3-11.4,34-4.1,40.5-15c5.4-9-1.8-19,3-22.5c4.4-3.2,13.8,2.8,31.5,15c38.2,26.4,43.5,32.3,58.5,37.5
	c12.8,4.4,12.4,1.2,34.5,6c4.9,1.1,32.1,7.1,57,19.5c45.9,22.9,42.4,46.7,75,54c15.2,3.4,11.7-2.7,55.5-3c46-0.3,59.5,6.5,67.5,12
	c4.8,3.3,17.1,12.2,22.5,28.5c8.4,25.5,7.7,33.1,5.9,35.6c-3.1,4.5-24.3,9.6-69,29.2c-37.8,16.6-40.2,18.5-58.2,26.5
	c-20,8.9-33.4,16.5-50.6,29.5c-23.8,18-28.2,19.5-54,42c-21.6,18.8-24,22.3-37.2,33.3c-14.3,12-17.5,8.4-53.4,13.9
	c-43.8,6.8-65.7,10.1-84,24c-19.6,14.8-20.8,28.6-33,28.5C1558.8,2225.6,1540.3,2199.6,1541,2176.2z"/>
<radialGradient id="SVGID_3_" cx="2782.8584" cy="1486.991" r="582.6996" gradientUnits="userSpaceOnUse">
	<stop  offset="0" style="stop-color:#CDDAF1"/>
	<stop  offset="0.5" style="stop-color:#B1C7E9"/>
	<stop  offset="0.5094" style="stop-color:#B0C7E9"/>
	<stop  offset="1" style="stop-color:#99B7E2"/>
</radialGradient>
<path class="st2" d="M2117.6,1862.7c33.4-36.1,70.9-61.2,78-66c16-10.8,50.7-45.2,120-114c37.6-37.3,39.2-40.2,69-69
	c38.4-37.1,69.2-64.6,81-75c112-99,147.2-109.9,162-162c8.3-29.3-1.5-30.4,9-63c21.4-66.3,84.7-88,98.9-97.7
	c36.1-24.5,41.1-21,78-46c58.5-39.6,101.2-72.4,132-77.5c48.2-8.1,65.6,52.9,69.2,122.2c2.6,51-32.2,86.4-18,99
	c13.1,11.6,52.6-10.1,72-24c15.4-11.1,24.6-21.8,39-39c37.5-44.7,36.4-60.9,60-75c17.6-10.5,22.3-3.9,63-12
	c39.6-7.9,75.9-15.1,102-39c40.4-36.9,27.9-87.3,54-93c19.8-4.3,43.5,21.2,54,42c20.8,41.4,41.5,158.7,18.7,170.8
	c-21.7,11.6-36.2,18.6-98.3,70.5c-16.7,14-29,26.4-52.1,43.8c-19.2,14.4-44.3,34.3-95.6,51.7c-75.5,25.7-103,59.5-130.2,75.8
	c-64.5,38.7-100.9-4.7-155.6,25.4c-58.1,32-76.7,23.7-150,51c-81.8,30.5-59,68.1-172.7,113.5c-115.6,46.1-124.3,56.7-193.6,104.4
	c-35.2,24.2-89.9,59.5-98.2,63.9c-67.1,35.6-71.7,37.6-110.4,60.9c-24.2,14.5-75.9,50.8-97.1,32.4c-10.6-9.2-9.3-28.8-9-33
	C2097.9,1884.7,2110,1870.9,2117.6,1862.7z"/>
<radialGradient id="SVGID_4_" cx="635.1461" cy="3212.7173" r="217.5842" gradientTransform="matrix(0.9393 0.343 -0.343 0.9393 1153.7084 -22.8911)" gradientUnits="userSpaceOnUse">
	<stop  offset="0" style="stop-color:#CDDAF1"/>
	<stop  offset="0.5" style="stop-color:#B1C7E9"/>
	<stop  offset="0.5094" style="stop-color:#B0C7E9"/>
	<stop  offset="1" style="stop-color:#99B7E2"/>
</radialGradient>
<path class="st3" d="M417.8,3185.3c34,2.4,60.1-1.6,77.7-5.7c23.2-5.4,21.5-8.7,47.9-14.5c20.1-4.4,32.1-4.8,42.8-15.2
	c2.4-2.3,4.8-8.9,2.6-20.9c-2.7-14.9-3.4-19-9.9-55.2c-2.8-15.3-8.9-40.7-8.7-49.6c0.3-10.8,5.6-15.3,14-20.3
	c6.8-4,14-7.8,18.6-11.9c4-3.6,5.4,17,10.7,27.4c23.7,46.5,45.8,47.7,50.6,80.2c2.2,14.8-1.5,20.8,3.7,24.8
	c9.3,7.1,26.6-7.6,68.5-15.5c8.6-1.6,12.9-2.4,17.8-2c28.4,2.1,79.9,10.2,87.7,19.3c5.4,6.2-15.9,24.2-11.3,51.2
	c0.3,1.8,3.5,19.4,13.3,21.9c5.2,1.3,7.8-2.7,17.9-5.2c3.4-0.8,16.9-4.2,25.3,0.7c10.8,6.3,14.4,27.3,8,42.3
	c-7.2,16.8-26,23.6-63.4,36.5c-34.1,11.8-37.7,7.9-48.9,17.3c-15.2,12.7-13.2,23.8-34.2,47.1c-12.1,13.4-21.8,24.1-30.4,21.9
	c-15.7-3.9-6.6-45.6-27.5-55.8c-14.8-7.2-37.1,5.1-59.7,17.6c-6.2,3.4-13.8,7.7-22.6,15.2c-19.6,16.7-17,25.7-29.4,34
	c-23.4,15.6-57.6,0.8-65.1-2.5c-11.5-5-24.6-10.7-28.8-23.3c-5-15.3,6.3-31.4,12.5-40.1c21.2-30,48.2-32.2,47.8-46.4
	c-0.2-9.8-13.3-20.1-25.9-22.2c-26.1-4.4-36.8,27.9-67.5,27.5c-17.9-0.2-35.2-11.4-44.8-25.9c-10.9-16.5-9.6-33.9-9-39.5"/>
<radialGradient id="SVGID_5_" cx="3102.1689" cy="2283.1917" r="862.2437" gradientUnits="userSpaceOnUse">
	<stop  offset="0" style="stop-color:#CDDAF1"/>
	<stop  offset="0.5" style="stop-color:#B1C7E9"/>
	<stop  offset="0.5094" style="stop-color:#B0C7E9"/>
	<stop  offset="1" style="stop-color:#99B7E2"/>
</radialGradient>
<path class="st4" d="M3961.4,2276.6c2.4-15.8,7.8-28.9,11.3-37.3c9.6-23,16.7-28,16-40c-0.7-11.4-7.9-19-20.7-32
	c-24.4-24.9-38.4-24.4-60-48c-12.1-13.2-19.1-20.9-19-32c0.1-9.1,4.9-13,30-47c13.7-18.6,16.7-23.4,19-31c4.6-15-0.7-17.1,3-33
	c3.6-15.7,9.2-15.9,22-44c3-6.6,5.3-12.8,10-25c11.3-29.8,10.8-33.8,10.3-36c-3.1-14-20.6-24.4-36-26.7c-19.3-2.8-28.4,8.3-62,24
	c-26.9,12.6-65.6,30.6-78.7,18c-8.9-8.6-4.7-30.2,4.7-43.3c5.9-8.3,12.4-10.9,32-20c62.3-28.7,56.6-29.4,74.7-34.7
	c26.3-7.7,34.9-5.3,40-14c8.3-14.4-2.4-42.6-21-53.8c-12.7-7.7-22.9-3.5-26-10.5c-5.3-11.7,18-34.9,25-42
	c12.4-12.4,20.1-15.9,19-20.5c-1.6-6.5-19.7-10.8-36-7.5c-22.1,4.5-27.5,20.2-57.5,28.5c-10.5,2.9-15.4,2.5-17.5,0
	c-5.1-6.3,10-22.1,5.5-27.5c-4-4.8-22.1,0.4-36,11.5c-14.2,11.3-12.1,19.3-27.5,37c-10.5,12-24.2,27.7-40.5,25.5
	c-10.7-1.5-22-10.6-23.5-21c-0.9-6.3,2.2-9.6,27-44.5c12.3-17.3,7.7-11.1,12-17c14.6-20.3,19.2-24.9,18-26.5
	c-3.1-3.9-38.3,16.3-52.5,24.5c-17.1,9.8-23.9,14.7-32,12c-9.3-3.1-16.2-14.8-15-25c0.8-7.1,5.6-13.5,22.5-24
	c19.4-12,33.5-16.3,51-23c45.7-17.5,38.6-22.4,69-31c19.7-5.6,31-5.9,40.5-17c9.4-11,4.1-17.4,13.5-29c13-16.1,33.1-5.6,46.7-22.5
	c5.5-6.8,25.3-18,21.3-23.3c-7.5-9.6-58.4,17-90,40.8c-17.1,12.8-78.1,46.9-86,51.8c-23.6,14.5-43.9,7.8-59.5,6.3
	c-15.9-1.5-29.5-6.5-56.5-16.5c-13-4.8-19.6-8-26.5-13.5c-12.3-9.9-12.5-16.9-21.5-25.5c-15.1-14.4-43.1-21.9-52.7-12.7
	c-11.4,10.9,11.2,37.5-1.3,72c-4.3,11.9-13,14.4-11.3,20c3.8,12.5,41.1,0.5,69.3,18.7c13.5,8.7,17,19.3,34,62
	c36.3,91,42.7,98.4,36,110c-14.1,24.5-64.9,29.7-100,18c-26.8-8.9-34.6-24.4-50-20c-14.8,4.2-22.7,24.9-38,66
	c-15.2,40.8-13.4,49.8-26,60c-10.4,8.3-14.9,5-52,18c-40.4,14.2-43.3,21.1-44,24c-2.9,11.4,11.9,17,26,40c20.3,33.2,18,68.2,16,98
	c-1.2,18.6-2,28-8,32c-17,11.4-60.5-16.3-82-50c-5.4-8.4-18.6-29.8-16-56c1.6-15.8,7.2-16,6-24c-5.3-34.1-107.4-26.9-126-76
	c-2.3-6.1,0-4.3-4-22c-5.7-25.3-14-45.4-24-66c-18.8-38.9-37.1-76.6-46-74c-7.7,2.3-8.6,34.9,0,64c15.1,51.2,53.9,71.8,46,88
	c-7.7,15.9-53.9,33.1-88-34c-1.1-2.2-14.3-28.3-34-62c-15.8-27-21-33.6-28-34c-16-0.8-39.6,31.1-38,62c0.6,11.7,5.1,27.8,84,110
	c23.2,24.2,33.3,33.7,34,50c1.4,32.9-37.3,57.7-44,62c-23.3,14.9-65.7,29.8-98,12c-34.6-19.1-75.1-91.2-86-88.6
	c-7.7,1.8,33.8,49,20,62.6c-19.6,19.3-104.9-56.8-149.5-51.3c-6.1,0.8,22,81,12,102.5c-22.7,48.9,1.4,72.1,1.5,76.8
	c0.3,15.6,13.5,39.1,40,86c6.4,11.3,10.2,17.5,12,28c3.8,22.4-7.6,31.6-14,60c-8.9,39.6,5.2,56.9-8,68c-10.6,8.9-31.2,7.3-44-2
	c-24-17.5-3.4-49.6-24-80c-15.1-22.2-48.7-31.5-116-50c-29.2-8.1-49.2-11.5-54-26c-4.9-14.8,11.8-23.4,10-48
	c-1.5-20.9-15.1-37.6-22-46c-15.1-18.5-24.5-18.1-26-28c-2.3-14.9,17.9-21.8,42-50c31.1-36.4,46.9-47.3,50-59.3
	c4.7-18.3-22.6-15.9-24.3-9.7c-4.4,15.7-19.7,15.8-75.7,39c-33.4,13.8-36.2,28.1-60,28c-25.2-0.1-46.1-16.2-64-30
	c-16.6-12.8-18.9-18.9-44-42c-15.5-14.2-40-72.6-49.1-79.6c-35.5,20.2-22.6,13.3-55.4,31.4c-1.1,0.6,46.2,61.8,57.1,91.5
	c10.8,29.3,10.6,35.9,19.3,42.7c16,12.5,33.6,1.6,40,12c6.6,10.7-4.3,34.8-20.7,46c-8.7,5.9-14.4,5.1-16.7,10.7
	c-4.5,11.1,10.6,32.8,25.3,33.3c11.9,0.5,18.5-13,25.3-10c5,2.2,5.5,10.9,6,22.7c0.7,15.9,1.4,31.8-7.3,48.7
	c-7.2,13.8-14,15.4-13.3,24c0.8,9.4,14.8,43.7,13.3,52c-2,10.8,4.8,20.5,6.7,23.3c23.3,35.8,10.4,135.7,53.3,155.3
	c11.9,5.5,12.8-2.3,52.5,3.5c21.1,3.1,32.6,4.9,46,12.5c7.4,4.2,27.8,15.8,36,38c4.8,13,1.5,19.1,9,38c5,12.4,8,20,14.5,22
	c14.1,4.3,27.1-22.6,40.5-18.5c8.5,2.6,13.9,16.6,12.5,28c-3,23.4-34.4,30.3-32,41c2.1,9.6,30.1,14.9,53,8.5
	c18.6-5.2,31.5-17.4,36-22c13.4-13.7,14.4-24.4,30.5-34.5c7.7-4.8,14.5-6.8,18.5-8c18.7-5.4,33.1-2.1,51,0.5c39.6,5.7,64.6,9.3,75-3
	c9.5-11.2,1.4-28.9,7-31c9.4-3.6,24,48.5,56,54c22.6,3.9,50.6-16.1,60-39c8.5-20.8-1.2-36.9,7-42c13.1-8,37.3,32.7,72,29
	c16.5-1.8,33.1-13.4,38-28c3.2-9.6-0.8-20.9-9-43c-9.3-25.1-16.7-34.7-19-56c-1-9.3-2.1-20.1,3-23c7.2-4.1,25.2,7.9,33,24
	c4.6,9.4,3.4,15.6,3,40c-0.9,52,3.7,57.5,7,60c9,6.8,26,4.1,35-4c9.3-8.3,5.6-18.2,18-37c4-6.1,10.8-16.3,16-15
	c5.8,1.4,8.3,16.7,7,29c-2.3,22.3-16.3,31.2-12,38c4.2,6.6,22.6,6,33-3c1.7-1.5,5.6-5.2,11-24c7.3-25.4,4.5-33,12-40
	c6.7-6.2,18.8-9.3,27-5c9.3,4.9,8.1,16.3,17,46c7,23.4,11.3,37.1,20,39c12.6,2.8,26.1-20.5,30-18c4.8,3.1-21.6,35.9-11,62
	c5.2,12.7,18.6,22.7,26,20c9.7-3.6,1.8-26.6,15-37c12.1-9.6,38.3-5.5,47,8c10.2,15.9-9.7,35.2,1,53c7.1,11.9,22.8,14.6,31,16
	c14.8,2.6,24.6-0.9,75-16c19.7-5.9,29.8-8.8,38-6c15,5.1,28.2,22.3,26,37c-2.8,18.5-29.6,29.2-49,37c-21.7,8.7-31.8,7.1-40,18
	c-8.9,11.8-2,20.2-10,32c-10.7,15.8-37.1,21.3-57,16c-20.5-5.5-21.5-19-46-36c-23.5-16.3-46.4-20.4-66-24c-49.9-9-85.6,3.3-93,6
	c-11.1,4-35.2,12.8-36,26.3c-0.5,7.6,6.9,10.3,18.7,31.3c7.4,13.2,11,19.9,9.3,27.3c-2.8,12.4-16.8,12.9-17.3,22
	c-0.7,12,23,23.4,37.3,28c7.5,2.4,8.4,1.6,24,4.7c28.1,5.5,43,8.4,44,14.7c1.1,6.6-13.8,16.3-28,20c-19.7,5.1-27.3-4-45.3,0.7
	c-14.6,3.8-32.2,15.6-32,27.3c0.3,16,33.9,36,62,33.3c8.2-0.8,15-3.4,22.7,0.7c3.9,2.1,5.6,4.6,18.7,23.3c8.1,11.6,9,12.8,11.3,14.7
	c10.5,8.1,23.4,7,23.3,8c-0.1,1.4-28.1-5.4-46.7,8.7c-1.7,1.3-14,10.6-13.3,22c1.1,18.8,37.4,35.9,69.3,36.7c21.2,0.5,25.6-6.6,58-6
	c29.7,0.6,37,6.7,40,11.3c1.1,1.7,1.5,3,10.7,20.7c2.4,4.6,3.6,6.9,4,7.3c10.7,10.9,48.8-9.9,60-16c20.7-11.3,38.4-20.9,54-42
	c4-5.3,13.4-18.9,19.3-38.7c5.8-19,5.4-34.1,5.3-45.3c-0.3-48.5,4.8-99.4,9.8-99.8c5.6-0.4,1.8,61.9,34.8,79.1
	c13.9,7.2,33.8,6.2,46-3.3c17.3-13.5,5.4-33.2,21.3-51.3c19.7-22.4,49.7-5.8,68.7-28.7c6.2-7.4,3.1-9.3,12.7-49.3
	c5.9-24.6,8.5-30,15.3-60c5.1-22.5,7.9-38.1,0.7-54.7c-2.6-6.1-4-9.1-6.7-11.3c-20.1-16.7-60.9,31.1-118,24.7c-8.7-1-35.6-4-44-21.3
	c-12.5-25.7,23.6-66.6,36.7-81.3c25.6-28.9,31.3-20.7,61.3-52c27.9-29.1,51-65.5,59.3-78.7c8.1-12.8,17.5-24.8,26-37.3
	c11-16.2,15.9-24.1,26.7-30c5.5-3,19.5-10.6,30-5.3c17,8.6,5.3,41,25.3,55.3c8.6,6.2,21.6,7.9,29.3,2.7c10.1-6.8,9.6-24.5,9.3-35.3
	c-0.5-20.1-7.4-28.6-2-34.7c3.7-4.1,10.3-3.9,23.3-3.3c17.8,0.7,23.1,5,29.3,1.3c7.7-4.6,8.4-16.5,8.7-20.7
	c1.1-17.6-8.9-23.7-16.7-44.7C3956.8,2308.6,3960.2,2284.3,3961.4,2276.6z M3769,2286.3c-16.8,7-23.8-3.1-38,4
	c-17.8,8.8-12.7,27.5-33,60c-9.1,14.6-21.8,34.9-45,45c-20.9,9.1-37.6,4.5-40,12c-3.7,11.4,33.8,24.6,32,44
	c-1.1,12.4-17.9,23.2-33,24c-23,1.2-37-21.3-38-23c-11.1-18.6-2.8-35.1-11-39c-8.7-4.1-27.7,10.1-35,28c-1.9,4.6-2.6,8.6-3,32
	c-0.6,38.2,1.2,44-4,51c-8.2,11-26.5,15.5-40,11c-24.8-8.3-32.5-46.5-35-59c-4.3-21.1-0.9-32.6-7-35c-8-3.2-25.9,11.7-29,29
	c-2.7,15.1,7,25.5,3,29c-2,1.7-7,1.5-36-18c-24.2-16.3-36.4-24.6-42-35c-3.4-6.4-5-17-8-38c-4.9-34.3-2.6-34.2-6-51
	c-6.4-31.7-18.5-51.5-22-57c-5.9-9.2-12.4-19.3-25-28c-11.5-7.9-31.5-17.2-36-12c-6.3,7.4,28,32.3,40,82c3.8,15.9,8.7,37.4-2,59
	c-7.8,15.6-25.9,35.5-49,35c-21.2-0.4-35.4-17.7-43-27c-14.7-17.9-28.7-49.2-26-80c0.6-6.9,2.3-16.6-2-28c-3.8-10.1-10.4-16.6-17-23
	c-6.2-6-9.8-8-29-21c-14-9.5-21.1-14.3-26-18c-17.4-13.4-28-21.8-27-31c0.5-4.7,3.7-6.3,11-14c13.1-13.7,12.6-18.5,23-31
	c11.2-13.5,22-26.5,37-29c22.4-3.7,43,17.8,49,24c26.1,27.2,21.3,54.8,40,60c7.9,2.2,16.9-2.2,35-11c24.3-11.8,27.6-20.5,46-25
	c7.8-1.9,25.8-6.3,33,2c10.6,12.3-16,36.9-6,62c6,15,23.5,26.5,37,24c19.4-3.6,30.2-36.3,29-61c-1.1-24.1-13.1-29.7-8-42
	c6.9-16.6,33.8-19,78-23c14.9-1.4,22.4-0.9,28,4c12.7,11.2,4.4,36,11,38c5,1.5,14.7-11.3,20-24c8.3-19.9,2-30,11-42
	c5.4-7.3,12.4-9.8,24-14c7.3-2.7,14.1-4,60-5c14.8-0.3,16-0.2,18,1c14,8.6,1.7,33.3,16,62c7.3,14.6,17.9,23,28,31
	c14.1,11.1,29.7,23.5,46,20c8.7-1.9,8.8-6.4,25-13c11.6-4.7,18.4-7.5,26-6c14.5,2.9,24.8,20.2,27,35
	C3804.5,2254.8,3788.1,2278.3,3769,2286.3z"/>
<radialGradient id="SVGID_6_" cx="4106.3237" cy="2728.7136" r="275.0467" gradientUnits="userSpaceOnUse">
	<stop  offset="0" style="stop-color:#CDDAF1"/>
	<stop  offset="0.5" style="stop-color:#B1C7E9"/>
	<stop  offset="0.5094" style="stop-color:#B0C7E9"/>
	<stop  offset="1" style="stop-color:#99B7E2"/>
</radialGradient>
<path class="st5" d="M4133.4,2390.5c-12.9,23.8-14.5,42.6-13.5,55.5c1.6,21,10.3,29.2,6,46.5c-5.2,20.8-23.7,32.4-27,34.5
	c-15.1,9.5-22.3,5-45,12c-11.6,3.6-35.6,11-52.5,31.5c-14.2,17.3-25.8,46.9-15,61.5c6.5,8.8,16.1,5.3,33,19.5
	c7.3,6.2,16.4,13.7,15,21c-2.3,12.1-31.1,10.9-33,22.5c-1,5.7,5.6,8.1,16.5,24c8.5,12.4,14.6,21.4,12,27c-5.2,11.2-38.6-4.4-49.5,9
	c-11.1,13.7,3.9,54.5,30,67.5c9.2,4.6,14.4,3,19.5,9c11.5,13.5,1.1,40.2-4.5,54c-18.8,46.6-46.1,61.5-40.5,72
	c5.2,9.9,35.8,9.3,57-4.5c21-13.7,30.4-38.6,39-61.5c9.5-25.3,12-46,27-51c2.2-0.7,7-2.3,10.5,0c9.1,6-2.4,30.1-7.5,70.5
	c-3.6,28.2-5.8,48.1,4.5,67.5c7.1,13.3,11.2,9.6,22.5,27c12,18.3,10,26.3,24,57c6.1,13.4,15.7,34.3,21,33c4.7-1.1-1.1-17.8,6-40.5
	c3.8-12.1,12.6-24.7,30-49.5c14.1-20,18.5-24.3,16.5-28.5c-4.9-10.4-36.8,6-60-10.5c-15.8-11.3-18.7-31.6-19.5-37.5
	c-3.5-25,8.4-51.9,27-64.5c9.2-6.2,16-6.2,33-18c10.1-7.1,19-14.9,18-16.5c-1.3-2.1-19.6,8.4-49.5,15c-12.6,2.8-17.2,2.6-19.5,0
	c-4-4.5,1.6-12.6,7.5-33c5.4-18.7,8.2-28.4,6-40.5c-0.2-0.9-0.2-1-9-27c-4.4-13.1-6.6-19.7-4.5-22.5c4.9-6.4,19.8,3.9,28.5-3
	c8.3-6.6,6.5-25.4,0-37.5c-6.6-12.1-18.4-18.6-28.5-24c-13.8-7.4-17.3-5.5-21-10.5c-11.7-16.1,9.1-57.7,24-57
	c8.6,0.4,11.9,14.7,18,13.5c6.5-1.3,9.8-19,9-34.5c-0.9-18.4-7.2-25.1-21-63c-6.3-17.2-9.4-25.8-10.5-33c-2.8-19,1.7-24.6,0-52.5
	c-1.3-21.5-4.8-30.2-6-33c-5.1-12.1-12.6-20.5-18-25.5"/>
<radialGradient id="SVGID_7_" cx="1838.4437" cy="2504.6399" r="3.4328" gradientUnits="userSpaceOnUse">
	<stop  offset="0" style="stop-color:#CDDAF1"/>
	<stop  offset="0.5" style="stop-color:#B1C7E9"/>
	<stop  offset="0.5094" style="stop-color:#B0C7E9"/>
	<stop  offset="1" style="stop-color:#99B7E2"/>
</radialGradient>
<path class="st6" d="M1842,2505.3c-0.4,2.1-5.9,3.4-7,2c-0.8-1,0.8-2.9,3.4-5.9C1840.9,2502.8,1842.2,2504.2,1842,2505.3z"/>
<radialGradient id="SVGID_8_" cx="2153.5686" cy="2210.5085" r="0.5103" gradientUnits="userSpaceOnUse">
	<stop  offset="0" style="stop-color:#CDDAF1"/>
	<stop  offset="0.5" style="stop-color:#B1C7E9"/>
	<stop  offset="0.5094" style="stop-color:#B0C7E9"/>
	<stop  offset="1" style="stop-color:#99B7E2"/>
</radialGradient>
<path class="st7" d="M2154,2210c0,0-0.3,0.4-0.9,1.1C2153.7,2210.3,2154,2209.9,2154,2210z"/>
<radialGradient id="SVGID_9_" cx="-152.7753" cy="2824.3306" r="240.8756" gradientUnits="userSpaceOnUse">
	<stop  offset="0" style="stop-color:#CDDAF1"/>
	<stop  offset="0.5" style="stop-color:#B1C7E9"/>
	<stop  offset="0.5094" style="stop-color:#B0C7E9"/>
	<stop  offset="1" style="stop-color:#99B7E2"/>
</radialGradient>
<path class="st8" d="M138,2884.3c-19.7-18.4-36.7-9.6-74-26c-13.7-6-29.2-13-41-29c-5.9-8-10-17.2-14-26c-11.6-25.7-9.6-33.4-16-36
	c-13.3-5.4-27.5,25.1-50,22c-12.8-1.8-21.3-13.5-26-20c-12.4-17.2-5.7-26.8-18-51c-7.8-15.3-17-24.4-21-28c-2.4-2.2-26.5-24-36-18
	c-6.6,4.2-1.5,18.8,7,73c4.8,30.2,6.1,44,2,61c-1.3,5.6-8.1,33.8-21,35c-12.7,1.2-25.2-24.3-29-32c-9.2-18.8-5.4-24.4-12-32
	c-17.9-20.5-77-14.9-90,14c-7.2,16.1,1.5,35.4,5,43c13.1,28.9,36.2,34.2,34,47c-1.6,9.2-15.4,13.9-43,23c-27.8,9.2-52.6,13.9-64,16
	c-33.3,6-42.9,5.1-60,14c-4.8,2.5-30.1,15.7-28,26c2.1,10.1,29.1,12.1,68,15c38.7,2.9,58.4,4.1,77-5c12.8-6.3,11.7-10,36-27
	c18.4-12.9,33.2-20.7,47-28c56.3-29.6,104.8-36,122-10c11.3,17.2,2,30.2,13,39c16.5,13.2,57.9,0.4,69-23c4.2-8.8,1.3-13.4,7-21
	c12-16,39.1-14.2,42-14c26.9,2.1,29,19.3,59,29c28.8,9.2,63.6,5.3,68-7C154.2,2899.4,141.3,2887.4,138,2884.3z"/>
<radialGradient id="SVGID_10_" cx="5005.8579" cy="1683.9907" r="710.907" gradientUnits="userSpaceOnUse">
	<stop  offset="0" style="stop-color:#CDDAF1"/>
	<stop  offset="0.5" style="stop-color:#B1C7E9"/>
	<stop  offset="0.5094" style="stop-color:#B0C7E9"/>
	<stop  offset="1" style="stop-color:#99B7E2"/>
</radialGradient>
<path class="st9" d="M4995.5,2478.7c1.2-5.4,8.5-28.2-0.3-49.2c-1.9-4.4-5.9-9.4-8.5-15.8c-5.9-14.4-9.7-33.1-6.7-45.3
	c4.9-19.6,14.7-27.3,17.4-29.2c8.6-6.4,18-8.3,28.2-11.8c6-2,14.4-4.9,25.8-14.7c10.3-8.8,20.3-23.5,26-33.5
	c7.2-12.6,12.3-23.2,13.1-35.6c0.4-6.5,0.4-14.2,1.1-20c3.1-25.8,0.3-44.3-1.1-54c-2.1-15.1-12.8-32.4-27-34.5
	c-13-2-25.5,9.2-31.5,18c-12.6,18.3-16.3,21-28.5-3c-13.6-26.8-23.9-27.7-31.5-51c-1.7-5.3-6.2-19.5-4.5-37.5
	c3.1-32.7,23.4-43,18-55.5c-8.5-19.8-69-14.9-69-15c0-0.1,11.4,2.2,13.5-1.5c3.7-6.6-28.1-20.4-42-52.5c-6.5-15-1.1-15.5-9-52.5
	c-7.3-33.9-11.9-34-10.5-46.5c2.1-18.5,12.7-22.7,33-55.5c8.4-13.6,13.6-24.6,24-46.5c23.8-50.1,19.2-55,33-70.5
	c19.3-21.6,40.8-26.2,39-37.5c-1.1-7.3-10.4-7.2-22-20.5c-4.8-5.5-15.3-17.5-15.3-31.3c-0.1-17.2,16.1-20.8,30.7-52
	c5.9-12.6,10.8-23.6,6-31.3c-5.5-8.9-22.1-10.8-34.7-7.3c-23.1,6.4-26.2,29-47.3,30.7c-5.5,0.4-14.3-0.4-16-4.7
	c-3.6-9.4,31.7-23.8,29.3-40.7c-1.3-9.5-13.1-8-24.7-25.3c-9.4-14-5.8-21.3-14.7-27.3c-10.5-7.2-20.7-0.4-27.3-8
	c-4.7-5.3-1.1-10.3-4-21.3c-2.3-8.8-6.2-12.1-19.3-28c-17.3-20.9-13.6-18.8-24.7-31.3c-14-15.8-20.9-23.6-30-29.3
	c-23.3-14.7-40.3-8.9-46.7-22c-5.1-10.5,3.7-18.8-2-25.3c-2.4-2.7-7.7-5.7-46.3,1.3c-22.8,4.1-28.7,6.6-34.5,2.5
	c-8.1-5.7-11.3-20.6-6-30c7.7-13.5,29.6-9.3,32-19.5c1.3-5.4-3.6-12-9-14.5c-6-2.7-12.9-0.5-27,7.5c-27.7,15.8-34.2,26.2-55.5,36
	c-10.2,4.7-7.5,1.8-23,8c-22.6,9.1-30.6,16.2-60,30.5c-26.5,12.9-31,12.5-33,10.5c-5.3-5.4,6.2-24.9,7.5-27
	c4.1-6.9,9.8-12.5,21-23.5c15.4-15.2,20.3-18.1,24.5-27.5c2.1-4.8,2.9-8.7,4.5-16.5c3-15.1,1.6-20.2,3-30c2.1-15.4,10.6-38,26.5-54
	c4.3-4.3,8.8-7.8,9.5-14c1.2-11.1-11-20.3-12-21c-9.6-7-20.5-6.2-23-6c-12.5,1.2-14.8,8.5-22.5,7c-10.2-2-15-16.6-17.5-24
	c-1.3-4-5.5-16.6-0.8-20.2c4.3-3.3,12.7,3.2,13.8,1.7c1.7-2.3-15.6-19.8-40.8-38c-17.9-12.9-23.5-14.5-35-26c-6-6-13.5-13.5-20-25.3
	c-8.3-15-5.1-18.8-15.3-38c-3.7-6.8-6.1-10.1-4.7-12.3c3.4-5.3,24.4,2.8,33.7,6.3c12.7,4.9,33,12.9,56.3,32c14.1,11.6,12,13,24.3,22
	c14.7,10.7,20.5,10.7,43,22.7c27.1,14.4,40.7,21.9,42,32.7c1.6,13.3-14.7,18.4-13,33c1.8,15.6,22.7,28.5,30,24.5
	c3.8-2.1,1.6-7.4,7-15c4.3-6.1,15.4-14,21.3-15.3c6.3-1.3,12.1-3.1,17.5,20.2c2.2,9.5,7,12.9,9.4,17.2c5.3,9.5,8.9,12.9,16.9,21.9
	c7.1,8,27.2,25.6,36,30.4c7.7,4.1-4.8,14.4-16.7,38.1c-2.1,4.3-11.4,22.9-4,40c9.1,21,37.1,24.9,42.5,25.5c18.5,2.1,33-5.1,43-10
	c9.5-4.7,11.8-7.6,42.5-31c23-17.6,24.7-18.2,27-18.5c14.7-2.1,24.3,10.3,65.5,48.3c35.5,32.8,29.7,24.6,44,39.3
	c22.6,23.1,36.1,42.2,45.3,38.7c5.6-2.1,3.3-10.1,10.7-16.7c7.3-6.6,18.4-6.6,40.7-2.7c25.7,4.5,44.4,10.5,58.7,14.7
	c2.4,0.7,28.4,8.4,50,13.3c56.4,12.9,89.2,8.8,91.3,19.3c2,9.8-25.9,16.1-27.3,36c-1,13.1,9.9,28.6,21.3,30
	c15.8,2,25.4-23.7,38.7-20c7.1,2,11.3,11.2,12,18c0.7,6.3-1.5,12.8-8.7,22c-14.6,18.6-27.6,19.7-50,37.3c-8.3,6.5-29.4,23.1-26,30.7
	c3,6.8,24.8,4.4,40,0c17.6-5,27-12.9,46-26.7c60-43.6,68.6-40.3,85.3-63.3c11.8-16.3,14-26.9,21.3-26.7c12.8,0.3,28.3,32.7,22,58.7
	c-2.8,11.6-7.8,13.1-9.3,24c-2.4,17.7,8.2,32.9,17,44.7c27.6,37,40.1,44.3,64,74c1.2,1.5,22.8,28.7,42,69c9.3,19.5,10.9,27,10,35
	c-2.8,25.2-28.8,44-50,51c-37.1,12.3-71.8-7.4-87-16c-15.3-8.7-24.5-18.3-42-36c-39.2-39.6-39.3-55.2-58-59c-23-4.6-45.2,14.6-64,31
	c-12.9,11.2-25.9,22.5-26,38c-0.1,15.6,13,19.1,13,35c0,17.5-16.1,33.2-30,40c-9.4,4.6-11.2,1.9-40,7c-18.5,3.3-27.7,4.9-37,9
	c-12.8,5.6-38.9,20.9-37,35c2.2,16.8,43.1,26,70,27c12.7,0.5,14.2-1.2,23-1c42.1,0.8,53.1,39.5,110,74.3
	c38.3,23.4,49.9,16.1,81.3,42.7c9.8,8.3,19,17.7,38,31.3c11.5,8.2,45.6,32.6,54.7,24.7c6.1-5.4-5.3-20.6,2.7-30
	c8.1-9.6,28.6-3.9,30.7-3.3c13.1,3.8,20.8,12.2,33.3,26c15.3,16.9,13.3,20,26,33.3c18.3,19.2,24.7,15.1,32.7,28
	c7.9,12.7,7.3,27.3,6,56.7c-1.2,28-5.4,34.5-0.7,50c4.8,15.7,11.3,15.9,15.3,28.7c5.4,17.1-1.9,30-17,66.7
	c-17.4,42.3-26.1,63.5-28,79c-4,32.2,5,42.9-6,60c-11.9,18.5-37.6,29.4-49,22c-8.8-5.8-1.6-17.7-10-41c-9.8-27.3-25-25.2-29-47
	c-0.5-2.9,1-18.9,4-51c1.3-13.8,1.9-19.6-2-25c-7.5-10.5-27.6-13.8-36-6c-8.9,8.3,2.4,22.7-7,42c-5.5,11.2-17,22.1-25,20
	c-3.4-0.9-5.4-3.9-16-29c-7.6-18.1-8.7-21.4-13-24c-8.1-4.8-21.7-3.3-30,4c-13.6,11.9-3.1,30.8-18,47c-6.5,7.1-17.4,13.2-23,10
	c-7.2-4.1,0.8-20-8-41c-2-4.7-7.9-18.8-16-19c-12.7-0.3-16.9,34-30,34c-8.4,0-17.9-14.3-19-27c-0.9-9.9,3.9-13.8,1-19
	c-4.8-8.5-23.1-8-34-6c-24.8,4.4-34.6,19.9-43,15c-5.2-3-6.4-11.7-8-24c-1.6-12.3,0.5-16.6-3-21c-4.9-6.3-16.2-6.8-24-5
	c-18.2,4.3,11.6,49.4-16.2,85.2c-14.9,19.2-14.8,39.4-20,44.5c-13.5,13.2-23,49.3-29.5,57c-14.5,17.1-19.6-3.1-35,22
	c-12,19.5-4.3,38.9-17.3,42.3C4999.9,2456.6,5002.3,2482.6,4995.5,2478.7"/>
<radialGradient id="SVGID_11_" cx="4649.7163" cy="735.9892" r="285.6171" gradientUnits="userSpaceOnUse">
	<stop  offset="0" style="stop-color:#CDDAF1"/>
	<stop  offset="0.5" style="stop-color:#B1C7E9"/>
	<stop  offset="0.5094" style="stop-color:#B0C7E9"/>
	<stop  offset="1" style="stop-color:#99B7E2"/>
</radialGradient>
<path class="st10" d="M4774.2,1062.1c20.4-9.5,33.2-33.5,32-54.5c-0.4-7-2.7-20.4-10.5-33c-4.6-7.5-10.2-13.3-10-22.5
	c0.1-6,2.7-10.6,4-13c3.3-5.9,7.7-9.5,18-16c9.5-6,17.6-10.5,29-16.5c13.4-7.1,19-12.3,21.3-14c14.2-10.4,24-19.4,24.2-29
	c0.1-2.8-12.6-12.3-24.5-10c-15.2,2.9-18.8,23.6-28.5,22.5c-6.5-0.7-5.6-10.2-16-16c-9.4-5.3-23.2-4.8-32,1.5
	c-7.5,5.4-7.1,12.2-11.5,12.5c-6.5,0.5-8.2-14.2-21.5-29c-13.3-14.8-22.4-12.1-26.5-23c-4.8-12.7,2-30.7,14-37.5
	c6-3.4,12.5-3.4,20.5-3.5c4.2,0,11.7,0,20.5,3c8.3,2.9,9.5,5.6,24.5,13.5c8.3,4.4,12.5,6.5,13.5,5.5c2.7-2.9-13.4-22.8-23-33.5
	c-5.6-6.3-12.6-14.1-23.5-23c-17.5-14.4-22.4-13-26-20.5c-2.7-5.5-2.6-11.6,9.7-44.5c11-29.4,14-32.6,19.3-50.7
	c5.8-19.6,2.9-17.9,8.7-35.3c6.9-21.1,12.2-26.8,12.7-42c0.4-14.7-2.9-21-5.5-21.6c-9.2-1.9-22.9-18.1-30-16.5
	c-5.1,1.2,4,1.4-2.5,49.4c-4.7,34.9-4.9,35.9-5.3,41.3c-2.6,33.9,1.8,34.6-2.7,49.3c-4.4,14.6-11.8,24.1-26.7,43.3
	c-11.6,15-15.2,16.2-17.3,16.7c-15.3,3.1-34.7-18.7-42.7-39.3c-8.3-21.5-3.8-40.8,2.7-68c3.7-15.9,9.6-40.6,26.7-66
	c8.9-13.3,16.6-27.5,26.7-40c3.3-4-27.3-34.8-49.3-49.7c-38.7-26.2-103.2-64.7-120.7-37.6c-13.9,21.6-14.2,17.1-31.3,42
	c-17.6,25.6-30.9,44.9-39.3,70.7c-2.3,7.1,21.1,40-8.7,65.3c-26.5,22.5-54.8,38.7-48.3,45.6c12.1,12.8,17.9,13.4,29.9,26.4
	c3.1,3.3,9,9.8,16.6,14.3c8.7,5.2,19.8,6.9,20.5,12.7c0.6,4.9,5.5,14.2,4.6,23.4c-0.6,6.3-5.4,13.3,2,14.2c24.1,3.1,36.4-1,58-2.7
	c11.5-0.9,30.6,1,68.7,4.7c43.5,4.2,50.6,6.8,56,13.3c10.6,12.8,7.3,31.7,5.3,43.3c-1.1,6.5-17.3,15-32,60.7
	c-7.6,23.5-10.1,43.6-10.7,56.3c-0.4,7.6,1.2,11,1.1,14.8c-0.2,7,5.1,8.8,6.9,15.5c1.8,6.4,0.1,17.7,1.8,24.5c2,7.5,6.5,14.1,8.7,21
	c3.6,11.4,5.3,21.9,11.2,26.2c34.3,25.1,68.8,60.9,92.3,59.1C4766.3,1065.7,4771.6,1063.3,4774.2,1062.1z"/>
<radialGradient id="SVGID_12_" cx="1545.749" cy="2754.5652" r="682.0801" gradientUnits="userSpaceOnUse">
	<stop  offset="0" style="stop-color:#CDDAF1"/>
	<stop  offset="0.5" style="stop-color:#B1C7E9"/>
	<stop  offset="0.5094" style="stop-color:#B0C7E9"/>
	<stop  offset="1" style="stop-color:#99B7E2"/>
</radialGradient>
<path class="st11" d="M2234.4,2607.1c-14.9-47.5-12.7-75.4-28.7-80c-18.2-5.3-36.1,26.8-53.3,19.3c-9.6-4.2-15.7-19.3-12-29.3
	c5.5-15,29.7-10.4,38-28c5.1-10.9,1-23.5,0-26.7c-4.5-13.9-12.7-14-15.3-26c-2.2-10.1,1.7-19.2,6.7-30.7
	c7.2-16.7,66.4-33.5,61.7-41.1c-9.8-15.7-29.2-50.5-32.7-55.2c-6.9-9.2-59.4,16.2-69.6,17c-16.9,1.3-18.4,19.5-40,29.3
	c-11.8,5.4-32.9,9.7-46.7-1.3c-13.4-10.7-17.9-34.4-9.3-49.3c12.7-22.1,46.9-12.4,68.7-40c3.1-4,7.7-10.8,13.3-19.3
	c9.6-14.4,27.4-23.4,25.7-27.4c-4.5-10.2-11.5-18.9-24.8-41.6c-15.9-27.3-26.5-42.1-36.1-58.2c-1.4-2.3-42.4,34.6-64.8,45.2
	c-32.2,15.2-41.9,26.3-76.7,44c-19.4,9.9-30.5,13.6-43.3,12c-13.3-1.6-21.2-8.1-26-10.7c-36.9-19.8-119.9,62.7-237.3,144.7
	c-60.1,42-77.7,47.8-94,50.7c-31,5.4-61-42.6-97.1-21.8c-17.7,10.2-35.3,29.2-51.4,44.2c-26,24.4-53.4,48.9-133.3,116.8
	c-8.1,6.9-62.2,58.9-66.5,63.3c-9,8.9-16.1,25.4-18.5,32.5c-2.3,6.8-11.4,6.1-43.3,52.8c-7.1,10.3-7.4,11.1-11,16.3
	c-1.7,2.5-4.5,6.7-8.3,12.1c-7.6,11-13.8,8.1-19.9,14.8c-5.3,5.8-31.2,22.8-34.8,25.1c-9.8,6.6-14.8,10.2-24.4,14.1
	c-12.2,5-18.8,8.8-29,12.6c-32.6,12.3-76.1,40.6-85.1,44.2c-2.5,1-7.1,5.3-17,9.7c-6.3,2.8-13.5,7.5-23.7,15.2
	c-23.2,17.5-10.9,28.5-17,36c-12.7,15.6-21.8,13.2-30,27c-9.9,16.6-8.1,38.9-1,42c5.8,2.5,12.8-8.8,19-6c5.3,2.4,2.9,11.7,7,31
	c1.3,6.1,3.5,16.4,9,28c7.1,15,12.5,17.1,12,25c-0.7,10-9.7,11-11,21c-1.5,12,9.6,26.1,22,30c7.5,2.3,9.3-1,22,0
	c7.9,0.6,23.6,1.9,29,11c2.9,4.9,0.8,8.7-4,30c-6.5,28.7-5.7,34.8-5,38.5c0.8,4.3,3.6,16.7,14.5,25c2.2,1.7,9.6,7.3,19.5,7.5
	c6.6,0.2,8.6-2.2,12-0.5c6.2,3,8.7,15,6,24.5c-3,10.4-10.4,11.3-10.5,19c-0.1,9.5,11.2,16.7,14,18.5c7.7,4.9,11.8,3.7,20.5,7
	c5.6,2.1,10.1,5,25.5,19.5c18.4,17.4,27.6,26,29.5,30c10.3,21.3-3.9,33.9,7.5,50c7.7,10.8,20.6,14.3,30.5,17c8.5,2.3,20.8,5.7,32,0
	c8.1-4.1,7.3-8.7,16-17c15.4-14.8,35.5-17.3,41.5-18c15-1.9,16,2.7,36.5,3.5c22.7,0.9,24-4.6,50-6c33.1-1.8,47.8,6.1,54-2.5
	c1.9-2.6,2.5-6.2-3.5-28c-8.6-31.1-12.7-34.5-14.5-48.5c-2.6-20.4,2.1-45.1,11-47c7-1.5,16.1,11.2,20.5,20
	c15.3,30.5-4.3,56.3,9.5,68.5c7.7,6.9,13.8-1.2,40.7,6.7c12.9,3.8,19.6,8.1,24,4.7c6.4-5-2.4-18.6,4-25.3c7-7.4,29.4-3.6,41.3,9.3
	c10.8,11.6,5,22,17.3,34.7c6.4,6.5,18,14.1,26,10.7c4.7-2.1,4.5-6.4,12.7-24c4.6-9.9,7.4-15.8,12-22c3.3-4.4,10.1-13.6,22-19.3
	c18.9-9.2,37.6-3.6,42.7-2c7.1,2.2,22.4,7,30,20.7c9.8,17.6-3.3,31.9,6.7,42.7c7.9,8.5,25.2,9.3,34.7,2c3.2-2.5,5.5-5.9,8-12.7
	c6.7-18.5,3.5-31.1,4.5-57c0.8-19.5,1.2-29.2,6.5-32c8.7-4.5,18,11.7,41,12.5c3.6,0.1,15.8,0.4,27.5-6.5c6.9-4,7.5-7,18.5-16
	c0,0,8.8-7.2,20-14c5.3-3.2,19.6-11.9,33.5-15.5c19.5-5,36.1,0.6,58,8c29.5,10,30.1,17.1,58.5,26c14.3,4.5,29.4,9.1,49,7.8
	c19.8-1.3,51.3-8.9,54.7-25c2-9.6-7.6-15.1-4.3-27c2.1-7.7,8.6-14.5,16-17.3c11.4-4.3,16.7,4.2,34.3,3.7c3.6-0.1,23.6-0.7,31-13.3
	c3.2-5.5,2.7-11,2-19.3c-1.7-19.4-9.7-22.7-8.3-34.3c1.3-11.2,10.4-22.6,21-26c13.1-4.2,21.4,5.9,29,0.3c7.9-5.8,5.8-22.1,5-28
	c-1-7.2-3.1-12.2-6-19c-6.2-14.4-13.8-24.4-16.7-28c-10.8-13.6-14.8-12.5-16-18.3c-2.4-11.4,11.6-18.9,27.8-39.7
	c10.3-13.2,24.6-31.5,27-54.5c2.1-20.2-7.3-21-8-52.5c-0.3-14.6-0.5-31.5,9.5-46.5c7.7-11.6,17.7-16.2,25-20.5
	c31.1-18.4,55.9-55.8,60-84.7C2274.6,2672.4,2254.5,2671.2,2234.4,2607.1z M1278.4,3128.5c-11.5,10-45.3-39.5-101-39
	c-12.6,0.1-26.9,2.8-32-5c-6.1-9.4,9.6-21.4,5-40c-3.5-14.4-17.3-25.6-30-29c-4.9-1.3-7.2-0.9-17-1c-9.3-0.1-22.6-0.7-39-3l-18-27
	c6.8,1.1,17.4,2.2,30,0c9.7-1.7,14.6-2.5,19-6c15.2-12,5.5-38.7,16-43c5.9-2.4,14.7,3.9,19,9c9.7,11.5,3.1,23.9,11,30
	c8.3,6.4,23.8-0.6,29-3c20.2-9.1,20.7-23,35-25c11.3-1.6,23.5,5.2,29,14c5.1,8,2.3,14.1,3,31c0,0,0.8,19.3,8,42
	c6.5,20.6,12.2,21.3,22,44C1274.5,3093.8,1286.4,3121.5,1278.4,3128.5z M1475.4,2786.5c-9.9,13.5-29.9,25.1-48,20
	c-22.9-6.5-40-38.7-30-76l20-53c8.4,1.2,24.6,4.7,39,17C1481.7,2716.1,1495.2,2759.5,1475.4,2786.5z M1997.7,2335.8
	c-12.1,14.5-20.5,12.6-36.7,25.3c-16.4,12.9-11.2,17.7-28,32.7c-15,13.3-19.1,9.6-42,25.3c-17.3,11.9-29.1,23.7-39.7,34.3
	c-13.2,13.2-9,11.1-27,30c-18.5,19.4-23.7,22.5-27,33c-2.7,8.7-0.2,9.9-4,28c-4,18.8-7.9,23.1-10,25c-4.7,4.3-14.2,9.8-22,7
	c-17.5-6.3-14.2-49.9-21-50c-3.6-0.1-6.9,11.7-9,19c-3.3,11.4-1.7,13.3-4,21c-3.4,11.4-10.3,19.2-14.6,24.1
	c-8.2-4.9-28.5-11-41.4-14.1c-9-2.2-13.5-3.3-17-3c-25.6,1.9-38.6,37.9-38,70c0.2,13.1,3.6,19.2-1,25c-7.1,8.8-26.5,8.7-39,0
	c-14.9-10.3-19.3-32-13-43c2-3.6,4.9-5.4,12.3-16.3c3.6-5.3,5.4-7.9,6-9.3c4.9-12.4-5.5-20.3-3.3-35.3c0.4-2.8,2.1-14.5,10-18.7
	c11.8-6.1,23.6,11.8,39.3,6c7-2.5,13.9-9.4,16.7-17.3c1-2.8,1.2-5.1,1.3-6.7c1.6-21.7-12.4-51.7-8.7-54c2.1-1.3,9.1,6.1,13.3,11.3
	c9.8,12.2,9.3,19,17.3,31.3c6.4,9.8,13.5,20.7,22.7,20.7c7.9,0,9.9-8.2,29.3-19.3c6.3-3.6,9.4-5.4,12.7-6
	c15.8-2.9,22.5,11.8,35.3,9.3c12.3-2.4,18.9-18.3,21.3-24c0.9-2.2,4.7-11.7,4-25.3c-0.9-17.1-7.9-21.4-14.7-46.7
	c-2.1-8-6.5-24.6-3.3-26c3.4-1.5,17.8,12.8,21.3,30c0.9,4.4,0.7,7.2,3.3,10c3.9,4.2,11.4,5.1,16.8,5.1c3.8,0,6.5-0.4,6.5-0.4
	s29.2-7.4,52-25.3c9.6-7.5,25.2-19.8,23.3-32.7c-1.6-11-14.7-12.9-17.3-27.3c-1.4-7.6,0.3-17.8,6-20.7c8-4,24,6.7,32,19.3
	c5,7.9,5.6,14.4,9.3,14.7c4.5,0.3,9.2-8.5,11.3-15.3c4.5-14.6-2.7-21.5,2.7-30.7c3.9-6.7,12-10,18-10.7c12.4-1.3,16.4,8.8,28,10
	C1997.6,2326.1,2002.7,2329.8,1997.7,2335.8z"/>
</svg>
