<?xml version="1.0" encoding="utf-8"?>
<!-- Generator: Adobe Illustrator 22.0.0, SVG Export Plug-In . SVG Version: 6.00 Build 0)  -->
<svg version="1.1" id="floods3" xmlns="http://www.w3.org/2000/svg" xmlns:xlink="http://www.w3.org/1999/xlink" x="0px" y="0px"
	 width="5760px" height="3240px" viewBox="0 0 5760 3240" style="enable-background:new 0 0 5760 3240;" xml:space="preserve">
<style type="text/css">
	.st0{opacity:0.5;fill:url(#SVGID_1_);}
	.st1{opacity:0.5;fill:url(#SVGID_2_);}
	.st2{opacity:0.5;fill:url(#SVGID_3_);}
	.st3{opacity:0.5;fill:url(#SVGID_4_);}
	.st4{opacity:0.5;fill:url(#SVGID_5_);}
</style>
<radialGradient id="SVGID_1_" cx="3482.4927" cy="2381.6636" r="13.1865" gradientUnits="userSpaceOnUse">
	<stop  offset="0" style="stop-color:#CDDAF1"/>
	<stop  offset="0.5" style="stop-color:#B1C7E9"/>
	<stop  offset="0.5094" style="stop-color:#B0C7E9"/>
	<stop  offset="1" style="stop-color:#99B7E2"/>
</radialGradient>
<path class="st0" d="M3473.5,2389.1c-4.8,1.2-7.3,1.6-7.5,0.9c-0.9-2.6,32.8-17.5,33-17C3499.1,2373.3,3489.1,2381.2,3473.5,2389.1z
	"/>
<radialGradient id="SVGID_2_" cx="2457.5339" cy="2246.9241" r="1753.8151" gradientUnits="userSpaceOnUse">
	<stop  offset="0" style="stop-color:#CDDAF1"/>
	<stop  offset="0.5" style="stop-color:#B1C7E9"/>
	<stop  offset="0.5094" style="stop-color:#B0C7E9"/>
	<stop  offset="1" style="stop-color:#99B7E2"/>
</radialGradient>
<path class="st1" d="M4564,2140.7c-34.1-99.8-100.8-159.4-141.3-194.7c-118.6-103.5-198.7-88-215.1-151.7
	c-20.3-78.5,96.4-121.8,97.6-256.6c0.6-72.6-33.1-72.3-30.2-146.1c4.3-108.5,78-130.3,79.9-234.9c0.3-14.8,2-105.8-61.9-154.3
	c-54.5-41.4-124.2-27.2-148.6-22.3c-93.2,18.9-149,90.9-167.6,115.6c-57.1,75.9-35.8,113.9-88.5,160.2
	c-34.7,30.5-48.4,18-167.3,54.9c-102.8,31.9-174.9,55.2-238.6,116.7c-39.2,37.8-28,44.7-57.6,65.3c-72.5,50.5-130.1,2.5-258.5,24.4
	c-59.7,10.2-113.1,41-153.8,61c-25.9,12.7-49.1,17-57.4,21.9c-66,39.2-59.8,43.4-116.4,63.6c-56.3,20.2-67.6,22.7-157.7,35
	c-79.3,10.9-135.3,38-149,44c-65.6,28.6-66.9,45-167.8,111.5c-33.1,21.8-111.2,66.3-209.2,118.3c-76.8,40.8-65.6,36.4-87.1,46
	c-0.5,0.2-60.4,17-57.8,16.6c-20.4,5.8-45.2,16.7-72.3,28.3c-43.1,18.4-75.3,38.9-92.8,50.9c-43.5,29.7-44.2,39.7-102.2,86
	c-30.4,24.3-58,47.7-98.8,66.7c-32.1,15-46.7,20.7-62.8,26.3c-16.2,5.7-29.8,15.4-55.7,30c-10.8,6.1-16.6,10.2-41,27.1
	c-17.2,11.9-44.4,27.5-85.1,66.7c-43.9,42.3-68.5,63-109.8,98.1c-58.4,49.6-68.6,60.1-75.3,67.2c-36.8,39.1-34.6,48.4-76.6,97
	c-13.2,15.3-19.9,35.3-32,43.8c-21.4,15-32.6,24.8-52.1,37.4c-27.1,17.6-35.8,16.4-92.7,45.6c-33.9,17.4-55.5,30.4-72.7,40.4
	c-77.5,45-117,57-263.9,131.2c-55.6,28.1-84.3,55.5-105.8,68.6c-24.1,14.7-38.1,13.8-47.3,23.7c-32,34.3-35.3,54.7-77.2,87.8
	c-27.3,21.6-49.5,31.7-60,60c-8.1,21.9-4.6,42.4-2,58c4.6,27.4,15.2,48.1,34,78c32.9,52.4,49.4,78.6,66,92c34.5,27.9,78,32.5,222,18
	c87.4-8.8,114.3-14.8,188-24c258-32.1,308.6-5.6,330,8c53.2,33.9,53.5,70.1,92,72c74,3.7,117-127.5,184-116
	c30.9,5.3,27.9,34.4,64,40c38.5,6,55.3-24.9,136-48c11.3-3.2,28.4-8.1,52-12c57.8-9.5,85.1-1.3,100-20c8.8-11,3.6-19.2,8-40
	c8.3-39.4,40.2-72.6,64-84c60.4-28.9,110.1,63.9,192,52c70-10.2,114-89.7,156.7-167c8.9-16.1,48.2-89,71.3-197
	c23.5-109.6,7.6-149.3,49.3-214.5c14.2-22.2,44.8-70.2,98.7-81.5c41-8.6,80,7.1,112,20c40,16.1,51.3,29.9,72,40
	c104.3,51.1,220.4-99.4,316-56c21.6,9.8,41.1,46.6,80,120c10.3,19.5,48.6,93.3,88,220c32.9,105.8,22.7,107.1,40,128
	c73.4,88.4,249.5,54.4,324,40c46.7-9,120.1-23.9,199-75.5c86.8-56.7,139.5-130.9,161-164.5c46.8-73.1,62.3-135.4,80-132
	c12.2,2.3,12.8,33.5,20,80c13.1,84.9,28.8,186.2,88,232c43,33.3,108.1,36.6,156,20c83.3-28.8,119.1-119.5,180-280
	c61.3-161.7,41.2-182.1,96.8-273.4c55.1-90.5,88.9-93.5,115.3-170.1C4606.5,2269.3,4572.9,2166.7,4564,2140.7z M2053,2027.2
	c0.5-0.1,0.8-0.2,0.8-0.2C2053.8,2027,2053.6,2027.1,2053,2027.2z M3680,2293c-4.7,24-30.9,38.5-48,48c-16.7,9.3-30.4,12.6-44,16
	c-59.5,15.1-98.9,28.1-114.5,32.1c-19.1,9.6-46.7,19-74.5,13.9c-8.9-1.6-31.2-5.7-42-25c-12.3-21.9-0.6-46.9,1-50l-2-18
	c3.5-5.6,9.5-13,19-17c16.7-7.1,30.1,2.4,38-5c5.9-5.6,0.6-13,2-32c0.5-6.4,2.6-35.6,23-53c3-2.6,12.1-10.1,25-12
	c35.7-5.3,52.4,39.7,81,35c24.5-4.1,25.6-39.4,57-44c2.2-0.3,16.9-2.3,30,6c11.8,7.5,14.9,18.6,22,37
	C3673.6,2278.8,3682.9,2278,3680,2293z"/>
<radialGradient id="SVGID_3_" cx="771.3885" cy="2358.7319" r="1015.4608" gradientUnits="userSpaceOnUse">
	<stop  offset="0" style="stop-color:#CDDAF1"/>
	<stop  offset="0.5" style="stop-color:#B1C7E9"/>
	<stop  offset="0.5094" style="stop-color:#B0C7E9"/>
	<stop  offset="1" style="stop-color:#99B7E2"/>
</radialGradient>
<path class="st2" d="M-56.4,3017c0.2-26.2,133.6-40.5,133.6-40.5c117.1-12.5,76.7-14.9,168-22.5c157.1-13,166.9,3.2,210-21
	c30.4-17.1,54.6-41.5,99-43.5c17.5-0.8,35.7,2,61.5,6c36.2,5.6,72.8,14.7,72.8,14.4c0.1-0.2-15.4-1.1-16.4-6
	c-2.2-10.6,66.6-23.4,148.3-67.7c43.6-23.7,37.8-27.5,76-45.7c39.6-18.9,57.9-20.5,111.9-45.8c30.8-14.4,46.2-21.6,54.2-28.5
	c38-32.7,31.8-66.4,72.1-104.1c17.4-16.3,19.2-10.6,45-30c45.7-34.5,56.6-64.9,87-102c29.5-36,28.7-18.9,122-95.5
	c75.4-61.9,81.1-77.4,125.5-98c20.4-9.5,29.5-11,81-33.7c53.8-23.7,70.6-33.8,76.7-37.5c7.3-4.5,18.9-12,69.7-54.3
	c61.3-51.1,62.8-55.5,89-74.2c32.7-23.3,50.6-36.1,79.4-47.5c39-15.6,76.5-35,116-49.3c1.9-0.7,6-2.2,8.7-6
	c9.4-13.4-8.9-39.8-28.7-72c-46-74.9-36.8-78-50.7-85.3c-39.5-20.8-69.2,28.2-145.7,17.4c-7.3-1-0.1-0.5-78-22.5
	c-19-5.4-38.2-11.1-76.5-22.5c-52.6-15.7-73.5-22.3-73.5-31.5c0-4.7,5.6-9.4,10.2-11.1c9.7-3.5,21.7,3.7,21.3,5.1
	c-0.6,2-31,0-54-16.5c-12.1-8.7-11.1-13.5-24-27c-3.2-3.4-45-46.4-73.5-36c-16.2,6-10.7,22.9-34.5,39c-17.3,11.7-26.7,7.2-37.5,19.5
	c-7.9,9.1-9.3,19-12,39c-1.8,13.3-4.5,34.5,1.5,60c5.6,24,13.4,28.1,21,48c17.8,46.5,2.2,93.8-3,109.5c-3.3,10.1-15.7,32.7-40.5,78
	c-8.5,15.5-17.9,23.3-22.5,40.5c-6,22.5-0.2,35.8-9,42c-9.6,6.8-26.5-1.8-40.5-9c-13.7-7-32.5-16.6-42-37.5c-8-17.5-6.5-36.5-6-43.5
	c1.1-13.9,4.2-16.6,2.5-26.2c-2.2-12.2-8.9-16.7-19.7-32.1c-14-19.9-9.5-21.8-20.3-36.3c-6-8.1-26.7-35.7-49.5-33
	c-10,1.2-17.7,8.8-33,24c-8.7,8.6-14.5,16.3-22.5,27c-8.9,11.9-15.3,21.9-19.5,28.5c-1.4,2.1-10.2,16.1-13.5,22.5
	c-18,34.8,0.6,93.1,12,93c6.6,0,12.4-19.8,10.5-21c-1.7-1-9.1,12.7-27,30c-8.7,8.5-20,19.2-36,27c-5.7,2.8-10.6,4.5-42,10.5
	c-52.9,10.2-63.8,10.1-75.6,5.2c-1.4-0.6,0.1,0-20.4-12.7c-33.5-20.7-39.9-23.7-48-24c-4.3-0.2-11,0.3-31.5,12
	c-37.2,21.2-65.8,37.5-70.5,64.5c-2.6,15.2,4.9,19.1,0,37.5c-1.3,5.1-6.3,23.8-22.5,33c-2.7,1.5-6.7,3.4-29.3,5.1
	c-28.6,2.2-31.1-0.1-47.4,2.3c-5.8,0.8-21,3.4-38.8,10.6c-14.2,5.8-15.8,8.7-34.5,16.5c-20,8.3-20.7,6-25.5,10.5
	c-8.8,8.2-6.9,16.2-16.5,43.5c-0.3,0.8-0.2,0.4-9,22.5c-13.7,34.2-15.5,38.8-19.5,48c-14,32-19.4,38.3-27,42c-7.3,3.5-12.9,2.8-21,3
	c-30.1,0.7-53.7,12.5-73.5,22.5c-29.4,14.8-47.8,32.8-52.5,37.5c-7.3,7.4-20.6,20.9-31.5,42c-11.1,21.5-8.1,28.3-16.5,49.5
	c-11.8,29.9-30.3,48.4-48,66c-21.2,21.1-36.2,36.1-61.5,43.5c-17.3,5.1-33,4.7-45,4.5c-17.7-0.4-29.9-0.6-43.5-7.5
	c-7.8-4-14.2-9.1-27-19.5c-12.4-10.1-12.6-11.7-18-15c-15.1-9.2-28.5-5.5-41.5-6.7c-42.6-3.8-71-58.8-74-56.3
	c-1.7,1.4,9.3,16.5,7.5,18c-2.6,2.2-23.9-33.4-61.5-46.5c-6.1-2.1-41-14.3-63,4.5c-17.8,15.2-16.6,41.8-16.5,43.5
	c1.7,27.7,24.1,41.5,18,51c-5.5,8.6-27.8,3.5-30,3c-21.1-5-23.2-18.2-37.5-19.5c-23-2.1-42.9,29.6-45,33c-8,12.7-10.3,24.5-15,48
	c-6.9,34.8-2.4,40-10.5,52.5c-6.8,10.4-10.1,7-39,28.5c-22.5,16.7-23.5,21-41.8,32.5c-16.4,10.2-17.3,7.8-31,17
	c-18.7,12.4-35.2,23.5-38,42c-1.7,11.3,1.8,24.3,10,33c7,7.5,15.6,9.9,49,13c33.7,3.1,59.7,3.7,72,4c30.2,0.7,45.4,1,51,0
	c7.2-1.3,16.3-3.4,68-27c25.9-11.8,30.8-14.5,44-19c37.8-12.9,51-8.8,58-5c8.4,4.5,13.5,11.5,16,15c10.8,15,5.2,22.5,14,35
	c13.4,19,38.6,19,41,19c4-0.1,11.3-0.3,14.6-5C-53,3027.1-56.4,3020.8-56.4,3017z"/>
<radialGradient id="SVGID_4_" cx="2875.8079" cy="1335.7295" r="735.6645" gradientUnits="userSpaceOnUse">
	<stop  offset="0" style="stop-color:#CDDAF1"/>
	<stop  offset="0.5" style="stop-color:#B1C7E9"/>
	<stop  offset="0.5094" style="stop-color:#B0C7E9"/>
	<stop  offset="1" style="stop-color:#99B7E2"/>
</radialGradient>
<path class="st3" d="M2078.1,1967.1c-7.2-8.7-12.9-11.5-16.5-15c-9.5-9.2-9-26.9-8.5-40.1c0.5-12,2.3-19.7,11.1-51.3
	c13.2-47.3,16.4-56.1,19.9-64.6c7.1-17,10.6-25.5,17.1-35c16.8-24.7,41.1-37.1,89.1-60.9c31-15.4,38.9-16.7,57.3-30
	c16.8-12.1,29.5-24.9,37.5-33c6.8-6.9,20.7-21.1,34.5-40.5c23.3-32.8,16.4-38.3,33-60c16.8-21.9,24.5-17.1,70.5-54
	c23-18.5,19.3-18.2,48-42c38.6-32,43.2-30.6,64.5-51c17-16.3,34.6-33.1,48-60c6.9-13.7,11.7-35.3,21-78c9.8-44.6,8.9-48.1,15-69
	c10-34.1,22.5-59,26.9-67.4c14.6-28,32.5-49.1,67.8-90.2c55.3-64.4,73.9-75,86.8-80.9c15.8-7.3,28.3-10,51-15c34.7-7.6,64-14,99-6
	c13.9,3.2,40.8,9.3,63,31.5c15,15,21.7,36.2,34.5,78c16.1,52.8,24.2,79.1,22.5,109.5c-2.1,36.8-14.1,57.8-4.5,64.5
	c9.2,6.4,30.8-5.3,43.5-19.5c11.6-12.9,12.1-23.8,21-55.5c10.6-38,12.4-31.5,23.3-70.7c9.5-34.3,14.3-51.4,14.2-70.3
	c-0.1-28.2-7.5-34.7-2.5-49.5c8.3-24.5,37.4-33.2,58.4-42.1c83.5-35.6,65.1-86.6,153.5-130.9c50.3-25.2,62.3-11.7,110.1-42
	c16.2-10.2,34.6-24.3,62.9-26.5c7.7-0.6,30.5-2.1,51,10.5c12.4,7.6,22.4,19.5,40,70c24.1,69.3,14.9,74.9,36,128
	c8.4,21.2,14.7,32.5,16,52.9c1.4,22.6-4.9,30.3-2,57.1c2.7,24.4,8.9,26.4,5.9,38.1c-4.9,19.4-23,17.7-45.9,41.9
	c-22.9,24.2-14.7,36.4-42,64c-4.8,4.8-1.7,1.1-28,24c-22.9,19.9-28.2,25.4-39.2,29.6c-14,5.4-18.2,1.5-34.8,4.4
	c-19.3,3.3-28,10.9-60.4,31.6c-46.1,29.3-41.3,22.1-62.2,37.5c-18.7,13.8-16,14.8-59.3,52.5c-32.8,28.6-41.8,34.5-48.1,38.3
	c-12.2,7.4-26.2,13.3-53.9,24.7c-50.9,21-54.2,19.2-72,30c-4.1,2.5-1.3,1-48,37.5c-28.2,22.1-37.4,29-50.1,37.3
	c-8.6,5.7-18.7,11.4-38.4,22.7c-35.9,20.5-53.9,30.8-79.4,43.8c-22.5,11.5-30.2,14.6-48.1,25.2c-16.4,9.7-20.8,13.5-33.1,20.9
	c-24.9,15-45.9,22.8-61.3,28.6c-46.9,17.5-76.6-1.4-163.6,16.7c-47.6,9.9-79.8,33.7-100,42.7c-24.3,10.7-32,16-87.3,49.3
	c-17.4,10.5-28.4,23.6-59.8,41.8c-120.5,69.9-177.8,95.9-212.3,122.4c-6.9,5.3-17.7,14.3-35,22.9c-18.1,9.1-21,6.7-32,15.1
	c-7.2,5.5-13.9,12.5-20,10.4C2081.3,1971.2,2080.3,1969.7,2078.1,1967.1z"/>
<radialGradient id="SVGID_5_" cx="5003.8857" cy="1494.8488" r="940.4304" gradientUnits="userSpaceOnUse">
	<stop  offset="0" style="stop-color:#CDDAF1"/>
	<stop  offset="0.5" style="stop-color:#B1C7E9"/>
	<stop  offset="0.5094" style="stop-color:#B0C7E9"/>
	<stop  offset="1" style="stop-color:#99B7E2"/>
</radialGradient>
<path class="st4" d="M4382,578.5c20.6-8,33-9.3,42.8-34.8c10.2-26.5-6.6-39.8-0.8-77c7.5-48.5,44.2-78.2,51.6-84.2
	c15.4-12.5,33.2-27,56.4-26.8c33.2,0.3,51.1,30.3,86.6,63.1c45,41.5,51,25.5,119.6,74.3c102.3,72.8,96.7,114,165.4,133.6
	c37.2,10.6,67,6.6,80.7,30c9.2,15.8,2.5,29.2-2.2,73.8c-5,47.2,1.4,42.7-2.6,97.8c-5,70-15.2,73.8-11.6,114.3
	c2.2,25,5,56.7,25.1,85.2c20.9,29.5,39.7,26.3,117.8,66.1c63.1,32.1,67.6,42.8,124.3,66.9c17.1,7.3,11.1,4,73.4,26.8
	c109.3,40.1,132.3,52.1,155.9,71.4c12.9,10.5,31.3,25.8,47.6,50.9c28.1,43.2,22.9,73.9,34,140.3c19.1,115,51.9,127,43,200
	c-3.4,27.8-7.3,59.6-30.3,89c-36.5,46.5-81.7,37.1-108.2,83c-15.6,27.1-21.5,67.9-3.4,89.8c20.1,24.4,51.3,2.8,102.9,22.6
	c57,21.9,86.9,74.5,100.4,98.2c19.6,34.5,25.7,64,31.4,91.2c16.2,78.3,5.4,142-0.5,175c-2.9,16.1-13.1,68.6-42.4,131.6
	c-17.9,38.5-45.8,97.1-104.8,149.4c-31.4,27.9-57.1,49.9-96.9,53.7c-5.3,0.5-57.1,4.6-97.3-30c-30.9-26.7-21.3-47.4-58.3-101.3
	c-21.9-31.9-47.3-69-77.5-67.6c-28.1,1.3-29.6,34.6-72,51.3c-39.3,15.5-64.3,65.2-78.2,60.6c-14.6-4.8-113.8-7.8-135.6-48.6
	c-14.6-27.3,29-128.2,31.8-176c1.1-18.5,3.4-32.3,8-60c11.7-71.1,18.4-71.6,16-92c-4.1-35.2-24.8-42.4-52-92
	c-13.5-24.7-20.1-47.3-34-92c-22.1-70.9-70.9-105.5-65.7-137.1c6.8-41.9,45.6-52.7,59.9-104.9c13.8-50.2,26.4-84.7,23.8-104
	c-10.9-82.1-52-124.1-68-196c-8-36.2-12.1-54.4-12-66c0.1-9.9,1-19.8-4-32c-6.3-15.4-17.9-24.1-26-30c-14.9-10.9-25.3-12-64-22
	c-48.2-12.4-72.3-18.6-78-21.3c-10.8-5.1-21.3-11.2-36-10c-5.1,0.4-9.2,1.6-30.7,11.3c-20.4,9.2-24.1,11.5-38.7,18
	c-16.3,7.3-6.3,2.1-40.7,16c-15,6.1-20.5,8.5-26.7,6c-5.9-2.4-7.1-7.1-16.7-19.3c-8-10.3-14.3-16.1-16-18
	c-55.8-62.1-111.5-533.1-111.5-533.1c-2.3-19.3-5.1-37.5-5.1-37.5c-3.2-20.5-3.6-19-5.3-31c-5.7-40.3,1.1-43.7-5.7-63
	c-0.8-2.3-3.7-10.1-3.5-20.5c0.1-6.2,0.3-12.8,5-17.5c4.6-4.6,11.1-4.8,17-5c9.2-0.3,16.9,2.4,22,5"/>
</svg>
