<?xml version="1.0" encoding="utf-8"?>
<!-- Generator: Adobe Illustrator 22.0.0, SVG Export Plug-In . SVG Version: 6.00 Build 0)  -->
<svg version="1.1" id="floods4" xmlns="http://www.w3.org/2000/svg" xmlns:xlink="http://www.w3.org/1999/xlink" x="0px" y="0px"
	 width="5760px" height="3240px" viewBox="0 0 5760 3240" style="enable-background:new 0 0 5760 3240;" xml:space="preserve">
<style type="text/css">
	.st0{opacity:0.5;fill:url(#SVGID_1_);}
	.st1{opacity:0.5;fill:url(#SVGID_2_);}
	.st2{opacity:0.5;fill:url(#SVGID_3_);}
	.st3{opacity:0.5;fill:url(#SVGID_4_);}
	.st4{opacity:0.5;fill:url(#SVGID_5_);}
</style>
<radialGradient id="SVGID_1_" cx="2315.1873" cy="2025.363" r="2043.2583" gradientUnits="userSpaceOnUse">
	<stop  offset="0" style="stop-color:#CDDAF1"/>
	<stop  offset="0.5" style="stop-color:#B1C7E9"/>
	<stop  offset="0.5094" style="stop-color:#B0C7E9"/>
	<stop  offset="1" style="stop-color:#99B7E2"/>
</radialGradient>
<path class="st0" d="M4673,2464.9c-12.1-74.4-26.9-102.6-47.6-181.7c-22-84.3-25.6-130.7-41-239c-15-105.8-31.8-196.5-65.2-377.8
	c-25.4-137.6-24.3-109.3-96.2-444.6c-77.3-360.6-115.9-540.9-125.2-604.9c-5.7-39.2-17.7-77.3-23.4-116.5
	c-4.4-30.7-6.8-56.2-25.4-83.4c-7.9-11.4-21.1-30.3-46-38.9c-38.2-13.3-72.4,8.2-74.9,9.8c-40.9,26.8-51.8,85.9-34.3,112.7
	c3.4,5.3,11.3,13.5,27,30.1c14.1,14.8,17.9,17.7,22,25c8.5,15.4,5.4,31.2,6.1,43.3c0.6,11,2.6,58.8-18.7,116.6
	c-10,27.1-11.8,20.2-46.1,94.5c-8.9,19.2-9.7,21.8-13.9,27.5c-15.6,21.5-31.4,23.9-77.2,55.1c-19.1,13-24.9,18.4-27.8,21.2
	c-13.1,12.7-21,25.1-30.6,40.4c-13.7,21.8-11.8,23.5-19.3,33.2c-6.5,8.4-14.7,15.9-45.7,32.6c-23.9,12.9-45.1,22.2-87.4,40.8
	c-24.4,10.7-35.5,15.2-39.2,16.7c-23.5,9.5-23.2,8.4-28.1,11.3c-7.5,4.4-17.6,12.5-38.2,52.2c-18.7,36-15.2,38.5-26.5,53.2
	c-3.6,4.6-18.2,22.7-43.4,35.4c-24,12.1-31.2,6.1-70.6,17.4c-29.6,8.5-51,19.2-61,24.3c-5.6,2.8-26.4,13.6-59.6,38.5
	c-43.1,32.3-43.4,40.6-87.4,74.2c-38,29-58.5,38.6-64.3,41.2c-26.7,12.2-33.1,9.5-60.3,19.8c-37.1,14-61.7,32.6-91.4,55.1
	c-46.1,34.9-41.8,42.5-75.9,62.7c-25.1,14.8-26.9,10.4-76.2,34c-6.1,2.9-16,7.7-76.4,40.3c-73.2,39.4-70.8,38.9-76.8,40.9
	c-22,7.5-22.4,3.6-115.2,16.1c-37.8,5.1-48.7,7.2-59.8,9.9c-12.3,3-39.8,10.2-73.3,25.1c-57.4,25.7-89.1,54.7-157.9,101
	c-11.6,7.8,1-0.9-134.7,81.9c-60.7,37.1-96.2,58.9-128.6,69.8c-10.4,3.5-23.9,7-41.3,17.2c-15.6,9.1-20.1,15.2-36.7,22.1
	c-11.4,4.7-21.2,6.7-30.3,8.6c-18.7,3.8-32.7,4.1-37.1,4.3c-25.9,1.4-43.1,17.4-88.6,47.8c-57.7,38.5-54.8,29.3-87.8,54.7
	c-29.6,22.8-27.8,27-67.6,59.7c-27.9,22.9-44.3,36.3-69.7,51.2c-25.8,15.2-52.2,26.7-88,42.4c-20.7,9.1-27,11.2-41.1,18.6
	c-26.1,13.6-44.3,27-57.9,37.1c-58.2,43.3-91.9,71.6-91.9,71.6c-74.1,62.1-59.8,56.6-122.6,108.8c-30.6,25.4-54.8,44.1-82.1,78.8
	c-3.2,4.1-11.3,15.3-27.4,37.7c-40.8,56.6-45.8,65.8-61.5,80.8c-16.1,15.3-29.5,23.6-52.1,37.4c-34.3,21-49.7,24.4-87.8,43.1
	c-40.5,19.9-34,21.3-91.5,52.8c-38.7,21.1-70.3,36.1-104.1,52.2c-22.3,10.6-62.1,29.1-88.7,41.4c-28.6,13.3-40.8,18.8-59.1,28.9
	c-18.2,10-20.1,12.3-57.3,35.5c-40.7,25.4-61.5,38.3-83,48.4c-2.8,1.3-20.4,8.4-55.7,22.6c-27.3,11-50,20-76.2,30.4
	c-26.2,10.4-39.3,15.6-41,16.2c-46,16.6-58.5,15.6-80.2,28.8c-19,11.5-21.1,19.3-37.1,33c-42.5,36.4-80.3,26.6-192,64
	c-29.3,9.8-41.2,15.4-48.8,27.9c-17.1,28,0.8,67.9,14.3,97.1c32.2,69.3,79.7,110.4,84,114c112.5,95.2,293.2,129.2,342,138
	c223,40.1,397.5,41.8,438,42c113.3,0.6,86.6-6.2,471-33c261.9-18.2,318.1-18.1,420-54c89.8-31.6,157.8-71,258-129
	c112.8-65.3,169.8-99,201-150c35.3-57.6,33.8-102.5,90.5-154.9c21.2-19.6,43.3-33.6,59.6-67.1c16.6-34.1,16.6-66.9,16.4-91.4
	c-0.7-74.6-29.1-93.4-13.4-127.6c14.1-30.6,51.6-47.9,81-51c57.5-6.1,93.1,40.5,112.8,25.8c20.4-15.3-15.6-66.8,7.2-94.8
	c29.3-35.9,129.6-1.1,150,6c64,22.2,70.1,44.5,135,60c46.6,11.2,51.5,1.6,84,15c51.4,21.2,81.1,62.2,99,87
	c25.7,35.6,13.6,33.5,51,96c31,51.8,47.8,67.2,51,102c2.8,30.1-7.6,41.5-9,63c-4.6,71.4,98.8,134.4,135,156
	c126.7,75.4,269.2,103.3,408,111c137.3,7.7,271.8,15.2,438-42c70.4-24.2,322.9-111.1,432-327c17.1-33.8,11.1-32,56.5-135.8
	c79.7-182.3,106.3-206,117.6-287.2C4692,2582.1,4682.2,2521.9,4673,2464.9z M3680,2293c-4.7,24-30.9,38.5-48,48
	c-16.7,9.3-30.4,12.6-44,16c-59.5,15.1-98.9,28.1-114.5,32.1c-19.1,9.6-46.7,19-74.5,13.9c-8.9-1.6-31.2-5.7-42-25
	c-12.3-21.9-0.6-46.9,1-50l-2-18c3.5-5.6,9.5-13,19-17c16.7-7.1,30.1,2.4,38-5c5.9-5.6,0.6-13,2-32c0.5-6.4,2.6-35.6,23-53
	c3-2.6,12.1-10.1,25-12c35.7-5.3,52.4,39.7,81,35c24.5-4.1,25.6-39.4,57-44c2.2-0.3,16.9-2.3,30,6c11.8,7.5,14.9,18.6,22,37
	C3673.6,2278.8,3682.9,2278,3680,2293z"/>
<radialGradient id="SVGID_2_" cx="4986.1846" cy="256.7996" r="678.1504" gradientUnits="userSpaceOnUse">
	<stop  offset="0" style="stop-color:#CDDAF1"/>
	<stop  offset="0.5" style="stop-color:#B1C7E9"/>
	<stop  offset="0.5094" style="stop-color:#B0C7E9"/>
	<stop  offset="1" style="stop-color:#99B7E2"/>
</radialGradient>
<path class="st1" d="M4144-132c5.6,39.5,9.8,69.8,12,86c12.4,90.5,14.6,112.6,32,142c6.2,10.5,19.9,33.1,46,52
	c23.1,16.7,39.5,18.5,66.6,30c33.1,14.1,48.6,28.3,83.4,54c30,22.2,92,67.9,161.5,102.3c61.1,30.2,67.9,22,146.8,61.1
	c42.9,21.3,75,40.6,88.9,49.2c67.5,41.6,61.8,48.5,121.4,86.1c12.8,8.1,77,48.1,168,83.6c24.7,9.6,21.1,7.1,39.4,14.7
	c84.6,34.8,92.7,60,146.5,75.7c23.6,6.9,77,22.4,112.4-3.8c26.2-19.4,15.4-41.6,44.9-68.5c8.9-8.1,20.5-15.8,101.4-37.1
	c67.1-17.6,58.6-12.2,80.8-20c53.9-19,58.1-34.9,116-55.4c44-15.6,46.9-8.3,64-20c43.6-29.9,48.6-93.9,51.6-140
	c3.6-54.5-6.1-100.4-25.6-190c-17-78.1-25.5-117.2-42-156c-23.9-56.4-50.5-119-108-156c-43.5-28-80.2-25.6-192-26
	c-248.1-0.9-208.8-13.4-302-6c-113.7,9-200.7,29.8-310,56c-167.7,40.2-191.7,61.2-258,46c-49.4-11.3-103.3-38.4-198-86
	c-51-25.6-82.8-44.3-130-44c-49.2,0.3-88.9,21.2-114,38"/>
<radialGradient id="SVGID_3_" cx="5005.4634" cy="1656.2056" r="1214.7411" gradientUnits="userSpaceOnUse">
	<stop  offset="0" style="stop-color:#CDDAF1"/>
	<stop  offset="0.5" style="stop-color:#B1C7E9"/>
	<stop  offset="0.5094" style="stop-color:#B0C7E9"/>
	<stop  offset="1" style="stop-color:#99B7E2"/>
</radialGradient>
<path class="st2" d="M4178,186.7c15.7,23.3,13.7,32.9,29.5,71c10.1,24.4,10.1,18.2,29,58.1c15.5,32.7,15.5,36.6,34.4,78.1
	c15.9,34.8,23.9,52.2,31.1,62.7c24.3,35.5,7.2,29.1,11.5,51.6c3.3,16.9-0.6,26.2-9.6,67.9c0,0,4.5,35.8,8.1,63.9
	c4,30.9,14.9,50.7,23.8,92.6c21.7,101.9,24,111,24,111c50.9,193.7,76.3,290.6,85.6,348.8c4,24.9,8.4,56.4,19.2,102.3
	c14.8,62.9,22.1,94.3,41.3,131.3c20.6,39.8,28.9,36,84,116c28.5,41.4,42.7,62.1,49.5,80.6c10.5,28.9,9.9,48.6,2.5,149.4
	c-8.2,113.4-11,138.5-5.5,183.5c3.5,28.3,5.3,24.1,13.4,72.2c14.3,83.9,11.3,111.1,19.7,179.9c4.7,37.8,16.3,91,39.7,197.3
	c9.2,41.7,18.9,83.9,29.7,147.1c1.8,10.6,6,35.5,10.5,67.5c19.5,137.3,8.7,141.3,23.7,188.7c13.9,43.9,19,27.4,67.8,132.3
	c19.7,42.4,26.5,61.4,48,101.3c42.9,79.4,63.9,92.5,75,98.2c3.6,1.9,51.9,25.7,93,4.5c7-3.6,13.4-8.3,45.9-53.7
	c33.9-47.3,50.9-71.3,54.6-88.8c8.4-40.1-12.8-48-3-82.5c10.2-36.1,44.3-66.5,83.4-75.3c9.7-2.2,47-10.6,75.2,9.9
	c26.3,19.1,17.6,43.7,46,87.4c13.9,21.4,31.3,48.2,59.3,57.5c53.4,17.7,114.3-37.9,144.3-65.3c15-13.7,57.5-53.4,77.1-116.6
	c4.3-13.8,0.4-5.9,12.2-60.9c14.1-65.9,20.7-82,15.9-110.4c-4.2-24.5-10.8-22.7-13.9-47.7c-4.3-34.9,5.7-62.9,11.9-79.9
	c4-10.9,15-38.4,44.2-73.6c46-55.6,68.6-47.6,99.7-90.6c31.7-43.9,36.1-90.9,37.5-108c4.1-50.6-10.8-87.9-27-127.5
	c-23-56.1-61-148.9-148.5-192c-52.2-25.7-95.4-20.5-114-58.5c-14.1-28.8-4.2-62.1-3-66c8.8-28.1,25.9-34.4,52.1-70.9
	c10-13.9,27.1-37.8,34.6-62.8c16.4-55.3-25.7-78.9-43.3-179c-10.6-60.3-5-106.7-3.1-120.1c5.3-38.6,15.8-68.6,24.7-93.4
	c26.1-73.1,43.6-79.5,48.1-123.9c2.1-20.2,6.3-61.5-18-92c-18.3-23-37.5-20.6-102-48c-18.9-8-50.4-21.5-84-42
	c-49.7-30.3-83.2-63.3-112-92c-35.8-35.7-37.5-43.6-60-66.1c-56.1-56.1-116.2-77.7-155.7-94c-18-7.5-1.3-1.3-312.5-192.7
	C4643.5,414.3,4658.2,424.7,4594,384c-89.7-56.9-97.6-64-138.2-85.7c-105-56.1-152.8-62.2-197.1-97.7
	c-22.8-18.2-36.2-23.5-63.1-33.9c-27.8-10.9-31.5-7.2-32.3-6.1C4160.5,164.7,4169.2,173.7,4178,186.7z"/>
<radialGradient id="SVGID_4_" cx="3074.8337" cy="1071.0585" r="982.3051" gradientUnits="userSpaceOnUse">
	<stop  offset="0" style="stop-color:#CDDAF1"/>
	<stop  offset="0.5" style="stop-color:#B1C7E9"/>
	<stop  offset="0.5094" style="stop-color:#B0C7E9"/>
	<stop  offset="1" style="stop-color:#99B7E2"/>
</radialGradient>
<path class="st3" d="M2057.6,1982.6c-6.3-9-14.7-23.1-20.6-41.6c-5-15.9-6-27.9-7.4-56.5c-2.5-49-3.7-73.5-2.6-81.5
	c5.8-40.1,21.8-67.2,26-74c8.6-14,9.2-10.6,24-31c24.7-34.1,42.6-70.5,52-90c12-24.7,12.4-28.7,19.3-33.7
	c23.4-16.8,51.8,4.3,82.8,5.6c35,1.4,60.2-23.1,178.4-168c83-101.7,88.6-111.6,94.5-128c27.4-75.6-6.7-95.4,24-180
	c12.6-34.8,34.3-68.5,77.7-135.8c22.9-35.4,33.1-48,46.3-60.2c18-16.7,57.1-53.1,106-54.6c66.4-2,94.6,61.9,134.1,44.9
	c20.6-8.9,34.2-35.5,47.9-62.3c9.9-19.4,14.6-35.2,16-40c28.5-94.2,43.7-141,71.2-161.9c45.9-34.8,106.6-5.5,118.8-34.1
	c7.2-17.1-14.5-27-16-58c-1.6-32.6,21-49.8,76-120c36.1-46.1,28-40.8,60.9-81.8c50.7-63,76.5-94.6,101.1-96.2
	c31.7-2.1,36.2,25.8,99.5,37.7c12.7,2.4,33.9,5.3,59.8,3.3c13.6-1,32.5-2.5,52.7-11c22.8-9.7,27.1-20,49.3-37.4
	c17.7-13.8,21.2-12.2,120.7-56.6c31.9-14.3,34.6-15.8,43.4-17.7c42.7-9.1,78.9,5.8,92.6,11.7c24.1,10.3,43.4,18.6,54.1,38.3
	c13.7,25.2-3.7,37.6,3.9,81.7c5.1,29.8,21.3,72.4,48,78c10.2,2.2,15.7-2.5,24,2c14.3,7.6,23.3,33,16.6,51.1
	c-3,8.1-8.6,13.6-6.3,21.2c1.2,3.8,3.1,4.1,8,12.3c3,5,4.7,9.1,6.5,13.3c3.6,8.4,3.5,10.2,6.7,17.1c1.8,3.8,3.3,6.3,5.7,10.6
	c3.9,6.6,8.7,14.8,15.5,23.4c4.7,6,8.7,9.9,16.7,17.7c14.8,14.6,16.3,13.6,21.3,20.8c6,8.6,9.4,17.8,11.1,22.4c0,0,2.4,6.5,3.8,12.7
	c4.6,20.2-2.6,45.4-10.1,66.8c-4.8,13.9-4.8,12.2-15.6,39.9c-17.7,45.8-18.2,51.9-27.9,67.8c-4.8,7.9-11.1,16-23.5,32.4
	c-13.1,17.2-18.5,22.9-23.8,27.8c-8.3,7.6-15.4,12.3-22.9,17.2c-16.7,11-21.7,11.3-35.7,20.8c-5.2,3.5-14.5,9.8-24,19.3
	c-16.3,16.4-14.3,23.5-32,45.3c-6.1,7.5-13.2,14.6-27.3,28.7c-7.8,7.8-18.4,18.3-25.3,24.2c-13.1,11.1-24.5,15-86.3,32.2
	c-42.9,11.9-51.3,13.9-64,23c-18.3,13.2-29.4,29.6-31,32c-9.8,14.8-7.5,18.5-19.9,40.7c-4.4,7.9-11.4,17.6-25.4,37.1
	c-10.8,15-16.4,21.9-25.8,26.4c-2.7,1.3-5.4,2.2-9.8,4.9c-9.2,5.5-11.6,9.9-18,15.1c-9.5,7.8-11.5,4-26,12.9
	c-13,7.9-12.6,11.7-22,15c-6.8,2.4-7.6,0.6-23,2c-14.6,1.3-25.9,4-34,6c-9.7,2.3-14.6,3.5-18,5c-15,6.5-16.9,15.6-33.3,31.4
	c-10.2,9.8-9.4,6.2-33.7,25.6c-7.2,5.8-16.6,13.3-27,23c-21.9,20.4-20.1,24-34,36c-10.4,8.9-24.3,15.6-52,29
	c-9.6,4.6-21.9,10-45.9,20.6c-46.5,20.4-47.2,20.1-56.1,25.4c-13.5,8.1-20.5,14.2-37,22c-3.6,1.7-8.5,3.9-15,8
	c-10,6.3-16,12.2-20.5,16.2c-14.3,13-15.4,10.1-36.9,27.1c-21.8,17.3-18.9,19-31.3,26c-11.8,6.6-27.9,12.6-33.3,14.7
	c-9.8,3.6-8.4,2.6-13.3,4.7c-20.5,8.5-22.8,17.6-44,28.7c-3.7,2-1.5,0.5-19.3,8.7c-13.1,6-19.6,8.9-24,11.3
	c-8.4,4.6-8.8,5.9-27.9,19.5c-15,10.7-22.6,16.1-30.1,19.9c-11.8,6-21.6,8.6-29.3,10.7c-17.3,4.6-21.8,3-64.7,8.7
	c-8.2,1.1-15.7,2.2-19.3,2.7c-17.9,2.5-31.9,4.8-35.3,5.3c-28.4,4.6-34.2,10-82.7,22c-22,5.5-27.9,6.1-42,11.3
	c-10.1,3.7-11.1,4.9-36,16c-27.4,12.2-29.2,12.1-40.7,18c-13.6,6.9-22.4,12.8-37.3,22.7c-20.9,13.9-24,17.7-53.4,37.9
	c-9.3,6.4-16.2,11-23.1,15.6c-25.4,16.8-44.6,28.8-51.9,33.3c-13.1,8.1-19.6,12.1-29.6,17.7c-17.3,9.8-31.1,16.6-34,18
	c-26.4,12.9-30.4,12.5-45.5,22c-7.5,4.7-5.4,4.1-21.5,15c-11.9,8-20.4,13.7-31.5,19.8c-10.3,5.6-9.6,4.3-24.5,11.7
	c-16.6,8.3-20.5,11.4-36.7,19.9c-6.8,3.5-16.8,8.6-29.3,14.1"/>
<radialGradient id="SVGID_5_" cx="737.4667" cy="2290.9333" r="1108.5991" gradientUnits="userSpaceOnUse">
	<stop  offset="0" style="stop-color:#CDDAF1"/>
	<stop  offset="0.5" style="stop-color:#B1C7E9"/>
	<stop  offset="0.5094" style="stop-color:#B0C7E9"/>
	<stop  offset="1" style="stop-color:#99B7E2"/>
</radialGradient>
<path class="st4" d="M2043.5,1985c-0.4-4.2-1-10-2.5-17c-2.6-12.3-6.2-21.3-9-28c-9.6-23.1-15.6-37.3-27.5-58.5
	c-16.7-29.7-17.1-23.3-24.5-40c-9.3-21.1-9.7-33.6-23-49.5c0,0-8-9.4-18-16c-35.8-23.3-83.4,24-148.1,20.5
	c-57.9-3.1-102.1-45.4-117.8-60.4c-17.7-16.9-15.4-20.6-66-81c-14.6-17.4-25.7-30.1-48-55.5c-38.7-44.1-58.4-66.5-76.5-84
	c-29.2-28.2-43.8-42.3-65.7-55.4c-25.4-15.2-66.5-39.6-115.8-30.1c-9.5,1.8-50,9.6-70.7,44c-11.7,19.4-12.1,39.1-12.4,52.9
	c-0.4,20.4,3.6,40.6,17.1,72.7c17.9,42.4,30.7,54.5,49.6,89.3c25.7,47.6,36.2,88.8,40.4,105.7c14.6,58.9,25.2,101.6,6,142.5
	c-21.7,46.3-60.5,58.2-97.5-7.5c-25.2-44.8-18.7-54.9-54-121.5c-19.4-36.6-22.7-36.1-31.5-58.5c-17.1-43.7-8-54.8-24-106.5
	c-13.4-43.3-31-71.9-37.5-82c-7.6-11.8-18.8-28.8-37.5-47c-23-22.4-31.2-21-70.5-49.5c-42.2-30.6-48.7-43.8-60-40.5
	c-16.4,4.8-16.1,36.4-26.3,93.9c-13.5,76.1-20.3,114.1-44.1,146.1c-34.9,46.7-91.8,65.7-114.3,73.2c-52.1,17.4-84.3,10.6-115.2,40.7
	c-20.1,19.6-26.7,42.2-30,52.5c-48,148.9-220,227.4-212.7,369.4c3.2,62.5,38.6,88.4,23.3,159.7c-8.7,40.4-28.3,70.5-39.6,87.9
	c-30.4,46.7-64.3,72.3-107.6,104.4c-65.7,48.7-98.6,73-142.6,71.4c-18.7-0.7-42.3-8.3-89.4-23.4c-33.7-10.9-44-16.5-76.4-26
	c-31.3-9.2-52.9-15.6-77.6-18c-74.8-7.4-135.1,25.4-154,36c-36.4,20.4-58.2,43.2-82,68c-40.1,41.9-43.5,60.8-98,122
	c-31.3,35.2-31.8,30.7-46,50c-14.2,19.2-49.4,67-54,132c-3.4,48.3,7.6,139.8,64,170c97.4,52.2,266.9-112.6,368.2-70.5
	c52.1,21.7,79.4,40.5,79.4,40.5c26.2,18.1,32.6,28.2,56.4,37.5c6.5,2.5,17.7,6.3,68.3,11.5c37.6,3.8,56.3,5.7,67.5,5.2
	c34.1-1.5,47.9-13,105.1-37.9c51.6-22.3,43.3-14.5,109.3-41.8c29.3-12.2,67-27.7,112.5-51c73.3-37.5,74-47.2,138-78
	c44.9-21.6,43.1-16.1,109.5-46.5c41.5-19,72.1-34.9,108-53.5c63.1-32.7,94.6-49,104.3-57.4c24.6-21.2,40.4-43,74.1-51.1
	c12.8-3.1,20.1-2.2,34.4-7.4c9-3.3,25.3-11.1,52.6-39.1c17.3-17.7,28.8-33.1,39.3-47.5c28.3-39,38.8-56.8,53-77
	c6.9-9.8,37.3-52.6,79-91c42.1-38.8,59.1-39.5,106-75c27.7-21,65.3-53.6,104-103"/>
</svg>
