<?xml version="1.0" encoding="utf-8"?>
<!-- Generator: Adobe Illustrator 20.1.0, SVG Export Plug-In . SVG Version: 6.00 Build 0)  -->
<svg version="1.1" xmlns="http://www.w3.org/2000/svg" xmlns:xlink="http://www.w3.org/1999/xlink" x="0px"
	 y="0px" viewBox="0 0 5760 3240"  width="5760" height="3240">
<style type="text/css">
	.st0{opacity:0.19;}
	.st1{fill:#FFFFFF;}
	.st2{opacity:0.23;}
	.st3{opacity:0.29;}
	.st4{opacity:0.45;}
	.st5{opacity:0.37;}
	.st6{opacity:0.1;}
</style>
<g id="MAP_x5F_PB_x5F_6">
	<g id="XMLID_6_" class="st0">
		<g>
			<path class="st1" d="M4878.1,0h162.7c-26.7,12.1-35.7,26.9-59.3,35.6c-23.7,8.7-77.3,44.5-97.6,65.5
				c-7.5,7.7-17.2,15.7-27.6,22.8c4.4-22.3-0.4-14.7-2.1-24.3c-1.7-9.7-6.3-6,12.7-46s-22.2-18.2-22.2-18.2
				C4856.7,23.3,4867.7,11,4878.1,0z"/>
			<path class="st1" d="M3217.4,963.5c-5.8,5.1-9.9,8.8-27.2,15.9c-17.3,7.2-58.5,46.3-67.8,56c-9.3,9.7-12.3,11.5-26,21.8
				c-13.7,10.3-32.1,22.7-32.1,22.7s-4.5,2.8-7.5,7.7c-3,4.8-5.5,3.7-20.8,11.2c-15.3,7.5-9,3.7-21.7,10.8
				c-12.7,7.2-37.9,14.3-51.2,25.8s-3.5,7.3-20.5,25.3s-23.3,30.8-37,41.5s-22.5,20.8-32,32.3c-4.1,4.9-7.5,10-10.9,14.7
				c-4.6,6.3-9.1,11.8-15.1,15.3c-10.5,6-17.8,2-35.8,0.3s-17.3-6.8-28-15s-11.3-12.5-11.3-12.5s-2-0.8-5.8,8s-1.5,20.3-4.5,42
				s-1.3,16-4.8,28.8s-1,22-44.5,46.5s-51,21-94,31.5s-130.5,29.5-158.5,37.5s-46,15.5-73.5,37s-41.5,41-85,71.5s-36.5,13-69.5,33.5
				s-54,56.5-68,77s-22,7-37,0s-11-9.5-16.5-30.5s-7-14.5-21.5-29c-3.4-3.4-6.7-5.6-9.9-7.5c0.1-0.2,2.9-8.1,10.1-8.8
				c7.3-0.7,14,1.7,21,10.3c7,8.7,10.3,14.7,20.3,17.3c10,2.7,22.7,8.3,29.7,0c7-8.3,12.7-3.3,15-25c2.3-21.7,6.3-30.3,12.7-43.7
				c6.3-13.3-10.7-6,27.3-22.7c38-16.7,40.3-30.3,58-22.3c17.7,8,17.7,16,26.7,12.3c9-3.7,32.2-19,57.2-32s48.5-14.5,51-24
				s-7.5-19-16.5-30s-21.5-10.5-26-26.5s-11.5-24-5-29.5s17-4,28.5,4s10.5,5,25,10s20,9,25,14s24.8,4,35.8,3.3c11-0.7,23,0.3,41-9.3
				c18-9.7,20.7-14,31.7-10.3c11,3.6,8.3,8.6,20.3,4.3c12-4.3,31.3-7.7,36.7-9.3c5.3-1.7,21-5.7,47.7-13c26.7-7.3,31.7-3.7,51-13.3
				c19.3-9.7,31.7-8.7,36.3-17.3c4.7-8.7,9-43,12.5-56s-2.3-11.3,9.5-28.8s2.3-35,1.3-40.8s3.8-0.8-7.5-14.8s-39.1-37.1-47.4-43.1
				c-8.3-6-2-6.7-21.3-15.7c-19.3-9-23.7-7.7-25.7-16.3c-2-8.7-3.3-14-12-13.7c-8.7,0.3-12,3.7-28.7,8.3c-14.6,4.1-9.5,5.4-25,5.8
				c0,0,4.5-20-5.8-33.7c-10.3-13.8-22.3-25.4-38.3-30.6s-21.5-21-20.8-31s-7.8-13.5-19.3-25.8s-29.8-16.5-22-31.3
				s13.8-16.3,21.3-26.8s21.5-21.3,33-27.5s22.3-14.5,33.8-10.5s20.8,7.8,13.8,22.3s-20,6.3-3.8,26.3s11.8,37.1,38.1,37
				c-0.2,1.1-0.3,2.2-0.3,3.3c-1.3,42.7,12.7,30,34.7,58c22,28,35.5,27.1,45.8,43.1c0,0,14.3,22.3,20,30.3c5.7,8,6.7,0.7,12,13.7
				c5.3,13,2,8,5.3,19.7c3.3,11.7,4.3,12,12.3,20.7c8,8.7,13,10,18.3,19.7c5.3,9.7,10,20.3,22.3,21.3c12.3,1,21,6,28.3-4
				c7.3-10,9.7-10.3,12.3-25c2.7-14.7-5.7-9.7,4-20.3c9.7-10.7,8.7-16.7,20.3-9.3c11.7,7.3,16,12.3,18.7,12.3
				c2.7,0,8.8-9.5,10.8-15.3s4.8-4.5,5.8-18s-6-12.8,3.5-23.3s-0.5-14.3,14.8-12.3s16.8,7.8,27.8,8s18.2-7.3,20.2-10.9
				c2-3.7,4.2-7.3,4.2-7.3s22.3-35.4,64.3-42.7c42-7.3,42.3-32.3,54.7-45c12.3-12.7,15.7-22.9,29.3-28.8c13.7-5.9,22.9-4.9,48.1-4.9
				c25.2,0,31,3,43.8-9C3211,955.1,3214.4,959.8,3217.4,963.5z"/>
			<path class="st1" d="M3201,1105.8c-1.7,7.4-1.2,16.4-2.6,21.7c-2,8-18,45-25,50.5s-21.5,5-40,17.5s-11.5,15-9,22s10,14.5,13,24.5
				c2.4,8-96.1,94.8-141.2,134.6c-0.6-0.6-22-22.1-37.8-34.1c-7.2-5.5-13.4-13.6-19.3-22.2c15.8-13.1,31.9-26.5,41.1-34.5
				c19.5-17,29.8-30,40.3-35.8s12-4,23.3-8s13,1,25.3-11.8s24-18.3,31.8-27s16.3-20.3,25.8-35s18.5-42.3,23.5-49.8
				s13.3-18.2,13.3-18.2C3182.6,1101.1,3201,1105.8,3201,1105.8z"/>
			<path class="st1" d="M4402.1,0h133c-27,8.7-63,88.6-70.5,106.6s-19.8,70-23,74.2s-8.8,18-11.3,33.5s15.3,63.8,5.8,89.3
				c-2.5,6.8-8.5,16.2-16,26.6c0,0-35.5-28.6-46-13.6s-74,80-97.5,95s-12.5,18.5-21.5,31.5s-36,34.5-54,44s-23,19.5-39.5,11.5
				s-18.5-21.5-32.5-31s-5-17-25,4c-20,21-41.5,28.5-62,46.5c-20.5,18-32,28-33.5,17s21.5-60,22-76s8-33-33-15.5s-67,43-55.5,24
				s60-42.5,69-62s25-30.5,8.5-39s-24.5-9-41.5,15.5s-50.5,87-90,119s-65.5,40-59,56s13.5,6.5,21,22s8,17,26,17s27.7-4.3,42.6,3.6
				c-1,1.5-1.7,3.1-2,4.5c-0.9,5.4,2,7.8,5.9,10c-11.7-5.2-50,0.5-69.2,3.4c-20,3-105.3,45-112.6,52s-28.5,39.5-32.3,56
				s5.3,54.3,12.8,67s20.9,1.7,20.9,1.7h0c-1.3,2.4-2.9,5.1-5.2,8.1c-10.8,14.5-23.8,33.5-33.8,45s-9.8-2-18.3-7.8
				s-18.5,1.5-28.5-0.5s-5-6-7.5-19.3s-11.8-17.3-21.8-19.5s-22.5,12.5-30.8,19s-8.5,12.5-8,23.8s8.5,8,13,19.5s-8.5,25-19,30.5
				s-23-4-34,5.5s-78.5,48-97.5,67.5s-35.5,27-42,42.5s18,36.3,0,50.8s-35.3,20.7-35.3,20.7s-12,4.2-22.8,9.7
				c-10.8,5.5-14.7,10.5-21.3,19.3c-6.7,8.8-20.7,18.5-50.7,47.5s-65,63-102.5,102.5s-59,75.5-101,127s-58.5,57.5-90,95.5
				S2904,1593,2876,1629s-63,76.5-94.5,101.5s-118,49.5-161.5,63.5s-67.5,18-128,32.5c-38.2,9.2-80.3,17.1-118.5,22
				c0,0-19.2-13.5-19.5-15.8c-0.3-2.3,8.3-12.7,14.3-17.7c5.5-4.6,84.7-93.4,116.8-129.3h0c3.1-3.4,5.7-6.4,7.8-8.8
				c24-26.7,48.7-50.7,60-66c11.3-15.3,8.5-10.5,48-24.5s182-74.5,202.5-86s112-47.8,137-57s25.5-17.3,36.5-12.3s38.5-34.5,47-45
				s146-156.3,171.8-178.8c25.9-22.5,53.2-33,80.5-63.7c27.3-30.7,66-63.7,66-63.7c18.2-16.2,5.3-6.4,13.3-16.9s6-19.5-4-31.5
				s-16.5,21.5-24.4-17c-7.9-38.5-1.1-20.5-0.1-72.5s-5.5-30-35-26.5s-29,19-50,46.5c-1.8,2.4-3.5,4.3-5.1,5.8
				c-7.6,7.2-12.7,4.3-19.7-4.4c-3-3.7-6.3-8.4-10.3-13.9c-7.1-9.7-16.3-21.6-29.6-34c-42-39.3-125-123.3-148-138
				c-23-14.7-27.7,2-75.7-11s-22-19.3-11.3-45.7c10.7-26.3,13.7-3.3,47,8.7c33.3,12,25.3-0.3,28.7-16.7c3.3-16.3-6.7-6.3-34-10.7
				c-27.3-4.3-49-28.7-90.6-78.7c-41.6-50-100.9-48.5-126.9-43s-24,24.5-47.5,19s-17-4-49.5-30.5s-30-41-58-70.5
				c-28-29.5-25-3.5-54-5s-18-8.5-27.5-32s-16-25.5-45-32.5s-67,17.5-97.5,40s-45,44-78,55s-17.5-8.5-14-34c3.5-25.5,13.5-49,20-83
				s-11-7.5-32.5-7.5s-63-10.5-102.5-31s-28.5-12-49-9s-37.5,20-62,31s-17.5,0.5-38,10s-13,45.5-11.5,75.5s17,33.5,32,55
				c15,21.5,15.5,35.5,14.5,74.5s4.5,30,24.5,28s4.5-35.5-5.5-86.5s-9.5-42.5-8.5-76.5s5.5-18,19-12.5s39,10.5,88.5,23.5
				s38,14.5,45.5,35c7.5,20.5-12,17.5-28.5,39s-15.5-1.5-33,1s8,58.5,5,89s-13.5,4.5-34.5,14.5s-4.5,18.5-30.5,37.5
				c-6.6,4.9-11,7.2-14.1,7.6c-9.1,1.3-7.3-13.5-18.9-29.1c-15.5-21-16-22.5-45-61.5s-50-101-49.5-123.5c0.5-22.5-1-17.5-15.5-44.5
				s-2-11,7.5-42.5s8.7-33.8-13.3-49.5c-22-15.7-65.3-14-96.3-22s-19-4-28.3-19.3c-9.3-15.3-3-13.7-11.7-24.3
				c-8.7-10.7-36.8-55.3-51.3-88.8s-6-27-7-56.5s-13-1.5-42-45.5s-26-15-70-28.5s-43-9-76.5-12.5c-3.3-0.4-6.1-0.7-8.5-1.1
				c-21.1-3.7-3.7-9.8,8.5-17.9c13.5-9,66.5-6.5,87.5-19s0-19.1,0-19.1h224.5c4.5,27.9,4,39.6-6.5,82.1
				c-9.5,38.6,3.2,36.8,16.5,60.9c1.3,2.4,2.7,5.1,4,8.1c14.5,33,68.8,37.2,114.8,68.5c46,31.3,17.3,2,94,8.7
				c76.7,6.7,60.7,40.7,87.3,68c26.7,27.3,35.3,12,226.7,0c191.3-12,236.7,26.7,272.7,30c36,3.3,70,9.3,154,50.7
				c84,41.3,68,58.7,120.7,106.7c52.7,48,357.3,192,431.3,225.3c5.4,2.5,10.3,4.7,14.8,6.7c56,25.4,37.8,17,69.9,4
				c34.7-14,103.8-43,135.8-71.5s25.5-68.5,44.8-100.5c0.8-1.3,1.6-2.5,2.3-3.8c18.2-29.4,32-42.7,40.7-54.6
				c9-12.3,17.4-43.4,7.9-71.4s-26-58.8-42.5-82.8s-55.1-90.2-63.4-106.2c-8.3-16-16.7-30.7-30.3-52c-13.7-21.3-55-33.3-63-53
				c-8-19.7-12.7-17.7-26.7-34.3s-33.3-39.7-39.8-53.3c-6.5-13.7-7-36.3-7-36.3h16.5c2,47.1,52.7,70.9,72.7,98.9
				s41.3,36.7,65.3,64.7s112,182,127.3,215.3c15.3,33.3,46.7,32.7,56.7,44c10,11.3,14.3,0,34.7-5c20.3-5,7,7.7,2.7,25.7
				c-4.3,18-4.6,47.5-9.3,55.5s-17,17-19.8,27.5s2,11.3,12.8,12.3s15.7-17.3,27.7-29.9c12-12.7,85.3-102.7,110-137.3
				c24.7-34.7,31.3-50.7,68.7-85.3c37.3-34.7,189.3-120,212.7-135.3c23.3-15.3,74-62,94-92.7C4340.1,27.6,4402.1,0,4402.1,0z"/>
			<path class="st1" d="M3651.6,2668.1L3651.6,2668.1c-6.5,1.2-12.3,3.3-17.2,5.8c-0.2,0.1-0.3,0.1-0.4,0.2
				c-5-15-47.2-55.8-47.8-99.1c-0.7-43.3,6-32.7-2.7-76c-8.7-43.3-22-44.7-26-78c-4-33.3-10-32.7-26-56
				c-16-23.3-24.3-32.8-30.3-52.3s-14-28.5-26.5-37.5s-22.5-8.5-46.5-28.5s-50-25-72-33s-54-25-68-32.5s-35,3.5-30.5,28.5
				s-1,39-6,39s-21,16-29.5,16.5s-25.3-10.5-33-29s-11.8-20.5-22.5-23.3s-10,25.3-11,34.5s-2.5,5.3-8.3,5.5s-6.3,1.5-9.3-2.3
				s-5-12.3-8.3-22.3s-14-23.8-15.5-36.5s1.9-31.9,1.9-31.9s3.2-6.5-8.3-37.5s-16.5-32.5-28.5-52.5s-50.5-41-69.5-64.5
				s-47.5-57.5-55.5-71.5s-15-13-20.5-25.5s-10-16-7-22.5s7.2-7.3,14.2-10.5c7-3.2,10.2-8.8,11.7-4.7c1.5,4.2-0.5,7.2-1.2,14
				c-0.7,6.8-9.8,7.7,0.5,13c10.3,5.3,16.2,3.3,26.2,6.2c10,2.8,57.2,31.5,60.7,37s-3-7,25,39s42.5,67,58.5,80.5
				c16,13.5,21.5,18.5,47.5,20s34-2.5,60.5,10.5s54,15.5,72,29.5s9,16,35.5,25.5s44,14,44,14s26.8,8.6,41.2,14.9
				c14.3,6.3,51,34,68.3,38.7c17.3,4.7,20.7-6,28.7,22s2,20.7,16.7,46c14.7,25.3,27.3,34.7,30.7,50.7c3.3,16,3.3,37.3,8.7,54.7
				c5.3,17.3,18.8,46.7,28.4,66.7c9.6,20,16.3,42,13.6,66c-2.7,24-12.7,18-4,60C3622.8,2621.6,3642.3,2654.8,3651.6,2668.1z"/>
		</g>
	</g>
</g>
<g id="MAP_x5F_PB_x5F_5">
	<g id="XMLID_5_" class="st2">
		<g>
			<path class="st1" d="M5760,2681.6V3240h-511.4c0,0-7-3.4,6-13.9s18.5-2,58.5-13s61.5-42,90-83s73-103.8,97.7-167.2
				c24.7-63.3-6-36,34.7-92.7c40.7-56.7,36-72,78-96s58-23.3,64.7-38.7c6.7-15.3-0.7-14.3,25.7-23.7
				C5730.1,2702.6,5731.2,2684.6,5760,2681.6z"/>
			<path class="st1" d="M4893.6,2962.1c15,16,26,11,0,42.5s-46.5,77.5-75,95s-39.5,39.3-54.2,54c-14.7,14.7-12,11.3-10.3,23.3
				c1.7,12-3.7,15-22.7,24.7s-42.3,20.8-51.3,38.4h-212c0,0-6.7-19.7,3.3-23.1c10-3.3,39.3-12.7,50.7-26c11.3-13.3,38-56,28-82.7
				c-10-26.7-2-39.3-10.7-60.7c-8.7-21.3-10.7-24.7-7.3-54c3.3-29.3,9.3-53,7-68c-2.3-15,12-27-10-23.3c-22,3.7-26.7,4.3-59.7,23
				c-33,18.7-29,20-52.7,26.7c-23.7,6.7-24,3.3-3.3-21.3c20.7-24.7,37.3-30,47.3-42s67.8-46.5,76.3-67s-12-20,30-27s37-9,53.5,10.5
				s23.5,20,16.5,48s-8.5,69-12,83.5s-5.5,33.5,17,17s26-46.5,59-77s13.5-34,50-34s58-12,62,14s-11,91.5-11,109s-0.5,22,17.5,18.5
				s15.5-1.5,37-14S4878.6,2946.1,4893.6,2962.1z"/>
			<path class="st1" d="M4221.6,54.9c5.8,13-3,12.5-8.8,16.8s-21.4,9.3-29.4,16s-15.3,19.3-30.7,33.3c-15.3,14-23.3,7.3-32,14.7
				c-8.7,7.3-51.3,28.7-72.4,42.7c-21.1,14-35,38.7-37.6,56c-2.7,17.3-27.3,13.3-31.3,12c-4-1.3-66.7,15.3-75.3,15.3
				c-8.7,0-29.3-0.7-36,6.4c-6.7,7-22,38.3-36.7,53.6c-14.7,15.3-17.3-2.7-30.7-9.4c-13.3-6.7-21.3-42-24.7-60.4
				c-3.3-18.4-18.7-12.9-33.3-18.2c-14.7-5.3-18-20-6.7-28c11.3-8,28.7-26.7,26.7-44.6c-2-17.9-11.3-20.8-22.7-15.4
				c-11.3,5.3-57.3,20-65.3,14s-4.7-21.3-3-30.7c1.7-9.3,27.7-15.3,29-23.1c1.3-7.8-12-22.2-33.3-34.2c-21.3-12-54-2-75.3-18
				c-21.3-16,16-20,37.3-32c21.3-12-4.7-21.6-4.7-21.6h124.3c0,0-10,17.6,12,58.6s14.5,49,18,54s11.5,5.5,16,6.5s8,9,6,23.5
				s14,29.5,17,40.5s16,29,28,9.5s60-67.5,84.5-89s70-32.5,58-52.5s-20-22-12.5-31s18-7.7,26.5-20.1h195.7
				c-4.3,13.1-6.5,14.6-4.5,23.1S4215.9,41.9,4221.6,54.9z"/>
			<path class="st1" d="M2917.2,1291c7.8,7.7,14.7,18.8,21.9,29.3c-17.8,14.8-35.4,29.1-42.5,35c-13.5,11.2-29.7,20.3-38.8,29.2
				c-9.2,8.8-60.1,45.5-60.1,45.5c-4.8-8.8-8.8-16.7-8.9-18.9c-0.2-5.3-0.5-25,4.7-30.3c5.2-5.3,12.5-10.5,24.3-17.5
				c11.8-7,58.4-57.6,71.7-69.8c7-6.4,11.8-10.3,17.8-15.2C2908.4,1281,2911,1284.9,2917.2,1291z"/>
			<path class="st1" d="M2996.3,1376.6c45.1-39.8,143.6-126.6,141.2-134.6c-3-10-10.5-17.5-13-24.5s-9.5-9.5,9-22s33-12,40-17.5
				s23-42.5,25-50.5c1.3-5.4,0.9-14.3,2.6-21.7c0.8-3.7,2.1-7,4.4-9.3c7-7,15.8-16.5,15.8-16.5s7.4,2.1,5.4-33.4s-4.3-35.5-1.7-46.5
				c2.7-11,5-23.7,12.1-32.2c1.6-1.5,3.3-3.4,5.1-5.8c21-27.5,20.5-43,50-46.5s36-25.5,35,26.5s-7.8,34,0.1,72.5
				c7.9,38.5,14.4,5,24.4,17s12,21,4,31.5s4.9,0.8-13.3,16.9c0,0-38.7,33-66,63.7c-27.3,30.7-54.7,41.3-80.5,63.7
				c-25.8,22.5-163.3,168.3-171.8,178.8s-36,50-47,45s-11.5,3-36.5,12.3s-116.5,45.5-137,57s-163,72-202.5,86s-36.7,9.2-48,24.5
				c-11.3,15.3-36,39.3-60,66c-2.1,2.3-4.8,5.3-7.8,8.8h0c-0.6,0-25.6,0-41.6,0c-16.3,0-20.5,0-29.5,2.5s-25,10.3-36.3,17
				s-21.8,0.8-37.3-1.3c-15.5-2.1-17.3-1.9-26.8-0.7s-106,0.5-121.8,0c-10.7-0.3-27.4-1.6-41.5-2.6c-1.6-0.1-3.3-0.2-4.8-0.3
				c1-0.4,35.1-13.6,55-24c20.2-10.5,49.3-24.2,59-30.2c9.7-6,35.1-34.9,52.6-43.9s44.8-18.8,65.8-26s26.5-9.5,49.8-13
				s53-2.5,74-2.5s29.3-1,54.8-0.1c25.5,0.9,35.3,4.4,47,2.9s26.3-11,33.8-18.5s56.8-40.7,76.4-50c19.7-9.3,18.7-3,45-15.3
				c11.6-5.5,31.7-13.3,51.9-20.6c1.1-0.4,2.1-0.8,3.1-1.1c24.6-8.8,48.8-16.6,58.3-18.2c17.7-3,18.7,0,50.3-15.3
				c31.7-15.3,41-17.3,52.7-28.7C2977.3,1393.4,2985.2,1386.5,2996.3,1376.6z"/>
			<path class="st1" d="M2522.1,1081.5c5.8,20.3,11.1,23.3,18.9,29.5c8,6.3,21.3-3.3,46.7-3.7c3.1,0,5.8-0.1,8-0.2
				c15.5-0.5,10.4-1.8,25-5.8c16.7-4.7,20-8,28.7-8.3c8.7-0.3,10,5,12,13.7c2,8.7,6.3,7.3,25.7,16.3c19.3,9,13,9.7,21.3,15.7
				c8.3,6,36.2,29.1,47.4,43.1s6.5,9,7.5,14.8s10.5,23.3-1.3,40.8s-6,15.8-9.5,28.8s-7.8,47.3-12.5,56c-4.7,8.7-17,7.7-36.3,17.3
				c-19.3,9.7-24.3,6-51,13.3c-26.7,7.3-42.3,11.3-47.7,13c-5.3,1.7-24.7,5-36.7,9.3c-12,4.3-9.3-0.7-20.3-4.3
				c-11-3.6-13.7,0.6-31.7,10.3c-18,9.7-30,8.7-41,9.3c-11,0.7-30.8,1.7-35.8-3.3s-10.5-9-25-14s-13.5-2-25-10s-22-9.5-28.5-4
				s0.5,13.5,5,29.5s17,15.5,26,26.5s19,20.5,16.5,30s-26,11-51,24s-48.2,28.3-57.2,32c-9,3.7-9-4.3-26.7-12.3
				c-17.7-8-20,5.7-58,22.3c-38,16.7-21,9.3-27.3,22.7c-6.3,13.3-10.3,22-12.7,43.7c-2.3,21.7-8,16.7-15,25c-7,8.3-19.7,2.7-29.7,0
				c-10-2.7-13.3-8.7-20.3-17.3c-7-8.7-13.7-11-21-10.3c-7.2,0.7-10,8.6-10.1,8.8c-10.6-6.3-20.2-8.5-27.1-33.5
				c-9-32.5-0.5-13-13.5-43.5c-13-30.5-9.3-52.5,0.7-64.5c10-12,3.7-11-3.3-23.7c-7-12.7-7.7,0-30.7,0s-32.7-4.3-41.3-14.3
				c-8.7-10-3-12.3,2.7-32c5.7-19.7-5.7-15-6-43.3c-0.3-28.3,6.7-23.4,29.7-61c23-37.7,7.7-12.7,9.8-24.7c2.2-12-8.5-16.8,0-28.3
				s16-7,20.3-10.5s8.5-12.8,15.8-27s5.5-13,5.3-21.3s-3-8,0-16s5-1.8,15-1.8c10,0,7.5-4.5,12.8-18s11-40.3,11-40.3
				s0.7-11.1,8.3-27.7c7.7-16.7,9.7-14.3,28.3-29.3c18.7-15,60.7-42,25.7-49.3c-35-7.3-14.3-12.7-53-23c-38.7-10.3-32.3,4-44.3-9
				c-12-13-12.7-51.3-7.7-64.3s17.3-10.7,18-18.7c0.3-3.2,0.5-5.4,0.2-7.2c0.2-7.2,8.6-27.8,14.6-45c6-17.2,8-12.3,19-39.8
				s5.5-18.5,9-40s-4.1-21.4-4.1-21.4c3.1-0.5,7.5-2.8,14.1-7.6c26-19,9.5-27.5,30.5-37.5s31.5,16,34.5-14.5s-22.5-86.5-5-89
				s16.5,20.5,33-1s36-18.5,28.5-39c-7.5-20.5,4-22-45.5-35s-75-18-88.5-23.5s-18-21.5-19,12.5s-1.5,25.5,8.5,76.5
				s25.5,84.5,5.5,86.5s-25.5,11-24.5-28s0.5-53-14.5-74.5c-15-21.5-30.5-25-32-55s-9-66,11.5-75.5s13.5,1,38-10s41.5-28,62-31
				s9.5-11.5,49,9s81,31,102.5,31s39-26.5,32.5,7.5s-16.5,57.5-20,83c-3.5,25.5-19,45,14,34s47.5-32.5,78-55s68.5-47,97.5-40
				s35.5,9,45,32.5s-1.5,30.5,27.5,32s26-24.5,54,5c28,29.5,25.5,44,58,70.5s26,25,49.5,30.5s21.5-13.5,47.5-19s85.3-7,126.9,43
				c41.6,50,63.3,74.3,90.6,78.7c27.3,4.3,37.3-5.7,34,10.7c-3.3,16.3,4.7,28.7-28.7,16.7c-33.3-12-36.3-35-47-8.7
				c-10.7,26.3-36.7,32.7,11.3,45.7s52.7-3.7,75.7,11c23,14.7,106,98.7,148,138c13.2,12.4,22.5,24.3,29.6,34c-12.8,12-18.6,9-43.8,9
				c-25.2,0-34.4-1-48.1,4.9c-13.7,5.9-17,16.1-29.3,28.8c-12.3,12.7-12.7,37.7-54.7,45c-42,7.3-64.3,42.7-64.3,42.7
				s-2.2,3.7-4.2,7.3c-2,3.7-9.2,11.2-20.2,10.9s-12.5-6-27.8-8s-5.3,1.8-14.8,12.3s-2.5,9.8-3.5,23.3s-3.8,12.3-5.8,18
				s-8.1,15.3-10.8,15.3c-2.7,0-7-5-18.7-12.3c-11.7-7.3-10.7-1.3-20.3,9.3c-9.7,10.7-1.3,5.7-4,20.3c-2.7,14.7-5,15-12.3,25
				c-7.3,10-16,5-28.3,4c-12.3-1-17-11.7-22.3-21.3c-5.3-9.7-10.3-11-18.3-19.7c-8-8.7-9-9-12.3-20.7c-3.3-11.7,0-6.7-5.3-19.7
				c-5.3-13-6.3-5.7-12-13.7c-5.7-8-20-30.3-20-30.3c-10.4-16-23.8-15.1-45.8-43.1c-22-28-36-15.3-34.7-58c0-1.1,0.1-2.2,0.3-3.3
				c6.4-40.1,105.7-54.1,179-81.3c75.3-28,34-17.3,40-58.7c6-41.3-29.3-36-100-67.3c-70.7-31.3-71.3,6-96.3,2
				c-25-4-38.7-39.7-59.3-74c-20.7-34.3-21.3-18.7-43.7-28.7c-22.3-10-44-20.7-55.7-41.3c-11.7-20.7-14.3-10.3-30.4,1
				c-16.1,11.3-16,23.7-32,36.7s-17,0.7-48.3-22.3c-31.3-23-9.7-13-31.3-19.7c-21.7-6.7-29.7,11-37.3,19.7c-7.7,8.7-23.7,29-35.3,38
				c-11.7,9-6,17-1.3,36.3c4.7,19.3,22.7,27.7,19.7,49.3c-3,21.7,20.2,13.6,35.2,20.8s11,13.3,12.8,28.5s-1.3,19.7-12.6,20.8
				c-11.3,1.2-7.8,6.5-11.8,20.2c-4,13.7,13.4,21.3,29.2,28.8s1.5,7,6,23.3s-0.8,22-24,29.8c-3.8,1.3-6.6,2.5-8.6,3.7c0,0,0,0,0,0
				c-15.1,6-27.8,21-38.8,33.5c-11,12.5-10,37-10,89s1.5,41.5-14,50.5s-23-9.5-18-40s19-40,14.5-69s-20.5-17-39.5-22.5
				s-16,9.5-29.5,51.5s-7.5,45-53,86.5s4.5,14,25.2,33c20.7,19,11.8-6.5,26.8-24.5s18-9.5,20,0s-7,14.5-24.5,36.5s-22,36.5-44,60
				s-19.5,32-34,43s0.3,16.8,13.5,35.5c5.2,7.4,11,17.5,19.8,24.8s17.6,1.4,43.6,20.8c26,19.3,38.7,32,57.3,42
				c18.7,10,32.7-26.7,60-62.7c27.3-36,25.3-43.3,46.7-63.8c21.3-20.4,60.2-57.1,82.2-69.6c22.1-12.5,14.4-18,9.9-29.5
				s-34-30.5-39-43.5s0-11-9.5-19s-19.5-7-27.5-26s-5-17-13-20.5s-10,10.5-10,22.9c0,12.4-9.5,11.6-15.1,7.6
				c-5.6-4-7.9-81.5-4.4-99.5c2.4-12.4,13.6-13.7,20.3-13.3c1.6,0.3,3.3,0.5,5.1,0.7c0,0,0,0,0,0c16.1,1.9,40.6,2.4,70.9,5.8
				c57,6.3,13.7-0.3,53.3,0c39.7,0.3,8,5.3,31.7,18c23.7,12.7,7,13.7,14.7,40C2518.8,1065.6,2522.1,1081.5,2522.1,1081.5z"/>
			<path class="st1" d="M1720.9,1242.1c-2.5,2.5-5.4,5.6-8.8,9.5c-33,37.5-34,35.5-43,50.5c-6,9.9-12.1,6.1-9.5,13.8
				c-7.9-16.4-64.1-48.3-78.5-57.6c-14.3-9.3-28.3-5.3-44-14.7c-15.7-9.3-17.3-18.3-22-36.3c-4.7-18-37-22.7-46.3-33.3
				c-9.3-10.7-21-17.3-51.3-23.3c-30.3-6-24-8.3-49.7-23c-25.7-14.7-45.7-14.5-74.7-15s-19-4.5-27-17.5s-10.5-7-35-15.5
				s-24.5-19.5-33-37.5s-10-8-41.5-11s-20.5-14-42.1-37c-21.6-23-16.9-9-39.4-6.5s-72-20-91-44s-84-36-140-44s-51-8-58-23
				s-4-45-13-79s-6-20-29-34s-29-7-72-40.3c-43-33.3-125.3-31-145.3-33c-20-2-47.3,2.7-80.7,16c-16.3,6.5-24.9,10.5-31.3,12.9
				c0,0,0,0,0,0c-6.7,2.6-10.8,3.5-18.7,4c-15.3,1-17.3-11-62.7-13.6c-45.3-2.7-54,10.7-94,13.3c-40,2.7-54-13.3-70.7-22
				c-16.7-8.7-33.3-29.3-48-29.3c-14.7,0-30-1.3-42-16C66.8,640.9,0,620.3,0,620.3v-79.3c0,0,25.6-13.3,34.1-19
				c8.5-5.7,11.8-15,20-13.3c8.2,1.7,24.5,11.8,31.2,16.7c6.7,4.8,33.8,6.5,50.2,15.7c16.3,9.2,20.8,12.8,26.8,8.3
				s36.3-49.7,43.3-56.4s21.3-24.8,40.5-14s28.7,10.4,41.7,29.5c13,19.2,28.9,41.2,43.6,47.2c14.7,6,17.3,1.7,20.7,18.3
				c3.3,16.7-4.7,25.7,15,34.7c19.7,9,32.7-5.3,49.3,4c16.7,9.3,32.3,32.7,50.7,35.7c18.3,3,22.7-2.3,32.7,1.3
				c10,3.7,78.3,11.5,100.8,21s75.5,1.7,98.2,28.3c1.2,1.4,2.3,2.7,3.3,4c19.5,23.8,20.8,33.8,35.4,29.4c15.3-4.7,58-28.7,79.3-24.7
				c21.3,4,32,7.3,32.7,11.3c0.7,4-45.3,6-54.7,14.4c-9.3,8.3-10,12.3,12.7,34.3c22.7,22,22.7,36,25.3,47.3c2.7,11.3,16,12,38,6.7
				c22-5.3,28.7-22,40.7-28s18-8.7,36,2c18,10.7,19.3,15.3,20,26c0.7,10.7,10.7,11.8,34,3.2c23.3-8.6,29.3-10.6,49.3-21.9
				c13-7.4,11.1-16.5,14.9-18.4c2.1-1,5.8,0,14.4,4.4c24.7,12.7,34.7,40.5,31.3,41.6c-3.3,1.1-26,3.1-31.3,33.1
				c-5.3,30,23.3,61.3,37.3,53.3s28-45.3,40.7-43.3c12.7,2,20,14,43.3,30.7c23.3,16.7,40,30,50.7,52.7c10.7,22.7,22,50,35.3,45.3
				c13.3-4.7,2-16.7,32.7-24c30.7-7.3,46-2.7,59.3-20.7c10.4-14,20.7-29.2,29.5-31.8c2.5-0.8,4.9-0.5,7.2,1.1
				c6,4.4,11.5,3.3,12.2,7.1c0.5,2.6-1.1,7.4-6.2,17.5c-12.7,25.3-51.3,40.7-16.7,46c34.7,5.3,42.7-22,68-16
				c25.3,6,62,50.7,66.7,60.7c3.7,8,10.8,15.1,6.1,32.1c0,0,0,0,0,0c-1.2,4.3-3.2,9.3-6.1,15.2c-14.7,28.7-38,44.7-24.7,65.3
				c13.3,20.7,28.3,32.7,42.8,17.3c14.5-15.3,45.9-34.7,65.2-71.3c19.3-36.7,27.3-64,40-54.7c12.7,9.3,20-8.7,18.7,40
				c-1.3,48.7,2.7,66,14.7,84.7C1708.8,1189.6,1716.2,1232.4,1720.9,1242.1z"/>
			<path class="st1" d="M1105.6,2353.9c-2.5,3.2-5.2,6.8-7.9,11.1c-26.2,39.3-8.8,58.7-60.8,86c-52,27.3-58.7,33.3-102.7,71.3
				s-48.7,28-37.3,45.3c11.3,17.3,19.3,19.3-32,34c-51.3,14.7-90.2,74.5-98.2,92s10.5,21-19.5,40s-30-18.5-59.5,28.5
				s-50.2,76.8-92.2,141.5s-18.7,36-59.3,113.3c-40.7,77.3-50,56.7-52,108c-2,51.3,10.7,64.7,4.7,86c-6,21.3,4,1.5-9.3,29.1h-278
				c0,0,23-18.7,36-26.7s13.3-16.3,24.3-8.7s23.7,17,45,20c21.3,3,60.7-6.3,59-15.3c-1.7-9-3.7-18-21.3-23.3
				c-17.7-5.3-51.7-30.7-74-35c-22.3-4.3-38.3-5.3-65.7-20.7c-27.3-15.3-74.7-59.3-97.3-69.3c-22.7-10-26.7-30.7-36-54
				c-9.3-23.3-14-74.7-28-96.7s-16.3-34.7-43.5-33.3v-172.1c0,0,19.8,12.4,25.8-5.3s24.3-62,23.8-75s6.5-23,35-31.5s70.5-25,78.5-13
				s20,8.5,0.5,39s15,133.5,32,157s24.5,9.5,57,31s137.5,0.2,152.8,0c15.3-0.2,43.3-48.2,68.7-55.5c25.3-7.3,73.3-16,101.3-12.7
				c28,3.3,88.7,6.7,50-5.3c-38.7-12-52.7-20-108-27.3c-55.3-7.3-81.3,6.4-102.7-19.8c-21.3-26.2-40-32.2-20-52.2
				s67.3-67.7,99.8-88.7s86.1-51,124.3-74s38.2-23,98.2-19s118-4,183-21s116,5,133-24c17-29-13-28-34-70s-1-51-36-72s-40-21-80-33
				s-69-16-68-34.3c1-18.3,5.7-31,8.8-39.6c-0.4,4.4,3.8,4.3,13.5,2.9c19.7-2.7,14.3-13.3,40.7-10.3s49.3-11.3,49.3-11.3
				s35.7-56.7,46-57c10.3-0.3,38.3,25,51,37.7c12.7,12.7,25.7,9.3,14,34.3c-11.7,25-16.2,27.7-26.8,35.7s22.9,40.5,44.4,57
				s25,3,30,32s10,24,9.3,42C1094.8,2339.6,1095.7,2345.5,1105.6,2353.9z"/>
			<path class="st1" d="M3604.5,1476.9c2.1,6.3,5.3,11.6,13.9,22.6c20.5,26,34,36,51.5,58s60,54,79.5,95.5s20,31,29,71.5
				s7.5,63,21,85.5s40.5,48.5,40.5,48.5s20.2,19.1,27.2,30.8c7,11.7,15,15.8,30,38.8s10,11.2,26.5,45.1c16.5,33.9,23,53.9,28,67.9
				s6-9.5,10-19.5s8.5-24,2.5-39.5s-21.3-71.2-38-99.8c-16.7-28.7-25.3-32-19.3-51.3c6-19.3,6.7-46-8.7-62
				c-15.3-16-50-39.3-51.3-68.7c-1.3-29.3-13.3-44,4-56.7c17.3-12.7,24-12,38,10.7c14,22.7,24,38,38.7,52c14.7,14,28,14,56.7,21.3
				c28.7,7.3,34.7,5.3,42.7,20.7c8,15.3,7.3-32,11.3-39.3c4-7.3,5.3-19.3-6.7-34.7c-12-15.3-30.7-29.9-34.7-54.3
				c-4-24.4-19.3-69.7-42-73.7c-22.7-4-29.3-13.2-59.3-6.3c-30,6.9-44.7,6.6-55.5,0c0,0-15-10-20.5-11s-20.5,1.5-39.5-2.4
				s-15-11.6-25-34.1s-11-20.5-22-28.5s-11.5-6-21.5-8s-14.5,2.5-33.5-29.5s-42.7-89.8-61.3-103.5c-18.7-13.7-25.3-0.7-41.3-2.3
				c-16-1.7-12.3-8.3-13.3-27.3s14-12.3,31.3-24.7c17.3-12.3,17.5-24.4,17.5-24.4c17.8-11.4,21.5-17.5,48.2-28.3
				c34.5-14,58.5-17,71.5-29.5s10.8-36.2,15.5-46.2c4.7-10,6.3-11.3,16.7-16c10.3-4.7,8.7,2,14.3-9.3c5.7-11.3,7.3-11.7,13.3-15.3
				c6-3.7,12.3-13.3,12.3-14.7c0-1.3,0-5,0-5s-4.2-16.7,0.5-26.1c4.7-9.3,34.7-38,47.7-39s30.7,10.3,46,7.3c15.3-3,21.7-8.3,27.3-19
				c1.9-3.6,4.8-9.8,8.5-16.5c14,2.7,9.5,4.3,39,1.8s48.5-15.5,90-25.5c41.5-10,19,6.5,36,33.5c17,27,49.5,32,51,17s-15.5-55-26-77
				s2-26.5,56-45.5s106-66,126.1-88.5c20.1-22.5,16.9-61.5,53.9-83.5s23-10,50.2,11.5c27.2,21.5,24.6,19,59.3,62.3
				c34.7,43.3,26,45.3,44,103.3s93,176.8,95.5,204.3s32.5,53.5,61,64.5s67.4,22.5,106.8,46.5c39.4,24,38.6,82.5,41.6,117
				s21,193.5,24,247.5c3,54,33,127.5,45,183s-11.9,124.5-42.9,168.7s-36,115.9-40,160.9s64,214,75,282s90,81,116,104
				s70.7,44.3,50,70.3c-20.7,26-25.3,46.7-22,64.7c3.3,18,24,3.3,52,4s16.7,14.7,4.7,44.7s-46.7,84.7-68,119.3
				c-21.3,34.7-30.9,144-30.9,144l-0.2,0.1c-2.1-10.3-17.7-4.4-28.5-21.1c-15-23-11-41-36-94s-5-29-25-64s-44,14-82,12s-39-19-62-35
				s-39,7-69-12s-27-18-51-29s-64-7-98-28s-53-62-115-84s-127,26-146,49s-85,54-111.3,55.7c-8.7,0.6-15.4-0.8-21.4-3.2c0,0,0,0,0,0
				c-12.2-4.8-21.9-13.9-40.9-19.4c-28.3-8.3-32.3-14-55.3-24s-23-2.5-34,5c-11,7.5-22.5,14-35.5,6s-16.5-6-44-5s-33,3-54,16.5
				s-23,21.5-41.5,23s-84.8-10.8-100.5-3.2c-15.8,7.5-26.3,7-45.8,2.2c-11.4-2.8-22-2.7-31.3-1v0c-9.3-13.3-28.8-46.5-37.5-88.5
				c-8.7-42,1.3-36,4-60c2.7-24-4-46-13.6-66c-9.6-20-23.1-49.3-28.4-66.7c-5.3-17.3-5.3-38.7-8.7-54.7c-3.3-16-16-25.3-30.7-50.7
				c-14.7-25.3-8.7-18-16.7-46s-11.3-17.3-28.7-22c-17.3-4.7-54-32.3-68.3-38.7c-14.3-6.3-41.2-14.9-41.2-14.9s-17.5-4.5-44-14
				s-17.5-11.5-35.5-25.5s-45.5-16.5-72-29.5s-34.5-9-60.5-10.5s-31.5-6.5-47.5-20c-16-13.5-30.5-34.5-58.5-80.5s-21.5-33.5-25-39
				s-50.7-34.2-60.7-37c-10-2.8-15.8-0.8-26.2-6.2c-10.3-5.3-1.2-6.2-0.5-13c0.7-6.8,2.7-9.8,1.2-14c-1.5-4.2-4.7,1.5-11.7,4.7
				c-7,3.2-11.2,4-14.2,10.5s1.5,10,7,22.5s12.5,11.5,20.5,25.5s36.5,48,55.5,71.5s57.5,44.5,69.5,64.5s17,21.5,28.5,52.5
				s8.3,37.5,8.3,37.5s-3.4,19.1-1.9,31.9s12.3,26.5,15.5,36.5s5.3,18.5,8.3,22.3s3.5,2.5,9.3,2.3s7.3,3.8,8.3-5.5s0.3-37.3,11-34.5
				s14.8,4.8,22.5,23.3s24.5,29.5,33,29s24.5-16.5,29.5-16.5s10.5-14,6-39s16.5-36,30.5-28.5s46,24.5,68,32.5s48,13,72,33
				s34,19.5,46.5,28.5s20.5,18,26.5,37.5s14.3,29,30.3,52.3c16,23.3,22,22.7,26,56c4,33.3,17.3,34.7,26,78c8.7,43.3,2,32.7,2.7,76
				c0.7,43.3,42.8,84.1,47.8,99.1c-11.4,5.9-4.6,10-6.6,28.3c-2,18.5,2.3,32.3-8.3,44.3s-8,38.5-14.6,47.5
				c-6.6,9-15.4,17.5-23.9,38.5s-9.5,20.5-22,26s-9.5,9.5-4,17s11.5,12,11,26.5c-0.2,5.6-13.5,12.6-31.6,19.8
				c-29,11.6-70.1,24.1-88.9,32.7c-30.5,14-41,25-88.5,28.5s-51-4.5-84-26s-28-14-39.5-37s-46-33.5-79.5-60.5s-36.5-12.5-111-20.5
				s-92.2,62.5-105.2,84.8c-12.7,21.9-12.9,38.3-12.9,38.9c0,0,0,0,0,0c-0.4,2-0.4,6-0.4,12.7c0,28,5.3,33.3,3.3,50
				s-32,35.3-23.3,58c8.7,22.7,41.8,24.7,7.2,42.7s-51.9,44.7-68.6,14.7c-16.7-30-20-32-22-57.3s28-28.7-18.7-24
				c-46.7,4.7-31.3-27.3-58.7,1.3c-27.3,28.7-34.3-2-54.3-12s-4.3-8.3-35.3-17c-31-8.7-60.1-17.8-69.8-25.7
				c-4.6-5.9-13.4-11.2-22.9-11.7c-21-1-25-51,3-77s15-38-14.3-62c-29.3-24-21.7,30-44.7,38s-27-7-30-32s8-48-4-90s-18-26-59-49
				s-22-37-57-18s3,40,0,71s12,30,27,59s0,30-10,59s-11,11-50-18s-19-41-37-74s2-20,18-26s12-12,4-36s-16-27-59-79s-10-38-6-81
				s-10.5-27.5-17.5-64.5s-9-25.5-2.5-45.5s34-20.5,55.5-35s25.5-10,31.5-32.5s1-26-5-49s-8.5-38.5-4.5-73.5s6-20,21-42.5
				s27-11,59.5-27s9.5-7,37.5-22.5s104.8-27.6,104.8-27.6s53.5-13.5,67.5-13.5s49.5,4,64.5,0s74-40,88.5-64s10-29.6,26.5-42.8
				c16.5-13.2,20.5-15.2,36-15.2s20.5,1.5,25-7s6.5-14,3-22.5s8-45,8.5-49.5s24.5-52,38-61.5s51.5-26,61-33s45.3-57.3,67.3-80
				c22-22.7,20-23.3,38-46c18-22.7,21.3-31.8,42-39.3c20.7-7.4,26,6.6,30-15.4s0.7-8.7,6.7-32c6-23.3,14-36.7,32-61.3
				c18-24.7,15.3-28,32-37.3c16.7-9.3,35-14.4,63.5-27.3c28.5-12.9,22-5.9,45-25.4s37-15,65-36.5s22-24.5,54-35.5s55-23.5,68.5-34
				s7.5-25.5,35.5-17s24-10.5,38.5,22.5s10.5,36,23,64.5S3596.9,1479.4,3604.5,1476.9L3604.5,1476.9z M4450.1,2449.6
				c16-22.7,43.3-27.3,32-76c-11.3-48.7-10-50.7-28.7-82.7c-18.7-32-40-49.3-48-37.3c-9.5,14.2-26.7,8.7-6,37.3
				c20.7,28.7,28.7,20.7,33.3,54c4.7,33.3,12.7,29.3,8,64.7C4436.1,2444.9,4434.1,2472.3,4450.1,2449.6z M4353.5,2198.3
				c12-26.7,8-25.3,0-48.7s-13.2-28.2-22.7-36c-19.1-15.8-24.7-29.3-54.7-35.3s-38.7-12.7-39.3,10c-0.7,22.7-4,6,23.3,45.3
				c27.3,39.3,12,31.3,40,48S4341.5,2224.9,4353.5,2198.3z"/>
		</g>
	</g>
</g>
<g id="MAP_x5F_PB_x5F_4">
	<g id="XMLID_4_" class="st3">
		<g>
			<path class="st1" d="M4535.1,0h31c0,0-33,33.1-41.5,58.1s-26,48-19.5,83.5s-3,62.5,15,68.5c9.1,3,21.4,1.2,33-3.2
				c-5.7,13-47,55.4-57,62.4s-37,3.7-42.7,0c-5.7-3.7-4.3-56.7-4-66.3c0.3-9.7-7.8-22.1-7.8-22.1c3.3-4.3,15.5-56.2,23-74.2
				S4508.1,8.7,4535.1,0z"/>
			<path class="st1" d="M5760,2269.6v412c-28.8,3-29.9,21-56.2,30.3c-26.3,9.3-19,8.3-25.7,23.7c-6.7,15.3-22.7,14.7-64.7,38.7
				s-37.3,39.3-78,96c-40.7,56.7-10,29.3-34.7,92.7c-24.7,63.3-69.2,126.2-97.7,167.2s-50,72-90,83s-45.5,2.5-58.5,13
				s-6,13.9-6,13.9h-513.5c45-30.6,28-22.4,52-54.4s66-56,116-94s57-110,72-149c4.1-10.8,5.3-17,4.5-20.9l0.2-0.1
				c0,0,9.6-109.3,30.9-144c21.3-34.7,56-89.3,68-119.3s23.3-44-4.7-44.7s-48.7,14-52-4c-3.3-18,1.3-38.7,22-64.7
				c20.7-26-24-47.3-50-70.3s-105-36-116-104s-79-237-75-282s9-116.8,40-160.9s54.9-113.2,42.9-168.7s-42-129-45-183
				c-3-54-21-213-24-247.5s-2.3-93-41.6-117c-39.4-24-78.3-35.5-106.8-46.5s-58.5-37-61-64.5s-77.5-146.3-95.5-204.3
				s-9.3-60-44-103.3c-34.7-43.3-32-40.8-59.3-62.3c-27.2-21.5-13.2-33.5-50.2-11.5s-33.9,61-53.9,83.5
				c-20.1,22.5-72.1,69.5-126.1,88.5s-66.5,23.5-56,45.5s27.5,62,26,77s-34,10-51-17c-17-27,5.5-43.5-36-33.5
				c-41.5,10-60.5,23-90,25.5s-25.1,0.9-39-1.8c7.1-12.9,17.1-27.6,29-29.2c18-2.5,26.5-21,35.5-37.5s7-16,26.5-22.5
				s80.5-52.5,105-69s78-53,113-83s34.5-37,58.5-49s48.1-31.1,40.6-45c30.2-18.8,55.5-36.4,68.2-49.2c0,0,3.3,21.3,29.3,42.6
				c26,21.3,65.3,40,48,50c-17.3,10-56.7-8.7-32.7,13.3s12-4,50.7,39.3c38.7,43.3,52,60.7,65.3,82.7c13.3,22,67.7,86.3,81.7,154.3
				s-14,64,31,99s10,53,65,52s46-31,74,12s19,48,70,52s79.7,3.7,105,9.3c25.3,5.7,20,15.3,44.7,8.7c24.7-6.7,26-17.7,43.7-6.7
				c17.7,11,15.3,18.3,32,18.7c16.7,0.3,19-12.3,44.7-2c25.7,10.3,83,24.5,150.5,14s54.5-13,114-16.5s145.5-6.5,184.5,7
				s58,20,79.5,7.5s44.2-34,70.4-32.5v721.8c-42.1-5.3-33.2,6.7-47.9,41.3c-14.7,34.7-28,64.7-61.3,128
				c-33.3,63.3-111.7,139.3-139.7,168.3s-72,72.5-106,90.5s-86.5,33.5-140.5,44.5s-18,16.5-39.5,44s-64,76-103,109.5
				s-26.5,31-3.5,30.5s53.5-13,117.5-57s139-84,159-105s24-12,70-20s30,1,48-20s29-10,83-26s60-16,99-46S5760,2269.6,5760,2269.6z"
				/>
			<path class="st1" d="M5760,0v869.6c0,0-46.9,12-101.9,47s-53-10-77,57s-5,65-58,96s-106,82-179,86s-129,23-195,6s-111-67-118-39
				s16,38-44,34s-76,8-101-15s-67-53-37-67s54-34,71-61s17-53,60-43s91.6-7,104.3-18s21.7-20,60.7-10s115,10.4,149-18.3
				c34-28.7,62-37.7,104-54.7s38-28-17-15s-76,30-114,22s-20-16-54,5s-33,36-90,25s-59-19-85,6s-15,26-64,32s-24-30-70,13
				s-76.7,75.3-112,85.3c-35.3,10-84.7,26-68.7-18.7c16-44.7,65.3-56.6,43.3-100c-22-43.4-45.3-46.7-73.3-69.4
				c-28-22.7-84.7-72-96.7-88.7c-12-16.7-26-29.3-15.3-40c10.7-10.7,25.3-3.3,12-25.3c-13.3-22-5.7-18-32.5-30
				c-26.8-12-43.5-4.7-62.8-35.3c-19.3-30.7-38.7-45.3,8-80.7c46.7-35.3,77.7-118.7,92.7-142c15-23.3,39.4-39.5,25.2-58.8
				c20.7-21.5,37.6-41.6,45.1-56.6c26-52,101.7-100.7,104.3-128c0.9-8.8,1.2-14.6,1.4-19.2c0,0,7.3,6,29.5,0
				c14.1-3.8,34-14.1,51.9-26.4c10.4-7.2,20.2-15.1,27.6-22.8c20.3-21,73.9-56.8,97.6-65.5c23.7-8.7,32.7-23.5,59.3-35.6H5760z"/>
			<path class="st1" d="M4271.1,0h131c0,0-62,27.6-82,58.3c-20,30.7-70.7,77.3-94,92.7c-23.3,15.3-175.3,100.7-212.7,135.3
				c-37.3,34.7-44,50.7-68.7,85.3c-24.7,34.7-98,124.7-110,137.3c-12,12.7-16.9,30.9-27.7,29.9s-15.5-1.8-12.8-12.3
				s15-19.5,19.8-27.5s5-37.5,9.3-55.5c4.3-18,17.7-30.7-2.7-25.7c-20.3,5-24.7,16.3-34.7,5c-10-11.3-41.3-10.7-56.7-44
				c-15.3-33.3-103.3-187.3-127.3-215.3s-45.3-36.7-65.3-64.7s-70.7-51.9-72.7-98.9h41c0,0,27,61.6,47.7,79.6
				c20.7,18,26,2.7,48,33.3c22,30.7,52,47.3,67.3,81.3c15.3,34,16.7,52.7,38.7,60.7s20,8,24.7,30.7c4.7,22.7,16,30.7,29.3,38
				c13.3,7.3,23.3,0,16,18.7c-7.3,18.7-9,26.7,2.5,35.3c11.5,8.7,7.5,24.7,30.9,14c23.3-10.7,38-17.3,58.7-34.7
				c20.7-17.3,111.3-80.7,127.3-92c16-11.3,134-64.3,165-96.3s40-40,56-73S4235.1,26.4,4271.1,0z"/>
			<path class="st1" d="M4420.1,330.2c-20.7,28.4-53.3,63.6-60.5,70.9c-1.1,1.1-2.3,2.3-3.5,3.4c-9.9,8.9-24.6,17.9-40,23.8
				c-17.3,6.7-29.3,26.3-49.3,43.1s-67.8,46.7-108.8,60s-74.8,14.6-104,15.3c-29.2,0.7-71,41.5-77,44.2c-6,2.7-19.8-1.4-31.9-3.1
				c-9.9-1.3-21.8,5.1-26.5,12c-14.9-7.9-24.6-3.6-42.6-3.6s-18.5-1.5-26-17s-14.5-6-21-22s19.5-24,59-56s73-94.5,90-119
				s25-24,41.5-15.5s0.5,19.5-8.5,39s-57.5,43-69,62s14.5-6.5,55.5-24s33.5-0.5,33,15.5s-23.5,65-22,76s13,1,33.5-17
				c20.5-18,42-25.5,62-46.5c20-21,11-13.5,25-4s16,23,32.5,31s21.5-2,39.5-11.5s45-31,54-44s-2-16.5,21.5-31.5s87-80,97.5-95
				S4420.1,330.2,4420.1,330.2z"/>
			<path class="st1" d="M4134.4,2668c15.7,8.2,15.1,20.2,14.7,36.2c-0.3,16,0,49.3-11,81.3s-3,23,2,53s7,24,3,63.5
				s-12.3,68.8-23.7,85.5c-11.3,16.7-21.3,31.3-38,24.7c-16.7-6.7-28.7-12-34.7,2.7c-6,14.7-7.3,19.3-22,38.7
				c-14.7,19.3,0.7,14,39.3,17.4s24,9.2,30.7,30.6c6.7,21.3-26.7,26.7-84.7,52.7s-36.7-4.7-62-20.7c-25.3-16-12-23.3,4.1-52
				c16.1-28.7,1.2-27.3,0-45.3c-1.3-18-15.4-7.3-21.4,8c-6,15.3-17.3,14.7-36,30.7c-18.7,16-6-2.7-22-32.7s-6-14-28.7-34
				c-22.7-20-8-14.7-14-38c-6-23.3-15.3-20-21.3-6s-2,16,3.3,46c5.3,30-23.3,68-37.3,48s-30.7-48.7-46.7-60
				c-16-11.3-13.3-20-13.3-29.3c0-9.3,4.7-9.3-2-12c-6.7-2.7-35.2-0.8-37.2,14.7s-3.5,14-15.5,42.5s4.5,28.5,10.5,37s17.5,4,21.5,24
				s-5.5,25.5-19,45s3.5,19,17,42.5s8,29.5,24.5,41.5s36.5,35.9,36.5,35.9h-326.3c0,0,10.7-21.7,5.3-41.7
				c-5.3-20-4.7-46.7,19.3-40.7s40.7-2,45.3-44c4.7-42-12.7-50,6-70c18.7-20,22.7-20.7,24-34c1.3-13.3,0.7-14.7,9.3-16.7
				c8.7-2,3.8-20.3,13.8-33.6s14.3-8.5,16-21.8s2.5-26.2,1.8-35.5c0.5-14.5-5.5-19-11-26.5s-8.5-11.5,4-17s13.5-5,22-26
				s17.3-29.5,23.9-38.5c6.6-9,4.1-35.5,14.6-47.5s6.3-25.8,8.3-44.3s-5-22.5,7-28.5s29-9.5,48.5-4.8s30,5.3,45.8-2.2
				c15.8-7.5,82,4.7,100.5,3.2s20.5-9.5,41.5-23s26.5-15.5,54-16.5s31-3,44,5s24.5,1.6,35.5-6c11-7.5,11-15,34-5s27,15.7,55.3,24
				C4112.4,2654.2,4122.1,2663.2,4134.4,2668C4134.4,2668,4134.4,2668,4134.4,2668z"/>
			<path class="st1" d="M3749.1,0h253.5c-8.5,12.4-19,11.1-26.5,20.1s0.5,11,12.5,31s-33.5,31-58,52.5s-72.5,69.5-84.5,89
				s-25,1.5-28-9.5s-19-26-17-40.5s-1.5-22.5-6-23.5s-12.5-1.5-16-6.5s4-13-18-54S3749.1,0,3749.1,0z"/>
			<path class="st1" d="M3720.4,417.9c9.5,28,1.1,59.1-7.9,71.4c-8.6,11.8-22.5,25.2-40.7,54.6c-19.3-14.3-27.6,24.8-36.1,36.3
				s-9.5,20.2-25.5,12.8c-16-7.3-16,14.7-27.3,29.3c-11.3,14.7-31.3,7.3-43.3-7.9s-28-4.8-47.3-14.7c-19.3-9.9-16.7-9.4-2-22.7
				c14.7-13.3-4-21.3-14.3-26.7c-10.3-5.3-25.7-2-53-11.4c-27.3-9.4-170.7-55.2-170.7-55.2s-61-30.1-94-44.1
				s-121.7-98.3-134.3-116.3c-12.7-18-21.3-32-33-57c-11.7-25-15.3-10.3-28.7-8.7c-13.3,1.7-22,17-44.3,23.7
				c-22.3,6.7-52.3,22-44.3,33.7c8,11.7,40.3,3.7,63,13.3c22.7,9.7,14.7,24.7,22.7,45.3c8,20.7,12.3,25.7,33.3,33.3
				c21,7.7,59.2,32.7,91.7,54.2s22,13,48.5,31.5s18,13.5,46,32.5c28,19,26.5,1.5,54,3.5s7.5,5,39,35s9.5,11,42,7s24,0,37,13.5
				s14.5,22.5,49,38s26,11.5,53.5,35s22.5,16,22,33.5s-16.5,9.5-37,14.8s-19.2,10.2-19.2,10.2c-4.4-2-9.3-4.2-14.8-6.7
				c-74-33.3-378.7-177.3-431.3-225.3c-52.7-48-36.7-65.3-120.7-106.7c-84-41.3-118-47.3-154-50.7c-36-3.3-81.3-42-272.7-30
				c-191.3,12-200,27.3-226.7,0c-26.7-27.3-10.7-61.3-87.3-68c-76.7-6.7-48,22.7-94-8.7c-46-31.3-100.3-35.5-114.8-68.5
				c-1.3-3-2.7-5.7-4-8.1c0,0,25-4.4,37.5-2.9s18.5,1,40,6.5s82.5-8.5,110-16.5s25-30,57-13s51.5,44.5,69.5,35.5s16.5-24.5,33-35
				s41.5-25.5,49-2.5s7.5,35.5,28.5,32.7c21-2.8,78.5-4.3,93.5-10.8s38.5-9.5,26.5-24s-20-16-43-15s6.3-33.2,14-44.5
				c7.7-11.3,18.7-33.3,34-27.3c15.3,6,22,10.3,37,21.7c15,11.3,27.3,21,42.3,2.7s43.2-37,42.2-50.6h149.8c0,0-26.7,19.6-5.3,49.6
				c21.3,30,34,25.3,44.7,46c10.7,20.7,33.3,35.3,53.3,8.7c20-26.7,43-68.7,67.8-57.3c24.8,11.3,22.2,25.3,37.5,45.3
				c15.3,20,59.3,38,95.3,41.3c36,3.3,54-8,69.3-30c15.3-22-3.3-44,61.3-46c64.7-2,92-35.3,121.3-14c29.3,21.3,54,43.3,68,67.3
				s28,34.7,61.3,78c33.3,43.3,69.3,22,83.3,70s16.7,50.2,40,107.1c23.3,56.9,42,65.6,41.3,89.9c-0.7,24.3,0.7,60.3,14.7,70.3
				s32.7,20.7,44.7-14.7s30-69.3,17.3-94c-12.7-24.7-30.7-32-18.7-42s40.8-11.7,61.1-40.5C3694.4,359.1,3710.9,389.9,3720.4,417.9z"
				/>
			<path class="st1" d="M3237.1,967.9c-7.1,8.5-9.4,21.2-12.1,32.2c-2.7,11-0.3,11,1.7,46.5s-5.4,33.4-5.4,33.4s-8.8,9.5-15.8,16.5
				c-2.3,2.3-3.6,5.6-4.4,9.3c0,0-18.5-4.7-37.8-5.4c-0.7,0-1.3,0-2-0.1c-20-0.5-20.5,4.5-40.5,12.5s-50.3,28.5-73.8,40.8
				s-22,13.3-40.8,31.5s-56.5,56.8-77.3,75c-9.9,8.7-16.3,13.9-21.7,18.3c-1.4-3.5-0.5-5.1-1.8-7.3c-2.3-4-3-16.5-11-21.8
				c-8-5.3-22.5,2.8-31.9,0c3.4-4.7,6.8-9.8,10.9-14.7c9.5-11.5,18.3-21.5,32-32.3s20-23.5,37-41.5s7.3-13.8,20.5-25.3
				s38.5-18.7,51.2-25.8c12.7-7.2,6.3-3.3,21.7-10.8c15.3-7.5,17.8-6.3,20.8-11.2c3-4.8,7.5-7.7,7.5-7.7s18.5-12.4,32.1-22.7
				c13.7-10.3,16.7-12.2,26-21.8c9.3-9.7,50.5-48.8,67.8-56c17.3-7.2,21.4-10.9,27.2-15.9C3224.4,972.2,3229.5,975.1,3237.1,967.9z"
				/>
			<path class="st1" d="M3161.2,1100.3c0.7,0,1.4,0,2,0.1c0,0-8.3,10.7-13.3,18.2s-14,35-23.5,49.8s-18,26.3-25.8,35
				s-19.5,14.3-31.8,27s-14,7.8-25.3,11.8s-12.8,2.3-23.3,8s-20.8,18.8-40.3,35.8c-9.2,8-25.2,21.4-41.1,34.5
				c-7.2-10.5-14.1-21.6-21.9-29.3c-6.2-6.1-8.8-10-10-12.7c5.4-4.4,11.9-9.6,21.7-18.3c20.8-18.3,58.5-56.8,77.3-75
				s17.3-19.3,40.8-31.5s53.8-32.8,73.8-40.8S3141.2,1099.8,3161.2,1100.3z"/>
			<path class="st1" d="M3012.8,3099.6c18.7,6-12.7,16.7-39.3,42c-26.7,25.3-20.7,36.7-24,54c-3.3,17.3-57.3,44.4-57.3,44.4h-239
				c-19-42.6-58-24.4-70-56.4s-4-6-33.3-13c-29.3-7-35.7-4-47.7-12s-10-19-37-39s-14-25,3-31s30,15,46,36s50,11,67,5s16-20-16-61
				s-22-16-31-39s16-5,41-7c2.5-0.2,4.6-0.6,6.2-1.2c7.6-2.8,7.2-9.2,2.6-15.1c9.6,7.9,38.8,17,69.8,25.7c31,8.7,15.3,7,35.3,17
				s27,40.7,54.3,12c27.3-28.7,12,3.3,58.7-1.3c46.7-4.7,16.7-1.3,18.7,24s5.3,27.3,22,57.3c16.7,30,34,3.3,68.6-14.7
				s1.4-20-7.2-42.7c-8.7-22.7,21.3-41.3,23.3-58s-3.3-22-3.3-50c0-6.7,0-10.7,0.4-12.7c0,0,0,0,0,0c1.4-6.4,7,6.8,30.7,15.4
				c31.2,11.3,29.5,38.7,18.8,57.3c-10.7,18.7-11.3,11.3-11.3,40S2994.1,3093.6,3012.8,3099.6z"/>
			<path class="st1" d="M2958.5,1342.5c15.8,12,37.2,33.5,37.8,34.1c-11.1,9.8-19,16.8-21.3,19.1c-11.7,11.3-21,13.3-52.7,28.7
				c-31.7,15.3-32.7,12.3-50.3,15.3c-9.5,1.6-33.7,9.4-58.3,18.2c0,0-8.8-14.8-16-27.9c0,0,50.9-36.7,60.1-45.5
				c9.2-8.8,25.3-18,38.8-29.2c7.1-5.9,24.7-20.3,42.5-35C2945.1,1328.9,2951.3,1337,2958.5,1342.5z"/>
			<path class="st1" d="M2744.8,768.3c70.7,31.3,106,26,100,67.3c-6,41.3,35.3,30.7-40,58.7c-73.4,27.3-172.6,41.3-179,81.3
				c-26.3,0-21.9-17-38.1-37s-3.3-11.8,3.8-26.3s-2.3-18.3-13.8-22.3s-22.3,4.3-33.8,10.5s-25.5,17-33,27.5s-13.5,12-21.3,26.8
				s10.5,19,22,31.3s20,15.8,19.3,25.8s4.8,25.8,20.8,31s28,16.9,38.3,30.6c10.3,13.7,5.8,33.7,5.8,33.7c-2.2,0.1-4.8,0.1-8,0.2
				c-25.3,0.3-38.7,10-46.7,3.7c-7.8-6.2-13.1-9.2-18.9-29.5c0,0-3.3-15.9-10.9-42.2c-7.7-26.3,9-27.3-14.7-40
				c-23.7-12.7,8-17.7-31.7-18c-39.7-0.3,3.7,6.3-53.3,0c-30.3-3.4-54.8-3.9-70.9-5.8c0,0,0,0,0,0c-0.3-0.1-2.3-0.5-5.1-0.7
				c-10.9-1.7-16.7-4.5-16.3-10.2c0.8-11.7-9.6-17.4,0.3-23.5c0,0,0,0,0,0c2-1.2,4.8-2.4,8.6-3.7c23.3-7.8,28.5-13.5,24-29.8
				s9.8-15.8-6-23.3s-33.2-15.1-29.2-28.8c4-13.7,0.5-19,11.8-20.2c11.3-1.2,14.3-5.6,12.6-20.8s2.3-21.3-12.8-28.5
				s-38.2,0.8-35.2-20.8c3-21.7-15-30-19.7-49.3c-4.7-19.3-10.3-27.3,1.3-36.3c11.7-9,27.7-29.3,35.3-38
				c7.7-8.7,15.7-26.3,37.3-19.7c21.7,6.7,0-3.3,31.3,19.7c31.3,23,32.3,35.3,48.3,22.3s15.9-25.3,32-36.7c16-11.3,18.7-21.7,30.4-1
				c11.7,20.7,33.3,31.3,55.7,41.3c22.3,10,23-5.7,43.7,28.7c20.7,34.3,34.3,70,59.3,74C2673.5,774.3,2674.1,736.9,2744.8,768.3z"/>
			<path class="st1" d="M2549.8,3240H1135.1c0,0,14.7-22.7,33.7-44.4s24-40.7,30-55s81.7-111.7,125.3-140.3
				c43.7-28.7,78.5-90.2,98.5-123.7s27.5-21,37.5-53s54-97.3,66-113.3s15.3-14,40-28.7c24.7-14.7,12-10,38-42s15.3-17.3,60-32
				c44.7-14.7,34.7-11.3,92-60c57.3-48.7,42.7-54.7,78-55.3c35.3-0.7,18-13.3,45.3-31.3c27.3-18,121.3-82,150.7-87.3
				c29.3-5.3,45.3-5.3,65.3-24.7c20-19.3,18.7-14.7,20.7,0c2,14.7-0.7,28.7-10,38c-9.3,9.3-14.7,2.7-16,31.3
				c-1.3,28.7-11.3,33.3,3.3,36.7c14.7,3.3,19.3,0.7,7.3,16.7s-16.7,6-16.7,34.7c0,28.7-0.7,84.7,12.7,110.7
				c13.3,26,14.7,55.3,27.3,55.3c12.7,0,29.3-10,20.7-29.3c-8.7-19.3-23.3-26.7-24-43.3c-0.7-16.7-12-27.3,5.3-32.7
				c17.3-5.3,23.3-6,24-26.7c0.7-20.7-2-34-8-43.3c-6-9.3-2-21.3,2.7-30.7c4.7-9.3-6.7-12.7-0.7-34c6-21.3,13.3-18,26-22.7
				c12.7-4.7,13.3,4.7,17.3-24s0.7-56,13.3-46c12.7,10,25.3,9.1,27.3-3.5c2-12.5,22-25.9,31.3-7.2c9.3,18.7,17.3,27.3,13.3,43.3
				s-22.7,13.3-34,22c-11.3,8.7-12,15.3-17.3,28.7c-5.3,13.3-11.3,16-24.7,26c-13.3,10-26,14-26.7,29.3c-0.7,15.3,5.3,46.7,6.7,62
				c1.3,15.3,4,19.3-13.3,30c-17.3,10.7-24,15.3-12.7,29.3c11.3,14,18.7,31.3,16.7,43.3s-2.7,11.3,4.7,25.3c7.3,14,2,9.3-2.7,32.7
				c-4.7,23.3-20.7,36,9.3,40.7s38.7-6.7,50-0.7c11.3,6-0.7,16,10,32.7c10.7,16.7,14,10,18,25.3c4,15.3,0.7,24-15.3,34
				s-34.7,0.7-19.3,26.7c15.3,26,4,36.7,26,36s35.3-20,39.3-5.3c4,14.7-6.7,11.3,3.3,34c10,22.7-0.7,19.3,37.3,25.3
				s42.7,2.7,28.7,23.3c-14,20.7-34,6.7-28.7,32.7c5.3,26,5.3,23.3,24.7,53.3c19.3,30,25.7,31.3,26,38c0.3,6.7-1.3,7.3-11,6
				c-9.7-1.3-13.7,1.7-1.7,23c12,21.3,10.7,31,26,31c15.3,0,17-3.3,21-14c4-10.7,14.3-26.3,19.7-11c5.3,15.3-3.7,16.7,5.3,34.7
				s4.3,39.3,47.7,44.3c43.3,5,44.3-1.3,52.3,11.3C2546.1,3234.9,2544.1,3228.7,2549.8,3240z"/>
			<path class="st1" d="M2145.7,1700.3c1.6,0.1,3.2,0.2,4.8,0.3c14,1,30.7,2.3,41.5,2.6c15.8,0.5,112.3,1.3,121.8,0
				s11.3-1.4,26.8,0.7c15.5,2.1,26,8.1,37.3,1.3s27.3-14.5,36.3-17s13.3-2.5,29.5-2.5c16.1,0,41,0,41.6,0
				c-32.1,35.8-111.3,124.7-116.8,129.3c-6,5-14.7,15.3-14.3,17.7c0.3,2.3,19.5,15.8,19.5,15.8c-22.3,2.9-43.3,4.7-61.5,5.2
				c-49.3,1.3-73.7,0.7-111.7,4c-38,3.3-32.8,2.8-102.1,5.1c-69.2,2.3-86-4.5-98.2-5.8s-17.3-10.5-30.8-27.3s-49.3-49-49.3-49
				c-12.2-11.3-50.1-47.4-55.8-64.7s0.3-8.8,20-10.3s35.8-2.6,35.8-2.6s43.8-5.8,56.8-6s39-1.8,47-1.3s9.5,2.9,15.8,3.6
				c6.3,0.7,9,1,19.2-3.7c10.3-4.7,60.8,3,74.8,3.7c2.1,0.1,4.6,0.3,7.3,0.4C2142.4,1700.1,2144,1700.2,2145.7,1700.3z"/>
			<path class="st1" d="M2433.6,1166.1c4.5,11.5,12.1,17-9.9,29.5c-22.1,12.5-60.9,49.2-82.2,69.6c-21.3,20.4-19.3,27.8-46.7,63.8
				c-27.3,36-41.3,72.7-60,62.7c-18.7-10-31.3-22.7-57.3-42c-26-19.3-34.8-13.5-43.6-20.8s-14.6-17.4-19.8-24.8
				c-13.2-18.8-28-24.5-13.5-35.5s12-19.5,34-43s26.5-38,44-60s26.5-27,24.5-36.5s-5-18-20,0s-6.2,43.5-26.8,24.5
				c-20.7-19-70.7,8.5-25.2-33s39.5-44.5,53-86.5s10.5-57,29.5-51.5s35-6.5,39.5,22.5s-9.5,38.5-14.5,69s2.5,49,18,40
				s14,1.5,14-50.5s-1-76.5,10-89c11-12.5,23.7-27.5,38.8-33.5c-10,6.1,0.5,11.8-0.3,23.5c-0.4,5.7,5.4,8.5,16.3,10.2
				c-6.7-0.4-17.9,0.9-20.3,13.3c-3.5,18-1.2,95.5,4.4,99.5c5.6,4,15.1,4.8,15.1-7.6c0-12.4,2-26.4,10-22.9s5,1.5,13,20.5
				s18,18,27.5,26s4.5,6,9.5,19S2429.1,1154.6,2433.6,1166.1z"/>
			<path class="st1" d="M2390.9,1882.9c10-0.4,14.8,3.1-0.6,7.8c-15.3,4.7-43.7,4-85.3,4c-41.7,0-27,3.3-52.3,6
				c-25.3,2.7-67.7,5.3-102,3.3c-34.3-2-72,0-93.7,0c-21.7,0-40.7,6-59.5,11s-28.8-0.3-37.5-2.8s-40,2.8-40,2.8s-2.8,1.5-20.7-2.3
				c-17.9-3.7-61.8,0.5-95.8,4.4c-34,3.9-64.8,5.5-126.8,28s-46,11-91,40.5s-17.5,28-78.5,46s-94.3,27.3-132,51.3
				c-12.8,8.1-21.1,13.4-26.9,17.6c2.4-4.9,9.6-16.2,18.4-28.3c11-15.2,24.5-31.6,34.2-37.9c17.3-11.3,40-23.3,66.7-54
				c26.7-30.7,6-27.3,44-64c38-36.7,64.7-60.7,89.3-119.3c24.7-58.7,6-26.7,33.3-74c27.3-47.3,16-30,43.3-22.6
				c27.3,7.4,46.7,2,100.7,0c54-1.9,46-5.4,58,15.3c12,20.7,83.8,78.4,83.8,78.4s27.3,33,40,46c12.7,13,17.7,38,28.7,37.7
				c11-0.3,26.3,1,63.7,4.6c37.3,3.7,117,1,153.3-2.7c36.3-3.7,96.3-1.3,115.3,0C2340,1881,2380.9,1883.3,2390.9,1882.9z"/>
			<path class="st1" d="M2094.5,705.2c0,0,7.6-0.1,4.1,21.4s2,12.5-9,40s-13,22.7-19,39.8c-6,17.1-14.4,37.8-14.6,45
				c-0.4-2.7-2-4.1-6.2-5.5c-7-2.3-4.7-8-14,5.7c-9.3,13.7-14,11.3-16.7,25c-2.7,13.7-4.3,12.7-5,41.3c-0.7,28.7-1.7,39,1,57
				c2.7,18,19,17-0.3,27.3c-19.3,10.3-5.7,20.7-27.7,10.3c-22-10.3-28.7-23.3-37.3,14.7c-8.7,38-20.3,31.7-7,51
				c13.3,19.3,48,10,52.3,7c4.3-3,0.7,3.7,11.3-12.3c10.7-16,12-22.3,18.7-12.7c6.7,9.7,7.5,15.2,5.3,19.7c0,0-4.5,9.5-10,20.5
				s-7,5.5-20,14.5s-16.5,11-23,22.5s-0.5,17.5-2.5,36s-8.5,12.5-22,35.5s-4,10-9.5,32s-23.5,21-23.5,21s-22.8,2.3-27.8-4.1
				c-5-6.3-2-19-3-31.7c-1-12.7,2.7-19,13-13.2c10.3,5.8,21.7,9.2,19-5.5c-2.7-14.7-4.7-4.7-9.3-23c-4.7-18.3-0.3-19.7-12.7-14
				c-12.3,5.7-6,13-23.3,20.7c-17.3,7.7-15.9,6.8-16.2-0.7s11-14.8-1-18.8s-12.8-7.5-20.5,7.5s-18.5,10.3-6.3,28.5s18.8,8,21.5,36.3
				s13,29.3-6,51s-50.8,32-71.8,8.5s-18.5-22.5-31-41c-11.2-16.6-1.9-42.5-23.7-20.5c-4.7-9.7-12.1-52.5-24.1-71.2
				c-12-18.7-16-36-14.7-84.7c1.3-48.7-6-30.7-18.7-40c-12.7-9.3-20.7,18-40,54.7c-19.3,36.7-50.7,56-65.2,71.3
				c-14.5,15.3-29.5,3.3-42.8-17.3c-13.3-20.7,10-36.7,24.7-65.3c3-5.8,4.9-10.8,6.1-15.2c0,0,0,0,0,0c6.1-15.2,18.5-36.2,29.9-53.5
				c11.3-17.3,8.7-23.7,24.3-35.7c15.7-12,39-4.7,56-12.3c17-7.7,10-11.7,14.7-26.7c4.7-15-9-33.3-25.3-39.3
				c-16.3-6-43.9-18.1-56.7-26.6s-30.3-10.5-49-23s-6-8.3-22.5-18.8s-22.3-1.3-29.8,7.3s-24.8,31.5-36.3,42.5s-10,12.5-10.5,19.8
				s-12.8,26-12.8,26c-0.7-3.8-6.2-2.7-12.2-7.1c-2.2-1.6-4.6-1.9-7.2-1.1v0c13.2-10.5,10.5-23.2,7.8-45.5
				c-2.7-22.3-3.7-30.7-38.7-48.7s-31-13-61-53.3c-30-40.3-69.5-99.2-79.5-103.7s-28-11.5-54-16.5s-73,11.5-88.4,19.5
				s-7.6,19.5,0,35.5s24.4,7.5,29.1,24.3s-28.5,18-44.5,26.8s-14.2,20.4-14.2,20.4c-3.9,1.9-1.9,11-14.9,18.4
				c-20,11.3-26,13.3-49.3,21.9c-23.3,8.5-33.3,7.4-34-3.2c-0.7-10.7-2-15.3-20-26c-18-10.7-24-8-36-2s-18.7,22.7-40.7,28
				c-22,5.3-35.3,4.7-38-6.7c-2.7-11.3-2.7-25.3-25.3-47.3c-22.7-22-22-26-12.7-34.3c9.3-8.3,55.3-10.4,54.7-14.4
				c-0.7-4-11.3-7.3-32.7-11.3c-21.3-4-64,20-79.3,24.7c-14.5,4.4-15.9-5.6-35.4-29.4c0,0,1.4-24.6,20.7-34c19.3-9.3,61.3-40,86-55
				c24.7-15,24-29,43.7-38.7c19.7-9.7,34.3-15.3,55.7-27.7c21.3-12.3,112.7-57.3,144-51.3c31.3,6,37.3-3.5,84.7-20.8
				c47.3-17.2,58.7-21.9,92-15.9c33.3,6,89.3-9.3,136-15.3c46.7-6,82.7-16,31.3-40c-51.3-24-68.7-45.3-146.7-44
				c-78,1.3-176,2-132.7-19.3c43.3-21.3,111.3-50,158-75.3c46.7-25.3,50-26.7,82-31.3c32-4.7,13.3-8.7,68-24.7
				c54.7-16,74.3-64,94-91.3c19.7-27.3,19.7-40.3,25.7-47.3s-2.3-17.5,23.7-15c2.3,0.4,5.1,0.8,8.5,1.1c33.5,3.5,32.5-1,76.5,12.5
				s41-15.5,70,28.5s41,16,42,45.5s-7.5,23,7,56.5s42.7,78.2,51.3,88.8c8.7,10.7,2.3,9,11.7,24.3c9.3,15.3-2.7,11.3,28.3,19.3
				s74.3,6.3,96.3,22c22,15.7,22.8,18,13.3,49.5s-22,15.5-7.5,42.5s16,22,15.5,44.5c-0.5,22.5,20.5,84.5,49.5,123.5
				s29.5,40.5,45,61.5C2087.2,691.8,2085.4,706.6,2094.5,705.2z M1734.1,826.6c39,8,3.5-22.5-7-42s-13.5-25.5-24-39.5
				s-20.5,1.5-47.5,6.5s-87,16.5-97.4,14.5c-10.4-2-28.7,2.7-26.1,14.5c0.9,4.4,19,19,88,21.5S1695.1,818.6,1734.1,826.6z"/>
			<path class="st1" d="M1638.1,2212.1c1.8-2.2,3.6-4.4,5.7-6.8c-27.7,35.3-46.9,116.9-63.2,150.3c-17.5,36-41.5,79.5-73.5,93
				s-31,7-44.5,33c-13.4,25.8-56.3,24-57.2,24c0.2-14.9,5.5-46.3,14.7-69.3c9.7-24.3,29.3-77.3,42.7-83.3
				c13.3-6,42.3-44.3,52.3-61.8s9-8,52.5-30c39.2-19.8,48.3-23,64.8-42.1C1634.2,2216.9,1636.1,2214.6,1638.1,2212.1z"/>
			<path class="st1" d="M1236.6,1708.6c5.5,8-10,8.4-31,18.7c-21,10.3-30.5,14.3-31,25.3s7,18.5-6,20.5s5.5,1-25-2.5
				s-17.5-15.5-61,2.5s-83.2,18.5-116.5,36.5s-46,0.7-53.3,44c-7.3,43.3-3.3,80,2,99.3c5.3,19.3,18.8,19.2,29.8,20.7s13-6,29-6
				s14.5,10.5,9,22.5s-3,4-33.5,18.5s-58,16-79,52s-13.5,32.5-31.5,67c-9.1,17.4-14.3,26.6-14.7,31.1c-3.1,8.6-7.8,21.3-8.8,39.6
				c-1,18.3,28,22.3,68,34.3s45,12,80,33s15,30,36,72s51,41,34,70c-17,29-68,7-133,24s-123,25-183,21s-60-4-98.2,19
				s-91.8,53-124.3,74s-79.8,68.7-99.8,88.7s-1.3,26,20,52.2c21.3,26.2,47.3,12.5,102.7,19.8c55.3,7.3,69.3,15.3,108,27.3
				c38.7,12-22,8.7-50,5.3c-28-3.3-76,5.3-101.3,12.7c-25.3,7.3-53.3,55.3-68.7,55.5c-15.3,0.2-120.3,21.5-152.8,0s-40-7.5-57-31
				s-51.5-126.5-32-157s7.5-27-0.5-39s-50,4.5-78.5,13s-35.5,18.5-35,31.5s-17.8,57.3-23.8,75S0,2704.9,0,2704.9V1686.6h0.2
				c0,0,19,10.5,38-12.5s5-42.5,31.5-26s49.5,27.5,115,30s75.5,9.8,124-12.6c48.5-22.4,49.5-2.9,80.5-34.9s37.5-49.5,68-53.5
				s100.5,2,117,13s8.5,7,25,24.5s0.5,21.9,60.5,18.5c60-3.5,85-27.2,112.5-13.1c27.5,14.1,43.5,34.6,92.5,56.6
				s19.5,29.5,103.5,36.5s82-2.5,120.5,7.5s55.5,8.5,92.5-2.5S1231.1,1700.6,1236.6,1708.6z"/>
		</g>
	</g>
</g>
<g id="MAP_x5F_PB_x5F_3">
	<g id="XMLID_3_" class="st4">
		<g>
			<path class="st1" d="M3677.9,335.1c-20.3,28.8-49.1,30.5-61.1,40.5s6,17.3,18.7,42c12.7,24.7-5.3,58.7-17.3,94
				s-30.7,24.7-44.7,14.7s-15.3-46-14.7-70.3c0.7-24.3-18-33-41.3-89.9c-23.3-56.9-26-59.1-40-107.1s-50-26.7-83.3-70
				c-33.3-43.3-47.3-54-61.3-78s-38.7-46-68-67.3c-29.3-21.3-56.7,12-121.3,14c-64.7,2-46,24-61.3,46c-15.3,22-33.3,33.3-69.3,30
				c-36-3.3-80-21.3-95.3-41.3c-15.3-20-12.7-34-37.5-45.3c-24.8-11.3-47.8,30.7-67.8,57.3c-20,26.7-42.7,12-53.3-8.7
				c-10.7-20.7-23.3-16-44.7-46c-21.3-30,5.3-49.6,5.3-49.6h728.2c0,0,0.5,22.6,7,36.3c6.5,13.7,25.8,36.7,39.8,53.3
				s18.7,14.7,26.7,34.3c8,19.7,49.3,31.7,63,53c13.7,21.3,22,36,30.3,52C3622.8,244.9,3661.4,311.1,3677.9,335.1z"/>
			<path class="st1" d="M2569.6,0c1,13.6-27.2,32.3-42.2,50.6s-27.3,8.7-42.3-2.7c-15-11.3-21.7-15.7-37-21.7
				c-15.3-6-26.3,16-34,27.3c-7.7,11.3-37,45.5-14,44.5s31,0.5,43,15s-11.5,17.5-26.5,24s-72.5,8-93.5,10.8
				c-21,2.7-21-9.8-28.5-32.7s-32.5-8-49,2.5s-15,26-33,35s-37.5-18.5-69.5-35.5s-29.5,5-57,13s-88.5,22-110,16.5s-27.5-5-40-6.5
				s-37.5,2.9-37.5,2.9c-13.3-24.1-26-22.3-16.5-60.9c10.5-42.5,11-54.2,6.5-82.1H2569.6z"/>
			<path class="st1" d="M1664.1,0c0,0,21,6.6,0,19.1s-74,10-87.5,19c-12.2,8.1-29.6,14.2-8.5,17.9c-26-2.5-17.7,8-23.7,15
				s-6,20-25.7,47.3c-19.7,27.3-39.3,75.3-94,91.3c-54.7,16-36,20-68,24.7c-32,4.7-35.3,6-82,31.3c-46.7,25.3-114.7,54-158,75.3
				c-43.3,21.3,54.7,20.7,132.7,19.3c78-1.3,95.3,20,146.7,44c51.3,24,15.3,34-31.3,40c-46.7,6-102.7,21.3-136,15.3
				c-33.3-6-44.7-1.3-92,15.9c-47.3,17.2-53.3,26.8-84.7,20.8c-31.3-6-122.7,39-144,51.3c-21.3,12.3-36,18-55.7,27.7
				c-19.7,9.7-19,23.7-43.7,38.7c-24.7,15-66.7,45.7-86,55c-19.3,9.3-20.7,34-20.7,34c-1-1.3-2.1-2.6-3.3-4
				c-22.7-26.7-75.7-18.8-98.2-28.3s-90.8-17.3-100.8-21c-10-3.7-14.3,1.7-32.7-1.3c-18.3-3-34-26.3-50.7-35.7
				c-16.7-9.3-29.7,5-49.3-4c-19.7-9-11.7-18-15-34.7c-3.3-16.7-6-12.3-20.7-18.3c-14.7-6-30.6-28-43.6-47.2
				c-13-19.2-22.5-18.8-41.7-29.5s-33.5,7.3-40.5,14s-37.3,51.9-43.3,56.4s-10.5,0.8-26.8-8.3c-16.3-9.2-43.5-10.8-50.2-15.7
				c-6.7-4.8-23-15-31.2-16.7c-8.2-1.7-11.5,7.7-20,13.3c-8.5,5.7-34.1,19-34.1,19V0H1664.1z"/>
			<path class="st1" d="M4979.7,2921.7c0.8,3.9-0.4,10.2-4.5,20.9c-15,39-22,111-72,149s-92,62-116,94s-7,23.8-52,54.4h-55
				c9-17.6,32.3-28.7,51.3-38.4s24.3-12.7,22.7-24.7c-1.7-12-4.3-8.7,10.3-23.3c14.7-14.7,25.7-36.5,54.2-54s49-63.5,75-95
				s15-26.5,0-42.5s-15.5-4.5-37,8s-19,10.5-37,14s-17.5-1-17.5-18.5s15-83,11-109s-25.5-14-62-14s-17,3.5-50,34s-36.5,60.5-59,77
				s-20.5-2.5-17-17s5-55.5,12-83.5s0-28.5-16.5-48s-11.5-17.5-53.5-10.5s-21.5,6.5-30,27s-66.3,55-76.3,67s-26.7,17.3-47.3,42
				c-20.7,24.7-20.3,28,3.3,21.3c23.7-6.7,19.7-8,52.7-26.7c33-18.7,37.7-19.3,59.7-23c22-3.7,7.7,8.3,10,23.3c2.3,15-3.7,38.7-7,68
				c-3.3,29.3-1.3,32.7,7.3,54c8.7,21.3,0.7,34,10.7,60.7c10,26.7-16.7,69.3-28,82.7c-11.3,13.3-40.7,22.7-50.7,26
				c-10,3.3-3.3,23.1-3.3,23.1h-717c0,0-20-23.9-36.5-35.9s-11-18-24.5-41.5s-30.5-23-17-42.5s23-25,19-45s-15.5-15.5-21.5-24
				s-22.5-8.5-10.5-37s13.5-27,15.5-42.5s30.5-17.3,37.2-14.7c6.7,2.7,2,2.7,2,12c0,9.3-2.7,18,13.3,29.3c16,11.3,32.7,40,46.7,60
				s42.7-18,37.3-48c-5.3-30-9.3-32-3.3-46s15.3-17.3,21.3,6c6,23.3-8.7,18,14,38c22.7,20,12.7,4,28.7,34s3.3,48.7,22,32.7
				c18.7-16,30-15.3,36-30.7c6-15.3,20.2-26,21.4-8c1.2,18,16.1,16.7,0,45.3c-16.1,28.7-29.4,36-4.1,52c25.3,16,4,46.7,62,20.7
				s91.3-31.3,84.7-52.7c-6.7-21.3,8-27.1-30.7-30.6s-54,1.9-39.3-17.4c14.7-19.3,16-24,22-38.7c6-14.7,18-9.3,34.7-2.7
				c16.7,6.7,26.7-8,38-24.7c11.3-16.7,19.7-46,23.7-85.5s2-33.5-3-63.5s-13-21-2-53s10.7-65.3,11-81.3c0.3-16,0.9-28-14.7-36.2
				c6,2.4,12.7,3.8,21.4,3.2c26.3-1.7,92.3-32.7,111.3-55.7s84-71,146-49s81,63,115,84s74,17,98,28s21,10,51,29s46-4,69,12
				s24,33,62,35s62-47,82-12s0,11,25,64s21,71,36,94C4962,2917.3,4977.6,2911.4,4979.7,2921.7z"/>
			<path class="st1" d="M3565.6,2902.1c0.8,9.3,0,22.3-1.8,35.5s-6,8.5-16,21.8s-5.1,31.6-13.8,33.6c-8.7,2-8,3.3-9.3,16.7
				c-1.3,13.3-5.3,14-24,34c-18.7,20-1.3,28-6,70c-4.7,42-21.3,50-45.3,44s-24.7,20.7-19.3,40.7c5.3,20-5.3,41.7-5.3,41.7h-532.7
				c0,0,54-27.1,57.3-44.4c3.3-17.3-2.7-28.7,24-54c26.7-25.3,58-36,39.3-42c-18.7-6-50,4.7-50-24s0.7-21.3,11.3-40
				c10.7-18.7,12.3-46-18.8-57.3c-23.7-8.6-29.4-21.9-30.7-15.4c0-0.7,0.2-17.1,12.9-38.9c13-22.3,30.7-92.8,105.2-84.8
				s77.5-6.5,111,20.5s68,37.5,79.5,60.5s6.5,15.5,39.5,37s36.5,29.5,84,26s58-14.5,88.5-28.5c18.8-8.6,59.9-21,88.9-32.7
				C3552.1,2914.7,3565.5,2907.7,3565.6,2902.1z"/>
			<path class="st1" d="M1815.1,1458.1c10,23.5,34,121.5,26.5,142s-5-5.7-23,19.9c-18,25.6,2,49.1-18.5,51.6s-29.5,14-39-19.5
				s-4-73-5-103s4-69.5-21.5-67s-37.5-19.5-25,17s15,9.5,15,66s16.5,79.5-6,69.5s-9.5,5.5-34.5-23.5s-20-62-45-36.5
				s-27.5,18-30,49.5s13.5,40,19,54.5s10,35.5-1.5,37.5s-34.5-29-58-19s11.5,39.5-11,82s-7,40.7-43,84.1
				c-36,43.4-86.5,97.7-112.5,89.1c-26-8.7,2.7-1.3-58.7-57.3c-61.3-56-39.4-67.3-93.4-97.3c-19.4-10.8-34.2-19.3-45-24.3
				c-19.2-9-26-7.1-24.3,11.6c2.7,29.3,37.3,18.7-3.3,44.7c-40.7,26-94.7,11.2-39.3,33.6c55.3,22.4,14-0.3,118,49.1
				c104,49.3,104.7,44.7,118,76c13.3,31.3,0.7,46.3,0.7,46.3s-11.4,30.5-8.2,37.6h0c-8.8,12.1-16,23.4-18.4,28.3
				c-11.4,8.1-13.6,11.9-21.8,23.8c-12.3,18,3.3,30-27.3,25.7c-30.7-4.3-33.3-15.6-37,0.9c-3.7,16.4-3.7,44.1-3.7,44.1
				s-1,5.3-35.3,23c-34.3,17.7-26.7,7.3-34.7,28c-8,20.7,7,41.7-23,65.7c-26.8,21.4-38.9,15.8-59.9,42.3
				c-9.9-8.4-10.8-14.3-10.1-32.3c0.7-18-4.3-13-9.3-42s-8.5-15.5-30-32s-55-49-44.4-57s15.1-10.7,26.8-35.7
				c11.7-25-1.3-21.7-14-34.3c-12.7-12.7-40.7-38-51-37.7c-10.3,0.3-46,57-46,57s-23,14.3-49.3,11.3s-21,7.7-40.7,10.3
				c-9.7,1.3-14,1.5-13.5-2.9c0.4-4.5,5.6-13.7,14.7-31.1c18-34.5,10.5-31,31.5-67s48.5-37.5,79-52s28-6.5,33.5-18.5s7-22.5-9-22.5
				s-18,7.5-29,6s-24.5-1.3-29.8-20.7c-5.3-19.3-9.3-56-2-99.3c7.3-43.3,20-26,53.3-44s73-18.5,116.5-36.5s30.5-6,61-2.5
				s12,4.5,25,2.5s5.5-9.5,6-20.5s10-15,31-25.3c21-10.3,36.5-10.7,31-18.7s-18.5-1.5-55.5,9.5s-54,12.5-92.5,2.5
				s-36.5-0.5-120.5-7.5s-54.5-14.5-103.5-36.5s-65-42.5-92.5-56.6c-27.5-14.1-52.5,9.6-112.5,13.1c-60,3.4-44-1-60.5-18.5
				s-8.5-13.5-25-24.5s-86.5-17-117-13s-37,21.5-68,53.5s-32,12.5-80.5,34.9c-48.5,22.4-58.5,15.1-124,12.6s-88.5-13.5-115-30
				s-12.5,3-31.5,26s-38,12.5-38,12.5H0V961.1c0,0,35.6-35,69.7-42.5s73.5-31.5,91.5-33.5s32.5-42.5,42.5-61.5s-1-33,40.5-44
				s65.5-12,82.5-12s23.5-7.3,40.2-7.3c16.6,0,22.6-30.5,48-41c0,0,0,0,0,0c6.4-2.5,15-6.4,31.3-12.9c33.3-13.3,60.7-18,80.7-16
				c20,2,102.3-0.3,145.3,33c43,33.3,49,26.3,72,40.3s20,0,29,34s6,64,13,79s2,15,58,23s121,20,140,44s68.5,46.5,91,44
				s17.8-16.5,39.4,6.5c21.6,23,10.6,34,42.1,37s33-7,41.5,11s8.5,29,33,37.5s27,2.5,35,15.5s-2,17,27,17.5s49,0.3,74.7,15
				c25.7,14.7,19.3,17,49.7,23c30.3,6,42,12.7,51.3,23.3c9.3,10.7,41.7,15.3,46.3,33.3c4.7,18,6.3,27,22,36.3
				c15.7,9.3,29.7,5.3,44,14.7c14.3,9.3,70.5,41.2,78.5,57.6c0,0,0,0,0,0c1.3,3.9,4.9,10.9,12,24.2c21,39.5,30,41.7,53.5,30.6
				c23.5-11.1,20-33.1,42.5-7.1s48.5,34,49.5,59.5S1805.1,1434.6,1815.1,1458.1z"/>
			<path class="st1" d="M3929.3,617.9c6.5,4.1,9.4,7.8,3.9,15.8s-19,38.5-27,62.5s-15.8,42-21.8,51.5s-19,19-51,33.3
				s-53.8,10.3-71.3,4.5c-13.9-4.6-14.7-0.3-19.8,8.9h0c0,0-13.4,11.1-20.9-1.7s-16.5-50.5-12.8-67s25-49,32.3-56s92.6-49,112.6-52
				c19.2-2.9,57.4-8.5,69.2-3.4c0,0,0,0,0,0C3924.7,615.4,3927,616.4,3929.3,617.9z"/>
			<path class="st1" d="M4581.1,188.3c-4.3,8-4.8,16.8-7,34.6c-3.3,27.3,0,36.7-3.3,50.7c-0.7,2.8-6.3,10.8-15,21.9
				c15.3-20-6.9-25.3-22.4-18.9c-15.8,6.5-42.3,41-61.3,70s-55.7,72.7-66.7,81.3c-11,8.7-30.3,27.7-41.3,50.7s-35,30-47.7,36
				c-12.7,6-20.3-0.7-35,5c-14.7,5.7,0,15-4.3,21.3c-4.3,6.3-38.3,20.3-52.7,27.7c-14.3,7.3-22.7,32.7-38.7,44
				c-16,11.3-21,9-39,13.7c-18,4.7-61.7,43.3-73.3,51.7c-11.7,8.3-15.3,4.3-21-7c-5.7-11.3-6.8-50.3,6.2-70.8s37-20,53-27
				c16-7,60.5-20.5,73.5-32s16-8.5,37.5-14.5s27.5-18.5,55.5-32s62.3-59.3,72.7-68.7c10.3-9.3,5.3-21.4,5.3-21.4v0
				c1.3-1.1,2.4-2.3,3.5-3.4c7.1-7.3,39.8-42.6,60.5-70.9c7.5-10.3,13.5-19.8,16-26.6c9.5-25.5-8.3-73.8-5.8-89.3s8-29.3,11.3-33.5
				c0,0,8.2,12.4,7.8,22.1c-0.3,9.7-1.7,62.7,4,66.3c5.7,3.7,32.7,7,42.7,0s51.3-49.4,57-62.4
				C4564.4,202.5,4574.9,195.7,4581.1,188.3z"/>
			<path class="st1" d="M4340.7,651.6c7.5,14-16.6,33-40.6,45s-23.5,19-58.5,49s-88.5,66.5-113,83s-85.5,62.5-105,69
				s-17.5,6-26.5,22.5s-17.5,35-35.5,37.5c-11.9,1.7-21.9,16.3-29,29.2c-3.7,6.7-6.5,12.8-8.5,16.5c-5.7,10.7-12,16-27.3,19
				c-15.3,3-33-8.3-46-7.3s-43,29.7-47.7,39c-4.7,9.3-0.5,26.1-0.5,26.1s0,3.7,0,5c0,1.3-6.3,11-12.3,14.7c-6,3.7-7.7,4-13.3,15.3
				c-5.7,11.3-4,4.7-14.3,9.3c-10.3,4.7-12,6-16.7,16c-4.7,10-2.5,33.7-15.5,46.2s-37,15.5-71.5,29.5
				c-26.7,10.8-30.3,16.9-48.2,28.3c0,0-0.2,12.1-17.5,24.4c-17.3,12.3-32.3,5.7-31.3,24.7s-2.7,25.7,13.3,27.3
				c16,1.7,22.7-11.3,41.3,2.3c18.7,13.7,42.3,71.5,61.3,103.5s23.5,27.5,33.5,29.5s10.5,0,21.5,8s12,6,22,28.5s6,30.2,25,34.1
				s34,1.4,39.5,2.4s20.5,11,20.5,11c10.8,6.6,25.5,6.9,55.5,0c30-6.9,36.7,2.3,59.3,6.3c22.7,4,38,49.3,42,73.7
				c4,24.4,22.7,38.9,34.7,54.3c12,15.3,10.7,27.3,6.7,34.7c-4,7.3-3.3,54.7-11.3,39.3c-8-15.3-14-13.3-42.7-20.7
				c-28.7-7.3-42-7.3-56.7-21.3c-14.7-14-24.7-29.3-38.7-52c-14-22.7-20.7-23.3-38-10.7c-17.3,12.7-5.3,27.3-4,56.7
				c1.3,29.3,36,52.7,51.3,68.7c15.3,16,14.7,42.7,8.7,62c-6,19.3,2.7,22.7,19.3,51.3c16.7,28.7,32,84.3,38,99.8s1.5,29.5-2.5,39.5
				s-5,33.5-10,19.5s-11.5-34-28-67.9c-16.5-33.9-11.5-22.1-26.5-45.1s-23-27.2-30-38.8c-7-11.7-27.2-30.8-27.2-30.8
				s-27-26-40.5-48.5s-12-45-21-85.5s-9.5-30-29-71.5s-62-73.5-79.5-95.5s-31-32-51.5-58c-8.6-10.9-11.8-16.3-13.9-22.6v0
				c-2.9-8.7-3.7-19.1-13.6-48.4c-17-50.5-36.7-73.8-49.7-81.8s-7.3-1.3-23.7,2c-16.3,3.3-22.9,0-22.9,0l-0.1,0
				c-7.9,5.4-18,9.7-40.7,24.3c-36.3,23.3-66,34.5-88,41s-24.5,9.5-43.8,18.5s-51.5,31-58.8,39.1s-25,9.2-25,9.2
				c10.1-12.9,21.3-27.4,33.5-37.3c22.5-18.3,19.7-21.5,60-45.2c40.3-23.7,28.3-10.3,63-37.7c34.7-27.3,28.7-3.7,60.3-54
				c31.7-50.3,20.7-44,48-76.3c27.3-32.3,27.9-44.3,46.4-73.8s23.8-38.8,41.3-50.8s38-25.8,38-25.8s36.3-25.7,51-32.9
				c14.7-7.2,53-43.2,78.2-56.7c25.2-13.5,105-66.3,124.5-70.8s49.9-27.1,43.9-41.3c101.4-55.2,207.5-114,242.2-131.4
				C4208.1,727.3,4283.2,687.3,4340.7,651.6z"/>
			<path class="st1" d="M1405.5,2505.6c0,0.8,0,1.6,0,2.3c0.3,13.7-4.7,42.3-6.1,51c-1.4,8.7-19.9,62.7-31.9,76.7
				c-11.8,13.8-14.8-3.4-14.9-4c0,0,0,0,0,0c0-5,0.1-9.9,0.2-14.7c1.3-37.3-1.3-53.3,4.7-86.7c6-33.3,20.7-45.3,34.7-67.3
				s38.7-86,44.7-101.3s5.3-48.7,1.3-94.7s4.7-34,20.7-60.7c16-26.7,9.3-3.3,36.7-7.3c27.3-4,18.7-21.3,51.3-49.3
				c32.7-28,65.3-41.5,91.8-55s54.5-20.5,120-20c41.1,0.3,94.2,1,128,1.4c-13.5,34.9-41.5,22.1-82,31.1s-16.5,0.5-61,21
				c-36.8,17-70.9,45.9-93.2,69.8c0,0,0,0-0.1,0.1c-2.3,2.1-4.4,4.6-6.6,7.3c-2,2.3-3.9,4.6-5.7,6.8c-2,2.5-3.9,4.8-5.7,6.9
				c-16.4,19.1-25.6,22.3-64.8,42.1c-43.5,22-42.5,12.5-52.5,30s-39,55.8-52.3,61.8c-13.3,6-33,59-42.7,83.3
				C1411,2459.3,1405.7,2490.7,1405.5,2505.6z"/>
			<path class="st1" d="M1390.1,2274.3c7.3-3.3,10.7-5.3,8.7,29.3s-32,80.7-45.3,110c-13.3,29.3-25.3,60.7-34.7,98
				c-9.3,37.3-18,64.7-23.3,76.7c-4.1,9.2-8.3,19-9.3,42.4c0.2-18.9-10-13.7-20.3-10.7c-10.3,3-26.3,27-51.7,50
				c-25.3,23-19.3,54-32,58.7c-12.7,4.7-20.7,2.7-25,17.7c-4.3,15-17,41.7-24,46c-7,4.3-11.4-20-11.4-20c-1-30.1-3-63.8-5.5-88
				c0,0,0,0,0,0c0.3-0.9,16.2-45.8,15.6-64.9c-0.7-19.3,8.7-41.7,16-56.7c7.3-15,14.7-34,18.7-50.7c4-16.7,4-15.7,22-36.3
				c17.9-20.6,33.8-69.7,50.3-86.3c0.1-0.1,0.1-0.1,0.2-0.2c23-23.5,46.6-45.5,63.9-56.8C1350.8,2300.9,1382.8,2277.6,1390.1,2274.3
				z"/>
			<path class="st1" d="M1055.2,2794c28.5,97.5-3,181.5-7.5,253.5c-4.5,72-36,192.5-36,192.5h-24.9c10-29.6,8.7-47.7,8.7-47.7
				s0-30.7-3.3-64.7s-8-20.7-29.3-70.7c-21.3-50,21.3-67.3,21.3-67.3s23-28,27.6-54s5.4-70,0-96s-7.6-40,0-67s11.2-86.1,11.2-86.1h0
				C1027.4,2712.6,1039.8,2741.2,1055.2,2794z"/>
		</g>
	</g>
</g>
<g id="MAP_x5F_PB_x5F_2">
	<g id="XMLID_2_" class="st5">
		<g>
			<path class="st1" d="M1727.1,784.6c10.5,19.5,46,50,7,42s-45-22-114-24.5s-87.1-17.1-88-21.5c-2.6-11.8,15.8-16.5,26.1-14.5
				c10.4,2,70.4-9.5,97.4-14.5s37-20.5,47.5-6.5S1716.6,765.1,1727.1,784.6z"/>
			<path class="st1" d="M1416.8,880.3c2.7,22.3,5.4,35-7.8,45.5v0c-8.8,2.6-19.2,17.8-29.5,31.8c-13.3,18-28.7,13.3-59.3,20.7
				c-30.7,7.3-19.3,19.3-32.7,24c-13.3,4.7-24.7-22.7-35.3-45.3c-10.7-22.7-27.3-36-50.7-52.7c-23.3-16.7-30.7-28.7-43.3-30.7
				c-12.7-2-26.7,35.3-40.7,43.3s-42.7-23.3-37.3-53.3c5.3-30,28-32,31.3-33.1c3.3-1.1-6.7-28.9-31.3-41.6
				c-8.6-4.4-12.3-5.4-14.4-4.4c0,0-1.8-11.7,14.2-20.4s49.3-10,44.5-26.8s-21.5-8.3-29.1-24.3s-15.4-27.5,0-35.5
				s62.4-24.5,88.4-19.5s44,12,54,16.5s49.5,63.5,79.5,103.7c30,40.3,26,35.3,61,53.3S1414.1,857.9,1416.8,880.3z"/>
			<path class="st1" d="M1645.8,906.9c16.3,6,30,24.3,25.3,39.3c-4.7,15,2.3,19-14.7,26.7c-17,7.7-40.3,0.3-56,12.3
				c-15.7,12-13,18.3-24.3,35.7c-11.3,17.3-23.7,38.3-29.9,53.5c4.7-17.1-2.4-24.2-6.1-32.1c-4.7-10-41.3-54.7-66.7-60.7
				c-25.3-6-33.3,21.3-68,16c-34.7-5.3,4-20.7,16.7-46c5.1-10.2,6.7-15,6.2-17.5c0,0,12.3-18.7,12.8-26s-1-8.8,10.5-19.8
				s28.8-34,36.3-42.5s13.3-17.8,29.8-7.3s3.8,6.3,22.5,18.8s36.3,14.5,49,23S1629.5,900.9,1645.8,906.9z"/>
			<path class="st1" d="M3671.8,543.8c-0.8,1.2-1.5,2.5-2.3,3.8c-19.3,32-12.8,72-44.8,100.5s-101.2,57.5-135.8,71.5
				c-32.1,13-13.9,21.4-69.9-4c0,0-1.3-4.8,19.2-10.2s36.5,2.7,37-14.8s5.5-10-22-33.5s-19-19.5-53.5-35s-36-24.5-49-38
				s-4.5-17.5-37-13.5s-10.5,23-42-7s-11.5-33-39-35s-26,15.5-54-3.5c-28-19-19.5-14-46-32.5s-16-10-48.5-31.5s-70.7-46.5-91.7-54.2
				c-21-7.7-25.3-12.7-33.3-33.3c-8-20.7,0-35.7-22.7-45.3c-22.7-9.7-55-1.7-63-13.3c-8-11.7,22-27,44.3-33.7
				c22.3-6.7,31-22,44.3-23.7c13.3-1.7,17-16.3,28.7,8.7c11.7,25,20.3,39,33,57c12.7,18,101.3,102.3,134.3,116.3s94,44.1,94,44.1
				s143.3,45.8,170.7,55.2c27.3,9.4,42.7,6,53,11.4c10.3,5.3,29,13.3,14.3,26.7c-14.7,13.3-17.3,12.8,2,22.7
				c19.3,9.9,35.3-0.5,47.3,14.7s32,22.5,43.3,7.9c11.3-14.7,11.3-36.7,27.3-29.3c16,7.3,17-1.3,25.5-12.8
				S3652.4,529.5,3671.8,543.8z"/>
			<path class="st1" d="M4198.4,0h72.8c-36,26.4-38,62.6-54,95.6s-25,41-56,73s-149,85-165,96.3c-16,11.3-106.7,74.7-127.3,92
				c-20.7,17.3-35.3,24-58.7,34.7c-23.3,10.7-19.3-5.3-30.9-14c-11.5-8.7-9.8-16.7-2.5-35.3c7.3-18.7-2.7-11.3-16-18.7
				c-13.3-7.3-24.7-15.3-29.3-38c-4.7-22.7-2.7-22.7-24.7-30.7s-23.3-26.7-38.7-60.7c-15.3-34-45.3-50.7-67.3-81.3
				c-22-30.7-27.3-15.3-48-33.3c-20.7-18-47.7-79.6-47.7-79.6h119.7c0,0,26,9.6,4.7,21.6c-21.3,12-58.7,16-37.3,32
				c21.3,16,54,6,75.3,18c21.3,12,34.7,26.4,33.3,34.2c-1.3,7.8-27.4,13.8-29,23.1c-1.6,9.3-5,24.7,3,30.7s54-8.7,65.3-14
				c11.3-5.3,20.7-2.5,22.7,15.4c2,17.9-15.3,36.6-26.7,44.6c-11.3,8-8,22.7,6.7,28c14.7,5.3,30-0.2,33.3,18.2
				c3.3,18.5,11.3,53.8,24.7,60.4c13.3,6.7,16,24.7,30.7,9.4c14.7-15.3,30-46.6,36.7-53.6c6.7-7.1,27.3-6.4,36-6.4
				c8.7,0,71.3-16.7,75.3-15.3c4,1.3,28.7,5.3,31.3-12c2.7-17.3,16.6-42,37.6-56c21-14,63.7-35.3,72.4-42.7
				c8.7-7.3,16.7-0.7,32-14.7c15.3-14,22.7-26.7,30.7-33.3s23.7-11.8,29.4-16s14.5-3.8,8.8-16.8s-25.8-23.3-27.8-31.8
				S4194.1,13.1,4198.4,0z"/>
			<path class="st1" d="M5760,1928.9v340.7c0,0-25.9,12-64.9,42s-45,30-99,46s-65,5-83,26s-2,12-48,20s-50-1-70,20s-95,61-159,105
				s-94.5,56.5-117.5,57s-35.5,3,3.5-30.5s81.5-82,103-109.5s-14.5-33,39.5-44s106.5-26.5,140.5-44.5s78-61.5,106-90.5
				s106.3-105,139.7-168.3c33.3-63.3,46.7-93.3,61.3-128C5726.8,1935.6,5717.8,1923.6,5760,1928.9z"/>
			<path class="st1" d="M4482.1,2373.6c11.3,48.7-16,53.3-32,76s-14-4.7-9.3-40c4.7-35.3-3.3-31.3-8-64.7
				c-4.7-33.3-12.7-25.3-33.3-54c-20.7-28.7-3.5-23.1,6-37.3c8-12,29.3,5.3,48,37.3C4472.1,2322.9,4470.8,2324.9,4482.1,2373.6z"/>
			<path class="st1" d="M4353.5,2149.6c8,23.3,12,22,0,48.7c-12,26.7-25.3,0-53.3-16.7s-12.7-8.7-40-48
				c-27.3-39.3-24-22.7-23.3-45.3c0.7-22.7,9.3-16,39.3-10s35.5,19.6,54.7,35.3C4340.3,2121.4,4345.5,2126.3,4353.5,2149.6z"/>
			<path class="st1" d="M365.8,3209.3c1.7,9-37.7,18.3-59,15.3c-21.3-3-34-12.3-45-20s-11.3,0.7-24.3,8.7s-36,26.7-36,26.7H0v-363.1
				c27.2-1.3,29.5,11.3,43.5,33.3s18.7,73.3,28,96.7c9.3,23.3,13.3,44,36,54c22.7,10,70,54,97.3,69.3c27.3,15.3,43.3,16.3,65.7,20.7
				c22.3,4.3,56.3,29.7,74,35C362.1,3191.3,364.1,3200.3,365.8,3209.3z"/>
			<path class="st1" d="M396.1,723.2c7.8-0.5,12-1.4,18.7-4c-25.4,10.6-31.4,41-48,41c-16.7,0-23.2,7.3-40.2,7.3s-41,1-82.5,12
				s-30.5,25-40.5,44s-24.5,59.5-42.5,61.5s-57.5,26-91.5,33.5S0,961.1,0,961.1V620.3c0,0,66.8,20.7,78.8,35.3
				c12,14.7,27.3,16,42,16c14.7,0,31.3,20.7,48,29.3c16.7,8.7,30.7,24.7,70.7,22c40-2.7,48.7-16,94-13.3
				C378.8,712.3,380.8,724.2,396.1,723.2z"/>
			<path class="st1" d="M4844.7,35.5c0,0,41.2-21.8,22.2,18.2s-14.3,36.3-12.7,46c1.7,9.7,6.6,2,2.1,24.3
				c-17.9,12.3-37.8,22.6-51.9,26.4c-22.3,6-29.5,0-29.5,0c0.4-9.7,0.2-13.9,3.3-28.8c4.5-22,23.5-47.5,44.5-65.5
				C4830.4,49.5,4837.7,42.5,4844.7,35.5z"/>
			<path class="st1" d="M5760,869.6v337.5c-26.1-1.5-48.9,20-70.4,32.5s-40.5,6-79.5-7.5s-125-10.5-184.5-7s-46.5,6-114,16.5
				s-124.8-3.7-150.5-14c-25.7-10.3-28,2.3-44.7,2c-16.7-0.3-14.3-7.7-32-18.7c-17.7-11-19,0-43.7,6.7c-24.7,6.7-19.3-3-44.7-8.7
				c-25.3-5.7-54-5.3-105-9.3s-42-9-70-52s-19-13-74-12s-20-17-65-52s-17-31-31-99s-68.3-132.3-81.7-154.3
				c-13.3-22-26.7-39.3-65.3-82.7c-38.7-43.3-26.7-17.3-50.7-39.3s15.3-3.3,32.7-13.3c17.3-10-22-28.7-48-50
				c-26-21.3-29.3-42.6-29.3-42.6c1.6-1.7,3.1-3.3,4.3-4.8c28-35,67-90,78-112c7.8-15.7,81.7-78.1,132.9-131.4
				c14.2,19.3-10.2,35.4-25.2,58.8c-15,23.3-46,106.7-92.7,142c-46.7,35.3-27.3,50-8,80.7c19.3,30.7,36,23.3,62.8,35.3
				c26.8,12,19.2,8,32.5,30c13.3,22-1.3,14.7-12,25.3c-10.7,10.7,3.3,23.3,15.3,40c12,16.7,68.7,66,96.7,88.7
				c28,22.7,51.3,26,73.3,69.4c22,43.4-27.3,55.3-43.3,100c-16,44.7,33.3,28.7,68.7,18.7c35.3-10,66-42.3,112-85.3s21-7,70-13
				s38-7,64-32s28-17,85-6s56-4,90-25s16-13,54-5s59-9,114-22s59-2,17,15s-70,26-104,54.7c-34,28.7-110,28.3-149,18.3s-48-1-60.7,10
				s-61.3,28-104.3,18s-43,16-60,43s-41,47-71,61s12,44,37,67s41,11,101,15s37-6,44-34s52,22,118,39s122-2,195-6s126-55,179-86
				s34-29,58-96s22-22,77-57S5760,869.6,5760,869.6z"/>
			<path class="st1" d="M3926.6,878.3c5.9,14.2-24.4,36.8-43.9,41.3s-99.3,57.3-124.5,70.8c-25.2,13.5-63.5,49.5-78.2,56.7
				c-14.7,7.2-51,32.9-51,32.9s-20.5,13.8-38,25.8s-22.8,21.3-41.3,50.8s-19.1,41.5-46.4,73.8c-27.3,32.3-16.3,26-48,76.3
				c-31.7,50.3-25.7,26.7-60.3,54c-34.7,27.3-22.7,14-63,37.7c-40.3,23.7-37.5,26.9-60,45.2c-12.2,9.9-23.4,24.4-33.5,37.3
				c-8.6,10.9-16.4,20.6-23.5,25.4c-15.2,10.3-19,4.5-19.2,4.3c0,0,0,0,0,0c14.7-16.3,30.5-40,44.2-63.6c18-31,13-35.5,37.5-84
				s44-71,59-91.5s17.5-12.5,50-31s25-32,55.5-69s29.5-26,48-46s59.8-45.5,59.8-45.5s99.4-62.4,180.4-98.9
				C3766.3,964.8,3844.9,922.7,3926.6,878.3z"/>
			<path class="st1" d="M2655.7,2055c3.3,6,8.3,10.5,2.5,17.8s-10.5,10.5-26.5,18.3s-43.8,26-83.8,21s-37.5,3.5-65.5-12.3
				s-44.3-18.3-63-24.5s-31-13.8-41.8-18.3s-19-6.3-15.3-10.2c3.8-4,2.3-7.5,11-7s20,2.5,20,2.5s45.8,5.5,62,10.2
				c16.3,4.8,21,6,53.8,6.3s12.8,4.8,54.3,0s35.8-3,58-5.8S2652.5,2049,2655.7,2055z"/>
			<path class="st1" d="M4566.1,0h209.3c-12.5,9.4-58.6,56.3-89.3,80.3c-30.7,24-78.7,80-94,94.7c-5.3,5.1-8.7,9.1-11,13.4
				c-6.2,7.4-16.7,14.2-28,18.5c-11.5,4.5-23.9,6.3-33,3.2c-18-6-8.5-33-15-68.5s11-58.5,19.5-83.5S4566.1,0,4566.1,0z"/>
			<path class="st1" d="M3922.7,614.2C3922.7,614.2,3922.6,614.2,3922.7,614.2c-3.9-2.2-6.8-4.6-5.9-10c0.3-1.5,1-3,2-4.5
				c4.7-6.9,16.6-13.3,26.5-12c12.1,1.6,25.9,5.7,31.9,3.1c6-2.7,47.8-43.5,77-44.2c29.2-0.7,63-2,104-15.3s88.8-43.2,108.8-60
				s31.9-36.4,49.3-43.1c15.4-5.9,30-14.9,40-23.8v0c0,0,5,12.1-5.3,21.4c-10.3,9.3-44.7,55.2-72.7,68.7s-34,26-55.5,32
				s-24.5,3-37.5,14.5s-57.5,25-73.5,32c-16,7-40,6.5-53,27s-11.8,59.5-6.2,70.8c5.7,11.3,9.3,15.3,21,7c11.7-8.3,55.3-47,73.3-51.7
				c18-4.7,23-2.3,39-13.7c16-11.3,24.3-36.7,38.7-44c14.3-7.3,48.3-21.3,52.7-27.7c4.3-6.3-10.3-15.7,4.3-21.3
				c14.7-5.7,22.3,1,35-5c12.7-6,36.7-13,47.7-36s30.3-42,41.3-50.7c11-8.7,47.7-52.3,66.7-81.3s45.5-63.5,61.3-70
				c15.5-6.4,37.7-1.1,22.4,18.9c-0.2,0.3-0.5,0.6-0.8,1c-35,44.7-117.2,138-129.9,156.6c-16,23.5-93,81.5-106,87.5s-13,34-41,51
				s-96,46-117,62s-22,29-58,50c-36,21-99,32-125,37s-46,0-59,6s-199.5,119-229,134.5s-75.5,35-113,51s-51.5,53.5-71.5,71
				s-100,76.9-100,76.9s-30,14.3-42.7,26.3c-12.7,12-3.3,20-16.7,38.7c-13.3,18.7-22,17.3-62,58c-40,40.7-28,37.3-58,98.7
				c-30,61.3-43.3,64.7-65.3,90c-22,25.3-70,86-107.3,132c-37.3,46-60.7,72.7-88,111.3c-27.3,38.7-90,121.3-120,152
				c-30,30.7-52,75.3-64.7,98c-12.7,22.7-88,59.3-125.3,78c-37.3,18.7-80.7,6.7-124,3.3c-43.3-3.3-93.3-15.3-140-32.3
				c-46.7-17-147.3-7.7-171.3-10.4c-24-2.7-162.7,18.7-188,20.7c-25.3,2-77.3-7.3-91.3-14c-14-6.7-21-6.7-21-6.7
				c-15.1-4.1-46.5,6.6-108.5,15.9c-62,9.3-65.3,14-105.3,24s-56,24-106,54s-126,32-194,70s-120,106-144,146s-120,122-150,166
				s-58.4,143.9-80.9,212.9c-10.3,31.6-12.1,51.9-8.3,74h0c0,0-3.6,59.1-11.2,86.1s-5.4,41,0,67s4.6,70,0,96s-27.6,54-27.6,54
				s-42.7,17.3-21.3,67.3c21.3,50,26,36.7,29.3,70.7s3.3,64.7,3.3,64.7s1.3,18.1-8.7,47.7H479.5c13.3-27.6,3.3-7.7,9.3-29.1
				c6-21.3-6.7-34.7-4.7-86c2-51.3,11.3-30.7,52-108c40.7-77.3,17.3-48.7,59.3-113.3s62.7-94.5,92.2-141.5s29.5-9.5,59.5-28.5
				s11.5-22.5,19.5-40s46.8-77.3,98.2-92c51.3-14.7,43.3-16.7,32-34c-11.3-17.3-6.7-7.3,37.3-45.3s50.7-44,102.7-71.3
				c52-27.3,34.7-46.7,60.8-86c2.8-4.2,5.4-7.9,7.9-11.1c20.9-26.5,33.1-20.9,59.9-42.3c30-24,15-45,23-65.7
				c8-20.7,0.3-10.3,34.7-28c34.3-17.7,35.3-23,35.3-23s0-27.7,3.7-44.1c3.7-16.4,6.3-5.2,37-0.9c30.7,4.3,15-7.7,27.3-25.7
				c8.2-11.9,10.3-15.6,21.8-23.8c5.8-4.1,14.1-9.4,26.9-17.6c37.7-24,71-33.3,132-51.3s33.5-16.5,78.5-46s29-18,91-40.5
				s92.8-24.2,126.8-28c34-3.8,77.9-8.1,95.8-4.4c17.9,3.8,20.7,2.3,20.7,2.3s31.3-5.3,40-2.8s18.8,7.8,37.5,2.8s37.8-11,59.5-11
				c21.7,0,59.3-2,93.7,0c34.3,2,76.7-0.7,102-3.3c25.3-2.7,10.7-6,52.3-6c41.7,0,70,0.7,85.3-4c15.3-4.7,10.6-8.2,0.6-7.8
				c-10,0.4-50.9-1.9-69.9-3.2c-19-1.3-79-3.7-115.3,0c-36.3,3.7-116,6.3-153.3,2.7c-37.3-3.7-52.7-4.9-63.7-4.6
				c-11,0.3-16-24.7-28.7-37.7c-12.7-13-40-46-40-46s-71.8-57.7-83.8-78.4c-12-20.7-4-17.2-58-15.3c-54,2-73.3,7.4-100.7,0
				c-27.3-7.4-16-24.7-43.3,22.6c-27.3,47.3-8.7,15.3-33.3,74c-24.7,58.7-51.3,82.7-89.3,119.3c-38,36.7-17.3,33.3-44,64
				c-26.7,30.7-49.3,42.7-66.7,54c-9.7,6.3-23.2,22.7-34.2,37.9h0c-3.2-7.1,8.2-37.6,8.2-37.6s12.7-15-0.7-46.3
				c-13.3-31.3-14-26.7-118-76c-104-49.3-62.7-26.7-118-49.1c-55.3-22.4-1.3-7.6,39.3-33.6c40.7-26,6-15.3,3.3-44.7
				c-1.7-18.8,5.1-20.6,24.3-11.6c10.8,5,25.6,13.5,45,24.3c53.9,30,32.1,41.3,93.4,97.3c61.3,56,32.7,48.7,58.7,57.3
				c26,8.7,76.5-45.7,112.5-89.1c36-43.4,20.5-41.6,43-84.1s-12.5-72,11-82s46.5,21,58,19s7-23,1.5-37.5s-21.5-23-19-54.5
				s5-24,30-49.5s20,7.5,45,36.5s12,13.5,34.5,23.5s6-13,6-69.5s-2.5-29.5-15-66s-0.5-14.5,25-17s20.5,37,21.5,67s-4.5,69.5,5,103
				s18.5,22,39,19.5s0.5-26,18.5-51.6c18-25.6,15.5,0.6,23-19.9s-16.5-118.5-26.5-142s3-9.5,2-35s-27-33.5-49.5-59.5s-19-4-42.5,7.1
				c-23.5,11.1-32.5,8.9-53.5-30.6c-7.1-13.3-10.7-20.3-12-24.2c0,0,0,0,0,0c-2.6-7.7,3.6-3.8,9.5-13.8c9-15,10-13,43-50.5
				c3.4-3.8,6.3-7,8.8-9.5c21.8-22,12.5,3.9,23.7,20.5c12.5,18.5,10,17.5,31,41s52.8,13.3,71.8-8.5s8.8-22.8,6-51s-9.3-18-21.5-36.3
				s-1.5-13.5,6.3-28.5s8.5-11.5,20.5-7.5s0.8,11.3,1,18.8s-1.2,8.3,16.2,0.7c17.3-7.7,11-15,23.3-20.7c12.3-5.7,8-4.3,12.7,14
				c4.7,18.3,6.7,8.3,9.3,23c2.7,14.7-8.7,11.3-19,5.5c-10.3-5.8-14,0.5-13,13.2c1,12.7-2,25.3,3,31.7c5,6.3,27.8,4.1,27.8,4.1
				s18,1,23.5-21s-4-9,9.5-32s20-17,22-35.5s-4-24.5,2.5-36s10-13.5,23-22.5s14.5-3.5,20-14.5s10-20.5,10-20.5
				c2.2-4.5,1.3-10.1-5.3-19.7c-6.7-9.7-8-3.3-18.7,12.7c-10.7,16-7,9.3-11.3,12.3c-4.3,3-39,12.3-52.3-7c-13.3-19.3-1.7-13,7-51
				c8.7-38,15.3-25,37.3-14.7c22,10.3,8.3,0,27.7-10.3c19.3-10.3,3-9.3,0.3-27.3c-2.7-18-1.7-28.3-1-57c0.7-28.7,2.3-27.7,5-41.3
				c2.7-13.7,7.3-11.3,16.7-25c9.3-13.7,7-8,14-5.7c4.2,1.4,5.8,2.8,6.2,5.5c0.3,1.7,0.1,4-0.2,7.2c-0.7,8-13,5.7-18,18.7
				s-4.3,51.3,7.7,64.3c12,13,5.7-1.3,44.3,9c38.7,10.3,18,15.7,53,23c35,7.3-7,34.3-25.7,49.3c-18.7,15-20.7,12.7-28.3,29.3
				c-7.7,16.7-8.3,27.7-8.3,27.7s-5.8,26.8-11,40.3s-2.8,18-12.8,18c-10,0-12-6.3-15,1.8s-0.3,7.8,0,16s2,7-5.3,21.3
				s-11.5,23.5-15.8,27s-11.8-1-20.3,10.5s2.2,16.3,0,28.3c-2.2,12,13.2-13-9.8,24.7c-23,37.7-30,32.7-29.7,61
				c0.3,28.3,11.7,23.6,6,43.3c-5.7,19.7-11.3,22-2.7,32c8.7,10,18.3,14.3,41.3,14.3s23.7-12.7,30.7,0c7,12.7,13.3,11.7,3.3,23.7
				c-10,12-13.7,34-0.7,64.5c13,30.5,4.5,11,13.5,43.5c6.9,24.9,16.5,27.2,27.1,33.5c3.2,1.9,6.5,4.2,9.9,7.5
				c14.5,14.5,16,8,21.5,29s1.5,23.5,16.5,30.5s23,20.5,37,0s35-56.5,68-77s26-3,69.5-33.5s57.5-50,85-71.5s45.5-29,73.5-37
				s115.5-27,158.5-37.5s50.5-7,94-31.5s41-33.8,44.5-46.5s1.8-7,4.8-28.8s0.8-33.3,4.5-42s5.8-8,5.8-8s0.5,4.3,11.3,12.5
				s10,13.3,28,15s25.3,5.8,35.8-0.3c6-3.4,10.6-9,15.1-15.3c9.4,2.8,23.9-5.3,31.9,0c8,5.3,8.8,17.8,11,21.8
				c1.3,2.3,0.3,3.9,1.8,7.3c-6,4.9-10.8,8.8-17.8,15.2c-13.3,12.3-59.8,62.8-71.7,69.8c-11.8,7-19.2,12.2-24.3,17.5
				c-5.2,5.3-4.8,25-4.7,30.3c0.1,2.1,4.1,10.1,8.9,18.9c7.2,13,16,27.9,16,27.9c-1,0.4-2.1,0.8-3.1,1.1
				c-20.3,7.3-40.3,15.2-51.9,20.6c-26.3,12.3-25.3,6-45,15.3c-19.7,9.3-68.9,42.5-76.4,50s-22,17-33.8,18.5s-21.5-2-47-2.9
				c-25.5-0.9-33.8,0.1-54.8,0.1s-50.8-1-74,2.5s-28.8,5.8-49.8,13s-48.3,17-65.8,26s-42.9,37.9-52.6,43.9c-9.7,6-38.8,19.7-59,30.2
				c-19.9,10.4-54,23.6-55,24c-1.7-0.1-3.3-0.2-4.9-0.3c-2.7-0.2-5.2-0.3-7.3-0.4c-14-0.7-64.5-8.3-74.8-3.7
				c-10.3,4.6-13,4.3-19.2,3.7c-6.3-0.7-7.8-3.1-15.8-3.6s-34,1-47,1.3s-56.8,6-56.8,6s-16.1,1.1-35.8,2.6s-25.8-7-20,10.3
				s43.6,53.4,55.8,64.7c0,0,35.8,32.3,49.3,49s18.5,26,30.8,27.3s29,8,98.2,5.8c69.3-2.3,64.1-1.8,102.1-5.1
				c38-3.3,62.3-2.7,111.7-4c18.2-0.5,39.2-2.3,61.5-5.2c38.2-4.9,80.3-12.8,118.5-22c60.5-14.5,84.5-18.5,128-32.5
				s130-38.5,161.5-63.5S2848,1665,2876,1629s78-109.5,109.5-147.5s48-44,90-95.5s63.5-87.5,101-127s72.5-73.5,102.5-102.5
				s44-38.7,50.7-47.5c6.7-8.8,10.5-13.8,21.3-19.3c10.8-5.5,22.8-9.7,22.8-9.7s17.3-6.2,35.3-20.7s-6.5-35.3,0-50.8s23-23,42-42.5
				s86.5-58,97.5-67.5s23.5,0,34-5.5s23.5-19,19-30.5s-12.5-8.3-13-19.5s-0.3-17.3,8-23.8s20.8-21.3,30.8-19s19.3,6.3,21.8,19.5
				s-2.5,17.3,7.5,19.3s20-5.3,28.5,0.5s8.3,19.3,18.3,7.8s23-30.5,33.8-45c2.2-3,3.8-5.7,5.2-8.1c5.1-9.2,5.9-13.5,19.8-8.9
				c17.5,5.8,39.3,9.8,71.3-4.5s45-23.8,51-33.3s13.8-27.5,21.8-51.5s21.5-54.5,27-62.5s2.6-11.6-3.9-15.8
				C3927,616.4,3924.7,615.4,3922.7,614.2z"/>
			<path class="st1" d="M3591,1428.5c9.9,29.3,10.6,39.7,13.6,48.4c-7.6,2.4-10.1,2.6-22.6-25.9s-8.5-31.5-23-64.5
				s-10.5-14-38.5-22.5s-22,6.5-35.5,17s-36.5,23-68.5,34s-26,14-54,35.5s-42,17-65,36.5s-16.5,12.5-45,25.4
				c-28.5,12.9-46.8,17.9-63.5,27.3c-16.7,9.3-14,12.7-32,37.3c-18,24.7-26,38-32,61.3c-6,23.3-2.7,10-6.7,32s-9.3,8-30,15.4
				c-20.7,7.4-24,16.6-42,39.3c-18,22.7-16,23.3-38,46c-22,22.7-57.8,73-67.3,80s-47.5,23.5-61,33s-37.5,57-38,61.5s-12,41-8.5,49.5
				s1.5,14-3,22.5s-9.5,7-25,7s-19.5,2-36,15.2c-16.5,13.2-12,18.8-26.5,42.8s-73.5,60-88.5,64s-50.5,0-64.5,0s-67.5,13.5-67.5,13.5
				s-76.8,12.1-104.8,27.6s-5,6.5-37.5,22.5s-44.5,4.5-59.5,27s-17,7.5-21,42.5s-1.5,50.5,4.5,73.5s11,26.5,5,49s-10,18-31.5,32.5
				s-49,15-55.5,35s-4.5,8.5,2.5,45.5s21.5,21.5,17.5,64.5s-37,29,6,81s51,55,59,79s12,30-4,36s-36-7-18,26s-2,45,37,74s40,47,50,18
				s25-30,10-59s-30-28-27-59s-35-52,0-71s16-5,57,18s47,7,59,49s1,65,4,90s7,40,30,32s15.3-62,44.7-38c29.3,24,42.3,36,14.3,62
				s-24,76-3,77c9.4,0.4,18.3,5.8,22.9,11.7c4.6,5.9,4.9,12.4-2.6,15.1c-1.7,0.6-3.7,1-6.2,1.2c-25,2-50-16-41,7s-1-2,31,39
				s33,55,16,61s-51,16-67-5s-29-42-46-36s-30,11-3,31s25,31,37,39s18.3,5,47.7,12c29.3,7,21.3-19,33.3,13s51,13.8,70,56.4h-103.3
				c-5.7-11.3-3.7-5.1-11.7-17.7c-8-12.7-9-6.3-52.3-11.3c-43.3-5-38.7-26.3-47.7-44.3s0-19.3-5.3-34.7c-5.3-15.3-15.7,0.3-19.7,11
				c-4,10.7-5.7,14-21,14c-15.3,0-14-9.7-26-31c-12-21.3-8-24.3,1.7-23c9.7,1.3,11.3,0.7,11-6c-0.3-6.7-6.7-8-26-38
				c-19.3-30-19.3-27.3-24.7-53.3c-5.3-26,14.7-12,28.7-32.7c14-20.7,9.3-17.3-28.7-23.3s-27.3-2.7-37.3-25.3
				c-10-22.7,0.7-19.3-3.3-34c-4-14.7-17.3,4.7-39.3,5.3s-10.7-10-26-36c-15.3-26,3.3-16.7,19.3-26.7s19.3-18.7,15.3-34
				c-4-15.3-7.3-8.7-18-25.3c-10.7-16.7,1.3-26.7-10-32.7c-11.3-6-20,5.3-50,0.7s-14-17.3-9.3-40.7c4.7-23.3,10-18.7,2.7-32.7
				c-7.3-14-6.7-13.3-4.7-25.3s-5.3-29.3-16.7-43.3c-11.3-14-4.7-18.7,12.7-29.3c17.3-10.7,14.7-14.7,13.3-30
				c-1.3-15.3-7.3-46.7-6.7-62c0.7-15.3,13.3-19.3,26.7-29.3c13.3-10,19.3-12.7,24.7-26c5.3-13.3,6-20,17.3-28.7
				c11.3-8.7,30-6,34-22s-4-24.7-13.3-43.3c-9.3-18.7-29.3-5.3-31.3,7.2c-2,12.5-14.7,13.5-27.3,3.5c-12.7-10-9.3,17.3-13.3,46
				s-4.7,19.3-17.3,24c-12.7,4.7-20,1.3-26,22.7c-6,21.3,5.3,24.7,0.7,34c-4.7,9.3-8.7,21.3-2.7,30.7c6,9.3,8.7,22.7,8,43.3
				c-0.7,20.7-6.7,21.3-24,26.7c-17.3,5.3-6,16-5.3,32.7c0.7,16.7,15.3,24,24,43.3c8.7,19.3-8,29.3-20.7,29.3
				c-12.7,0-14-29.3-27.3-55.3c-13.3-26-12.7-82-12.7-110.7c0-28.7,4.7-18.7,16.7-34.7s7.3-13.3-7.3-16.7c-14.7-3.3-4.7-8-3.3-36.7
				c1.3-28.7,6.7-22,16-31.3c9.3-9.3,12-23.3,10-38c-2-14.7-0.7-19.3-20.7,0c-20,19.3-36,19.3-65.3,24.7
				c-29.3,5.3-123.3,69.3-150.7,87.3c-27.3,18-10,30.7-45.3,31.3c-35.3,0.7-20.7,6.7-78,55.3c-57.3,48.7-47.3,45.3-92,60
				c-44.7,14.7-34,0-60,32s-13.3,27.3-38,42c-24.7,14.7-28,12.7-40,28.7s-56,81.3-66,113.3s-17.5,19.5-37.5,53s-54.8,95-98.5,123.7
				c-43.7,28.7-119.3,126-125.3,140.3s-11,33.3-30,55s-33.7,44.4-33.7,44.4h-37.5c6.5-88.6,27-73.9,37.5-115.9s17-70.5,31.7-104.5
				c14.7-34,21.3-27.3,41.3-39.3s61.3-28.7,83.3-48c22-19.3,22-35.3,38-64.7s11.3-60.7,19.3-116.7c7-48.8,3.8-85.9,3.8-119.3
				c0.1,0.6,3.1,17.8,14.9,4c12-14,30.5-68,31.9-76.7c1.4-8.7,6.4-37.3,6.1-51c0-0.7,0-1.5,0-2.3c0.8,0,43.8,1.8,57.2-24
				c13.5-26,12.5-19.5,44.5-33s56-57,73.5-93c16.2-33.4,35.5-115,63.2-150.3c2.1-2.4,4.3-4.8,6.6-7.3c0,0,0,0,0.1-0.1
				c22.3-23.9,56.4-52.9,93.2-69.8c44.5-20.5,20.5-12,61-21s68.5,3.9,82-31.1c20.1,0.3,33.3,0.5,33.3,0.5s37-3.8,84.3-6.8
				c47.3-3,26.3,1.7,81.3,2.3c55,0.7,66.3-0.5,122.8,0s73.5,5,150,13.5s92,17,130.5,30s42,9,82,12s51.5-12.5,88.5-28
				s48.5-23.8,64.5-48.2c16-24.3,7.3-16.3,26.7-46c19.3-29.7,10-6.7,31.3-22.7c21.3-16,45.3-56,59.3-83s18.7-16.3,55-39.3
				c36.3-23,21.3-16,42.7-36c21.3-20,54.5-67.3,64-94.8s12.5-21,34.5-39.5s20.5-24,34-50s93-102,111-116.5
				c4.3-3.4,8.8-7.8,13.3-12.9c0.1,0.2,3.9,6,19.2-4.3c7.1-4.8,14.9-14.6,23.5-25.4c0,0,17.8-1.1,25-9.2s39.5-30.1,58.8-39.1
				s21.8-12,43.8-18.5s51.7-17.7,88-41c22.7-14.6,32.8-18.9,40.7-24.3l0.1,0c0,0,6.6,3.3,22.9,0c16.3-3.4,10.7-10,23.7-2
				S3574,1378,3591,1428.5z"/>
			<path class="st1" d="M1291.1,2745.1c0.5,38-16,22-15,44s9.5,17,10,35.5s22,38.5-3.5,39.5s9.5-16-43.5,3s-47,20-54,30.2
				c-7,10.2-21.7,10.2-26.5,6.3c-21.2-16.9-40-39.5-37-66c1.2-10.6,1.1-36.3,0.1-65.3c0,0,4.4,24.3,11.4,20c7-4.3,19.7-31,24-46
				c4.3-15,12.3-13,25-17.7c12.7-4.7,6.7-35.7,32-58.7c25.3-23,41.3-47,51.7-50c10.3-3,20.5-8.2,20.3,10.7v0c-0.3,7-0.3,15.2,0,25
				C1287.6,2698.1,1290.6,2707.1,1291.1,2745.1z"/>
			<path class="st1" d="M1263.1,2880.4c3,10.3,12,16.8-2.5,23.8s-29.7,14.3-41.3,15.3c-11.7,1-19.7-1.1-21.2-3.2
				c-3.9-5.3-10.8-3.7-0.7-13.7c10.2-10,28.5-22.7,43.2-23.7C1255.3,2878.1,1260.1,2870.1,1263.1,2880.4z"/>
			<path class="st1" d="M1238.8,2389.3c-16.5,16.7-32.4,65.7-50.3,86.3c-18,20.7-18,19.7-22,36.3c-4,16.7-11.3,35.7-18.7,50.7
				c-7.3,15-16.7,37.3-16,56.7c0.7,19.1-15.3,64.1-15.6,64.9c-1.1-10.6-2.2-19.4-3.4-25.3c-6.7-32.7-18.7-48.7-7.3-74.7
				c11.3-26,53.2-106.7,53.2-106.7S1197.9,2431.1,1238.8,2389.3z"/>
		</g>
	</g>
</g>
<g id="MAP_x5F_PB_x5F_1_x5F_River">
	<g id="XMLID_1_" class="st6">
		<g>
			<path class="st1" d="M1886.7,2076c-33.8-0.5-86.9-1.1-128-1.4c-65.5-0.5-93.5,6.5-120,20s-59.2,27-91.8,55
				c-32.7,28-24,45.3-51.3,49.3c-27.3,4-20.7-19.3-36.7,7.3c-16,26.7-24.7,14.7-20.7,60.7s4.7,79.3-1.3,94.7s-30.7,79.3-44.7,101.3
				s-28.7,34-34.7,67.3c-6,33.3-3.3,49.3-4.7,86.7c-0.2,4.8-0.2,9.7-0.2,14.7c0,0,0,0,0,0c0.1,33.4,3.2,70.6-3.8,119.3
				c-8,56-3.3,87.3-19.3,116.7s-16,45.3-38,64.7c-22,19.3-63.3,36-83.3,48s-26.7,5.3-41.3,39.3c-14.7,34-21.2,62.5-31.7,104.5
				s-31,27.3-37.5,115.9h-85.9c0,0,31.5-120.5,36-192.5c4.5-72,36-156,7.5-253.5c-15.4-52.8-27.8-81.4-32.3-107.5
				c-3.8-22.1-2-42.3,8.3-74c22.5-69,50.9-168.9,80.9-212.9s126-126,150-166s76-108,144-146s144-40,194-70s66-44,106-54
				s43.3-14.7,105.3-24c62-9.3,93.4-20,108.5-15.9c0,0,7,0,21,6.7c14,6.7,66,16,91.3,14c25.3-2,164-23.3,188-20.7
				c24,2.7,124.7-6.6,171.3,10.4c46.7,17,96.7,29,140,32.3c43.3,3.3,86.7,15.3,124-3.3c37.3-18.7,112.7-55.3,125.3-78
				c12.7-22.7,34.7-67.3,64.7-98c30-30.7,92.7-113.3,120-152c27.3-38.7,50.7-65.3,88-111.3c37.3-46,85.3-106.7,107.3-132
				c22-25.3,35.3-28.7,65.3-90c30-61.3,18-58,58-98.7c40-40.7,48.7-39.3,62-58c13.3-18.7,4-26.7,16.7-38.7
				c12.7-12,42.7-26.3,42.7-26.3s80-59.4,100-76.9s34-55,71.5-71s83.5-35.5,113-51s216-128.5,229-134.5s33-1,59-6s89-16,125-37
				c36-21,37-34,58-50s89-45,117-62s28-45,41-51s90-64,106-87.5c12.7-18.6,94.9-112,129.9-156.6c0.3-0.3,0.5-0.6,0.8-1
				c8.7-11.1,14.3-19.1,15-21.9c3.3-14,0-23.3,3.3-50.7c2.2-17.8,2.7-26.6,7-34.6c2.3-4.3,5.7-8.3,11-13.4
				c15.3-14.7,63.3-70.7,94-94.7c30.7-24,76.8-70.9,89.3-80.3h102.8c-10.4,11-21.5,23.3-33.5,35.5c-7,7-14.3,14-22,20.7
				c-21,18-40,43.5-44.5,65.5c-3,14.9-2.9,19.1-3.3,28.8c-0.2,4.6-0.5,10.4-1.4,19.2c-2.7,27.3-78.3,76-104.3,128
				c-7.5,14.9-24.5,35-45.1,56.6c-51.2,53.4-125,115.8-132.9,131.4c-11,22-50,77-78,112c-1.2,1.5-2.6,3.1-4.3,4.8
				c-12.6,12.8-38,30.4-68.2,49.2c-57.5,35.7-132.6,75.7-171.9,95.4c-34.7,17.4-140.8,76.2-242.2,131.4
				c-81.6,44.4-160.3,86.5-196.4,102.8c-81,36.5-180.4,98.9-180.4,98.9s-41.3,25.5-59.8,45.5s-17.5,9-48,46s-23,50.5-55.5,69
				s-35,10.5-50,31s-34.5,43-59,91.5s-19.5,53-37.5,84c-13.7,23.6-29.5,47.3-44.2,63.6c0,0,0,0,0,0c-4.6,5.1-9.1,9.5-13.3,12.9
				c-18,14.5-97.5,90.5-111,116.5s-12,31.5-34,50s-25,12-34.5,39.5s-42.7,74.8-64,94.8c-21.3,20-6.3,13-42.7,36
				c-36.3,23-41,12.3-55,39.3s-38,67-59.3,83c-21.3,16-12-7-31.3,22.7c-19.3,29.7-10.7,21.7-26.7,46c-16,24.3-27.5,32.7-64.5,48.2
				s-48.5,31-88.5,28s-43.5,1-82-12s-54-21.5-130.5-30s-93.5-13-150-13.5s-67.8,0.7-122.8,0c-55-0.7-34-5.3-81.3-2.3
				c-47.3,3-84.3,6.8-84.3,6.8S1906.7,2076.3,1886.7,2076z M2658.2,2072.8c5.8-7.3,0.8-11.8-2.5-17.8s-12-4.8-34.3-2s-16.5,1-58,5.8
				s-21.5,0.3-54.3,0s-37.5-1.5-53.8-6.3c-16.3-4.7-62-10.2-62-10.2s-11.3-2-20-2.5s-7.3,3-11,7c-3.8,4,4.5,5.7,15.3,10.2
				s23,12,41.8,18.3s35,8.8,63,24.5s25.5,7.3,65.5,12.3s67.8-13.3,83.8-21S2652.5,2080,2658.2,2072.8z M1398.8,2303.6
				c2-34.7-1.3-32.7-8.7-29.3c-7.3,3.3-39.3,26.7-87.3,58c-17.3,11.3-40.8,33.3-63.9,56.8c-0.1,0.1-0.1,0.1-0.2,0.2
				c-40.9,41.8-80.1,88.3-80.1,88.3s-41.8,80.7-53.2,106.7c-11.3,26,0.7,42,7.3,74.7c1.2,5.9,2.4,14.7,3.4,25.3c0,0,0,0,0,0
				c2.5,24.3,4.4,58,5.5,88c1,29,1.1,54.7-0.1,65.3c-3,26.5,15.8,49.1,37,66c4.8,3.9,19.5,3.8,26.5-6.3c7-10.2,1-11.2,54-30.2
				s18-2,43.5-3s4-21,3.5-39.5s-9-13.5-10-35.5s15.5-6,15-44s-3.5-47-5-89.5c-0.3-9.8-0.3-18,0-25v0c1-23.4,5.2-33.1,9.3-42.4
				c5.3-12,14-39.3,23.3-76.7c9.3-37.3,21.3-68.7,34.7-98C1366.8,2384.3,1396.8,2338.3,1398.8,2303.6z M1260.6,2904.3
				c14.5-7,5.5-13.5,2.5-23.8c-3-10.3-7.8-2.3-22.5-1.3c-14.7,1-33,13.7-43.2,23.7c-10.2,10-3.2,8.4,0.7,13.7
				c1.5,2,9.5,4.2,21.2,3.2C1231,2918.6,1246.1,2911.3,1260.6,2904.3z"/>
		</g>
	</g>
</g>
</svg>
